<svg width="512" height="512" version="1.1" xmlns="http://www.w3.org/2000/svg" desc="Created with imagetracer.js version 1.2.6" ><path fill="rgb(184,187,18)" stroke="rgb(184,187,18)" stroke-width="1" opacity="0.4549019607843137" d="M 161.5 0 L 166 0.5 L 158.5 2 L 158.5 1 L 161.5 0 Z " /><path fill="rgb(184,187,18)" stroke="rgb(184,187,18)" stroke-width="1" opacity="0.4549019607843137" d="M 176.5 0 L 180 0.5 L 176.5 1 L 176.5 0 Z " /><path fill="rgb(184,187,18)" stroke="rgb(184,187,18)" stroke-width="1" opacity="0.4549019607843137" d="M 332.5 0 L 337 0.5 L 332.5 1 L 332.5 0 Z " /><path fill="rgb(184,187,18)" stroke="rgb(184,187,18)" stroke-width="1" opacity="0.4549019607843137" d="M 346.5 0 L 354 1.5 L 351.5 2 L 346.5 1 L 346.5 0 Z " /><path fill="rgb(184,187,18)" stroke="rgb(184,187,18)" stroke-width="1" opacity="0.4549019607843137" d="M 181.5 1 Q 195.3 4.2 203 13.5 Q 208.5 19 211 27.5 L 210 27.5 Q 206 14.5 195.5 8 Q 190.4 3.1 181.5 2 L 181.5 1 Z " /><path fill="rgb(184,187,18)" stroke="rgb(184,187,18)" stroke-width="1" opacity="0.4549019607843137" d="M 328.5 1 L 331 1.5 Q 315 5.5 307 17.5 L 301.5 28 L 301 26.5 Q 304.9 16.4 312.5 10 L 328.5 1 Z " /><path fill="rgb(184,187,18)" stroke="rgb(184,187,18)" stroke-width="1" opacity="0.4549019607843137" d="M 155.5 2 L 157 2.5 L 153.5 4 L 153.5 3 L 155.5 2 Z " /><path fill="rgb(184,187,18)" stroke="rgb(184,187,18)" stroke-width="1" opacity="0.4549019607843137" d="M 355.5 2 L 359 3.5 L 357.5 4 L 355.5 2 Z " /><path fill="rgb(184,187,18)" stroke="rgb(184,187,18)" stroke-width="1" opacity="0.4549019607843137" d="M 149.5 5 L 148.5 7 Q 106.6 27.6 78 61.5 Q 57.3 84.8 43.5 115 L 43 113.5 Q 62.6 73.1 93.5 44 Q 117.7 20.7 149.5 5 Z " /><path fill="rgb(184,187,18)" stroke="rgb(184,187,18)" stroke-width="1" opacity="0.4549019607843137" d="M 362.5 5 L 365 6.5 L 363.5 7 L 362.5 5 Z " /><path fill="rgb(184,187,18)" stroke="rgb(184,187,18)" stroke-width="1" opacity="0.4549019607843137" d="M 366.5 7 L 374 11.5 L 372.5 11 Q 366.9 10.2 366.5 7 Z " /><path fill="rgb(184,187,18)" stroke="rgb(184,187,18)" stroke-width="1" opacity="0.4549019607843137" d="M 375.5 12 L 379 14.5 L 377.5 14 L 375.5 12 Z " /><path fill="rgb(184,187,18)" stroke="rgb(184,187,18)" stroke-width="1" opacity="0.4549019607843137" d="M 380.5 15 Q 407.3 31.2 428 53.5 Q 452.9 79.6 469 114.5 L 468 114.5 Q 446.4 68.1 409.5 37 L 381.5 17 L 380.5 15 Z " /><path fill="rgb(184,187,18)" stroke="rgb(184,187,18)" stroke-width="1" opacity="0.4549019607843137" d="M 212.5 32 L 213 35.5 L 212 35.5 L 212.5 32 Z " /><path fill="rgb(184,187,18)" stroke="rgb(184,187,18)" stroke-width="1" opacity="0.4549019607843137" d="M 299.5 32 L 300 35.5 L 299 35.5 L 299.5 32 Z " /><path fill="rgb(184,187,18)" stroke="rgb(184,187,18)" stroke-width="1" opacity="0.4549019607843137" d="M 213.5 37 L 214 175.5 L 213 175.5 L 213.5 37 Z " /><path fill="rgb(184,187,18)" stroke="rgb(184,187,18)" stroke-width="1" opacity="0.4549019607843137" d="M 298.5 37 L 299 175.5 L 298 175.5 L 298.5 37 Z " /><path fill="rgb(184,187,18)" stroke="rgb(184,187,18)" stroke-width="1" opacity="0.4549019607843137" d="M 169.5 43 L 171 43.5 L 171 177.5 L 170 177.5 L 169.5 44 Q 133.5 62 109 91.5 Q 91 112.5 79.5 140 L 79 138.5 Q 95.6 101.1 123.5 75 Q 143.3 55.8 169.5 43 Z " /><path fill="rgb(184,187,18)" stroke="rgb(184,187,18)" stroke-width="1" opacity="0.4549019607843137" d="M 340 43 L 350.5 47 L 363.5 55 Q 381.4 67.1 396 82.5 Q 411.1 97.9 422 117.5 L 420 116.5 Q 404.5 88.5 380.5 69 Q 363.2 53.6 341 44 L 340.5 49 L 340 43 Z " /><path fill="rgb(184,187,18)" stroke="rgb(184,187,18)" stroke-width="1" opacity="0.4549019607843137" d="M 341.5 105 L 342 177.5 L 341 177.5 L 341.5 105 Z " /><path fill="rgb(184,187,18)" stroke="rgb(184,187,18)" stroke-width="1" opacity="0.4549019607843137" d="M 469.5 116 L 473 123.5 L 472 123.5 L 469.5 116 Z " /><path fill="rgb(184,187,18)" stroke="rgb(184,187,18)" stroke-width="1" opacity="0.4549019607843137" d="M 41.5 118 L 42 119.5 L 39.5 124 L 39 122.5 L 41.5 118 Z " /><path fill="rgb(184,187,18)" stroke="rgb(184,187,18)" stroke-width="1" opacity="0.4549019607843137" d="M 422.5 119 L 433 139.5 L 432 139.5 L 422.5 119 Z " /><path fill="rgb(184,187,18)" stroke="rgb(184,187,18)" stroke-width="1" opacity="0.4549019607843137" d="M 38.5 125 L 39 126.5 L 37.5 129 L 37 127.5 L 38.5 125 Z " /><path fill="rgb(184,187,18)" stroke="rgb(184,187,18)" stroke-width="1" opacity="0.4549019607843137" d="M 473.5 125 L 475 128.5 L 474 128.5 L 473.5 125 Z " /><path fill="rgb(184,187,18)" stroke="rgb(184,187,18)" stroke-width="1" opacity="0.4549019607843137" d="M 36.5 130 L 37 131.5 L 33.5 140 L 33 138.5 L 36.5 130 Z " /><path fill="rgb(184,187,18)" stroke="rgb(184,187,18)" stroke-width="1" opacity="0.4549019607843137" d="M 475.5 130 L 479 139.5 L 478 139.5 L 475.5 130 Z " /><path fill="rgb(184,187,18)" stroke="rgb(184,187,18)" stroke-width="1" opacity="0.4549019607843137" d="M 32.5 141 L 33 143.5 L 30.5 150 L 30 147.5 L 32.5 141 Z " /><path fill="rgb(184,187,18)" stroke="rgb(184,187,18)" stroke-width="1" opacity="0.4549019607843137" d="M 78.5 141 L 79 142.5 L 77.5 145 L 77 143.5 L 78.5 141 Z " /><path fill="rgb(184,187,18)" stroke="rgb(184,187,18)" stroke-width="1" opacity="0.4549019607843137" d="M 433.5 141 L 435 144.5 L 434 144.5 L 433.5 141 Z " /><path fill="rgb(184,187,18)" stroke="rgb(184,187,18)" stroke-width="1" opacity="0.4549019607843137" d="M 479.5 141 L 482 149.5 L 481 149.5 L 479.5 141 Z " /><path fill="rgb(184,187,18)" stroke="rgb(184,187,18)" stroke-width="1" opacity="0.4549019607843137" d="M 76.5 146 L 77 147.5 L 72.5 160 L 72 157.5 L 76.5 146 Z " /><path fill="rgb(184,187,18)" stroke="rgb(184,187,18)" stroke-width="1" opacity="0.4549019607843137" d="M 435.5 146 L 441 162.5 L 440 162.5 L 435.5 146 Z " /><path fill="rgb(184,187,18)" stroke="rgb(184,187,18)" stroke-width="1" opacity="0.4549019607843137" d="M 29.5 151 L 30 153.5 L 29 153.5 L 29.5 151 Z " /><path fill="rgb(184,187,18)" stroke="rgb(184,187,18)" stroke-width="1" opacity="0.4549019607843137" d="M 482.5 151 L 483 153.5 L 482 153.5 L 482.5 151 Z " /><path fill="rgb(184,187,18)" stroke="rgb(184,187,18)" stroke-width="1" opacity="0.4549019607843137" d="M 28.5 155 L 29 157.5 L 28 157.5 L 28.5 155 Z " /><path fill="rgb(184,187,18)" stroke="rgb(184,187,18)" stroke-width="1" opacity="0.4549019607843137" d="M 483.5 155 L 485 161.5 L 484 161.5 L 483.5 155 Z " /><path fill="rgb(184,187,18)" stroke="rgb(184,187,18)" stroke-width="1" opacity="0.4549019607843137" d="M 27.5 159 L 28 161.5 L 27 161.5 L 27.5 159 Z " /><path fill="rgb(184,187,18)" stroke="rgb(184,187,18)" stroke-width="1" opacity="0.4549019607843137" d="M 71.5 161 L 72 163.5 L 70.5 167 L 70 164.5 L 71.5 161 Z " /><path fill="rgb(184,187,18)" stroke="rgb(184,187,18)" stroke-width="1" opacity="0.4549019607843137" d="M 26.5 163 L 27 166.5 L 26 166.5 L 26.5 163 Z " /><path fill="rgb(184,187,18)" stroke="rgb(184,187,18)" stroke-width="1" opacity="0.4549019607843137" d="M 485.5 163 L 486 165.5 L 485 165.5 L 485.5 163 Z " /><path fill="rgb(184,187,18)" stroke="rgb(184,187,18)" stroke-width="1" opacity="0.4549019607843137" d="M 441.5 164 L 442 166.5 L 441 166.5 L 441.5 164 Z " /><path fill="rgb(184,187,18)" stroke="rgb(184,187,18)" stroke-width="1" opacity="0.4549019607843137" d="M 25.5 168 L 26 171.5 L 25 171.5 L 25.5 168 Z " /><path fill="rgb(184,187,18)" stroke="rgb(184,187,18)" stroke-width="1" opacity="0.4549019607843137" d="M 69.5 168 L 70 170.5 L 69 170.5 L 69.5 168 Z " /><path fill="rgb(184,187,18)" stroke="rgb(184,187,18)" stroke-width="1" opacity="0.4549019607843137" d="M 442.5 168 L 443 170.5 L 442 170.5 L 442.5 168 Z " /><path fill="rgb(184,187,18)" stroke="rgb(184,187,18)" stroke-width="1" opacity="0.4549019607843137" d="M 486.5 168 L 487 171.5 L 486 171.5 L 486.5 168 Z " /><path fill="rgb(184,187,18)" stroke="rgb(184,187,18)" stroke-width="1" opacity="0.4549019607843137" d="M 68.5 172 L 69 175.5 L 68 175.5 L 68.5 172 Z " /><path fill="rgb(184,187,18)" stroke="rgb(184,187,18)" stroke-width="1" opacity="0.4549019607843137" d="M 443.5 172 L 444 175.5 L 443 175.5 L 443.5 172 Z " /><path fill="rgb(184,187,18)" stroke="rgb(184,187,18)" stroke-width="1" opacity="0.4549019607843137" d="M 24.5 173 L 25 177.5 L 24 177.5 L 24.5 173 Z " /><path fill="rgb(184,187,18)" stroke="rgb(184,187,18)" stroke-width="1" opacity="0.4549019607843137" d="M 487.5 173 L 488 176.5 L 487 176.5 L 487.5 173 Z " /><path fill="rgb(184,187,18)" stroke="rgb(184,187,18)" stroke-width="1" opacity="0.4549019607843137" d="M 67.5 177 L 68 180.5 L 67 180.5 L 67.5 177 Z " /><path fill="rgb(184,187,18)" stroke="rgb(184,187,18)" stroke-width="1" opacity="0.4549019607843137" d="M 444.5 177 L 445 180.5 L 444 180.5 L 444.5 177 Z " /><path fill="rgb(184,187,18)" stroke="rgb(184,187,18)" stroke-width="1" opacity="0.4549019607843137" d="M 214.5 178 L 215 180.5 L 214 180.5 L 214.5 178 Z " /><path fill="rgb(184,187,18)" stroke="rgb(184,187,18)" stroke-width="1" opacity="0.4549019607843137" d="M 297.5 178 L 298 180.5 L 297 180.5 L 297.5 178 Z " /><path fill="rgb(184,187,18)" stroke="rgb(184,187,18)" stroke-width="1" opacity="0.4549019607843137" d="M 23.5 179 L 24 184.5 L 23 184.5 L 23.5 179 Z " /><path fill="rgb(184,187,18)" stroke="rgb(184,187,18)" stroke-width="1" opacity="0.4549019607843137" d="M 488.5 179 L 489 183.5 L 488 183.5 L 488.5 179 Z " /><path fill="rgb(184,187,18)" stroke="rgb(184,187,18)" stroke-width="1" opacity="0.4549019607843137" d="M 171.5 181 L 172 185.5 L 171 185.5 L 171.5 181 Z " /><path fill="rgb(184,187,18)" stroke="rgb(184,187,18)" stroke-width="1" opacity="0.4549019607843137" d="M 340.5 181 L 341 185.5 L 340 185.5 L 340.5 181 Z " /><path fill="rgb(184,187,18)" stroke="rgb(184,187,18)" stroke-width="1" opacity="0.4549019607843137" d="M 66.5 182 L 67 186.5 L 66 186.5 L 66.5 182 Z " /><path fill="rgb(184,187,18)" stroke="rgb(184,187,18)" stroke-width="1" opacity="0.4549019607843137" d="M 215.5 182 L 217 186.5 L 216 186.5 L 215.5 182 Z " /><path fill="rgb(184,187,18)" stroke="rgb(184,187,18)" stroke-width="1" opacity="0.4549019607843137" d="M 296.5 182 L 297 184.5 L 294.5 189 L 294 187.5 L 296.5 182 Z " /><path fill="rgb(184,187,18)" stroke="rgb(184,187,18)" stroke-width="1" opacity="0.4549019607843137" d="M 445.5 182 L 446 186.5 L 445 186.5 L 445.5 182 Z " /><path fill="rgb(184,187,18)" stroke="rgb(184,187,18)" stroke-width="1" opacity="0.4549019607843137" d="M 489.5 186 L 490 193.5 L 489 193.5 L 489.5 186 Z " /><path fill="rgb(184,187,18)" stroke="rgb(184,187,18)" stroke-width="1" opacity="0.4549019607843137" d="M 22.5 187 L 23 193.5 L 22 193.5 L 22.5 187 Z " /><path fill="rgb(184,187,18)" stroke="rgb(184,187,18)" stroke-width="1" opacity="0.4549019607843137" d="M 172.5 187 L 173 190.5 L 172 190.5 L 172.5 187 Z " /><path fill="rgb(184,187,18)" stroke="rgb(184,187,18)" stroke-width="1" opacity="0.4549019607843137" d="M 339.5 187 L 340 190.5 L 339 190.5 L 339.5 187 Z " /><path fill="rgb(184,187,18)" stroke="rgb(184,187,18)" stroke-width="1" opacity="0.4549019607843137" d="M 65.5 189 L 66 194.5 L 65 194.5 L 65.5 189 Z " /><path fill="rgb(184,187,18)" stroke="rgb(184,187,18)" stroke-width="1" opacity="0.4549019607843137" d="M 446.5 189 L 447 194.5 L 446 194.5 L 446.5 189 Z " /><path fill="rgb(184,187,18)" stroke="rgb(184,187,18)" stroke-width="1" opacity="0.4549019607843137" d="M 218.5 190 L 226 201 L 234.5 207 L 246 211.5 L 243.5 212 Q 230.8 207.7 223 198.5 L 218.5 190 Z " /><path fill="rgb(184,187,18)" stroke="rgb(184,187,18)" stroke-width="1" opacity="0.4549019607843137" d="M 293.5 190 L 293 191.5 L 284.5 203 Q 277.5 209.5 266.5 212 L 266.5 211 L 277.5 207 L 286 201 L 293.5 190 Z " /><path fill="rgb(184,187,18)" stroke="rgb(184,187,18)" stroke-width="1" opacity="0.4549019607843137" d="M 173.5 192 L 177 202.5 L 176 202.5 L 173 194.5 L 173.5 192 Z " /><path fill="rgb(184,187,18)" stroke="rgb(184,187,18)" stroke-width="1" opacity="0.4549019607843137" d="M 338.5 192 L 339 194.5 L 335.5 203 L 335 201.5 L 338.5 192 Z " /><path fill="rgb(184,187,18)" stroke="rgb(184,187,18)" stroke-width="1" opacity="0.4549019607843137" d="M 21.5 197 L 22 232.5 L 21 232.5 L 21.5 197 Z " /><path fill="rgb(184,187,18)" stroke="rgb(184,187,18)" stroke-width="1" opacity="0.4549019607843137" d="M 490.5 197 L 491 231.5 L 490 231.5 L 490.5 197 Z " /><path fill="rgb(184,187,18)" stroke="rgb(184,187,18)" stroke-width="1" opacity="0.4549019607843137" d="M 64.5 198 L 65 231.5 L 64 231.5 L 64.5 198 Z " /><path fill="rgb(184,187,18)" stroke="rgb(184,187,18)" stroke-width="1" opacity="0.4549019607843137" d="M 447.5 198 L 448 231.5 L 447 231.5 L 447.5 198 Z " /><path fill="rgb(184,187,18)" stroke="rgb(184,187,18)" stroke-width="1" opacity="0.4549019607843137" d="M 177.5 204 L 182 213.5 L 196 232 L 215 245.5 L 213.5 245 Q 200.8 238.7 192 228.5 L 181 213.5 L 177 205.5 L 177.5 204 Z " /><path fill="rgb(184,187,18)" stroke="rgb(184,187,18)" stroke-width="1" opacity="0.4549019607843137" d="M 334.5 204 L 335 205.5 L 330.5 213 L 331 211.5 L 334.5 204 Z " /><path fill="rgb(184,187,18)" stroke="rgb(184,187,18)" stroke-width="1" opacity="0.4549019607843137" d="M 247.5 212 L 251 212.5 L 247.5 213 L 247.5 212 Z " /><path fill="rgb(184,187,18)" stroke="rgb(184,187,18)" stroke-width="1" opacity="0.4549019607843137" d="M 261.5 212 L 265 212.5 L 261.5 213 L 261.5 212 Z " /><path fill="rgb(184,187,18)" stroke="rgb(184,187,18)" stroke-width="1" opacity="0.4549019607843137" d="M 329.5 214 L 329 215.5 Q 323.3 227.3 313.5 235 L 297.5 246 L 298.5 244 L 304.5 241 L 317 231 L 329.5 214 Z " /><path fill="rgb(184,187,18)" stroke="rgb(184,187,18)" stroke-width="1" opacity="0.4549019607843137" d="M 446.5 234 L 447 240.5 L 446 240.5 L 446.5 234 Z " /><path fill="rgb(184,187,18)" stroke="rgb(184,187,18)" stroke-width="1" opacity="0.4549019607843137" d="M 65.5 235 L 66 240.5 L 65 240.5 L 65.5 235 Z " /><path fill="rgb(184,187,18)" stroke="rgb(184,187,18)" stroke-width="1" opacity="0.4549019607843137" d="M 489.5 235 L 490 242.5 L 489 242.5 L 489.5 235 Z " /><path fill="rgb(184,187,18)" stroke="rgb(184,187,18)" stroke-width="1" opacity="0.4549019607843137" d="M 22.5 236 L 23 242.5 L 22 242.5 L 22.5 236 Z " /><path fill="rgb(184,187,18)" stroke="rgb(184,187,18)" stroke-width="1" opacity="0.4549019607843137" d="M 66.5 242 L 67 246.5 L 66 246.5 L 66.5 242 Z " /><path fill="rgb(184,187,18)" stroke="rgb(184,187,18)" stroke-width="1" opacity="0.4549019607843137" d="M 445.5 242 L 446 246.5 L 445 246.5 L 445.5 242 Z " /><path fill="rgb(184,187,18)" stroke="rgb(184,187,18)" stroke-width="1" opacity="0.4549019607843137" d="M 23.5 245 L 24 250.5 L 23 250.5 L 23.5 245 Z " /><path fill="rgb(184,187,18)" stroke="rgb(184,187,18)" stroke-width="1" opacity="0.4549019607843137" d="M 488.5 245 L 489 249.5 L 488 249.5 L 488.5 245 Z " /><path fill="rgb(184,187,18)" stroke="rgb(184,187,18)" stroke-width="1" opacity="0.4549019607843137" d="M 220.5 248 L 226 250.5 L 224.5 251 L 220.5 249 L 220.5 248 Z " /><path fill="rgb(184,187,18)" stroke="rgb(184,187,18)" stroke-width="1" opacity="0.4549019607843137" d="M 290.5 248 L 292 248.5 L 286.5 251 L 286.5 250 L 290.5 248 Z " /><path fill="rgb(184,187,18)" stroke="rgb(184,187,18)" stroke-width="1" opacity="0.4549019607843137" d="M 67.5 249 L 68 252.5 L 67 252.5 L 67.5 249 Z " /><path fill="rgb(184,187,18)" stroke="rgb(184,187,18)" stroke-width="1" opacity="0.4549019607843137" d="M 444.5 249 L 445 252.5 L 444 252.5 L 444.5 249 Z " /><path fill="rgb(184,187,18)" stroke="rgb(184,187,18)" stroke-width="1" opacity="0.4549019607843137" d="M 24.5 252 L 25 256.5 L 24 256.5 L 24.5 252 Z " /><path fill="rgb(184,187,18)" stroke="rgb(184,187,18)" stroke-width="1" opacity="0.4549019607843137" d="M 230.5 252 L 241 254.5 L 237.5 255 L 230.5 253 L 230.5 252 Z " /><path fill="rgb(184,187,18)" stroke="rgb(184,187,18)" stroke-width="1" opacity="0.4549019607843137" d="M 279.5 252 L 282 252.5 L 271.5 255 L 271.5 254 L 279.5 252 Z " /><path fill="rgb(184,187,18)" stroke="rgb(184,187,18)" stroke-width="1" opacity="0.4549019607843137" d="M 487.5 252 L 488 256.5 L 487 256.5 L 487.5 252 Z " /><path fill="rgb(184,187,18)" stroke="rgb(184,187,18)" stroke-width="1" opacity="0.4549019607843137" d="M 68.5 254 L 69 256.5 L 68 256.5 L 68.5 254 Z " /><path fill="rgb(184,187,18)" stroke="rgb(184,187,18)" stroke-width="1" opacity="0.4549019607843137" d="M 443.5 254 L 444 256.5 L 443 256.5 L 443.5 254 Z " /><path fill="rgb(184,187,18)" stroke="rgb(184,187,18)" stroke-width="1" opacity="0.4549019607843137" d="M 243.5 255 L 250 255.5 L 243.5 256 L 243.5 255 Z " /><path fill="rgb(184,187,18)" stroke="rgb(184,187,18)" stroke-width="1" opacity="0.4549019607843137" d="M 262.5 255 L 269 255.5 L 262.5 256 L 262.5 255 Z " /><path fill="rgb(184,187,18)" stroke="rgb(184,187,18)" stroke-width="1" opacity="0.4549019607843137" d="M 25.5 258 L 26 261.5 L 25 261.5 L 25.5 258 Z " /><path fill="rgb(184,187,18)" stroke="rgb(184,187,18)" stroke-width="1" opacity="0.4549019607843137" d="M 69.5 258 L 72 268.5 L 71 268.5 L 69.5 258 Z " /><path fill="rgb(184,187,18)" stroke="rgb(184,187,18)" stroke-width="1" opacity="0.4549019607843137" d="M 442.5 258 L 443 261.5 L 441.5 265 L 441 262.5 L 442.5 258 Z " /><path fill="rgb(184,187,18)" stroke="rgb(184,187,18)" stroke-width="1" opacity="0.4549019607843137" d="M 486.5 258 L 487 261.5 L 486 261.5 L 486.5 258 Z " /><path fill="rgb(184,187,18)" stroke="rgb(184,187,18)" stroke-width="1" opacity="0.4549019607843137" d="M 26.5 263 L 27 266.5 L 26 266.5 L 26.5 263 Z " /><path fill="rgb(184,187,18)" stroke="rgb(184,187,18)" stroke-width="1" opacity="0.4549019607843137" d="M 485.5 263 L 486 266.5 L 484.5 271 L 484 267.5 L 485.5 263 Z " /><path fill="rgb(184,187,18)" stroke="rgb(184,187,18)" stroke-width="1" opacity="0.4549019607843137" d="M 440.5 266 L 441 268.5 L 440 268.5 L 440.5 266 Z " /><path fill="rgb(184,187,18)" stroke="rgb(184,187,18)" stroke-width="1" opacity="0.4549019607843137" d="M 27.5 268 L 28 270.5 L 27 270.5 L 27.5 268 Z " /><path fill="rgb(184,187,18)" stroke="rgb(184,187,18)" stroke-width="1" opacity="0.4549019607843137" d="M 28.5 272 L 29 274.5 L 28 274.5 L 28.5 272 Z " /><path fill="rgb(184,187,18)" stroke="rgb(184,187,18)" stroke-width="1" opacity="0.4549019607843137" d="M 483.5 272 L 484 274.5 L 481.5 282 L 481 279.5 L 483.5 272 Z " /><path fill="rgb(184,187,18)" stroke="rgb(184,187,18)" stroke-width="1" opacity="0.4549019607843137" d="M 29.5 276 L 31 281.5 L 30 281.5 L 29.5 276 Z " /><path fill="rgb(184,187,18)" stroke="rgb(184,187,18)" stroke-width="1" opacity="0.4549019607843137" d="M 76.5 282 L 78 285.5 L 77 285.5 L 76.5 282 Z " /><path fill="rgb(184,187,18)" stroke="rgb(184,187,18)" stroke-width="1" opacity="0.4549019607843137" d="M 435.5 282 L 436 283.5 L 434.5 286 L 434 284.5 L 435.5 282 Z " /><path fill="rgb(184,187,18)" stroke="rgb(184,187,18)" stroke-width="1" opacity="0.4549019607843137" d="M 31.5 283 L 36 296.5 L 35 296.5 L 31 285.5 L 31.5 283 Z " /><path fill="rgb(184,187,18)" stroke="rgb(184,187,18)" stroke-width="1" opacity="0.4549019607843137" d="M 479.5 286 L 480 288.5 L 478.5 291 L 478 289.5 L 479.5 286 Z " /><path fill="rgb(184,187,18)" stroke="rgb(184,187,18)" stroke-width="1" opacity="0.4549019607843137" d="M 78.5 287 L 81 292.5 L 80 292.5 L 78.5 287 Z " /><path fill="rgb(184,187,18)" stroke="rgb(184,187,18)" stroke-width="1" opacity="0.4549019607843137" d="M 433.5 287 L 434 288.5 L 431.5 293 L 431 291.5 L 433.5 287 Z " /><path fill="rgb(184,187,18)" stroke="rgb(184,187,18)" stroke-width="1" opacity="0.4549019607843137" d="M 81.5 294 L 92 313.5 L 90 312.5 L 81 295.5 L 81.5 294 Z " /><path fill="rgb(184,187,18)" stroke="rgb(184,187,18)" stroke-width="1" opacity="0.4549019607843137" d="M 430.5 294 L 431 295.5 L 424.5 307 L 425 305.5 L 430.5 294 Z " /><path fill="rgb(184,187,18)" stroke="rgb(184,187,18)" stroke-width="1" opacity="0.4549019607843137" d="M 476.5 295 L 477 296.5 L 474.5 302 L 474 300.5 L 476.5 295 Z " /><path fill="rgb(184,187,18)" stroke="rgb(184,187,18)" stroke-width="1" opacity="0.4549019607843137" d="M 36.5 298 L 38 301.5 L 37 301.5 L 36.5 298 Z " /><path fill="rgb(184,187,18)" stroke="rgb(184,187,18)" stroke-width="1" opacity="0.4549019607843137" d="M 38.5 303 L 40 306.5 L 39 306.5 L 38.5 303 Z " /><path fill="rgb(184,187,18)" stroke="rgb(184,187,18)" stroke-width="1" opacity="0.4549019607843137" d="M 473.5 303 L 474 304.5 L 460.5 331 L 461 329.5 L 473.5 303 Z " /><path fill="rgb(184,187,18)" stroke="rgb(184,187,18)" stroke-width="1" opacity="0.4549019607843137" d="M 40.5 308 Q 61.9 357.1 99.5 390 Q 118.2 406.8 141 419.5 L 139.5 419 Q 103.5 399.5 78 369.5 L 54 336.5 L 40 309.5 L 40.5 308 Z " /><path fill="rgb(184,187,18)" stroke="rgb(184,187,18)" stroke-width="1" opacity="0.4549019607843137" d="M 423.5 308 L 423 309.5 Q 406.9 339.9 381.5 361 L 359.5 377 L 360.5 375 Q 383.1 361.1 400 341.5 Q 413.5 326.5 423.5 308 Z " /><path fill="rgb(184,187,18)" stroke="rgb(184,187,18)" stroke-width="1" opacity="0.4549019607843137" d="M 92.5 315 Q 107.9 340.1 129.5 359 L 158 379.5 L 156.5 379 Q 129.4 363.6 110 340.5 Q 99.1 328.7 92.5 315 Z " /><path fill="rgb(184,187,18)" stroke="rgb(184,187,18)" stroke-width="1" opacity="0.4549019607843137" d="M 459.5 332 L 459 333.5 Q 440.1 367.6 411.5 392 Q 388.2 412.7 358.5 427 L 350 435.5 L 343.5 449 L 343 446.5 Q 346.6 436.6 353.5 430 L 361.5 424 L 380.5 414 L 400.5 400 L 431 371.5 Q 447.1 353.6 459.5 332 Z " /><path fill="rgb(184,187,18)" stroke="rgb(184,187,18)" stroke-width="1" opacity="0.4549019607843137" d="M 357.5 377 L 356.5 379 L 347.5 384 L 348.5 382 L 357.5 377 Z " /><path fill="rgb(184,187,18)" stroke="rgb(184,187,18)" stroke-width="1" opacity="0.4549019607843137" d="M 159.5 380 L 177.5 390 L 192 402.5 Q 201.7 412.3 207 426.5 L 206 426.5 Q 197.8 406.2 181.5 394 L 160.5 382 L 159.5 380 Z " /><path fill="rgb(184,187,18)" stroke="rgb(184,187,18)" stroke-width="1" opacity="0.4549019607843137" d="M 345.5 384 L 344.5 386 Q 326.8 393.8 316 408.5 L 305.5 427 L 305 425.5 Q 312.3 409.3 324.5 398 Q 333.4 389.4 345.5 384 Z " /><path fill="rgb(184,187,18)" stroke="rgb(184,187,18)" stroke-width="1" opacity="0.4549019607843137" d="M 142.5 420 Q 152.8 424.2 160 431.5 L 168 445.5 L 167 445.5 Q 162.9 433.6 153.5 427 L 143.5 422 L 142.5 420 Z " /><path fill="rgb(184,187,18)" stroke="rgb(184,187,18)" stroke-width="1" opacity="0.4549019607843137" d="M 207.5 428 Q 211.4 434.1 212 443.5 L 211 443.5 L 207.5 428 Z " /><path fill="rgb(184,187,18)" stroke="rgb(184,187,18)" stroke-width="1" opacity="0.4549019607843137" d="M 304.5 428 L 305 429.5 L 300.5 444 L 300 440.5 L 304.5 428 Z " /><path fill="rgb(184,187,18)" stroke="rgb(184,187,18)" stroke-width="1" opacity="0.4549019607843137" d="M 212.5 445 L 213 450.5 L 212 450.5 L 212.5 445 Z " /><path fill="rgb(184,187,18)" stroke="rgb(184,187,18)" stroke-width="1" opacity="0.4549019607843137" d="M 299.5 445 L 300 450.5 L 299 450.5 L 299.5 445 Z " /><path fill="rgb(184,187,18)" stroke="rgb(184,187,18)" stroke-width="1" opacity="0.4549019607843137" d="M 169.5 450 L 170 453.5 L 169 453.5 L 169.5 450 Z " /><path fill="rgb(184,187,18)" stroke="rgb(184,187,18)" stroke-width="1" opacity="0.4549019607843137" d="M 342.5 450 L 343 453.5 L 342 453.5 L 342.5 450 Z " /><path fill="rgb(184,187,18)" stroke="rgb(184,187,18)" stroke-width="1" opacity="0.4549019607843137" d="M 213.5 453 L 214 494.5 L 213 494.5 L 213.5 453 Z " /><path fill="rgb(184,187,18)" stroke="rgb(184,187,18)" stroke-width="1" opacity="0.4549019607843137" d="M 298.5 453 L 299 494.5 L 298 494.5 L 298.5 453 Z " /><path fill="rgb(184,187,18)" stroke="rgb(184,187,18)" stroke-width="1" opacity="0.4549019607843137" d="M 170.5 455 L 171 494.5 L 170 494.5 L 170.5 455 Z " /><path fill="rgb(184,187,18)" stroke="rgb(184,187,18)" stroke-width="1" opacity="0.4549019607843137" d="M 341.5 455 L 342 493.5 L 341 493.5 L 341.5 455 Z " /><path fill="rgb(184,187,18)" stroke="rgb(184,187,18)" stroke-width="1" opacity="0.4549019607843137" d="M 172.5 499 L 179.5 508 L 182 509.5 L 180.5 509 L 173 502.5 L 172.5 499 Z " /><path fill="rgb(184,187,18)" stroke="rgb(184,187,18)" stroke-width="1" opacity="0.4549019607843137" d="M 211.5 499 L 212 500.5 L 210 501.5 L 211.5 499 Z " /><path fill="rgb(184,187,18)" stroke="rgb(184,187,18)" stroke-width="1" opacity="0.4549019607843137" d="M 300.5 499 L 307.5 508 L 310 509.5 L 308.5 509 L 301 502.5 L 300.5 499 Z " /><path fill="rgb(184,187,18)" stroke="rgb(184,187,18)" stroke-width="1" opacity="0.4549019607843137" d="M 339.5 499 L 340 500.5 L 332.5 509 L 326.5 512 L 323.5 512 L 323.5 511 Q 332.9 509.9 337 503.5 L 339.5 499 Z " /><path fill="rgb(184,187,18)" stroke="rgb(184,187,18)" stroke-width="1" opacity="0.4549019607843137" d="M 209.5 503 L 204.5 509 L 202.5 510 L 203.5 508 L 209.5 503 Z " /><path fill="rgb(184,187,18)" stroke="rgb(184,187,18)" stroke-width="1" opacity="0.4549019607843137" d="M 183.5 510 L 189 511.5 L 185.5 512 L 183.5 510 Z " /><path fill="rgb(184,187,18)" stroke="rgb(184,187,18)" stroke-width="1" opacity="0.4549019607843137" d="M 199.5 510 L 201 510.5 L 195.5 512 L 195.5 511 L 199.5 510 Z " /><path fill="rgb(184,187,18)" stroke="rgb(184,187,18)" stroke-width="1" opacity="0.4549019607843137" d="M 311.5 510 L 317 511.5 L 313.5 512 L 311.5 510 Z " /><path fill="rgb(0,0,0)" stroke="rgb(0,0,0)" stroke-width="1" opacity="0" d="M 0 0 L 161 0.5 Q 114.9 19.4 84 53.5 Q 52.8 86.3 35 132.5 L 30 147.5 L 23 179.5 L 22 196.5 L 21 197.5 L 21 232.5 L 22 233.5 L 22 242.5 L 23 243.5 L 24 256.5 L 31 285.5 Q 39 310.5 51 331.5 Q 71.5 367 101.5 393 Q 124.5 413 153.5 427 L 162 435.5 Q 168.1 442.9 170 454.5 L 170 494.5 Q 172 504.5 179.5 509 L 185 511.5 L 0 512 L 0 0 Z " /><path fill="rgb(0,0,0)" stroke="rgb(0,0,0)" stroke-width="1" opacity="0" d="M 180.5 0 L 332 0.5 Q 317.2 3.7 309 13.5 Q 300.6 22.6 298 37.5 L 298 177.5 L 294 189.5 L 286 201 L 271.5 210 L 260.5 213 L 251.5 213 L 240.5 210 L 226 201 L 218 189.5 L 214 177.5 L 214 37.5 Q 210.9 19.6 199.5 10 L 186.5 2 L 180.5 1 L 180.5 0 Z " /><path fill="rgb(0,0,0)" stroke="rgb(0,0,0)" stroke-width="1" opacity="0" d="M 351.5 0 L 511.5 0 L 512 0.5 L 512 512 L 327 511.5 Q 334.3 509.3 338 503.5 L 342 493.5 L 342 454.5 L 343 449.5 Q 347.6 435.1 358.5 427 Q 403.1 405.1 434 369.5 Q 463.8 335.8 480 288.5 L 486 266.5 L 489 243.5 L 490 242.5 L 490 232.5 L 491 231.5 L 491 197.5 L 490 196.5 L 490 186.5 L 485 158.5 L 477 132.5 L 469 113.5 Q 449.1 72.4 417.5 43 Q 401.5 28 382.5 16 L 356.5 2 L 351.5 1 L 351.5 0 Z " /><path fill="rgb(0,0,0)" stroke="rgb(0,0,0)" stroke-width="1" opacity="0" d="M 169.5 44 L 170 177.5 Q 172.8 179.3 171 185.5 Q 177.6 217.4 198.5 235 Q 212.6 247.9 233.5 254 L 243.5 256 L 268.5 256 Q 301.7 249.7 320 228.5 Q 335.7 212.2 341 185.5 Q 339.3 179.3 342 177.5 L 342 105.5 L 341 104.5 L 341 44 Q 377.5 60.8 402 90.5 Q 428.2 120.3 441 163.5 L 447 195.5 L 447 233.5 L 446 234.5 L 445 248.5 L 440 269.5 Q 433.7 290.2 424 307.5 Q 407.2 337.2 382.5 359 Q 361.6 377.6 334.5 390 L 320 402.5 Q 305.9 417.4 300 440.5 L 299 452.5 L 298 453.5 L 298 494.5 Q 300 504.5 307.5 509 L 313 511.5 L 199.5 512 L 199.5 511 Q 206.7 509.2 210 503.5 L 214 494.5 L 214 453.5 L 213 452.5 L 212 440.5 L 207 425.5 Q 199.7 409.3 187.5 398 L 174.5 388 Q 155.7 379.8 140.5 368 L 112 341.5 Q 85.4 312.1 72 269.5 L 65 234.5 L 65 195.5 L 72 160.5 Q 78.8 137.3 90 118.5 Q 106.8 89.8 131.5 69 Q 148.3 54.3 169.5 44 Z " /><path fill="rgb(182,186,18)" stroke="rgb(182,186,18)" stroke-width="1" opacity="0.996078431372549" d="M 115.5 346 L 116.5 348 L 115.5 346 Z " /><path fill="rgb(182,186,18)" stroke="rgb(182,186,18)" stroke-width="1" opacity="0.996078431372549" d="M 105.5 394 L 106.5 396 L 105.5 394 Z " /><path fill="rgb(183,186,19)" stroke="rgb(183,186,19)" stroke-width="1" opacity="1" d="M 166.5 0 Q 193.5 0 204 16.5 L 206 19.5 Q 211.4 26.1 213 36.5 L 213 175.5 Q 216.1 193.4 227.5 203 Q 236.9 212.1 253.5 214 L 255.5 214 L 257.5 213 L 259.5 214 L 271.5 211 L 279.5 207 L 289 198.5 L 296 187.5 L 299 175.5 L 299 36.5 Q 303 17.5 316.5 8 L 331.5 1 L 344.5 0 L 359.5 4 L 388.5 21 Q 413 37.5 432 59.5 L 434 62.5 Q 455 85.5 469 115.5 L 481 147.5 L 486 166.5 L 486 171.5 L 489 184.5 L 489 186.5 Q 487.3 192.8 490 194.5 L 490 234.5 L 489 235.5 L 488 251.5 L 484 271.5 L 471 309.5 L 460 331.5 L 447 351.5 Q 431.8 372.8 412.5 390 L 392.5 406 Q 378.5 416.5 361.5 424 L 352 431.5 Q 345.1 438.6 342 449.5 Q 343.3 454.3 341 455.5 L 341 494.5 Q 339.1 503.6 332.5 508 Q 327.2 512.2 317.5 512 L 310.5 510 L 302 502.5 L 299 495.5 L 299 452.5 L 302 436.5 L 310 417.5 Q 318.3 403.8 330.5 394 L 367.5 372 L 392 352 L 402 339 Q 404.7 340.1 404 337.5 Q 428.8 309.3 441 268.5 L 445 252.5 L 445 247.5 L 447 241.5 L 447 233.5 L 448 232.5 L 448 198.5 L 446 188.5 L 446 186.5 L 444 172.5 L 442 167.5 L 442 165.5 Q 426.2 109.3 388.5 75 Q 368.2 54.5 340 43 L 341 49.5 L 341 51.5 L 340 56.5 Q 342.5 58 341 63.5 L 340 66.5 L 341 74.5 L 341 78.5 Q 342.8 84.7 340 86.5 L 341 87.5 L 341 178.5 L 340 181.5 L 339 191.5 L 335 200.5 L 335 203.5 L 330 213.5 L 317 231 L 304.5 241 L 292.5 248 L 282.5 252 L 261.5 256 L 259.5 256 Q 253.3 257.8 251.5 255 L 249.5 255 L 242.5 255 L 229.5 252 L 215.5 246 Q 199.8 237.2 189 223.5 L 178 205.5 L 173 191.5 L 171 180.5 L 171 43 L 154.5 51 L 126 72 L 124.5 75 L 115 83.5 L 112.5 87 Q 110.3 86.3 111 88.5 Q 84.8 116.3 72 157.5 L 66 182.5 L 65 197.5 L 64 198.5 L 64 231.5 L 65 232.5 L 65 241.5 L 66 242.5 L 67 253.5 L 69 257.5 L 70 265.5 L 81 295.5 Q 95.2 325.3 116.5 348 L 119.5 350 L 123 355 L 150.5 376 L 177.5 391 L 196 408.5 L 207 427.5 L 212 444.5 Q 210.5 450 213 451.5 L 213 495.5 L 210 502.5 L 204.5 508 Q 199.2 512.2 189.5 512 L 182.5 510 L 174 502.5 L 171 495.5 L 171 455.5 L 170 450.5 Q 166.5 438 158.5 430 L 155.5 428 L 152.5 425 L 131.5 414 L 111.5 400 L 80 370.5 Q 64.2 352.8 52 331.5 L 40 307.5 L 32 285.5 L 27 267.5 L 23 244.5 L 23 236.5 L 22 235.5 L 22 194.5 L 23 193.5 L 23 185.5 L 25 178.5 L 25 172.5 L 27 167.5 L 27 162.5 L 33 140.5 L 39 124.5 L 56 91.5 L 78 61 Q 80.7 62.1 80 59.5 L 100.5 39 L 102 39 Q 100.9 36.3 103.5 37 Q 119.5 22 139.5 11 L 152.5 4 L 166.5 0 Z " /></svg>