<svg width="512" height="512" version="1.1" xmlns="http://www.w3.org/2000/svg" desc="Created with imagetracer.js version 1.2.6" ><path fill="rgb(163,163,171)" stroke="rgb(163,163,171)" stroke-width="1" opacity="0.4745098039215686" d="M 235.5 0 L 245 0.5 L 235.5 1 L 235.5 0 Z " /><path fill="rgb(163,163,171)" stroke="rgb(163,163,171)" stroke-width="1" opacity="0.4745098039215686" d="M 267.5 0 L 277 0.5 L 267.5 1 L 267.5 0 Z " /><path fill="rgb(163,163,171)" stroke="rgb(163,163,171)" stroke-width="1" opacity="0.4745098039215686" d="M 226.5 1 L 233 1.5 L 226.5 2 L 226.5 1 Z " /><path fill="rgb(163,163,171)" stroke="rgb(163,163,171)" stroke-width="1" opacity="0.4745098039215686" d="M 279.5 1 L 286 1.5 L 279.5 2 L 279.5 1 Z " /><path fill="rgb(163,163,171)" stroke="rgb(163,163,171)" stroke-width="1" opacity="0.4745098039215686" d="M 220.5 2 L 225 2.5 L 220.5 3 L 220.5 2 Z " /><path fill="rgb(163,163,171)" stroke="rgb(163,163,171)" stroke-width="1" opacity="0.4745098039215686" d="M 287.5 2 L 292 2.5 L 287.5 3 L 287.5 2 Z " /><path fill="rgb(163,163,171)" stroke="rgb(163,163,171)" stroke-width="1" opacity="0.4745098039215686" d="M 215.5 3 L 219 3.5 L 215.5 4 L 215.5 3 Z " /><path fill="rgb(163,163,171)" stroke="rgb(163,163,171)" stroke-width="1" opacity="0.4745098039215686" d="M 293.5 3 L 297 3.5 L 293.5 4 L 293.5 3 Z " /><path fill="rgb(163,163,171)" stroke="rgb(163,163,171)" stroke-width="1" opacity="0.4745098039215686" d="M 210.5 4 L 214 4.5 L 210.5 5 L 210.5 4 Z " /><path fill="rgb(163,163,171)" stroke="rgb(163,163,171)" stroke-width="1" opacity="0.4745098039215686" d="M 299.5 4 L 302 4.5 L 299.5 5 L 299.5 4 Z " /><path fill="rgb(163,163,171)" stroke="rgb(163,163,171)" stroke-width="1" opacity="0.4745098039215686" d="M 205.5 5 L 209 5.5 L 202.5 7 L 202.5 6 L 205.5 5 Z " /><path fill="rgb(163,163,171)" stroke="rgb(163,163,171)" stroke-width="1" opacity="0.4745098039215686" d="M 303.5 5 L 307 5.5 L 303.5 6 L 303.5 5 Z " /><path fill="rgb(163,163,171)" stroke="rgb(163,163,171)" stroke-width="1" opacity="0.4745098039215686" d="M 308.5 6 L 314 7.5 L 311.5 8 L 308.5 7 L 308.5 6 Z " /><path fill="rgb(163,163,171)" stroke="rgb(163,163,171)" stroke-width="1" opacity="0.4745098039215686" d="M 198.5 7 L 201 7.5 L 198.5 8 L 198.5 7 Z " /><path fill="rgb(163,163,171)" stroke="rgb(163,163,171)" stroke-width="1" opacity="0.4745098039215686" d="M 194.5 8 L 197 8.5 L 191.5 10 L 191.5 9 L 194.5 8 Z " /><path fill="rgb(163,163,171)" stroke="rgb(163,163,171)" stroke-width="1" opacity="0.4745098039215686" d="M 315.5 8 L 321 9.5 L 318.5 10 L 315.5 9 L 315.5 8 Z " /><path fill="rgb(163,163,171)" stroke="rgb(163,163,171)" stroke-width="1" opacity="0.4745098039215686" d="M 188.5 10 L 190 10.5 L 180.5 14 L 180.5 13 L 188.5 10 Z " /><path fill="rgb(163,163,171)" stroke="rgb(163,163,171)" stroke-width="1" opacity="0.4745098039215686" d="M 325.5 11 L 332 13.5 L 330.5 14 L 325.5 12 L 325.5 11 Z " /><path fill="rgb(163,163,171)" stroke="rgb(163,163,171)" stroke-width="1" opacity="0.4745098039215686" d="M 177.5 14 L 179 14.5 L 175.5 16 L 175.5 15 L 177.5 14 Z " /><path fill="rgb(163,163,171)" stroke="rgb(163,163,171)" stroke-width="1" opacity="0.4745098039215686" d="M 333.5 14 L 344 18.5 L 342.5 19 L 333.5 15 L 333.5 14 Z " /><path fill="rgb(163,163,171)" stroke="rgb(163,163,171)" stroke-width="1" opacity="0.4745098039215686" d="M 172.5 16 L 174 16.5 L 168.5 19 L 168.5 18 L 172.5 16 Z " /><path fill="rgb(163,163,171)" stroke="rgb(163,163,171)" stroke-width="1" opacity="0.4745098039215686" d="M 165.5 19 L 167 19.5 Q 129.8 36.8 103 64.5 Q 74.8 92.8 58.5 133 L 58 131.5 Q 77.3 85.8 111.5 55 Q 135.2 33.7 165.5 19 Z " /><path fill="rgb(163,163,171)" stroke="rgb(163,163,171)" stroke-width="1" opacity="0.4745098039215686" d="M 345.5 19 L 358 25.5 L 356.5 25 L 345.5 20 L 345.5 19 Z " /><path fill="rgb(163,163,171)" stroke="rgb(163,163,171)" stroke-width="1" opacity="0.4745098039215686" d="M 359.5 26 Q 391.1 42.9 414 68.5 Q 437.5 93.5 452 127.5 L 451 127.5 Q 433.6 86.9 403.5 59 L 380.5 40 L 360.5 28 L 359.5 26 Z " /><path fill="rgb(163,163,171)" stroke="rgb(163,163,171)" stroke-width="1" opacity="0.4745098039215686" d="M 255.5 42 L 258 42.5 L 255.5 43 L 255.5 42 Z " /><path fill="rgb(163,163,171)" stroke="rgb(163,163,171)" stroke-width="1" opacity="0.4745098039215686" d="M 247.5 43 L 251 43.5 L 247.5 44 L 247.5 43 Z " /><path fill="rgb(163,163,171)" stroke="rgb(163,163,171)" stroke-width="1" opacity="0.4745098039215686" d="M 267.5 43 L 275 43.5 L 267.5 44 L 267.5 43 Z " /><path fill="rgb(163,163,171)" stroke="rgb(163,163,171)" stroke-width="1" opacity="0.4745098039215686" d="M 243.5 44 L 246 44.5 L 243.5 45 L 243.5 44 Z " /><path fill="rgb(163,163,171)" stroke="rgb(163,163,171)" stroke-width="1" opacity="0.4745098039215686" d="M 277.5 44 L 283 44.5 L 277.5 45 L 277.5 44 Z " /><path fill="rgb(163,163,171)" stroke="rgb(163,163,171)" stroke-width="1" opacity="0.4745098039215686" d="M 240.5 45 L 242 45.5 Q 230.8 49.3 224 57.5 Q 216.5 65 214.5 78 L 214 74.5 Q 218.1 60.1 228.5 52 L 240.5 45 Z " /><path fill="rgb(163,163,171)" stroke="rgb(163,163,171)" stroke-width="1" opacity="0.4745098039215686" d="M 284.5 45 L 289 45.5 L 284.5 46 L 284.5 45 Z " /><path fill="rgb(163,163,171)" stroke="rgb(163,163,171)" stroke-width="1" opacity="0.4745098039215686" d="M 290.5 46 L 293 46.5 L 290.5 47 L 290.5 46 Z " /><path fill="rgb(163,163,171)" stroke="rgb(163,163,171)" stroke-width="1" opacity="0.4745098039215686" d="M 294.5 47 L 301 48.5 L 298.5 49 L 294.5 48 L 294.5 47 Z " /><path fill="rgb(163,163,171)" stroke="rgb(163,163,171)" stroke-width="1" opacity="0.4745098039215686" d="M 302.5 49 L 308 50.5 L 305.5 51 L 302.5 50 L 302.5 49 Z " /><path fill="rgb(163,163,171)" stroke="rgb(163,163,171)" stroke-width="1" opacity="0.4745098039215686" d="M 312.5 52 L 319 54.5 L 317.5 55 L 312.5 53 L 312.5 52 Z " /><path fill="rgb(163,163,171)" stroke="rgb(163,163,171)" stroke-width="1" opacity="0.4745098039215686" d="M 320.5 55 L 326 57.5 L 324.5 58 L 320.5 56 L 320.5 55 Z " /><path fill="rgb(163,163,171)" stroke="rgb(163,163,171)" stroke-width="1" opacity="0.4745098039215686" d="M 327.5 58 L 338 63.5 L 336.5 63 L 327.5 59 L 327.5 58 Z " /><path fill="rgb(163,163,171)" stroke="rgb(163,163,171)" stroke-width="1" opacity="0.4745098039215686" d="M 172.5 64 L 174 64.5 L 172 65.5 L 173 68.5 L 172 68.5 Q 173.1 65.2 170.5 66 Q 148.1 79.1 131 97.5 Q 112.2 117.2 100.5 144 L 100 142.5 Q 115.5 109 141.5 86 Q 155.4 73.4 172.5 64 Z " /><path fill="rgb(163,163,171)" stroke="rgb(163,163,171)" stroke-width="1" opacity="0.4745098039215686" d="M 339.5 64 Q 365.4 78.1 384 99.5 Q 395.5 112 404 127.5 L 402 126.5 Q 389.6 103.4 370.5 87 L 351.5 72 L 340.5 66 L 339.5 64 Z " /><path fill="rgb(163,163,171)" stroke="rgb(163,163,171)" stroke-width="1" opacity="0.4745098039215686" d="M 171.5 71 L 172 75.5 L 171 75.5 L 171.5 71 Z " /><path fill="rgb(163,163,171)" stroke="rgb(163,163,171)" stroke-width="1" opacity="0.4745098039215686" d="M 170.5 78 L 171 92.5 L 170 92.5 L 170.5 78 Z " /><path fill="rgb(163,163,171)" stroke="rgb(163,163,171)" stroke-width="1" opacity="0.4745098039215686" d="M 213.5 79 L 214 91.5 L 213 91.5 L 213.5 79 Z " /><path fill="rgb(163,163,171)" stroke="rgb(163,163,171)" stroke-width="1" opacity="0.4745098039215686" d="M 309.5 85 L 322.5 85 Q 329.9 87.1 334 92.5 L 337 98.5 L 336 98.5 L 332 91 L 322.5 86 L 309.5 86 L 309.5 85 Z " /><path fill="rgb(163,163,171)" stroke="rgb(163,163,171)" stroke-width="1" opacity="0.4745098039215686" d="M 306.5 86 L 308 86.5 L 299 93.5 L 297.5 96 L 298 94.5 L 300 90 L 306.5 86 Z " /><path fill="rgb(163,163,171)" stroke="rgb(163,163,171)" stroke-width="1" opacity="0.4745098039215686" d="M 214.5 93 L 215 95.5 L 214 95.5 L 214.5 93 Z " /><path fill="rgb(163,163,171)" stroke="rgb(163,163,171)" stroke-width="1" opacity="0.4745098039215686" d="M 171.5 96 L 172 100.5 L 171 100.5 L 171.5 96 Z " /><path fill="rgb(163,163,171)" stroke="rgb(163,163,171)" stroke-width="1" opacity="0.4745098039215686" d="M 215.5 97 Q 219.8 111.2 230.5 119 L 238 123.5 L 236.5 124 Q 226.9 119.1 221 110.5 L 215 99.5 L 215.5 97 Z " /><path fill="rgb(163,163,171)" stroke="rgb(163,163,171)" stroke-width="1" opacity="0.4745098039215686" d="M 296.5 97 L 297 98.5 Q 292.3 112.3 281.5 120 L 276.5 123 L 277.5 121 Q 285.7 117.7 290 110.5 L 296.5 97 Z " /><path fill="rgb(163,163,171)" stroke="rgb(163,163,171)" stroke-width="1" opacity="0.4745098039215686" d="M 337.5 100 L 338 103.5 L 337 103.5 L 337.5 100 Z " /><path fill="rgb(163,163,171)" stroke="rgb(163,163,171)" stroke-width="1" opacity="0.4745098039215686" d="M 172.5 102 L 174 108.5 L 173 108.5 L 172.5 102 Z " /><path fill="rgb(163,163,171)" stroke="rgb(163,163,171)" stroke-width="1" opacity="0.4745098039215686" d="M 337.5 108 L 338 112.5 L 336.5 115 L 336 113.5 L 337.5 108 Z " /><path fill="rgb(163,163,171)" stroke="rgb(163,163,171)" stroke-width="1" opacity="0.4745098039215686" d="M 174.5 110 L 177 117.5 L 176 117.5 L 174.5 110 Z " /><path fill="rgb(163,163,171)" stroke="rgb(163,163,171)" stroke-width="1" opacity="0.4745098039215686" d="M 335.5 116 L 336 117.5 L 333.5 122 L 333 120.5 L 335.5 116 Z " /><path fill="rgb(163,163,171)" stroke="rgb(163,163,171)" stroke-width="1" opacity="0.4745098039215686" d="M 177.5 119 Q 186.3 139.2 202.5 152 Q 211.8 159.8 224 164.5 L 222.5 165 Q 205 157.5 193 144.5 Q 182.2 133.7 177.5 119 Z " /><path fill="rgb(163,163,171)" stroke="rgb(163,163,171)" stroke-width="1" opacity="0.4745098039215686" d="M 239.5 124 L 243 125.5 L 241.5 126 L 239.5 124 Z " /><path fill="rgb(163,163,171)" stroke="rgb(163,163,171)" stroke-width="1" opacity="0.4745098039215686" d="M 271.5 124 L 273 124.5 L 265.5 127 L 265.5 126 L 271.5 124 Z " /><path fill="rgb(163,163,171)" stroke="rgb(163,163,171)" stroke-width="1" opacity="0.4745098039215686" d="M 331.5 125 L 331 126.5 L 327 134.5 L 316 148 L 299.5 160 L 285.5 166 L 285.5 165 Q 309.1 156.6 323 138.5 L 331.5 125 Z " /><path fill="rgb(163,163,171)" stroke="rgb(163,163,171)" stroke-width="1" opacity="0.4745098039215686" d="M 244.5 126 L 247 126.5 L 244.5 127 L 244.5 126 Z " /><path fill="rgb(163,163,171)" stroke="rgb(163,163,171)" stroke-width="1" opacity="0.4745098039215686" d="M 248.5 127 L 264 127.5 L 248.5 128 L 248.5 127 Z " /><path fill="rgb(163,163,171)" stroke="rgb(163,163,171)" stroke-width="1" opacity="0.4745098039215686" d="M 404.5 129 L 412 143.5 L 411 143.5 L 404.5 129 Z " /><path fill="rgb(163,163,171)" stroke="rgb(163,163,171)" stroke-width="1" opacity="0.4745098039215686" d="M 452.5 129 L 454 132.5 L 453 132.5 L 452.5 129 Z " /><path fill="rgb(163,163,171)" stroke="rgb(163,163,171)" stroke-width="1" opacity="0.4745098039215686" d="M 57.5 134 L 58 135.5 L 56.5 138 L 56 136.5 L 57.5 134 Z " /><path fill="rgb(163,163,171)" stroke="rgb(163,163,171)" stroke-width="1" opacity="0.4745098039215686" d="M 454.5 134 L 456 137.5 L 455 137.5 L 454.5 134 Z " /><path fill="rgb(163,163,171)" stroke="rgb(163,163,171)" stroke-width="1" opacity="0.4745098039215686" d="M 456.5 139 L 460 149.5 L 459 149.5 L 456.5 139 Z " /><path fill="rgb(163,163,171)" stroke="rgb(163,163,171)" stroke-width="1" opacity="0.4745098039215686" d="M 54.5 142 L 55 143.5 L 52.5 150 L 52 147.5 L 54.5 142 Z " /><path fill="rgb(163,163,171)" stroke="rgb(163,163,171)" stroke-width="1" opacity="0.4745098039215686" d="M 99.5 145 L 100 146.5 L 96.5 154 L 96 152.5 L 99.5 145 Z " /><path fill="rgb(163,163,171)" stroke="rgb(163,163,171)" stroke-width="1" opacity="0.4745098039215686" d="M 412.5 145 L 416 153.5 L 415 153.5 L 412.5 145 Z " /><path fill="rgb(163,163,171)" stroke="rgb(163,163,171)" stroke-width="1" opacity="0.4745098039215686" d="M 51.5 151 L 52 153.5 L 50.5 157 L 50 154.5 L 51.5 151 Z " /><path fill="rgb(163,163,171)" stroke="rgb(163,163,171)" stroke-width="1" opacity="0.4745098039215686" d="M 461.5 154 L 464 164.5 L 463 164.5 L 461.5 154 Z " /><path fill="rgb(163,163,171)" stroke="rgb(163,163,171)" stroke-width="1" opacity="0.4745098039215686" d="M 95.5 155 L 96 156.5 L 93.5 163 L 93 160.5 L 95.5 155 Z " /><path fill="rgb(163,163,171)" stroke="rgb(163,163,171)" stroke-width="1" opacity="0.4745098039215686" d="M 416.5 155 L 420 165.5 L 419 165.5 L 416.5 155 Z " /><path fill="rgb(163,163,171)" stroke="rgb(163,163,171)" stroke-width="1" opacity="0.4745098039215686" d="M 49.5 158 L 50 160.5 L 49 160.5 L 49.5 158 Z " /><path fill="rgb(163,163,171)" stroke="rgb(163,163,171)" stroke-width="1" opacity="0.4745098039215686" d="M 48.5 162 L 49 164.5 L 48 164.5 L 48.5 162 Z " /><path fill="rgb(163,163,171)" stroke="rgb(163,163,171)" stroke-width="1" opacity="0.4745098039215686" d="M 47.5 166 L 48 169.5 L 47 169.5 L 47.5 166 Z " /><path fill="rgb(163,163,171)" stroke="rgb(163,163,171)" stroke-width="1" opacity="0.4745098039215686" d="M 228.5 166 L 233 167.5 L 230.5 168 L 228.5 166 Z " /><path fill="rgb(163,163,171)" stroke="rgb(163,163,171)" stroke-width="1" opacity="0.4745098039215686" d="M 464.5 166 L 465 168.5 L 464 168.5 L 464.5 166 Z " /><path fill="rgb(163,163,171)" stroke="rgb(163,163,171)" stroke-width="1" opacity="0.4745098039215686" d="M 91.5 167 L 92 169.5 L 91 169.5 L 91.5 167 Z " /><path fill="rgb(163,163,171)" stroke="rgb(163,163,171)" stroke-width="1" opacity="0.4745098039215686" d="M 420.5 167 L 421 169.5 L 420 169.5 L 420.5 167 Z " /><path fill="rgb(163,163,171)" stroke="rgb(163,163,171)" stroke-width="1" opacity="0.4745098039215686" d="M 234.5 168 L 237 168.5 L 234.5 169 L 234.5 168 Z " /><path fill="rgb(163,163,171)" stroke="rgb(163,163,171)" stroke-width="1" opacity="0.4745098039215686" d="M 275.5 168 L 278 168.5 L 275.5 169 L 275.5 168 Z " /><path fill="rgb(163,163,171)" stroke="rgb(163,163,171)" stroke-width="1" opacity="0.4745098039215686" d="M 238.5 169 L 243 169.5 L 238.5 170 L 238.5 169 Z " /><path fill="rgb(163,163,171)" stroke="rgb(163,163,171)" stroke-width="1" opacity="0.4745098039215686" d="M 269.5 169 L 274 169.5 L 269.5 170 L 269.5 169 Z " /><path fill="rgb(163,163,171)" stroke="rgb(163,163,171)" stroke-width="1" opacity="0.4745098039215686" d="M 244.5 170 L 252 170.5 L 244.5 171 L 244.5 170 Z " /><path fill="rgb(163,163,171)" stroke="rgb(163,163,171)" stroke-width="1" opacity="0.4745098039215686" d="M 260.5 170 L 268 170.5 L 260.5 171 L 260.5 170 Z " /><path fill="rgb(163,163,171)" stroke="rgb(163,163,171)" stroke-width="1" opacity="0.4745098039215686" d="M 465.5 170 L 466 173.5 L 465 173.5 L 465.5 170 Z " /><path fill="rgb(163,163,171)" stroke="rgb(163,163,171)" stroke-width="1" opacity="0.4745098039215686" d="M 46.5 171 L 47 174.5 L 46 174.5 L 46.5 171 Z " /><path fill="rgb(163,163,171)" stroke="rgb(163,163,171)" stroke-width="1" opacity="0.4745098039215686" d="M 90.5 171 L 91 173.5 L 90 173.5 L 90.5 171 Z " /><path fill="rgb(163,163,171)" stroke="rgb(163,163,171)" stroke-width="1" opacity="0.4745098039215686" d="M 421.5 171 L 422 173.5 L 421 173.5 L 421.5 171 Z " /><path fill="rgb(163,163,171)" stroke="rgb(163,163,171)" stroke-width="1" opacity="0.4745098039215686" d="M 89.5 175 L 90 177.5 L 89 177.5 L 89.5 175 Z " /><path fill="rgb(163,163,171)" stroke="rgb(163,163,171)" stroke-width="1" opacity="0.4745098039215686" d="M 422.5 175 L 423 177.5 L 422 177.5 L 422.5 175 Z " /><path fill="rgb(163,163,171)" stroke="rgb(163,163,171)" stroke-width="1" opacity="0.4745098039215686" d="M 466.5 175 Q 483.6 182.9 495 196.5 L 503 208.5 L 501 207.5 Q 495.6 196.4 486.5 189 Q 477.9 180.8 466 177 L 466.5 175 Z " /><path fill="rgb(163,163,171)" stroke="rgb(163,163,171)" stroke-width="1" opacity="0.4745098039215686" d="M 44.5 176 L 46 176.5 Q 30.4 182.9 20 194.5 Q 10.8 204.3 5.5 218 L 5 216.5 Q 12.3 199.3 25.5 188 L 44.5 176 Z " /><path fill="rgb(163,163,171)" stroke="rgb(163,163,171)" stroke-width="1" opacity="0.4745098039215686" d="M 88.5 179 L 89 183.5 L 88 183.5 L 88.5 179 Z " /><path fill="rgb(163,163,171)" stroke="rgb(163,163,171)" stroke-width="1" opacity="0.4745098039215686" d="M 423.5 179 L 424 183.5 L 423 183.5 L 423.5 179 Z " /><path fill="rgb(163,163,171)" stroke="rgb(163,163,171)" stroke-width="1" opacity="0.4745098039215686" d="M 87.5 185 L 88 189.5 L 87 189.5 L 87.5 185 Z " /><path fill="rgb(163,163,171)" stroke="rgb(163,163,171)" stroke-width="1" opacity="0.4745098039215686" d="M 424.5 185 L 425 189.5 L 424 189.5 L 424.5 185 Z " /><path fill="rgb(163,163,171)" stroke="rgb(163,163,171)" stroke-width="1" opacity="0.4745098039215686" d="M 86.5 192 L 87 196.5 L 86 196.5 L 86.5 192 Z " /><path fill="rgb(163,163,171)" stroke="rgb(163,163,171)" stroke-width="1" opacity="0.4745098039215686" d="M 425.5 192 L 426 196.5 L 425 196.5 L 425.5 192 Z " /><path fill="rgb(163,163,171)" stroke="rgb(163,163,171)" stroke-width="1" opacity="0.4745098039215686" d="M 85.5 198 L 86 200.5 L 80.5 209 L 70.5 214 L 70.5 213 Q 79.4 211.4 83 204.5 L 85.5 198 Z " /><path fill="rgb(163,163,171)" stroke="rgb(163,163,171)" stroke-width="1" opacity="0.4745098039215686" d="M 426.5 198 Q 428.6 206.9 435.5 211 L 442 213.5 L 439.5 214 L 430 207.5 L 426 200.5 L 426.5 198 Z " /><path fill="rgb(163,163,171)" stroke="rgb(163,163,171)" stroke-width="1" opacity="0.4745098039215686" d="M 503.5 210 Q 508.4 216.6 510 226.5 L 509 226.5 L 503.5 210 Z " /><path fill="rgb(163,163,171)" stroke="rgb(163,163,171)" stroke-width="1" opacity="0.4745098039215686" d="M 196.5 213 L 209 213.5 L 196.5 214 L 196.5 213 Z " /><path fill="rgb(163,163,171)" stroke="rgb(163,163,171)" stroke-width="1" opacity="0.4745098039215686" d="M 302.5 213 L 316 213.5 L 299.5 215 L 299.5 214 L 302.5 213 Z " /><path fill="rgb(163,163,171)" stroke="rgb(163,163,171)" stroke-width="1" opacity="0.4745098039215686" d="M 66.5 214 L 69 214.5 L 66.5 215 L 66.5 214 Z " /><path fill="rgb(163,163,171)" stroke="rgb(163,163,171)" stroke-width="1" opacity="0.4745098039215686" d="M 192.5 214 L 195 214.5 Q 182.3 217.8 176 227.5 L 172.5 235 L 172 233.5 Q 175.1 225.1 181.5 220 L 192.5 214 Z " /><path fill="rgb(163,163,171)" stroke="rgb(163,163,171)" stroke-width="1" opacity="0.4745098039215686" d="M 210.5 214 L 213 214.5 L 210.5 215 L 210.5 214 Z " /><path fill="rgb(163,163,171)" stroke="rgb(163,163,171)" stroke-width="1" opacity="0.4745098039215686" d="M 317.5 214 Q 328.6 215.9 334 223.5 L 340 234.5 L 339 234.5 Q 335.9 224 327.5 219 Q 324 215.5 317.5 215 L 317.5 214 Z " /><path fill="rgb(163,163,171)" stroke="rgb(163,163,171)" stroke-width="1" opacity="0.4745098039215686" d="M 443.5 214 L 446 214.5 L 443.5 215 L 443.5 214 Z " /><path fill="rgb(163,163,171)" stroke="rgb(163,163,171)" stroke-width="1" opacity="0.4745098039215686" d="M 63.5 215 L 65 215.5 Q 54.5 219 49 227.5 L 46.5 232 L 46 230.5 L 53.5 221 L 63.5 215 Z " /><path fill="rgb(163,163,171)" stroke="rgb(163,163,171)" stroke-width="1" opacity="0.4745098039215686" d="M 214.5 215 Q 223.8 218.2 229 225.5 L 233 233.5 L 232 233.5 Q 229.2 224.8 222.5 220 L 214.5 216 L 214.5 215 Z " /><path fill="rgb(163,163,171)" stroke="rgb(163,163,171)" stroke-width="1" opacity="0.4745098039215686" d="M 296.5 215 L 298 215.5 Q 289.2 218.7 284 225.5 L 279.5 234 L 279 232.5 Q 282.6 224.1 289.5 219 L 296.5 215 Z " /><path fill="rgb(163,163,171)" stroke="rgb(163,163,171)" stroke-width="1" opacity="0.4745098039215686" d="M 447.5 215 Q 456 217.5 461 223.5 L 466 231.5 L 465 231.5 Q 461.7 223.3 454.5 219 L 447.5 216 L 447.5 215 Z " /><path fill="rgb(163,163,171)" stroke="rgb(163,163,171)" stroke-width="1" opacity="0.4745098039215686" d="M 4.5 219 L 5 220.5 L 3.5 224 L 3 221.5 L 4.5 219 Z " /><path fill="rgb(163,163,171)" stroke="rgb(163,163,171)" stroke-width="1" opacity="0.4745098039215686" d="M 2.5 225 L 3 227.5 L 2 227.5 L 2.5 225 Z " /><path fill="rgb(163,163,171)" stroke="rgb(163,163,171)" stroke-width="1" opacity="0.4745098039215686" d="M 510.5 228 L 511 231.5 L 510 231.5 L 510.5 228 Z " /><path fill="rgb(163,163,171)" stroke="rgb(163,163,171)" stroke-width="1" opacity="0.4745098039215686" d="M 1.5 229 L 2 232.5 L 1 232.5 L 1.5 229 Z " /><path fill="rgb(163,163,171)" stroke="rgb(163,163,171)" stroke-width="1" opacity="0.4745098039215686" d="M 45.5 233 L 46 234.5 L 44.5 238 L 44 235.5 L 45.5 233 Z " /><path fill="rgb(163,163,171)" stroke="rgb(163,163,171)" stroke-width="1" opacity="0.4745098039215686" d="M 466.5 233 L 468 237.5 L 467 237.5 L 466.5 233 Z " /><path fill="rgb(163,163,171)" stroke="rgb(163,163,171)" stroke-width="1" opacity="0.4745098039215686" d="M 511.5 233 L 512 238.5 L 511 238.5 L 511.5 233 Z " /><path fill="rgb(163,163,171)" stroke="rgb(163,163,171)" stroke-width="1" opacity="0.4745098039215686" d="M 0.5 234 L 1 242.5 L 0 242.5 L 0.5 234 Z " /><path fill="rgb(163,163,171)" stroke="rgb(163,163,171)" stroke-width="1" opacity="0.4745098039215686" d="M 233.5 235 Q 237 240.5 235 251.5 L 234 251.5 Q 234.7 240.5 233.5 235 Z " /><path fill="rgb(163,163,171)" stroke="rgb(163,163,171)" stroke-width="1" opacity="0.4745098039215686" d="M 278.5 235 L 279 237.5 L 278 238.5 L 277.5 252 L 277 238.5 L 278.5 235 Z " /><path fill="rgb(163,163,171)" stroke="rgb(163,163,171)" stroke-width="1" opacity="0.4745098039215686" d="M 171.5 236 L 172 238.5 L 171 238.5 L 171.5 236 Z " /><path fill="rgb(163,163,171)" stroke="rgb(163,163,171)" stroke-width="1" opacity="0.4745098039215686" d="M 340.5 236 L 341 238.5 L 340 238.5 L 340.5 236 Z " /><path fill="rgb(163,163,171)" stroke="rgb(163,163,171)" stroke-width="1" opacity="0.4745098039215686" d="M 43.5 239 L 44 251.5 L 43 251.5 L 43.5 239 Z " /><path fill="rgb(163,163,171)" stroke="rgb(163,163,171)" stroke-width="1" opacity="0.4745098039215686" d="M 468.5 239 L 469 251.5 L 468 251.5 L 468.5 239 Z " /><path fill="rgb(163,163,171)" stroke="rgb(163,163,171)" stroke-width="1" opacity="0.4745098039215686" d="M 170.5 241 L 171 249.5 L 170 249.5 L 170.5 241 Z " /><path fill="rgb(163,163,171)" stroke="rgb(163,163,171)" stroke-width="1" opacity="0.4745098039215686" d="M 341.5 241 L 342 249.5 L 341 249.5 L 341.5 241 Z " /><path fill="rgb(163,163,171)" stroke="rgb(163,163,171)" stroke-width="1" opacity="0.4745098039215686" d="M 0.5 248 L 1 255.5 L 0 255.5 L 0.5 248 Z " /><path fill="rgb(163,163,171)" stroke="rgb(163,163,171)" stroke-width="1" opacity="0.4745098039215686" d="M 171.5 251 Q 173.9 264.6 183.5 271 Q 188.6 275.4 197 276.5 L 193.5 277 Q 182.3 273.3 176 264.5 Q 170.9 259.4 171.5 251 Z " /><path fill="rgb(163,163,171)" stroke="rgb(163,163,171)" stroke-width="1" opacity="0.4745098039215686" d="M 340.5 251 L 341 254.5 Q 337.3 265.8 328.5 272 Q 324 276.5 315.5 277 L 315.5 276 Q 329 274 335 264.5 Q 339.4 259.4 340.5 251 Z " /><path fill="rgb(163,163,171)" stroke="rgb(163,163,171)" stroke-width="1" opacity="0.4745098039215686" d="M 511.5 251 L 512 257.5 L 511 257.5 L 511.5 251 Z " /><path fill="rgb(163,163,171)" stroke="rgb(163,163,171)" stroke-width="1" opacity="0.4745098039215686" d="M 233.5 253 L 234 255.5 Q 231.1 264.6 224.5 270 L 213.5 276 L 213.5 275 Q 223.9 271.9 229 263.5 L 233.5 253 Z " /><path fill="rgb(163,163,171)" stroke="rgb(163,163,171)" stroke-width="1" opacity="0.4745098039215686" d="M 278.5 253 L 280 257.5 L 279 257.5 L 278.5 253 Z " /><path fill="rgb(163,163,171)" stroke="rgb(163,163,171)" stroke-width="1" opacity="0.4745098039215686" d="M 45.5 256 Q 49 265.5 56.5 271 L 59 272.5 L 57.5 272 L 49 264.5 L 45 257.5 L 45.5 256 Z " /><path fill="rgb(163,163,171)" stroke="rgb(163,163,171)" stroke-width="1" opacity="0.4745098039215686" d="M 466.5 256 L 467 257.5 Q 463 266.5 455.5 272 L 453.5 273 L 454.5 271 L 462 264.5 L 466.5 256 Z " /><path fill="rgb(163,163,171)" stroke="rgb(163,163,171)" stroke-width="1" opacity="0.4745098039215686" d="M 1.5 258 L 2 261.5 L 1 261.5 L 1.5 258 Z " /><path fill="rgb(163,163,171)" stroke="rgb(163,163,171)" stroke-width="1" opacity="0.4745098039215686" d="M 280.5 259 Q 284.3 267.2 291.5 272 L 299 275.5 L 297.5 276 Q 289.2 272.8 284 266.5 L 280 260.5 L 280.5 259 Z " /><path fill="rgb(163,163,171)" stroke="rgb(163,163,171)" stroke-width="1" opacity="0.4745098039215686" d="M 510.5 259 L 511 262.5 L 510 262.5 L 510.5 259 Z " /><path fill="rgb(163,163,171)" stroke="rgb(163,163,171)" stroke-width="1" opacity="0.4745098039215686" d="M 2.5 263 L 4 268.5 L 3 268.5 L 2.5 263 Z " /><path fill="rgb(163,163,171)" stroke="rgb(163,163,171)" stroke-width="1" opacity="0.4745098039215686" d="M 509.5 264 L 510 266.5 Q 503.2 287.7 488.5 301 Q 479.1 310.1 465.5 315 L 465.5 314 Q 484.8 306.8 496 291.5 Q 505.6 280.6 509.5 264 Z " /><path fill="rgb(163,163,171)" stroke="rgb(163,163,171)" stroke-width="1" opacity="0.4745098039215686" d="M 4.5 270 L 6 273.5 L 5 273.5 L 4.5 270 Z " /><path fill="rgb(163,163,171)" stroke="rgb(163,163,171)" stroke-width="1" opacity="0.4745098039215686" d="M 451.5 273 L 450.5 275 L 449 274.5 L 451.5 273 Z " /><path fill="rgb(163,163,171)" stroke="rgb(163,163,171)" stroke-width="1" opacity="0.4745098039215686" d="M 6.5 275 Q 14.1 292.9 28.5 304 L 35 308.5 L 33.5 308 Q 22.1 301.9 15 291.5 Q 8.5 284.3 6.5 275 Z " /><path fill="rgb(163,163,171)" stroke="rgb(163,163,171)" stroke-width="1" opacity="0.4745098039215686" d="M 67.5 276 L 71 276.5 L 67.5 277 L 67.5 276 Z " /><path fill="rgb(163,163,171)" stroke="rgb(163,163,171)" stroke-width="1" opacity="0.4745098039215686" d="M 78.5 276 L 89 276.5 L 78.5 277 L 78.5 276 Z " /><path fill="rgb(163,163,171)" stroke="rgb(163,163,171)" stroke-width="1" opacity="0.4745098039215686" d="M 209.5 276 L 212 276.5 L 209.5 277 L 209.5 276 Z " /><path fill="rgb(163,163,171)" stroke="rgb(163,163,171)" stroke-width="1" opacity="0.4745098039215686" d="M 300.5 276 L 303 276.5 L 300.5 277 L 300.5 276 Z " /><path fill="rgb(163,163,171)" stroke="rgb(163,163,171)" stroke-width="1" opacity="0.4745098039215686" d="M 423.5 276 L 434 276.5 L 423.5 277 L 423.5 276 Z " /><path fill="rgb(163,163,171)" stroke="rgb(163,163,171)" stroke-width="1" opacity="0.4745098039215686" d="M 441.5 276 L 445 276.5 L 441.5 277 L 441.5 276 Z " /><path fill="rgb(163,163,171)" stroke="rgb(163,163,171)" stroke-width="1" opacity="0.4745098039215686" d="M 198.5 277 L 207 277.5 L 198.5 278 L 198.5 277 Z " /><path fill="rgb(163,163,171)" stroke="rgb(163,163,171)" stroke-width="1" opacity="0.4745098039215686" d="M 305.5 277 L 314 277.5 L 305.5 278 L 305.5 277 Z " /><path fill="rgb(163,163,171)" stroke="rgb(163,163,171)" stroke-width="1" opacity="0.4745098039215686" d="M 418.5 278 L 417.5 280 L 410 286.5 L 408.5 290 L 408 288.5 L 413.5 281 L 418.5 278 Z " /><path fill="rgb(163,163,171)" stroke="rgb(163,163,171)" stroke-width="1" opacity="0.4745098039215686" d="M 95.5 279 L 101 283.5 L 104 289.5 L 103 289.5 L 95.5 279 Z " /><path fill="rgb(163,163,171)" stroke="rgb(163,163,171)" stroke-width="1" opacity="0.4745098039215686" d="M 104.5 291 L 109 301.5 L 108 301.5 L 104.5 291 Z " /><path fill="rgb(163,163,171)" stroke="rgb(163,163,171)" stroke-width="1" opacity="0.4745098039215686" d="M 407.5 291 L 408 292.5 L 403.5 302 L 403 300.5 L 407.5 291 Z " /><path fill="rgb(163,163,171)" stroke="rgb(163,163,171)" stroke-width="1" opacity="0.4745098039215686" d="M 109.5 303 L 112 307.5 L 110 306.5 L 109.5 303 Z " /><path fill="rgb(163,163,171)" stroke="rgb(163,163,171)" stroke-width="1" opacity="0.4745098039215686" d="M 402.5 303 L 403 304.5 L 399.5 310 L 400 308.5 L 402.5 303 Z " /><path fill="rgb(163,163,171)" stroke="rgb(163,163,171)" stroke-width="1" opacity="0.4745098039215686" d="M 36.5 309 L 47 314.5 L 45.5 315 L 37.5 311 L 36.5 309 Z " /><path fill="rgb(163,163,171)" stroke="rgb(163,163,171)" stroke-width="1" opacity="0.4745098039215686" d="M 112.5 309 Q 128.6 338.4 152.5 360 Q 167.6 373.9 186 384.5 L 184.5 384 Q 156.9 368.6 137 345.5 Q 121.6 329.3 112.5 309 Z " /><path fill="rgb(163,163,171)" stroke="rgb(163,163,171)" stroke-width="1" opacity="0.4745098039215686" d="M 398.5 311 L 398 312.5 Q 382 342 357.5 363 Q 336.7 382.2 308.5 394 L 308.5 393 Q 347.1 376.1 373 346.5 Q 387.7 330.7 398.5 311 Z " /><path fill="rgb(163,163,171)" stroke="rgb(163,163,171)" stroke-width="1" opacity="0.4745098039215686" d="M 48.5 315 L 53 316.5 L 50.5 317 L 48.5 315 Z " /><path fill="rgb(163,163,171)" stroke="rgb(163,163,171)" stroke-width="1" opacity="0.4745098039215686" d="M 462.5 315 L 464 315.5 L 459.5 317 L 459.5 316 L 462.5 315 Z " /><path fill="rgb(163,163,171)" stroke="rgb(163,163,171)" stroke-width="1" opacity="0.4745098039215686" d="M 54.5 317 L 61 318.5 L 57.5 319 L 54.5 318 L 54.5 317 Z " /><path fill="rgb(163,163,171)" stroke="rgb(163,163,171)" stroke-width="1" opacity="0.4745098039215686" d="M 455.5 317 L 458 317.5 L 451.5 319 L 451.5 318 L 455.5 317 Z " /><path fill="rgb(163,163,171)" stroke="rgb(163,163,171)" stroke-width="1" opacity="0.4745098039215686" d="M 63.5 319 Q 69.8 317.8 71 321.5 Q 87.9 357.1 114 383.5 Q 93.1 404.6 80.5 434 L 80 432.5 Q 93 404 113 382.5 Q 85.8 356.2 68.5 320 Q 62.5 321.3 63.5 319 Z " /><path fill="rgb(163,163,171)" stroke="rgb(163,163,171)" stroke-width="1" opacity="0.4745098039215686" d="M 443.5 319 L 449 319.5 Q 443.6 318.6 442 321.5 Q 425.2 357.2 399 383.5 Q 419.7 404.8 432 434.5 L 431 434.5 L 417 407.5 L 398 382.5 L 417 361.5 L 430 342.5 L 443.5 319 Z " /><path fill="rgb(163,163,171)" stroke="rgb(163,163,171)" stroke-width="1" opacity="0.4745098039215686" d="M 187.5 385 L 204 393.5 L 202.5 394 L 188.5 387 L 187.5 385 Z " /><path fill="rgb(163,163,171)" stroke="rgb(163,163,171)" stroke-width="1" opacity="0.4745098039215686" d="M 205.5 394 L 209 395.5 L 207.5 396 L 205.5 394 Z " /><path fill="rgb(163,163,171)" stroke="rgb(163,163,171)" stroke-width="1" opacity="0.4745098039215686" d="M 305.5 394 L 307 394.5 L 303.5 396 L 303.5 395 L 305.5 394 Z " /><path fill="rgb(163,163,171)" stroke="rgb(163,163,171)" stroke-width="1" opacity="0.4745098039215686" d="M 210.5 396 L 221 399.5 L 218.5 400 L 210.5 397 L 210.5 396 Z " /><path fill="rgb(163,163,171)" stroke="rgb(163,163,171)" stroke-width="1" opacity="0.4745098039215686" d="M 300.5 396 L 302 396.5 L 291.5 400 L 291.5 399 L 300.5 396 Z " /><path fill="rgb(163,163,171)" stroke="rgb(163,163,171)" stroke-width="1" opacity="0.4745098039215686" d="M 222.5 400 L 233 402.5 L 229.5 403 L 222.5 401 L 222.5 400 Z " /><path fill="rgb(163,163,171)" stroke="rgb(163,163,171)" stroke-width="1" opacity="0.4745098039215686" d="M 287.5 400 L 290 400.5 L 279.5 403 L 279.5 402 L 287.5 400 Z " /><path fill="rgb(163,163,171)" stroke="rgb(163,163,171)" stroke-width="1" opacity="0.4745098039215686" d="M 234.5 403 L 239 403.5 L 234.5 404 L 234.5 403 Z " /><path fill="rgb(163,163,171)" stroke="rgb(163,163,171)" stroke-width="1" opacity="0.4745098039215686" d="M 273.5 403 L 278 403.5 L 273.5 404 L 273.5 403 Z " /><path fill="rgb(163,163,171)" stroke="rgb(163,163,171)" stroke-width="1" opacity="0.4745098039215686" d="M 241.5 404 L 248 404.5 L 241.5 405 L 241.5 404 Z " /><path fill="rgb(163,163,171)" stroke="rgb(163,163,171)" stroke-width="1" opacity="0.4745098039215686" d="M 264.5 404 L 271 404.5 L 264.5 405 L 264.5 404 Z " /><path fill="rgb(163,163,171)" stroke="rgb(163,163,171)" stroke-width="1" opacity="0.4745098039215686" d="M 254.5 405 L 258 405.5 L 254.5 406 L 254.5 405 Z " /><path fill="rgb(163,163,171)" stroke="rgb(163,163,171)" stroke-width="1" opacity="0.4745098039215686" d="M 146.5 411 L 178 429.5 L 176.5 430 L 146.5 412 Q 128.7 429.7 118.5 455 L 118 453.5 Q 128.4 428.4 146.5 411 Z " /><path fill="rgb(163,163,171)" stroke="rgb(163,163,171)" stroke-width="1" opacity="0.4745098039215686" d="M 364.5 411 L 370 415.5 Q 380.6 427.4 388 442.5 L 386 441.5 Q 377.9 424.6 365.5 412 L 342.5 426 L 343.5 424 Q 355.5 419 364.5 411 Z " /><path fill="rgb(163,163,171)" stroke="rgb(163,163,171)" stroke-width="1" opacity="0.4745098039215686" d="M 340.5 426 L 339.5 428 L 336.5 429 L 336.5 428 L 340.5 426 Z " /><path fill="rgb(163,163,171)" stroke="rgb(163,163,171)" stroke-width="1" opacity="0.4745098039215686" d="M 179.5 430 L 187 433.5 L 185.5 434 L 179.5 431 L 179.5 430 Z " /><path fill="rgb(163,163,171)" stroke="rgb(163,163,171)" stroke-width="1" opacity="0.4745098039215686" d="M 331.5 430 L 333 430.5 L 317.5 437 L 317.5 436 L 331.5 430 Z " /><path fill="rgb(163,163,171)" stroke="rgb(163,163,171)" stroke-width="1" opacity="0.4745098039215686" d="M 188.5 434 L 192 435.5 L 190.5 436 L 188.5 434 Z " /><path fill="rgb(163,163,171)" stroke="rgb(163,163,171)" stroke-width="1" opacity="0.4745098039215686" d="M 79.5 435 L 80 436.5 L 76.5 444 L 76 442.5 L 79.5 435 Z " /><path fill="rgb(163,163,171)" stroke="rgb(163,163,171)" stroke-width="1" opacity="0.4745098039215686" d="M 432.5 436 L 436 444.5 L 435 444.5 L 432.5 436 Z " /><path fill="rgb(163,163,171)" stroke="rgb(163,163,171)" stroke-width="1" opacity="0.4745098039215686" d="M 196.5 437 L 201 438.5 L 198.5 439 L 196.5 437 Z " /><path fill="rgb(163,163,171)" stroke="rgb(163,163,171)" stroke-width="1" opacity="0.4745098039215686" d="M 205.5 440 L 211 441.5 L 208.5 442 L 205.5 441 L 205.5 440 Z " /><path fill="rgb(163,163,171)" stroke="rgb(163,163,171)" stroke-width="1" opacity="0.4745098039215686" d="M 304.5 440 L 307 440.5 L 301.5 442 L 301.5 441 L 304.5 440 Z " /><path fill="rgb(163,163,171)" stroke="rgb(163,163,171)" stroke-width="1" opacity="0.4745098039215686" d="M 212.5 442 L 215 442.5 L 212.5 443 L 212.5 442 Z " /><path fill="rgb(163,163,171)" stroke="rgb(163,163,171)" stroke-width="1" opacity="0.4745098039215686" d="M 297.5 442 L 300 442.5 L 297.5 443 L 297.5 442 Z " /><path fill="rgb(163,163,171)" stroke="rgb(163,163,171)" stroke-width="1" opacity="0.4745098039215686" d="M 216.5 443 L 220 443.5 L 216.5 444 L 216.5 443 Z " /><path fill="rgb(163,163,171)" stroke="rgb(163,163,171)" stroke-width="1" opacity="0.4745098039215686" d="M 292.5 443 L 296 443.5 L 292.5 444 L 292.5 443 Z " /><path fill="rgb(163,163,171)" stroke="rgb(163,163,171)" stroke-width="1" opacity="0.4745098039215686" d="M 221.5 444 L 225 444.5 L 221.5 445 L 221.5 444 Z " /><path fill="rgb(163,163,171)" stroke="rgb(163,163,171)" stroke-width="1" opacity="0.4745098039215686" d="M 287.5 444 L 291 444.5 L 287.5 445 L 287.5 444 Z " /><path fill="rgb(163,163,171)" stroke="rgb(163,163,171)" stroke-width="1" opacity="0.4745098039215686" d="M 75.5 445 L 76 446.5 L 72.5 456 L 72 453.5 L 75.5 445 Z " /><path fill="rgb(163,163,171)" stroke="rgb(163,163,171)" stroke-width="1" opacity="0.4745098039215686" d="M 226.5 445 L 230 445.5 L 226.5 446 L 226.5 445 Z " /><path fill="rgb(163,163,171)" stroke="rgb(163,163,171)" stroke-width="1" opacity="0.4745098039215686" d="M 281.5 445 L 286 445.5 L 281.5 446 L 281.5 445 Z " /><path fill="rgb(163,163,171)" stroke="rgb(163,163,171)" stroke-width="1" opacity="0.4745098039215686" d="M 232.5 446 L 238 446.5 L 232.5 447 L 232.5 446 Z " /><path fill="rgb(163,163,171)" stroke="rgb(163,163,171)" stroke-width="1" opacity="0.4745098039215686" d="M 274.5 446 L 280 446.5 L 274.5 447 L 274.5 446 Z " /><path fill="rgb(163,163,171)" stroke="rgb(163,163,171)" stroke-width="1" opacity="0.4745098039215686" d="M 240.5 447 L 249 447.5 L 240.5 448 L 240.5 447 Z " /><path fill="rgb(163,163,171)" stroke="rgb(163,163,171)" stroke-width="1" opacity="0.4745098039215686" d="M 263.5 447 L 272 447.5 L 263.5 448 L 263.5 447 Z " /><path fill="rgb(163,163,171)" stroke="rgb(163,163,171)" stroke-width="1" opacity="0.4745098039215686" d="M 437.5 449 L 439 453.5 L 438 453.5 L 437.5 449 Z " /><path fill="rgb(163,163,171)" stroke="rgb(163,163,171)" stroke-width="1" opacity="0.4745098039215686" d="M 391.5 450 L 394 455.5 L 393 455.5 L 391.5 450 Z " /><path fill="rgb(163,163,171)" stroke="rgb(163,163,171)" stroke-width="1" opacity="0.4745098039215686" d="M 117.5 456 L 118 457.5 L 116.5 460 L 116 458.5 L 117.5 456 Z " /><path fill="rgb(163,163,171)" stroke="rgb(163,163,171)" stroke-width="1" opacity="0.4745098039215686" d="M 394.5 457 L 397 463.5 L 396 463.5 L 394.5 457 Z " /><path fill="rgb(163,163,171)" stroke="rgb(163,163,171)" stroke-width="1" opacity="0.4745098039215686" d="M 440.5 458 L 441 460.5 L 440 460.5 L 440.5 458 Z " /><path fill="rgb(163,163,171)" stroke="rgb(163,163,171)" stroke-width="1" opacity="0.4745098039215686" d="M 70.5 460 L 71 462.5 L 70 462.5 L 70.5 460 Z " /><path fill="rgb(163,163,171)" stroke="rgb(163,163,171)" stroke-width="1" opacity="0.4745098039215686" d="M 115.5 461 L 116 462.5 L 113.5 469 L 113 466.5 L 115.5 461 Z " /><path fill="rgb(163,163,171)" stroke="rgb(163,163,171)" stroke-width="1" opacity="0.4745098039215686" d="M 441.5 462 L 443 468.5 L 442 468.5 L 441.5 462 Z " /><path fill="rgb(163,163,171)" stroke="rgb(163,163,171)" stroke-width="1" opacity="0.4745098039215686" d="M 69.5 464 L 70 466.5 L 69 466.5 L 69.5 464 Z " /><path fill="rgb(163,163,171)" stroke="rgb(163,163,171)" stroke-width="1" opacity="0.4745098039215686" d="M 68.5 468 L 69 470.5 L 68 470.5 L 68.5 468 Z " /><path fill="rgb(163,163,171)" stroke="rgb(163,163,171)" stroke-width="1" opacity="0.4745098039215686" d="M 398.5 468 L 400 473.5 L 399 473.5 L 398.5 468 Z " /><path fill="rgb(163,163,171)" stroke="rgb(163,163,171)" stroke-width="1" opacity="0.4745098039215686" d="M 112.5 470 L 113 472.5 L 111.5 476 L 111 473.5 L 112.5 470 Z " /><path fill="rgb(163,163,171)" stroke="rgb(163,163,171)" stroke-width="1" opacity="0.4745098039215686" d="M 443.5 470 L 444 472.5 L 443 472.5 L 443.5 470 Z " /><path fill="rgb(163,163,171)" stroke="rgb(163,163,171)" stroke-width="1" opacity="0.4745098039215686" d="M 67.5 472 L 68 476.5 L 67 476.5 L 67.5 472 Z " /><path fill="rgb(163,163,171)" stroke="rgb(163,163,171)" stroke-width="1" opacity="0.4745098039215686" d="M 444.5 474 L 445 478.5 L 444 478.5 L 444.5 474 Z " /><path fill="rgb(163,163,171)" stroke="rgb(163,163,171)" stroke-width="1" opacity="0.4745098039215686" d="M 400.5 475 L 401 477.5 L 400 477.5 L 400.5 475 Z " /><path fill="rgb(163,163,171)" stroke="rgb(163,163,171)" stroke-width="1" opacity="0.4745098039215686" d="M 110.5 477 L 111 480.5 L 110 480.5 L 110.5 477 Z " /><path fill="rgb(163,163,171)" stroke="rgb(163,163,171)" stroke-width="1" opacity="0.4745098039215686" d="M 66.5 478 L 67 481.5 L 66 481.5 L 66.5 478 Z " /><path fill="rgb(163,163,171)" stroke="rgb(163,163,171)" stroke-width="1" opacity="0.4745098039215686" d="M 401.5 479 L 402 482.5 L 401 482.5 L 401.5 479 Z " /><path fill="rgb(163,163,171)" stroke="rgb(163,163,171)" stroke-width="1" opacity="0.4745098039215686" d="M 445.5 480 L 446 484.5 L 445 484.5 L 445.5 480 Z " /><path fill="rgb(163,163,171)" stroke="rgb(163,163,171)" stroke-width="1" opacity="0.4745098039215686" d="M 109.5 482 L 110 485.5 L 109 485.5 L 109.5 482 Z " /><path fill="rgb(163,163,171)" stroke="rgb(163,163,171)" stroke-width="1" opacity="0.4745098039215686" d="M 65.5 484 L 66 495.5 L 65 495.5 L 65.5 484 Z " /><path fill="rgb(163,163,171)" stroke="rgb(163,163,171)" stroke-width="1" opacity="0.4745098039215686" d="M 402.5 484 L 403 487.5 L 402 487.5 L 402.5 484 Z " /><path fill="rgb(163,163,171)" stroke="rgb(163,163,171)" stroke-width="1" opacity="0.4745098039215686" d="M 108.5 487 L 109 491.5 L 108 491.5 L 108.5 487 Z " /><path fill="rgb(163,163,171)" stroke="rgb(163,163,171)" stroke-width="1" opacity="0.4745098039215686" d="M 446.5 487 L 447 493.5 L 446 493.5 L 446.5 487 Z " /><path fill="rgb(163,163,171)" stroke="rgb(163,163,171)" stroke-width="1" opacity="0.4745098039215686" d="M 403.5 490 L 404 494.5 L 403 494.5 L 403.5 490 Z " /><path fill="rgb(163,163,171)" stroke="rgb(163,163,171)" stroke-width="1" opacity="0.4745098039215686" d="M 107.5 494 L 108 496.5 L 107 496.5 L 107.5 494 Z " /><path fill="rgb(163,163,171)" stroke="rgb(163,163,171)" stroke-width="1" opacity="0.4745098039215686" d="M 445.5 495 L 446 497.5 L 445 497.5 L 445.5 495 Z " /><path fill="rgb(163,163,171)" stroke="rgb(163,163,171)" stroke-width="1" opacity="0.4745098039215686" d="M 404.5 496 Q 406.3 504.2 412.5 508 L 415 509.5 L 413.5 509 L 406 502.5 Q 403 500 404.5 496 Z " /><path fill="rgb(163,163,171)" stroke="rgb(163,163,171)" stroke-width="1" opacity="0.4745098039215686" d="M 106.5 498 L 107 499.5 L 100.5 508 L 94.5 511 L 94.5 510 L 103 504.5 L 106.5 498 Z " /><path fill="rgb(163,163,171)" stroke="rgb(163,163,171)" stroke-width="1" opacity="0.4745098039215686" d="M 444.5 499 L 445 500.5 L 437.5 509 L 432.5 511 L 432.5 510 Q 439 508.5 442 503.5 L 444.5 499 Z " /><path fill="rgb(163,163,171)" stroke="rgb(163,163,171)" stroke-width="1" opacity="0.4745098039215686" d="M 67.5 500 L 75.5 509 L 79 510.5 L 77.5 511 L 70 505.5 L 67.5 500 Z " /><path fill="rgb(163,163,171)" stroke="rgb(163,163,171)" stroke-width="1" opacity="0.4745098039215686" d="M 416.5 510 L 422 511.5 L 418.5 512 L 416.5 510 Z " /><path fill="rgb(163,163,171)" stroke="rgb(163,163,171)" stroke-width="1" opacity="0.4745098039215686" d="M 80.5 511 L 83 511.5 L 80.5 512 L 80.5 511 Z " /><path fill="rgb(163,163,171)" stroke="rgb(163,163,171)" stroke-width="1" opacity="0.4745098039215686" d="M 90.5 511 L 93 511.5 L 90.5 512 L 90.5 511 Z " /><path fill="rgb(163,163,171)" stroke="rgb(163,163,171)" stroke-width="1" opacity="0.4745098039215686" d="M 428.5 511 L 431 511.5 L 428.5 512 L 428.5 511 Z " /><path fill="rgb(0,0,0)" stroke="rgb(0,0,0)" stroke-width="1" opacity="0" d="M 0 0 L 235 0.5 L 205.5 5 L 182.5 12 L 165.5 19 Q 126 38 98 68.5 Q 74.9 93.4 60 126.5 L 52 147.5 L 47 166.5 L 46 176 Q 29 182.3 18 195.5 Q 4.3 209.8 0.5 234 L 0 0 Z " /><path fill="rgb(0,0,0)" stroke="rgb(0,0,0)" stroke-width="1" opacity="0" d="M 277.5 0 L 512 0 L 512 232.5 L 511 232.5 L 510 224.5 L 505 211.5 Q 497.4 197 485.5 187 L 466 174.5 L 464 161.5 L 458 141.5 L 443 108.5 Q 425.6 77.9 400.5 55 Q 377 33.5 346.5 19 L 310.5 6 L 285.5 1 L 277.5 1 L 277.5 0 Z " /><path fill="rgb(0,0,0)" stroke="rgb(0,0,0)" stroke-width="1" opacity="0" d="M 251.5 43 L 266.5 43 L 267.5 44 L 276.5 44 L 277.5 45 L 289.5 46 L 319.5 55 Q 357 70.5 382 98.5 Q 400.2 118.3 412 144.5 L 420 166.5 L 423 178.5 L 426 200.5 L 431.5 209 L 439.5 214 Q 449.1 214.4 454.5 219 L 463 227.5 L 468 238.5 L 468 252.5 Q 464.3 264.3 455.5 271 Q 448.4 277.4 434.5 277 L 433.5 276 L 423.5 276 Q 415.8 278.3 411 283.5 L 399 310.5 L 389 326.5 Q 376 345 359.5 360 Q 337.3 380.8 307.5 394 L 278.5 403 L 264.5 404 L 263.5 405 L 248.5 405 L 221.5 400 Q 202.2 394.3 186.5 385 Q 159.5 369 139 346.5 L 119 320.5 Q 108.9 305.6 103 286.5 L 98.5 281 L 88.5 276 L 78.5 276 Q 77 278.5 71.5 277 Q 57 274.5 50 264.5 L 44 252.5 L 44 238.5 Q 47.7 225.7 57.5 219 Q 62.9 214.4 72.5 214 L 82 207.5 L 86 200.5 L 89 178.5 L 100 144.5 Q 114.8 111.8 139.5 89 Q 154.1 75.1 172.5 65 L 172 66.5 L 171 77.5 L 170 78.5 L 170 92.5 L 171 93.5 L 172 105.5 L 177 120.5 Q 184.6 137.4 197.5 149 Q 211 161.5 230.5 168 L 244.5 171 L 267.5 171 L 289.5 165 L 299.5 160 L 316 148 L 329 131.5 L 336 117.5 L 338 112.5 L 338 100.5 Q 335.9 93.1 330.5 89 Q 324.2 82.8 309.5 85 L 300 90 L 292 107.5 L 281.5 119 Q 274.7 124.7 264.5 127 L 247.5 127 Q 230.6 122.9 222 110.5 L 215 96.5 Q 212.6 89.4 214 78.5 Q 217.3 62.8 227.5 54 L 242.5 45 L 251.5 43 Z M 197 213 Q 187 215 182 220 Q 172 227 170 242 Q 169 257 176 265 Q 183 275 199 278 Q 216 279 225 270 Q 233 264 235 252 L 235 239 L 229 226 Q 220 212 197 213 Z M 303 213 L 290 219 Q 280 226 277 239 Q 276 249 278 256 L 284 267 Q 291 276 306 278 Q 321 279 329 272 Q 339 265 342 250 Q 343 232 334 224 Q 329 217 320 214 Q 313 212 303 213 Z " /><path fill="rgb(0,0,0)" stroke="rgb(0,0,0)" stroke-width="1" opacity="0" d="M 0.5 256 Q 6 289 28.5 305 L 50.5 317 L 57.5 319 L 68.5 320 L 70 321.5 Q 86.8 357.2 113 383.5 Q 92.6 404.1 80 432.5 Q 71.7 450.7 67 472.5 L 67 477.5 L 65 484.5 L 65 495.5 L 71.5 507 L 80 511.5 L 0 512 L 0.5 256 Z " /><path fill="rgb(0,0,0)" stroke="rgb(0,0,0)" stroke-width="1" opacity="0" d="M 511.5 258 L 512 512 L 431 511.5 Q 439.2 509.7 443 503.5 Q 447.4 497.9 447 487.5 L 443 465.5 L 432 433.5 Q 418.9 404.6 399 382.5 Q 426.2 356.2 443.5 320 L 454.5 319 L 466.5 315 Q 482.3 308.3 493 296.5 Q 502.4 286.4 508 272.5 L 511.5 258 Z " /><path fill="rgb(0,0,0)" stroke="rgb(0,0,0)" stroke-width="1" opacity="0" d="M 146.5 412 Q 172.8 431.7 208.5 442 L 240.5 448 L 271.5 448 L 272.5 447 L 279.5 447 L 295.5 444 L 321.5 436 Q 346 426.5 365.5 412 Q 380.8 428.2 391 449.5 L 400 474.5 L 404 498.5 L 412.5 509 L 418 511.5 L 93.5 512 L 93.5 511 Q 100.9 509.9 104 504.5 L 108 496.5 L 111 476.5 L 118 455.5 Q 128.5 430 146.5 412 Z " /><path fill="rgb(161,161,170)" stroke="rgb(161,161,170)" stroke-width="1" opacity="1" d="M 245.5 0 L 278.5 1 L 279.5 2 L 298.5 4 L 324.5 11 L 344.5 19 L 365.5 30 L 395 51.5 Q 394.3 53.8 396.5 53 L 404 59 Q 402.9 61.7 405.5 61 Q 426.8 81.7 442 108.5 L 456 138.5 L 461 153.5 L 461 157.5 L 463 161.5 L 466 177 L 482 185 Q 480.9 187.7 483.5 187 L 493 195.5 Q 501.9 205.1 507 218.5 Q 512.6 231.4 512 250.5 L 511 251.5 L 510 263.5 L 501 284.5 L 483.5 304 L 464.5 315 L 449.5 319 L 443.5 319 L 441 321.5 Q 424.1 357.1 398 383.5 Q 419 405.5 432 435.5 L 440 457.5 L 444 473.5 L 444 478.5 L 446 485.5 L 446 494.5 Q 444.1 503.6 437.5 508 Q 432.2 512.2 422.5 512 Q 411.7 510.3 407 502.5 L 404 495.5 L 404 490.5 L 400 471.5 L 391 447.5 Q 381.1 426.4 365.5 411 L 341.5 426 L 313.5 438 L 296.5 443 L 280.5 446 L 263.5 447 L 262.5 448 L 249.5 448 L 248.5 447 L 239.5 447 L 238.5 446 L 231.5 446 Q 225 443 215.5 443 L 192.5 436 Q 166.9 426.1 146.5 411 Q 131 426 121 446.5 L 111 473.5 L 108 487.5 L 108 493.5 L 106 499.5 L 100.5 507 Q 95 512.5 83.5 512 Q 73.5 510 69 502.5 L 66 496.5 L 66 482.5 L 68 477.5 L 68 471.5 L 71 459.5 L 80 434.5 Q 93.4 404.9 114 382.5 L 108 375 L 105 373.5 L 90 354.5 L 68.5 319 L 61.5 319 L 53.5 317 L 35.5 309 L 16 291.5 L 4 269.5 L 1 257.5 L 0 243.5 L 1 242.5 L 1 233.5 L 5 218.5 Q 11.9 201.4 24.5 190 Q 33.6 181.4 46 177 L 50 157.5 L 56 138.5 L 70 108.5 Q 85.6 81.1 107.5 60 Q 133.2 35.2 167.5 19 Q 186.7 10.2 209.5 5 L 225.5 2 L 232.5 2 L 233.5 1 L 244.5 1 L 245.5 0 Z M 256 42 L 241 45 L 230 51 Q 217 61 213 80 Q 212 100 221 111 Q 230 124 249 128 L 264 128 Q 274 126 282 120 L 293 108 L 299 94 L 309 86 L 323 86 L 332 91 L 337 100 L 337 104 L 337 106 L 338 108 Q 333 127 322 140 Q 312 151 300 159 L 279 168 L 269 170 L 261 170 L 260 171 Q 222 170 203 152 Q 177 133 171 96 L 171 77 L 173 66 L 174 64 Q 156 73 142 86 L 123 106 Q 124 108 121 107 L 106 131 L 97 150 L 90 171 Q 91 176 88 179 L 86 198 L 83 205 L 77 211 L 70 214 L 66 214 L 57 219 L 54 221 Q 45 227 43 240 L 43 252 L 49 265 L 60 274 L 75 278 L 77 277 Q 88 275 95 279 L 102 287 Q 108 306 118 321 L 135 343 Q 134 345 137 344 L 137 346 L 154 362 Q 156 361 155 364 L 182 383 L 207 396 L 230 403 L 241 404 L 242 405 L 254 405 L 255 406 L 283 403 L 310 394 Q 337 382 358 363 Q 393 334 410 287 Q 414 280 423 277 L 436 277 L 437 278 L 451 275 L 459 270 L 465 262 L 469 252 L 468 236 L 461 224 L 449 215 L 436 211 L 427 201 L 424 185 L 424 179 L 417 155 L 412 143 L 397 116 L 384 100 Q 361 74 329 58 L 309 50 L 289 45 L 256 42 Z " /><path fill="rgb(161,161,170)" stroke="rgb(161,161,170)" stroke-width="1" opacity="1" d="M 196.5 214 Q 206.8 212.7 213.5 215 Q 222.5 218.5 228 225.5 L 233 234.5 L 234 252.5 Q 230.3 265.3 220.5 272 L 208.5 277 L 197.5 277 Q 183.9 274.1 177 264.5 L 171 250.5 L 171 239.5 Q 174.3 225.8 184.5 219 L 196.5 214 Z " /><path fill="rgb(161,161,170)" stroke="rgb(161,161,170)" stroke-width="1" opacity="1" d="M 302.5 214 Q 314.9 212.6 322.5 216 L 336 227.5 L 341 239.5 L 341 250.5 Q 338.1 264.1 328.5 271 L 314.5 277 L 303.5 277 Q 289.8 273.8 283 263.5 Q 276.1 255.4 278 238.5 Q 281 226.5 289.5 220 L 302.5 214 Z " /></svg>