<svg width="512" height="512" version="1.1" xmlns="http://www.w3.org/2000/svg" desc="Created with imagetracer.js version 1.2.6" ><path fill="rgb(0,0,0)" stroke="rgb(0,0,0)" stroke-width="1" opacity="0" d="M 0 0 L 417 0.5 Q 399.4 4.4 391 17.5 L 384 33.5 L 384 512 L 320.5 512 L 320 511.5 L 320 161.5 Q 315.7 143.8 302.5 135 L 286.5 128 L 225.5 128 Q 207.8 132.3 199 145.5 L 192 161.5 L 192 512 L 128.5 512 L 128 511.5 L 128 289.5 Q 123.7 271.8 110.5 263 L 94.5 256 L 33.5 256 Q 15.8 260.3 7 273.5 Q 2.3 279.8 0.5 289 L 0 0 Z " /><path fill="rgb(0,0,0)" stroke="rgb(0,0,0)" stroke-width="1" opacity="0" d="M 479.5 0 L 512 0 L 512 32.5 L 511 32.5 Q 507.6 14.9 494.5 7 L 482.5 1 L 479.5 1 L 479.5 0 Z " /><path fill="rgb(161,161,170)" stroke="rgb(161,161,170)" stroke-width="1" opacity="0.5254901960784314" d="M 417.5 0 L 422 0.5 L 411.5 3 L 411.5 2 L 417.5 0 Z " /><path fill="rgb(161,161,170)" stroke="rgb(161,161,170)" stroke-width="1" opacity="0.5254901960784314" d="M 474.5 0 L 478.5 0 L 485 2.5 L 483.5 3 Q 480.6 0.4 474.5 1 L 474.5 0 Z " /><path fill="rgb(161,161,170)" stroke="rgb(161,161,170)" stroke-width="1" opacity="0.5254901960784314" d="M 408.5 3 L 410 3.5 Q 399.5 8 393 16.5 L 387.5 26 L 387 24.5 Q 392.1 13.6 401.5 7 L 408.5 3 Z " /><path fill="rgb(161,161,170)" stroke="rgb(161,161,170)" stroke-width="1" opacity="0.5254901960784314" d="M 486.5 3 Q 498.5 7.5 505 17.5 L 509 25.5 L 508 25.5 Q 503.8 15.2 495.5 9 L 486.5 4 L 486.5 3 Z " /><path fill="rgb(161,161,170)" stroke="rgb(161,161,170)" stroke-width="1" opacity="0.5254901960784314" d="M 386.5 27 L 387 28.5 L 384.5 38 L 384 33.5 L 386.5 27 Z " /><path fill="rgb(161,161,170)" stroke="rgb(161,161,170)" stroke-width="1" opacity="0.5254901960784314" d="M 509.5 27 L 512 33.5 L 512 37.5 L 511 37.5 L 509.5 27 Z " /><path fill="rgb(161,161,170)" stroke="rgb(161,161,170)" stroke-width="1" opacity="0.5254901960784314" d="M 225.5 128 L 230 128.5 L 219.5 131 L 219.5 130 L 225.5 128 Z " /><path fill="rgb(161,161,170)" stroke="rgb(161,161,170)" stroke-width="1" opacity="0.5254901960784314" d="M 282.5 128 L 286.5 128 L 293 130.5 L 291.5 131 Q 288.6 128.4 282.5 129 L 282.5 128 Z " /><path fill="rgb(161,161,170)" stroke="rgb(161,161,170)" stroke-width="1" opacity="0.5254901960784314" d="M 216.5 131 L 218 131.5 Q 207.5 136 201 144.5 L 195.5 154 L 195 152.5 Q 200.1 141.6 209.5 135 L 216.5 131 Z " /><path fill="rgb(161,161,170)" stroke="rgb(161,161,170)" stroke-width="1" opacity="0.5254901960784314" d="M 294.5 131 Q 306.5 135.5 313 145.5 L 317 153.5 L 316 153.5 Q 311.8 143.2 303.5 137 L 294.5 132 L 294.5 131 Z " /><path fill="rgb(161,161,170)" stroke="rgb(161,161,170)" stroke-width="1" opacity="0.5254901960784314" d="M 194.5 155 L 195 156.5 L 192.5 166 L 192 161.5 L 194.5 155 Z " /><path fill="rgb(161,161,170)" stroke="rgb(161,161,170)" stroke-width="1" opacity="0.5254901960784314" d="M 317.5 155 L 320 161.5 L 320 165.5 L 319 165.5 L 317.5 155 Z " /><path fill="rgb(161,161,170)" stroke="rgb(161,161,170)" stroke-width="1" opacity="0.5254901960784314" d="M 33.5 256 L 38 256.5 L 27.5 259 L 27.5 258 L 33.5 256 Z " /><path fill="rgb(161,161,170)" stroke="rgb(161,161,170)" stroke-width="1" opacity="0.5254901960784314" d="M 90.5 256 L 94.5 256 L 101 258.5 L 99.5 259 Q 96.6 256.4 90.5 257 L 90.5 256 Z " /><path fill="rgb(161,161,170)" stroke="rgb(161,161,170)" stroke-width="1" opacity="0.5254901960784314" d="M 24.5 259 L 26 259.5 Q 15.5 264 9 272.5 L 3.5 282 L 3 280.5 Q 8.1 269.6 17.5 263 L 24.5 259 Z " /><path fill="rgb(161,161,170)" stroke="rgb(161,161,170)" stroke-width="1" opacity="0.5254901960784314" d="M 102.5 259 Q 114.5 263.5 121 273.5 L 125 281.5 L 124 281.5 Q 119.8 271.2 111.5 265 L 102.5 260 L 102.5 259 Z " /><path fill="rgb(161,161,170)" stroke="rgb(161,161,170)" stroke-width="1" opacity="0.5254901960784314" d="M 2.5 283 L 3 284.5 L 0.5 294 L 0 289.5 L 2.5 283 Z " /><path fill="rgb(161,161,170)" stroke="rgb(161,161,170)" stroke-width="1" opacity="0.5254901960784314" d="M 125.5 283 L 128 289.5 L 128 293.5 L 127 293.5 L 125.5 283 Z " /><path fill="rgb(161,161,170)" stroke="rgb(161,161,170)" stroke-width="1" opacity="1" d="M 422.5 0 L 473.5 0 L 489.5 5 L 502 15.5 L 509 26.5 L 512 38.5 L 512 40.5 L 512 511.5 L 511.5 512 L 384 512 L 384 38.5 L 389 22.5 L 400.5 9 L 410.5 3 L 422.5 0 Z " /><path fill="rgb(161,161,170)" stroke="rgb(161,161,170)" stroke-width="1" opacity="1" d="M 230.5 128 L 281.5 128 L 297.5 133 L 310 143.5 L 317 154.5 L 320 166.5 L 320 168.5 L 320 512 L 192 512 L 192 166.5 L 197 150.5 L 208.5 137 L 218.5 131 L 230.5 128 Z " /><path fill="rgb(161,161,170)" stroke="rgb(161,161,170)" stroke-width="1" opacity="1" d="M 38.5 256 L 89.5 256 L 105.5 261 L 118 271.5 L 125 282.5 L 128 294.5 L 128 296.5 L 128 512 L 0 512 L 0 294.5 L 5 278.5 L 16.5 265 L 26.5 259 L 38.5 256 Z " /></svg>