<svg width="512" height="512" version="1.1" xmlns="http://www.w3.org/2000/svg" desc="Created with imagetracer.js version 1.2.6" ><path fill="rgb(0,0,0)" stroke="rgb(0,0,0)" stroke-width="1" opacity="0" d="M 0 0 L 233 0.5 L 205.5 4 L 181.5 10 Q 155.5 18 133.5 30 Q 92.6 52.6 63 86.5 Q 36.1 116.6 19 156.5 Q 10.4 176.9 5 200.5 L 0.5 233 L 0 0 Z " /><path fill="rgb(0,0,0)" stroke="rgb(0,0,0)" stroke-width="1" opacity="0" d="M 279.5 0 L 512 0 L 512 232.5 L 511 232.5 L 509 210.5 L 502 181.5 Q 494 155.5 482 133.5 Q 459.4 92.6 425.5 63 Q 395.4 36.1 355.5 19 L 323.5 8 L 295.5 2 L 279.5 1 L 279.5 0 Z " /><path fill="rgb(0,0,0)" stroke="rgb(0,0,0)" stroke-width="1" opacity="0" d="M 244.5 43 L 267.5 43 L 268.5 44 L 279.5 44 L 280.5 45 L 298.5 47 L 314.5 51 L 339.5 60 Q 384.6 79.9 415 114.5 Q 437.5 139.5 452 172.5 L 462 201.5 L 467 225.5 L 468 244.5 L 469 245.5 L 469 469 L 244.5 469 L 243.5 468 L 233.5 468 L 232.5 467 L 219.5 466 Q 180 458.5 150.5 441 Q 119.8 423.2 97 397.5 Q 71.1 368.9 56 329.5 L 50 310.5 L 45 286.5 L 44 267.5 L 43 266.5 L 43 245.5 L 44 244.5 L 44 233.5 L 45 232.5 L 45 225.5 L 48 209.5 L 60 172.5 Q 79.9 127.4 114.5 97 Q 139.5 74.5 172.5 60 L 209.5 48 L 225.5 45 L 232.5 45 L 233.5 44 L 243.5 44 L 244.5 43 Z " /><path fill="rgb(0,0,0)" stroke="rgb(0,0,0)" stroke-width="1" opacity="0" d="M 0.5 279 L 3 301.5 L 10 330.5 Q 17.6 355.4 29 376.5 Q 51.8 418.7 86.5 449 Q 116.7 475.8 156.5 493 L 196.5 506 L 217.5 510 L 233 511.5 L 0 512 L 0.5 279 Z " /><path fill="rgb(162,162,171)" stroke="rgb(162,162,171)" stroke-width="1" opacity="0.5215686274509804" d="M 233.5 0 L 245 0.5 L 233.5 1 L 233.5 0 Z " /><path fill="rgb(162,162,171)" stroke="rgb(162,162,171)" stroke-width="1" opacity="0.5215686274509804" d="M 267.5 0 L 279 0.5 L 267.5 1 L 267.5 0 Z " /><path fill="rgb(162,162,171)" stroke="rgb(162,162,171)" stroke-width="1" opacity="0.5215686274509804" d="M 224.5 1 L 231 1.5 L 224.5 2 L 224.5 1 Z " /><path fill="rgb(162,162,171)" stroke="rgb(162,162,171)" stroke-width="1" opacity="0.5215686274509804" d="M 281.5 1 L 288 1.5 L 281.5 2 L 281.5 1 Z " /><path fill="rgb(162,162,171)" stroke="rgb(162,162,171)" stroke-width="1" opacity="0.5215686274509804" d="M 216.5 2 L 222 2.5 L 216.5 3 L 216.5 2 Z " /><path fill="rgb(162,162,171)" stroke="rgb(162,162,171)" stroke-width="1" opacity="0.5215686274509804" d="M 290.5 2 L 296 2.5 L 290.5 3 L 290.5 2 Z " /><path fill="rgb(162,162,171)" stroke="rgb(162,162,171)" stroke-width="1" opacity="0.5215686274509804" d="M 211.5 3 L 215 3.5 L 211.5 4 L 211.5 3 Z " /><path fill="rgb(162,162,171)" stroke="rgb(162,162,171)" stroke-width="1" opacity="0.5215686274509804" d="M 297.5 3 L 302 3.5 L 297.5 4 L 297.5 3 Z " /><path fill="rgb(162,162,171)" stroke="rgb(162,162,171)" stroke-width="1" opacity="0.5215686274509804" d="M 205.5 4 L 209 4.5 L 205.5 5 L 205.5 4 Z " /><path fill="rgb(162,162,171)" stroke="rgb(162,162,171)" stroke-width="1" opacity="0.5215686274509804" d="M 303.5 4 L 307 4.5 L 303.5 5 L 303.5 4 Z " /><path fill="rgb(162,162,171)" stroke="rgb(162,162,171)" stroke-width="1" opacity="0.5215686274509804" d="M 200.5 5 L 204 5.5 L 192.5 8 L 192.5 7 L 200.5 5 Z " /><path fill="rgb(162,162,171)" stroke="rgb(162,162,171)" stroke-width="1" opacity="0.5215686274509804" d="M 308.5 5 L 316 6.5 L 312.5 7 L 308.5 6 L 308.5 5 Z " /><path fill="rgb(162,162,171)" stroke="rgb(162,162,171)" stroke-width="1" opacity="0.5215686274509804" d="M 317.5 7 L 320 7.5 L 317.5 8 L 317.5 7 Z " /><path fill="rgb(162,162,171)" stroke="rgb(162,162,171)" stroke-width="1" opacity="0.5215686274509804" d="M 188.5 8 L 191 8.5 L 185.5 10 L 185.5 9 L 188.5 8 Z " /><path fill="rgb(162,162,171)" stroke="rgb(162,162,171)" stroke-width="1" opacity="0.5215686274509804" d="M 321.5 8 L 327 9.5 L 324.5 10 L 321.5 9 L 321.5 8 Z " /><path fill="rgb(162,162,171)" stroke="rgb(162,162,171)" stroke-width="1" opacity="0.5215686274509804" d="M 181.5 10 L 184 10.5 Q 165.8 15.3 150.5 23 L 150.5 22 L 181.5 10 Z " /><path fill="rgb(162,162,171)" stroke="rgb(162,162,171)" stroke-width="1" opacity="0.5215686274509804" d="M 328.5 10 Q 347.2 14.3 362 22.5 L 360.5 23 Q 346.5 15 328.5 11 L 328.5 10 Z " /><path fill="rgb(162,162,171)" stroke="rgb(162,162,171)" stroke-width="1" opacity="0.5215686274509804" d="M 147.5 23 L 149 23.5 Q 99.1 46.6 65 85.5 Q 39.9 112.9 23.5 149 L 23 147.5 Q 47 97.5 86.5 63 Q 113.2 39.2 147.5 23 Z " /><path fill="rgb(162,162,171)" stroke="rgb(162,162,171)" stroke-width="1" opacity="0.5215686274509804" d="M 363.5 23 Q 414.5 46.5 449 86.5 Q 473.3 113.2 489 148.5 L 488 148.5 Q 465.2 98.8 426.5 65 L 402.5 46 L 378.5 31 L 363.5 24 L 363.5 23 Z " /><path fill="rgb(162,162,171)" stroke="rgb(162,162,171)" stroke-width="1" opacity="0.5215686274509804" d="M 252.5 42 L 260 42.5 L 252.5 43 L 252.5 42 Z " /><path fill="rgb(162,162,171)" stroke="rgb(162,162,171)" stroke-width="1" opacity="0.5215686274509804" d="M 234.5 43 L 244 43.5 L 234.5 44 L 234.5 43 Z " /><path fill="rgb(162,162,171)" stroke="rgb(162,162,171)" stroke-width="1" opacity="0.5215686274509804" d="M 268.5 43 L 278 43.5 L 268.5 44 L 268.5 43 Z " /><path fill="rgb(162,162,171)" stroke="rgb(162,162,171)" stroke-width="1" opacity="0.5215686274509804" d="M 227.5 44 L 233 44.5 L 227.5 45 L 227.5 44 Z " /><path fill="rgb(162,162,171)" stroke="rgb(162,162,171)" stroke-width="1" opacity="0.5215686274509804" d="M 280.5 44 L 286 44.5 L 280.5 45 L 280.5 44 Z " /><path fill="rgb(162,162,171)" stroke="rgb(162,162,171)" stroke-width="1" opacity="0.5215686274509804" d="M 220.5 45 L 225 45.5 L 220.5 46 L 220.5 45 Z " /><path fill="rgb(162,162,171)" stroke="rgb(162,162,171)" stroke-width="1" opacity="0.5215686274509804" d="M 287.5 45 L 292 45.5 L 287.5 46 L 287.5 45 Z " /><path fill="rgb(162,162,171)" stroke="rgb(162,162,171)" stroke-width="1" opacity="0.5215686274509804" d="M 215.5 46 L 219 46.5 L 215.5 47 L 215.5 46 Z " /><path fill="rgb(162,162,171)" stroke="rgb(162,162,171)" stroke-width="1" opacity="0.5215686274509804" d="M 293.5 46 L 298 46.5 L 293.5 47 L 293.5 46 Z " /><path fill="rgb(162,162,171)" stroke="rgb(162,162,171)" stroke-width="1" opacity="0.5215686274509804" d="M 210.5 47 L 214 47.5 L 210.5 48 L 210.5 47 Z " /><path fill="rgb(162,162,171)" stroke="rgb(162,162,171)" stroke-width="1" opacity="0.5215686274509804" d="M 299.5 47 L 302 47.5 L 299.5 48 L 299.5 47 Z " /><path fill="rgb(162,162,171)" stroke="rgb(162,162,171)" stroke-width="1" opacity="0.5215686274509804" d="M 206.5 48 L 209 48.5 L 206.5 49 L 206.5 48 Z " /><path fill="rgb(162,162,171)" stroke="rgb(162,162,171)" stroke-width="1" opacity="0.5215686274509804" d="M 303.5 48 L 310 49.5 L 307.5 50 L 303.5 49 L 303.5 48 Z " /><path fill="rgb(162,162,171)" stroke="rgb(162,162,171)" stroke-width="1" opacity="0.5215686274509804" d="M 201.5 49 L 205 49.5 L 195.5 52 L 195.5 51 L 201.5 49 Z " /><path fill="rgb(162,162,171)" stroke="rgb(162,162,171)" stroke-width="1" opacity="0.5215686274509804" d="M 311.5 50 L 314 50.5 L 311.5 51 L 311.5 50 Z " /><path fill="rgb(162,162,171)" stroke="rgb(162,162,171)" stroke-width="1" opacity="0.5215686274509804" d="M 315.5 51 Q 379.1 70.4 417 115.5 Q 445.9 147.1 460 193.5 L 459 193.5 L 452 172.5 L 438 145.5 Q 421.1 117.9 397.5 97 Q 381.2 82.3 361.5 71 Q 341.2 58.8 315.5 52 L 315.5 51 Z " /><path fill="rgb(162,162,171)" stroke="rgb(162,162,171)" stroke-width="1" opacity="0.5215686274509804" d="M 191.5 52 L 194 52.5 L 186.5 55 L 186.5 54 L 191.5 52 Z " /><path fill="rgb(162,162,171)" stroke="rgb(162,162,171)" stroke-width="1" opacity="0.5215686274509804" d="M 182.5 55 L 185 55.5 Q 131.2 75.2 97 114.5 Q 63.8 150.3 49.5 205 L 49 201.5 Q 68.7 134.7 115.5 95 Q 143.8 69.8 182.5 55 Z " /><path fill="rgb(162,162,171)" stroke="rgb(162,162,171)" stroke-width="1" opacity="0.5215686274509804" d="M 22.5 150 L 23 151.5 Q 15 166 10.5 184 L 10 181.5 L 22.5 150 Z " /><path fill="rgb(162,162,171)" stroke="rgb(162,162,171)" stroke-width="1" opacity="0.5215686274509804" d="M 489.5 150 Q 497.7 164.8 502 183.5 L 501 183.5 L 496 166.5 L 489 151.5 L 489.5 150 Z " /><path fill="rgb(162,162,171)" stroke="rgb(162,162,171)" stroke-width="1" opacity="0.5215686274509804" d="M 9.5 185 L 10 187.5 L 8.5 191 L 8 188.5 L 9.5 185 Z " /><path fill="rgb(162,162,171)" stroke="rgb(162,162,171)" stroke-width="1" opacity="0.5215686274509804" d="M 502.5 185 L 504 190.5 L 503 190.5 L 502.5 185 Z " /><path fill="rgb(162,162,171)" stroke="rgb(162,162,171)" stroke-width="1" opacity="0.5215686274509804" d="M 7.5 192 L 8 194.5 L 7 194.5 L 7.5 192 Z " /><path fill="rgb(162,162,171)" stroke="rgb(162,162,171)" stroke-width="1" opacity="0.5215686274509804" d="M 504.5 192 L 505 194.5 L 504 194.5 L 504.5 192 Z " /><path fill="rgb(162,162,171)" stroke="rgb(162,162,171)" stroke-width="1" opacity="0.5215686274509804" d="M 460.5 195 L 462 200.5 L 461 200.5 L 460.5 195 Z " /><path fill="rgb(162,162,171)" stroke="rgb(162,162,171)" stroke-width="1" opacity="0.5215686274509804" d="M 6.5 196 L 7 199.5 L 5.5 204 L 5 200.5 L 6.5 196 Z " /><path fill="rgb(162,162,171)" stroke="rgb(162,162,171)" stroke-width="1" opacity="0.5215686274509804" d="M 505.5 196 L 507 203.5 L 506 203.5 L 505.5 196 Z " /><path fill="rgb(162,162,171)" stroke="rgb(162,162,171)" stroke-width="1" opacity="0.5215686274509804" d="M 462.5 202 L 463 204.5 L 462 204.5 L 462.5 202 Z " /><path fill="rgb(162,162,171)" stroke="rgb(162,162,171)" stroke-width="1" opacity="0.5215686274509804" d="M 4.5 205 L 5 208.5 L 4 208.5 L 4.5 205 Z " /><path fill="rgb(162,162,171)" stroke="rgb(162,162,171)" stroke-width="1" opacity="0.5215686274509804" d="M 507.5 205 L 508 208.5 L 507 208.5 L 507.5 205 Z " /><path fill="rgb(162,162,171)" stroke="rgb(162,162,171)" stroke-width="1" opacity="0.5215686274509804" d="M 48.5 206 L 49 208.5 L 48 208.5 L 48.5 206 Z " /><path fill="rgb(162,162,171)" stroke="rgb(162,162,171)" stroke-width="1" opacity="0.5215686274509804" d="M 463.5 206 L 464 208.5 L 463 208.5 L 463.5 206 Z " /><path fill="rgb(162,162,171)" stroke="rgb(162,162,171)" stroke-width="1" opacity="0.5215686274509804" d="M 3.5 210 L 4 214.5 L 3 214.5 L 3.5 210 Z " /><path fill="rgb(162,162,171)" stroke="rgb(162,162,171)" stroke-width="1" opacity="0.5215686274509804" d="M 47.5 210 L 48 213.5 L 46.5 219 L 46 214.5 L 47.5 210 Z " /><path fill="rgb(162,162,171)" stroke="rgb(162,162,171)" stroke-width="1" opacity="0.5215686274509804" d="M 464.5 210 L 465 213.5 L 464 213.5 L 464.5 210 Z " /><path fill="rgb(162,162,171)" stroke="rgb(162,162,171)" stroke-width="1" opacity="0.5215686274509804" d="M 508.5 210 L 509 214.5 L 508 214.5 L 508.5 210 Z " /><path fill="rgb(162,162,171)" stroke="rgb(162,162,171)" stroke-width="1" opacity="0.5215686274509804" d="M 465.5 215 L 466 218.5 L 465 218.5 L 465.5 215 Z " /><path fill="rgb(162,162,171)" stroke="rgb(162,162,171)" stroke-width="1" opacity="0.5215686274509804" d="M 2.5 216 L 3 221.5 L 2 221.5 L 2.5 216 Z " /><path fill="rgb(162,162,171)" stroke="rgb(162,162,171)" stroke-width="1" opacity="0.5215686274509804" d="M 509.5 216 L 510 221.5 L 509 221.5 L 509.5 216 Z " /><path fill="rgb(162,162,171)" stroke="rgb(162,162,171)" stroke-width="1" opacity="0.5215686274509804" d="M 45.5 220 L 46 224.5 L 45 224.5 L 45.5 220 Z " /><path fill="rgb(162,162,171)" stroke="rgb(162,162,171)" stroke-width="1" opacity="0.5215686274509804" d="M 466.5 220 L 467 224.5 L 466 224.5 L 466.5 220 Z " /><path fill="rgb(162,162,171)" stroke="rgb(162,162,171)" stroke-width="1" opacity="0.5215686274509804" d="M 1.5 224 L 2 230.5 L 1 230.5 L 1.5 224 Z " /><path fill="rgb(162,162,171)" stroke="rgb(162,162,171)" stroke-width="1" opacity="0.5215686274509804" d="M 510.5 224 L 511 230.5 L 510 230.5 L 510.5 224 Z " /><path fill="rgb(162,162,171)" stroke="rgb(162,162,171)" stroke-width="1" opacity="0.5215686274509804" d="M 44.5 226 L 45 232.5 L 44 232.5 L 44.5 226 Z " /><path fill="rgb(162,162,171)" stroke="rgb(162,162,171)" stroke-width="1" opacity="0.5215686274509804" d="M 467.5 227 L 468 232.5 L 467 232.5 L 467.5 227 Z " /><path fill="rgb(162,162,171)" stroke="rgb(162,162,171)" stroke-width="1" opacity="0.5215686274509804" d="M 0.5 233 L 1 244.5 L 0 244.5 L 0.5 233 Z " /><path fill="rgb(162,162,171)" stroke="rgb(162,162,171)" stroke-width="1" opacity="0.5215686274509804" d="M 511.5 233 L 512 244.5 L 511 244.5 L 511.5 233 Z " /><path fill="rgb(162,162,171)" stroke="rgb(162,162,171)" stroke-width="1" opacity="0.5215686274509804" d="M 43.5 234 L 44 244.5 L 43 244.5 L 43.5 234 Z " /><path fill="rgb(162,162,171)" stroke="rgb(162,162,171)" stroke-width="1" opacity="0.5215686274509804" d="M 468.5 235 L 469 244.5 L 468 244.5 L 468.5 235 Z " /><path fill="rgb(162,162,171)" stroke="rgb(162,162,171)" stroke-width="1" opacity="0.5215686274509804" d="M 42.5 252 L 43 259.5 L 42 259.5 L 42.5 252 Z " /><path fill="rgb(162,162,171)" stroke="rgb(162,162,171)" stroke-width="1" opacity="0.5215686274509804" d="M 469.5 253 L 470 468.5 L 468.5 470 L 252.5 470 L 252.5 469 L 469 469 L 469.5 253 Z " /><path fill="rgb(162,162,171)" stroke="rgb(162,162,171)" stroke-width="1" opacity="0.5215686274509804" d="M 0.5 267 L 1 278.5 L 0 278.5 L 0.5 267 Z " /><path fill="rgb(162,162,171)" stroke="rgb(162,162,171)" stroke-width="1" opacity="0.5215686274509804" d="M 43.5 267 L 44 277.5 L 43 277.5 L 43.5 267 Z " /><path fill="rgb(162,162,171)" stroke="rgb(162,162,171)" stroke-width="1" opacity="0.5215686274509804" d="M 44.5 279 L 45 285.5 L 44 285.5 L 44.5 279 Z " /><path fill="rgb(162,162,171)" stroke="rgb(162,162,171)" stroke-width="1" opacity="0.5215686274509804" d="M 1.5 281 L 2 287.5 L 1 287.5 L 1.5 281 Z " /><path fill="rgb(162,162,171)" stroke="rgb(162,162,171)" stroke-width="1" opacity="0.5215686274509804" d="M 45.5 287 L 46 291.5 L 45 291.5 L 45.5 287 Z " /><path fill="rgb(162,162,171)" stroke="rgb(162,162,171)" stroke-width="1" opacity="0.5215686274509804" d="M 2.5 290 L 3 295.5 L 2 295.5 L 2.5 290 Z " /><path fill="rgb(162,162,171)" stroke="rgb(162,162,171)" stroke-width="1" opacity="0.5215686274509804" d="M 46.5 293 L 47 296.5 L 46 296.5 L 46.5 293 Z " /><path fill="rgb(162,162,171)" stroke="rgb(162,162,171)" stroke-width="1" opacity="0.5215686274509804" d="M 3.5 297 L 4 301.5 L 3 301.5 L 3.5 297 Z " /><path fill="rgb(162,162,171)" stroke="rgb(162,162,171)" stroke-width="1" opacity="0.5215686274509804" d="M 47.5 298 L 48 301.5 L 47 301.5 L 47.5 298 Z " /><path fill="rgb(162,162,171)" stroke="rgb(162,162,171)" stroke-width="1" opacity="0.5215686274509804" d="M 4.5 303 L 5 306.5 L 4 306.5 L 4.5 303 Z " /><path fill="rgb(162,162,171)" stroke="rgb(162,162,171)" stroke-width="1" opacity="0.5215686274509804" d="M 48.5 303 L 49 305.5 L 48 305.5 L 48.5 303 Z " /><path fill="rgb(162,162,171)" stroke="rgb(162,162,171)" stroke-width="1" opacity="0.5215686274509804" d="M 49.5 307 L 50 309.5 L 49 309.5 L 49.5 307 Z " /><path fill="rgb(162,162,171)" stroke="rgb(162,162,171)" stroke-width="1" opacity="0.5215686274509804" d="M 5.5 308 L 7 315.5 L 6 315.5 L 5.5 308 Z " /><path fill="rgb(162,162,171)" stroke="rgb(162,162,171)" stroke-width="1" opacity="0.5215686274509804" d="M 50.5 311 L 52 316.5 L 51 316.5 L 50.5 311 Z " /><path fill="rgb(162,162,171)" stroke="rgb(162,162,171)" stroke-width="1" opacity="0.5215686274509804" d="M 7.5 317 L 8 319.5 L 7 319.5 L 7.5 317 Z " /><path fill="rgb(162,162,171)" stroke="rgb(162,162,171)" stroke-width="1" opacity="0.5215686274509804" d="M 52.5 318 Q 71.7 378.3 114.5 415 Q 143.6 441.9 185 456.5 L 182.5 457 Q 129.3 436.2 95 396.5 Q 81 380.5 70 361.5 L 59 339.5 L 52 320.5 L 52.5 318 Z " /><path fill="rgb(162,162,171)" stroke="rgb(162,162,171)" stroke-width="1" opacity="0.5215686274509804" d="M 8.5 321 L 10 326.5 L 9 326.5 L 8.5 321 Z " /><path fill="rgb(162,162,171)" stroke="rgb(162,162,171)" stroke-width="1" opacity="0.5215686274509804" d="M 10.5 328 Q 15.3 346.3 23 361.5 L 22 361.5 Q 13.8 346.3 10.5 328 Z " /><path fill="rgb(162,162,171)" stroke="rgb(162,162,171)" stroke-width="1" opacity="0.5215686274509804" d="M 23.5 363 L 31 377.5 L 29 376.5 L 23 364.5 L 23.5 363 Z " /><path fill="rgb(162,162,171)" stroke="rgb(162,162,171)" stroke-width="1" opacity="0.5215686274509804" d="M 31.5 379 Q 52.7 417.8 84.5 446 Q 112.3 471.7 149 488.5 L 147.5 489 Q 97.5 465 63 425.5 Q 43.9 404.5 31.5 379 Z " /><path fill="rgb(162,162,171)" stroke="rgb(162,162,171)" stroke-width="1" opacity="0.5215686274509804" d="M 186.5 457 L 194 459.5 L 191.5 460 L 186.5 458 L 186.5 457 Z " /><path fill="rgb(162,162,171)" stroke="rgb(162,162,171)" stroke-width="1" opacity="0.5215686274509804" d="M 195.5 460 L 201 461.5 L 198.5 462 L 195.5 461 L 195.5 460 Z " /><path fill="rgb(162,162,171)" stroke="rgb(162,162,171)" stroke-width="1" opacity="0.5215686274509804" d="M 202.5 462 L 205 462.5 L 202.5 463 L 202.5 462 Z " /><path fill="rgb(162,162,171)" stroke="rgb(162,162,171)" stroke-width="1" opacity="0.5215686274509804" d="M 206.5 463 L 209 463.5 L 206.5 464 L 206.5 463 Z " /><path fill="rgb(162,162,171)" stroke="rgb(162,162,171)" stroke-width="1" opacity="0.5215686274509804" d="M 210.5 464 L 214 464.5 L 210.5 465 L 210.5 464 Z " /><path fill="rgb(162,162,171)" stroke="rgb(162,162,171)" stroke-width="1" opacity="0.5215686274509804" d="M 215.5 465 L 219 465.5 L 215.5 466 L 215.5 465 Z " /><path fill="rgb(162,162,171)" stroke="rgb(162,162,171)" stroke-width="1" opacity="0.5215686274509804" d="M 220.5 466 L 225 466.5 L 220.5 467 L 220.5 466 Z " /><path fill="rgb(162,162,171)" stroke="rgb(162,162,171)" stroke-width="1" opacity="0.5215686274509804" d="M 227.5 467 L 233 467.5 L 227.5 468 L 227.5 467 Z " /><path fill="rgb(162,162,171)" stroke="rgb(162,162,171)" stroke-width="1" opacity="0.5215686274509804" d="M 235.5 468 L 244 468.5 L 235.5 469 L 235.5 468 Z " /><path fill="rgb(162,162,171)" stroke="rgb(162,162,171)" stroke-width="1" opacity="0.5215686274509804" d="M 150.5 489 Q 165.8 496.8 184 501.5 L 181.5 502 L 156.5 493 L 150.5 490 L 150.5 489 Z " /><path fill="rgb(162,162,171)" stroke="rgb(162,162,171)" stroke-width="1" opacity="0.5215686274509804" d="M 185.5 502 L 191 503.5 L 188.5 504 L 185.5 503 L 185.5 502 Z " /><path fill="rgb(162,162,171)" stroke="rgb(162,162,171)" stroke-width="1" opacity="0.5215686274509804" d="M 192.5 504 L 200 505.5 L 196.5 506 L 192.5 505 L 192.5 504 Z " /><path fill="rgb(162,162,171)" stroke="rgb(162,162,171)" stroke-width="1" opacity="0.5215686274509804" d="M 201.5 506 L 204 506.5 L 201.5 507 L 201.5 506 Z " /><path fill="rgb(162,162,171)" stroke="rgb(162,162,171)" stroke-width="1" opacity="0.5215686274509804" d="M 205.5 507 L 210 507.5 L 205.5 508 L 205.5 507 Z " /><path fill="rgb(162,162,171)" stroke="rgb(162,162,171)" stroke-width="1" opacity="0.5215686274509804" d="M 211.5 508 L 216 508.5 L 211.5 509 L 211.5 508 Z " /><path fill="rgb(162,162,171)" stroke="rgb(162,162,171)" stroke-width="1" opacity="0.5215686274509804" d="M 217.5 509 L 222 509.5 L 217.5 510 L 217.5 509 Z " /><path fill="rgb(162,162,171)" stroke="rgb(162,162,171)" stroke-width="1" opacity="0.5215686274509804" d="M 224.5 510 L 231 510.5 L 224.5 511 L 224.5 510 Z " /><path fill="rgb(162,162,171)" stroke="rgb(162,162,171)" stroke-width="1" opacity="0.5215686274509804" d="M 233.5 511 L 245 511.5 L 233.5 512 L 233.5 511 Z " /><path fill="rgb(161,161,170)" stroke="rgb(161,161,170)" stroke-width="1" opacity="1" d="M 245.5 0 L 266.5 0 L 267.5 1 L 280.5 1 L 281.5 2 L 302.5 4 L 327.5 10 L 355.5 20 Q 410.2 43.8 447 85.5 Q 472.1 113.4 489 149.5 L 504 191.5 L 504 195.5 L 508 209.5 L 510 230.5 L 511 231.5 L 511 233.5 L 511 244.5 L 512 246.5 L 512 250.5 L 512 512 L 246.5 512 L 245.5 511 L 231.5 511 L 230.5 510 L 216.5 509 L 191.5 504 L 149.5 489 Q 99.7 465.3 65 426.5 Q 34.1 392.4 16 345.5 L 8 320.5 L 3 296.5 L 2 281.5 L 1 280.5 L 1 267.5 L 0 266.5 L 0 245.5 L 1 244.5 L 2 222.5 L 7 195.5 L 20 156.5 Q 38.1 114.1 67.5 83 Q 69.8 83.8 69 81.5 Q 84.3 64.8 102.5 51 L 126.5 35 L 149.5 23 L 191.5 8 L 215.5 3 L 230.5 2 L 231.5 1 L 244.5 1 L 245.5 0 Z M 253 42 L 252 43 L 235 43 L 234 44 L 211 47 L 192 52 L 173 59 L 138 78 L 106 103 L 78 138 L 59 173 L 47 210 L 44 227 L 44 234 L 43 235 L 43 250 L 43 252 Q 40 253 42 260 L 42 262 L 43 263 L 43 278 L 44 279 L 45 292 L 49 311 L 56 333 Q 71 369 95 397 Q 126 433 173 453 L 192 460 L 211 465 L 228 468 L 235 468 L 236 469 L 249 469 L 251 469 L 253 470 L 469 470 L 470 469 L 470 253 L 469 252 L 470 250 L 469 248 L 469 236 L 468 235 L 467 221 L 457 183 Q 442 144 417 116 L 391 90 Q 388 91 389 88 L 364 71 L 330 55 L 298 46 L 279 44 L 278 43 L 253 42 Z " /></svg>