<svg width="512" height="512" version="1.1" xmlns="http://www.w3.org/2000/svg" desc="Created with imagetracer.js version 1.2.6" ><path fill="rgb(0,0,0)" stroke="rgb(0,0,0)" stroke-width="1" opacity="0" d="M 0 0 L 163 0.5 Q 153.8 3.3 149 10.5 L 144 22.5 L 137 49.5 L 134.5 52 L 100.5 61 L 89 70.5 Q 83.3 76.8 85 90.5 Q 87.4 100.6 94.5 106 L 101.5 110 L 135.5 119 L 137 120.5 L 146 154.5 L 154.5 166 Q 161.3 172.7 176.5 171 Q 186.8 168.3 192 160.5 L 196 152.5 L 204 121.5 L 206.5 119 L 239.5 110 Q 247.6 107.1 252 100.5 Q 258.3 93.8 256 78.5 Q 253.8 70.8 248.5 66 L 240.5 61 L 205 51 L 195 15.5 L 188.5 6 L 178 0.5 L 430.5 0 L 430.5 1 Q 421.6 2.6 418 9.5 L 414 19.5 L 408 43.5 L 406.5 45 L 376.5 53 L 366 61.5 Q 361.6 67.1 362 77.5 Q 363.9 89.1 372.5 94 L 385.5 99 L 405.5 104 L 408 106.5 L 415 133.5 Q 417.9 141.6 424.5 146 Q 429.8 150.2 439.5 150 Q 450.8 148.3 456 140.5 L 459 135.5 L 465 111.5 L 468.5 104 L 498.5 96 L 508 88.5 L 511.5 81 L 512 333.5 L 511 333.5 Q 509.6 325.9 504.5 322 L 496.5 317 L 461 307 L 451 271.5 L 444.5 262 Q 437.5 253.5 419.5 256 Q 410.2 259.2 405 266.5 L 400 278.5 L 393 305.5 L 390.5 308 L 356.5 317 L 345 326.5 Q 339.3 332.8 341 346.5 Q 343.4 356.6 350.5 362 L 357.5 366 L 391.5 375 L 393 376.5 L 402 410.5 L 410.5 422 Q 417.3 428.7 432.5 427 Q 442.8 424.3 448 416.5 L 452 408.5 L 460 377.5 L 462.5 375 L 495.5 366 Q 503.6 363.1 508 356.5 L 511.5 349 L 512 512 L 0 512 L 0 0 Z M 313 128 L 293 133 L 275 144 L 16 403 L 7 417 L 3 428 L 1 439 L 1 452 L 3 463 Q 7 478 17 489 Q 25 498 37 504 L 47 508 L 62 511 L 73 511 L 74 510 L 85 509 Q 99 505 110 496 L 369 237 Q 380 224 384 205 L 384 183 L 382 174 Q 378 161 370 152 Q 359 139 343 132 L 325 128 L 313 128 Z " /><path fill="rgb(0,0,0)" stroke="rgb(0,0,0)" stroke-width="1" opacity="0" d="M 444.5 0 L 512 0 L 512 67.5 L 511 67.5 Q 509.9 60.1 504.5 57 L 491.5 51 L 467 45 L 459 14.5 L 451.5 4 L 444.5 1 L 444.5 0 Z " /><path fill="rgb(0,0,0)" stroke="rgb(0,0,0)" stroke-width="1" opacity="0" d="M 316.5 170 Q 332.4 169.6 338 179.5 L 342 188.5 L 342 195.5 L 337 206.5 L 277.5 266 L 246 234.5 L 304.5 176 L 316.5 170 Z " /><path fill="rgb(0,0,0)" stroke="rgb(0,0,0)" stroke-width="1" opacity="0" d="M 215.5 266 L 246 297.5 L 80.5 463 Q 75.1 468.6 64.5 469 L 54.5 466 L 48 460.5 Q 42.7 455.3 43 444.5 L 47 434.5 L 215.5 266 Z " /><path fill="rgb(165,165,173)" stroke="rgb(165,165,173)" stroke-width="1" opacity="0.4666666666666667" d="M 163.5 0 L 167 0.5 Q 155.2 2.2 150 10.5 L 148.5 13 L 149 11.5 L 155.5 4 L 163.5 0 Z " /><path fill="rgb(165,165,173)" stroke="rgb(165,165,173)" stroke-width="1" opacity="0.4666666666666667" d="M 174.5 0 L 178 0.5 L 174.5 1 L 174.5 0 Z " /><path fill="rgb(165,165,173)" stroke="rgb(165,165,173)" stroke-width="1" opacity="0.4666666666666667" d="M 431.5 0 L 435 0.5 L 431.5 1 L 431.5 0 Z " /><path fill="rgb(165,165,173)" stroke="rgb(165,165,173)" stroke-width="1" opacity="0.4666666666666667" d="M 440.5 0 L 446 1.5 L 444.5 2 L 440.5 1 L 440.5 0 Z " /><path fill="rgb(165,165,173)" stroke="rgb(165,165,173)" stroke-width="1" opacity="0.4666666666666667" d="M 179.5 1 L 190 7.5 L 195 16.5 L 194 16.5 Q 191.6 7.9 184.5 4 L 179.5 2 L 179.5 1 Z " /><path fill="rgb(165,165,173)" stroke="rgb(165,165,173)" stroke-width="1" opacity="0.4666666666666667" d="M 428.5 1 L 430 1.5 Q 422.7 3.7 419 9.5 L 416.5 15 L 416 13.5 L 424.5 3 L 428.5 1 Z " /><path fill="rgb(165,165,173)" stroke="rgb(165,165,173)" stroke-width="1" opacity="0.4666666666666667" d="M 447.5 2 L 455 7.5 L 459 15.5 L 458 15.5 L 452.5 6 L 447.5 3 L 447.5 2 Z " /><path fill="rgb(165,165,173)" stroke="rgb(165,165,173)" stroke-width="1" opacity="0.4666666666666667" d="M 415.5 16 L 416 18.5 L 414.5 22 L 414 19.5 L 415.5 16 Z " /><path fill="rgb(165,165,173)" stroke="rgb(165,165,173)" stroke-width="1" opacity="0.4666666666666667" d="M 459.5 17 L 461 22.5 L 460 22.5 L 459.5 17 Z " /><path fill="rgb(165,165,173)" stroke="rgb(165,165,173)" stroke-width="1" opacity="0.4666666666666667" d="M 195.5 18 L 197 23.5 L 196 23.5 L 195.5 18 Z " /><path fill="rgb(165,165,173)" stroke="rgb(165,165,173)" stroke-width="1" opacity="0.4666666666666667" d="M 145.5 19 L 146 21.5 L 144.5 25 L 144 22.5 L 145.5 19 Z " /><path fill="rgb(165,165,173)" stroke="rgb(165,165,173)" stroke-width="1" opacity="0.4666666666666667" d="M 413.5 23 L 414 25.5 L 412.5 29 L 412 26.5 L 413.5 23 Z " /><path fill="rgb(165,165,173)" stroke="rgb(165,165,173)" stroke-width="1" opacity="0.4666666666666667" d="M 461.5 24 L 463 29.5 L 462 29.5 L 461.5 24 Z " /><path fill="rgb(165,165,173)" stroke="rgb(165,165,173)" stroke-width="1" opacity="0.4666666666666667" d="M 197.5 25 L 199 30.5 L 198 30.5 L 197.5 25 Z " /><path fill="rgb(165,165,173)" stroke="rgb(165,165,173)" stroke-width="1" opacity="0.4666666666666667" d="M 143.5 26 L 144 28.5 L 142.5 32 L 142 29.5 L 143.5 26 Z " /><path fill="rgb(165,165,173)" stroke="rgb(165,165,173)" stroke-width="1" opacity="0.4666666666666667" d="M 411.5 30 L 412 32.5 L 410.5 36 L 410 33.5 L 411.5 30 Z " /><path fill="rgb(165,165,173)" stroke="rgb(165,165,173)" stroke-width="1" opacity="0.4666666666666667" d="M 463.5 31 L 465 36.5 L 464 36.5 L 463.5 31 Z " /><path fill="rgb(165,165,173)" stroke="rgb(165,165,173)" stroke-width="1" opacity="0.4666666666666667" d="M 199.5 32 L 201 37.5 L 200 37.5 L 199.5 32 Z " /><path fill="rgb(165,165,173)" stroke="rgb(165,165,173)" stroke-width="1" opacity="0.4666666666666667" d="M 141.5 33 L 142 35.5 L 140.5 39 L 140 36.5 L 141.5 33 Z " /><path fill="rgb(165,165,173)" stroke="rgb(165,165,173)" stroke-width="1" opacity="0.4666666666666667" d="M 409.5 37 L 410 39.5 L 408.5 43 L 408 40.5 L 409.5 37 Z " /><path fill="rgb(165,165,173)" stroke="rgb(165,165,173)" stroke-width="1" opacity="0.4666666666666667" d="M 465.5 38 L 467 43.5 L 466 43.5 L 465.5 38 Z " /><path fill="rgb(165,165,173)" stroke="rgb(165,165,173)" stroke-width="1" opacity="0.4666666666666667" d="M 201.5 39 L 203 44.5 L 202 44.5 L 201.5 39 Z " /><path fill="rgb(165,165,173)" stroke="rgb(165,165,173)" stroke-width="1" opacity="0.4666666666666667" d="M 139.5 40 L 140 42.5 L 138.5 46 L 138 43.5 L 139.5 40 Z " /><path fill="rgb(165,165,173)" stroke="rgb(165,165,173)" stroke-width="1" opacity="0.4666666666666667" d="M 407.5 44 L 406.5 46 L 401.5 47 L 401.5 46 L 407.5 44 Z " /><path fill="rgb(165,165,173)" stroke="rgb(165,165,173)" stroke-width="1" opacity="0.4666666666666667" d="M 468.5 45 L 474 46.5 L 471.5 47 L 468.5 46 L 468.5 45 Z " /><path fill="rgb(165,165,173)" stroke="rgb(165,165,173)" stroke-width="1" opacity="0.4666666666666667" d="M 203.5 46 L 205 51 L 210 52.5 L 207.5 53 L 204 52 L 203.5 46 Z " /><path fill="rgb(165,165,173)" stroke="rgb(165,165,173)" stroke-width="1" opacity="0.4666666666666667" d="M 137.5 47 L 138 49.5 L 137 52 L 135 51.5 L 137.5 47 Z " /><path fill="rgb(165,165,173)" stroke="rgb(165,165,173)" stroke-width="1" opacity="0.4666666666666667" d="M 397.5 47 L 400 47.5 L 394.5 49 L 394.5 48 L 397.5 47 Z " /><path fill="rgb(165,165,173)" stroke="rgb(165,165,173)" stroke-width="1" opacity="0.4666666666666667" d="M 475.5 47 L 481 48.5 L 478.5 49 L 475.5 48 L 475.5 47 Z " /><path fill="rgb(165,165,173)" stroke="rgb(165,165,173)" stroke-width="1" opacity="0.4666666666666667" d="M 390.5 49 L 393 49.5 L 387.5 51 L 387.5 50 L 390.5 49 Z " /><path fill="rgb(165,165,173)" stroke="rgb(165,165,173)" stroke-width="1" opacity="0.4666666666666667" d="M 482.5 49 L 488 50.5 L 485.5 51 L 482.5 50 L 482.5 49 Z " /><path fill="rgb(165,165,173)" stroke="rgb(165,165,173)" stroke-width="1" opacity="0.4666666666666667" d="M 383.5 51 L 386 51.5 L 380.5 53 L 380.5 52 L 383.5 51 Z " /><path fill="rgb(165,165,173)" stroke="rgb(165,165,173)" stroke-width="1" opacity="0.4666666666666667" d="M 489.5 51 L 495 52.5 L 492.5 53 L 489.5 52 L 489.5 51 Z " /><path fill="rgb(165,165,173)" stroke="rgb(165,165,173)" stroke-width="1" opacity="0.4666666666666667" d="M 131.5 52 L 134 52.5 L 131.5 53 L 131.5 52 Z " /><path fill="rgb(165,165,173)" stroke="rgb(165,165,173)" stroke-width="1" opacity="0.4666666666666667" d="M 211.5 53 L 217 54.5 L 214.5 55 L 211.5 54 L 211.5 53 Z " /><path fill="rgb(165,165,173)" stroke="rgb(165,165,173)" stroke-width="1" opacity="0.4666666666666667" d="M 376.5 53 L 379 53.5 Q 370.9 55.4 367 61.5 L 365.5 64 L 366 62.5 L 371.5 56 L 376.5 53 Z " /><path fill="rgb(165,165,173)" stroke="rgb(165,165,173)" stroke-width="1" opacity="0.4666666666666667" d="M 124.5 54 L 127 54.5 L 121.5 56 L 121.5 55 L 124.5 54 Z " /><path fill="rgb(165,165,173)" stroke="rgb(165,165,173)" stroke-width="1" opacity="0.4666666666666667" d="M 499.5 54 L 508 60.5 L 510 64.5 L 509 64.5 L 504.5 58 Q 499.9 56.8 499.5 54 Z " /><path fill="rgb(165,165,173)" stroke="rgb(165,165,173)" stroke-width="1" opacity="0.4666666666666667" d="M 218.5 55 L 224 56.5 L 221.5 57 L 218.5 56 L 218.5 55 Z " /><path fill="rgb(165,165,173)" stroke="rgb(165,165,173)" stroke-width="1" opacity="0.4666666666666667" d="M 117.5 56 L 120 56.5 L 114.5 58 L 114.5 57 L 117.5 56 Z " /><path fill="rgb(165,165,173)" stroke="rgb(165,165,173)" stroke-width="1" opacity="0.4666666666666667" d="M 225.5 57 L 231 58.5 L 228.5 59 L 225.5 58 L 225.5 57 Z " /><path fill="rgb(165,165,173)" stroke="rgb(165,165,173)" stroke-width="1" opacity="0.4666666666666667" d="M 110.5 58 L 113 58.5 L 107.5 60 L 107.5 59 L 110.5 58 Z " /><path fill="rgb(165,165,173)" stroke="rgb(165,165,173)" stroke-width="1" opacity="0.4666666666666667" d="M 232.5 59 L 238 60.5 L 235.5 61 L 232.5 60 L 232.5 59 Z " /><path fill="rgb(165,165,173)" stroke="rgb(165,165,173)" stroke-width="1" opacity="0.4666666666666667" d="M 103.5 60 L 106 60.5 Q 95.2 62.7 90 70.5 L 88.5 73 L 89 71.5 L 95.5 64 L 103.5 60 Z " /><path fill="rgb(165,165,173)" stroke="rgb(165,165,173)" stroke-width="1" opacity="0.4666666666666667" d="M 239.5 61 L 250 67.5 L 255 76.5 L 254 76.5 Q 251.6 67.9 244.5 64 L 239.5 62 L 239.5 61 Z " /><path fill="rgb(165,165,173)" stroke="rgb(165,165,173)" stroke-width="1" opacity="0.4666666666666667" d="M 364.5 65 L 365 66.5 L 363.5 70 L 363 67.5 L 364.5 65 Z " /><path fill="rgb(165,165,173)" stroke="rgb(165,165,173)" stroke-width="1" opacity="0.4666666666666667" d="M 510.5 66 L 512 71.5 L 511 71.5 L 510.5 66 Z " /><path fill="rgb(165,165,173)" stroke="rgb(165,165,173)" stroke-width="1" opacity="0.4666666666666667" d="M 362.5 71 L 363 77.5 L 362 77.5 L 362.5 71 Z " /><path fill="rgb(165,165,173)" stroke="rgb(165,165,173)" stroke-width="1" opacity="0.4666666666666667" d="M 87.5 74 L 88 75.5 L 86.5 78 L 86 76.5 L 87.5 74 Z " /><path fill="rgb(165,165,173)" stroke="rgb(165,165,173)" stroke-width="1" opacity="0.4666666666666667" d="M 511.5 77 L 512 80.5 L 511 80.5 L 511.5 77 Z " /><path fill="rgb(165,165,173)" stroke="rgb(165,165,173)" stroke-width="1" opacity="0.4666666666666667" d="M 255.5 78 L 256 81.5 L 255 81.5 L 255.5 78 Z " /><path fill="rgb(165,165,173)" stroke="rgb(165,165,173)" stroke-width="1" opacity="0.4666666666666667" d="M 85.5 79 L 86 90.5 L 85 90.5 L 85.5 79 Z " /><path fill="rgb(165,165,173)" stroke="rgb(165,165,173)" stroke-width="1" opacity="0.4666666666666667" d="M 363.5 79 L 364 81.5 L 363 81.5 L 363.5 79 Z " /><path fill="rgb(165,165,173)" stroke="rgb(165,165,173)" stroke-width="1" opacity="0.4666666666666667" d="M 510.5 82 L 511 83.5 L 503.5 93 L 497.5 96 L 497.5 95 L 507 88.5 L 510.5 82 Z " /><path fill="rgb(165,165,173)" stroke="rgb(165,165,173)" stroke-width="1" opacity="0.4666666666666667" d="M 364.5 83 L 372.5 93 L 375 94.5 L 373.5 94 L 366 87.5 L 364.5 83 Z " /><path fill="rgb(165,165,173)" stroke="rgb(165,165,173)" stroke-width="1" opacity="0.4666666666666667" d="M 255.5 89 L 256 92.5 Q 252.8 101.8 245.5 107 L 243.5 108 L 244.5 106 L 251 100.5 Q 254.8 96.3 255.5 89 Z " /><path fill="rgb(165,165,173)" stroke="rgb(165,165,173)" stroke-width="1" opacity="0.4666666666666667" d="M 86.5 92 Q 88.6 100.4 94.5 105 L 107 110.5 L 104.5 111 Q 95.3 108.2 90 101.5 L 86 94.5 L 86.5 92 Z " /><path fill="rgb(165,165,173)" stroke="rgb(165,165,173)" stroke-width="1" opacity="0.4666666666666667" d="M 493.5 96 L 496 96.5 L 490.5 98 L 490.5 97 L 493.5 96 Z " /><path fill="rgb(165,165,173)" stroke="rgb(165,165,173)" stroke-width="1" opacity="0.4666666666666667" d="M 382.5 97 L 388 98.5 L 385.5 99 L 382.5 98 L 382.5 97 Z " /><path fill="rgb(165,165,173)" stroke="rgb(165,165,173)" stroke-width="1" opacity="0.4666666666666667" d="M 486.5 98 L 489 98.5 L 483.5 100 L 483.5 99 L 486.5 98 Z " /><path fill="rgb(165,165,173)" stroke="rgb(165,165,173)" stroke-width="1" opacity="0.4666666666666667" d="M 389.5 99 L 395 100.5 L 392.5 101 L 389.5 100 L 389.5 99 Z " /><path fill="rgb(165,165,173)" stroke="rgb(165,165,173)" stroke-width="1" opacity="0.4666666666666667" d="M 479.5 100 L 482 100.5 L 476.5 102 L 476.5 101 L 479.5 100 Z " /><path fill="rgb(165,165,173)" stroke="rgb(165,165,173)" stroke-width="1" opacity="0.4666666666666667" d="M 396.5 101 L 402 102.5 L 399.5 103 L 396.5 102 L 396.5 101 Z " /><path fill="rgb(165,165,173)" stroke="rgb(165,165,173)" stroke-width="1" opacity="0.4666666666666667" d="M 472.5 102 L 475 102.5 L 469.5 104 L 469.5 103 L 472.5 102 Z " /><path fill="rgb(165,165,173)" stroke="rgb(165,165,173)" stroke-width="1" opacity="0.4666666666666667" d="M 403.5 103 L 408 104 L 409 108.5 L 408 108.5 Q 408.5 104.5 405.5 104 Q 402.5 104.5 403.5 103 Z " /><path fill="rgb(165,165,173)" stroke="rgb(165,165,173)" stroke-width="1" opacity="0.4666666666666667" d="M 467.5 104 L 467 105.5 L 465.5 111 L 465 108.5 L 467.5 104 Z " /><path fill="rgb(165,165,173)" stroke="rgb(165,165,173)" stroke-width="1" opacity="0.4666666666666667" d="M 240.5 108 L 242 108.5 L 238.5 110 L 238.5 109 L 240.5 108 Z " /><path fill="rgb(165,165,173)" stroke="rgb(165,165,173)" stroke-width="1" opacity="0.4666666666666667" d="M 234.5 110 L 237 110.5 L 231.5 112 L 231.5 111 L 234.5 110 Z " /><path fill="rgb(165,165,173)" stroke="rgb(165,165,173)" stroke-width="1" opacity="0.4666666666666667" d="M 409.5 110 L 411 115.5 L 410 115.5 L 409.5 110 Z " /><path fill="rgb(165,165,173)" stroke="rgb(165,165,173)" stroke-width="1" opacity="0.4666666666666667" d="M 108.5 111 L 114 112.5 L 111.5 113 L 108.5 112 L 108.5 111 Z " /><path fill="rgb(165,165,173)" stroke="rgb(165,165,173)" stroke-width="1" opacity="0.4666666666666667" d="M 227.5 112 L 230 112.5 L 224.5 114 L 224.5 113 L 227.5 112 Z " /><path fill="rgb(165,165,173)" stroke="rgb(165,165,173)" stroke-width="1" opacity="0.4666666666666667" d="M 464.5 112 L 465 114.5 L 463.5 118 L 463 115.5 L 464.5 112 Z " /><path fill="rgb(165,165,173)" stroke="rgb(165,165,173)" stroke-width="1" opacity="0.4666666666666667" d="M 115.5 113 L 121 114.5 L 118.5 115 L 115.5 114 L 115.5 113 Z " /><path fill="rgb(165,165,173)" stroke="rgb(165,165,173)" stroke-width="1" opacity="0.4666666666666667" d="M 220.5 114 L 223 114.5 L 217.5 116 L 217.5 115 L 220.5 114 Z " /><path fill="rgb(165,165,173)" stroke="rgb(165,165,173)" stroke-width="1" opacity="0.4666666666666667" d="M 122.5 115 L 128 116.5 L 125.5 117 L 122.5 116 L 122.5 115 Z " /><path fill="rgb(165,165,173)" stroke="rgb(165,165,173)" stroke-width="1" opacity="0.4666666666666667" d="M 213.5 116 L 216 116.5 L 210.5 118 L 210.5 117 L 213.5 116 Z " /><path fill="rgb(165,165,173)" stroke="rgb(165,165,173)" stroke-width="1" opacity="0.4666666666666667" d="M 129.5 117 L 135 118.5 L 132.5 119 L 129.5 118 L 129.5 117 Z " /><path fill="rgb(165,165,173)" stroke="rgb(165,165,173)" stroke-width="1" opacity="0.4666666666666667" d="M 411.5 117 L 413 122.5 L 412 122.5 L 411.5 117 Z " /><path fill="rgb(165,165,173)" stroke="rgb(165,165,173)" stroke-width="1" opacity="0.4666666666666667" d="M 206.5 118 L 209 118.5 L 204.5 121 L 204 119 L 206.5 118 Z " /><path fill="rgb(165,165,173)" stroke="rgb(165,165,173)" stroke-width="1" opacity="0.4666666666666667" d="M 462.5 119 L 463 121.5 L 462 121.5 L 462.5 119 Z " /><path fill="rgb(165,165,173)" stroke="rgb(165,165,173)" stroke-width="1" opacity="0.4666666666666667" d="M 137.5 121 L 139 126.5 L 138 126.5 L 137.5 121 Z " /><path fill="rgb(165,165,173)" stroke="rgb(165,165,173)" stroke-width="1" opacity="0.4666666666666667" d="M 203.5 122 L 204 124.5 L 203 124.5 L 203.5 122 Z " /><path fill="rgb(165,165,173)" stroke="rgb(165,165,173)" stroke-width="1" opacity="0.4666666666666667" d="M 413.5 124 L 415 129.5 L 414 129.5 L 413.5 124 Z " /><path fill="rgb(165,165,173)" stroke="rgb(165,165,173)" stroke-width="1" opacity="0.4666666666666667" d="M 460.5 126 L 461 128.5 L 460 128.5 L 460.5 126 Z " /><path fill="rgb(165,165,173)" stroke="rgb(165,165,173)" stroke-width="1" opacity="0.4666666666666667" d="M 139.5 128 L 141 133.5 L 140 133.5 L 139.5 128 Z " /><path fill="rgb(165,165,173)" stroke="rgb(165,165,173)" stroke-width="1" opacity="0.4666666666666667" d="M 312.5 128 L 325 128.5 L 312.5 129 L 312.5 128 Z " /><path fill="rgb(165,165,173)" stroke="rgb(165,165,173)" stroke-width="1" opacity="0.4666666666666667" d="M 201.5 129 L 202 131.5 L 201 131.5 L 201.5 129 Z " /><path fill="rgb(165,165,173)" stroke="rgb(165,165,173)" stroke-width="1" opacity="0.4666666666666667" d="M 305.5 129 L 310 129.5 L 305.5 130 L 305.5 129 Z " /><path fill="rgb(165,165,173)" stroke="rgb(165,165,173)" stroke-width="1" opacity="0.4666666666666667" d="M 327.5 129 L 332 129.5 L 327.5 130 L 327.5 129 Z " /><path fill="rgb(165,165,173)" stroke="rgb(165,165,173)" stroke-width="1" opacity="0.4666666666666667" d="M 301.5 130 L 304 130.5 L 301.5 131 L 301.5 130 Z " /><path fill="rgb(165,165,173)" stroke="rgb(165,165,173)" stroke-width="1" opacity="0.4666666666666667" d="M 333.5 130 L 336 130.5 L 333.5 131 L 333.5 130 Z " /><path fill="rgb(165,165,173)" stroke="rgb(165,165,173)" stroke-width="1" opacity="0.4666666666666667" d="M 337.5 131 L 347 134.5 L 345.5 135 L 337.5 132 L 337.5 131 Z " /><path fill="rgb(165,165,173)" stroke="rgb(165,165,173)" stroke-width="1" opacity="0.4666666666666667" d="M 415.5 131 L 417 135.5 L 416 135.5 L 415.5 131 Z " /><path fill="rgb(165,165,173)" stroke="rgb(165,165,173)" stroke-width="1" opacity="0.4666666666666667" d="M 292.5 133 L 294 133.5 Q 282.6 137.6 274.5 145 L 18 401.5 L 10.5 412 L 11 410.5 L 16 402.5 L 274.5 144 L 292.5 133 Z " /><path fill="rgb(165,165,173)" stroke="rgb(165,165,173)" stroke-width="1" opacity="0.4666666666666667" d="M 458.5 133 L 459 135.5 L 450.5 146 L 442.5 149 L 442.5 148 Q 451 146.5 455 140.5 L 458.5 133 Z " /><path fill="rgb(165,165,173)" stroke="rgb(165,165,173)" stroke-width="1" opacity="0.4666666666666667" d="M 141.5 135 L 143 140.5 L 142 140.5 L 141.5 135 Z " /><path fill="rgb(165,165,173)" stroke="rgb(165,165,173)" stroke-width="1" opacity="0.4666666666666667" d="M 199.5 136 L 200 138.5 L 199 138.5 L 199.5 136 Z " /><path fill="rgb(165,165,173)" stroke="rgb(165,165,173)" stroke-width="1" opacity="0.4666666666666667" d="M 350.5 136 Q 362.2 141.8 370 151.5 L 377 162.5 L 375 161.5 Q 370.6 151.4 362.5 145 L 351.5 138 L 350.5 136 Z " /><path fill="rgb(165,165,173)" stroke="rgb(165,165,173)" stroke-width="1" opacity="0.4666666666666667" d="M 417.5 137 L 424.5 145 L 429 147.5 L 427.5 148 L 418 139.5 L 417.5 137 Z " /><path fill="rgb(165,165,173)" stroke="rgb(165,165,173)" stroke-width="1" opacity="0.4666666666666667" d="M 143.5 142 L 145 147.5 L 144 147.5 L 143.5 142 Z " /><path fill="rgb(165,165,173)" stroke="rgb(165,165,173)" stroke-width="1" opacity="0.4666666666666667" d="M 197.5 143 L 198 145.5 L 197 145.5 L 197.5 143 Z " /><path fill="rgb(165,165,173)" stroke="rgb(165,165,173)" stroke-width="1" opacity="0.4666666666666667" d="M 430.5 148 L 433 148.5 L 430.5 149 L 430.5 148 Z " /><path fill="rgb(165,165,173)" stroke="rgb(165,165,173)" stroke-width="1" opacity="0.4666666666666667" d="M 145.5 149 Q 147.6 159.4 154.5 165 L 164 169.5 L 161.5 170 L 150 161.5 Q 145.1 156.6 145.5 149 Z " /><path fill="rgb(165,165,173)" stroke="rgb(165,165,173)" stroke-width="1" opacity="0.4666666666666667" d="M 434.5 149 L 440 149.5 L 434.5 150 L 434.5 149 Z " /><path fill="rgb(165,165,173)" stroke="rgb(165,165,173)" stroke-width="1" opacity="0.4666666666666667" d="M 195.5 150 L 196 152.5 Q 192.8 161.8 185.5 167 L 183.5 168 L 184.5 166 L 191 160.5 L 195.5 150 Z " /><path fill="rgb(165,165,173)" stroke="rgb(165,165,173)" stroke-width="1" opacity="0.4666666666666667" d="M 378.5 166 L 380 169.5 L 379 169.5 L 378.5 166 Z " /><path fill="rgb(165,165,173)" stroke="rgb(165,165,173)" stroke-width="1" opacity="0.4666666666666667" d="M 180.5 168 L 182 168.5 L 178.5 170 L 178.5 169 L 180.5 168 Z " /><path fill="rgb(165,165,173)" stroke="rgb(165,165,173)" stroke-width="1" opacity="0.4666666666666667" d="M 318.5 169 L 322 169.5 L 318.5 170 L 318.5 169 Z " /><path fill="rgb(165,165,173)" stroke="rgb(165,165,173)" stroke-width="1" opacity="0.4666666666666667" d="M 165.5 170 L 177 170.5 L 165.5 171 L 165.5 170 Z " /><path fill="rgb(165,165,173)" stroke="rgb(165,165,173)" stroke-width="1" opacity="0.4666666666666667" d="M 313.5 170 L 316 170.5 L 313.5 171 L 313.5 170 Z " /><path fill="rgb(165,165,173)" stroke="rgb(165,165,173)" stroke-width="1" opacity="0.4666666666666667" d="M 324.5 170 L 329 171.5 L 327.5 172 L 324.5 171 L 324.5 170 Z " /><path fill="rgb(165,165,173)" stroke="rgb(165,165,173)" stroke-width="1" opacity="0.4666666666666667" d="M 310.5 171 L 312 171.5 L 304.5 176 L 246 234.5 L 277.5 266 L 337 206.5 L 340.5 200 L 341 201.5 L 338 206.5 L 277.5 267 L 245 234.5 L 305.5 174 L 310.5 171 Z " /><path fill="rgb(165,165,173)" stroke="rgb(165,165,173)" stroke-width="1" opacity="0.4666666666666667" d="M 380.5 171 L 382 175.5 L 381 175.5 L 380.5 171 Z " /><path fill="rgb(165,165,173)" stroke="rgb(165,165,173)" stroke-width="1" opacity="0.4666666666666667" d="M 330.5 172 L 339 179.5 L 340 181.5 L 338 180.5 L 332.5 174 L 330.5 172 Z " /><path fill="rgb(165,165,173)" stroke="rgb(165,165,173)" stroke-width="1" opacity="0.4666666666666667" d="M 382.5 177 L 383 179.5 L 382 179.5 L 382.5 177 Z " /><path fill="rgb(165,165,173)" stroke="rgb(165,165,173)" stroke-width="1" opacity="0.4666666666666667" d="M 383.5 182 L 384 186.5 L 383 186.5 L 383.5 182 Z " /><path fill="rgb(165,165,173)" stroke="rgb(165,165,173)" stroke-width="1" opacity="0.4666666666666667" d="M 340.5 183 L 342 187.5 L 341 187.5 L 340.5 183 Z " /><path fill="rgb(165,165,173)" stroke="rgb(165,165,173)" stroke-width="1" opacity="0.4666666666666667" d="M 342.5 190 L 343 194.5 L 342 194.5 L 342.5 190 Z " /><path fill="rgb(165,165,173)" stroke="rgb(165,165,173)" stroke-width="1" opacity="0.4666666666666667" d="M 341.5 196 L 342 198.5 L 341 198.5 L 341.5 196 Z " /><path fill="rgb(165,165,173)" stroke="rgb(165,165,173)" stroke-width="1" opacity="0.4666666666666667" d="M 383.5 199 L 384 204.5 L 383 204.5 L 383.5 199 Z " /><path fill="rgb(165,165,173)" stroke="rgb(165,165,173)" stroke-width="1" opacity="0.4666666666666667" d="M 382.5 206 L 383 209.5 L 381.5 213 L 381 210.5 L 382.5 206 Z " /><path fill="rgb(165,165,173)" stroke="rgb(165,165,173)" stroke-width="1" opacity="0.4666666666666667" d="M 379.5 217 L 380 218.5 L 374.5 228 L 375 226.5 L 379.5 217 Z " /><path fill="rgb(165,165,173)" stroke="rgb(165,165,173)" stroke-width="1" opacity="0.4666666666666667" d="M 373.5 229 L 372 231.5 L 369 236.5 L 109.5 496 L 98.5 503 L 99.5 501 L 110.5 494 L 367 237.5 L 373.5 229 Z " /><path fill="rgb(165,165,173)" stroke="rgb(165,165,173)" stroke-width="1" opacity="0.4666666666666667" d="M 419.5 256 L 423 256.5 Q 411.2 258.2 406 266.5 L 404.5 269 L 405 267.5 L 411.5 260 L 419.5 256 Z " /><path fill="rgb(165,165,173)" stroke="rgb(165,165,173)" stroke-width="1" opacity="0.4666666666666667" d="M 430.5 256 L 434 256.5 L 430.5 257 L 430.5 256 Z " /><path fill="rgb(165,165,173)" stroke="rgb(165,165,173)" stroke-width="1" opacity="0.4666666666666667" d="M 435.5 257 L 446 263.5 L 451 272.5 L 450 272.5 Q 447.6 263.9 440.5 260 L 435.5 258 L 435.5 257 Z " /><path fill="rgb(165,165,173)" stroke="rgb(165,165,173)" stroke-width="1" opacity="0.4666666666666667" d="M 214.5 265 L 247 296.5 L 80.5 464 L 75.5 467 L 76.5 465 L 80.5 463 L 246 297.5 L 215.5 266 L 45.5 437 L 46 435.5 L 48 431.5 L 214.5 265 Z " /><path fill="rgb(165,165,173)" stroke="rgb(165,165,173)" stroke-width="1" opacity="0.4666666666666667" d="M 451.5 274 L 453 279.5 L 452 279.5 L 451.5 274 Z " /><path fill="rgb(165,165,173)" stroke="rgb(165,165,173)" stroke-width="1" opacity="0.4666666666666667" d="M 401.5 275 L 402 277.5 L 400.5 281 L 400 278.5 L 401.5 275 Z " /><path fill="rgb(165,165,173)" stroke="rgb(165,165,173)" stroke-width="1" opacity="0.4666666666666667" d="M 453.5 281 L 455 286.5 L 454 286.5 L 453.5 281 Z " /><path fill="rgb(165,165,173)" stroke="rgb(165,165,173)" stroke-width="1" opacity="0.4666666666666667" d="M 399.5 282 L 400 284.5 L 398.5 288 L 398 285.5 L 399.5 282 Z " /><path fill="rgb(165,165,173)" stroke="rgb(165,165,173)" stroke-width="1" opacity="0.4666666666666667" d="M 455.5 288 L 457 293.5 L 456 293.5 L 455.5 288 Z " /><path fill="rgb(165,165,173)" stroke="rgb(165,165,173)" stroke-width="1" opacity="0.4666666666666667" d="M 397.5 289 L 398 291.5 L 396.5 295 L 396 292.5 L 397.5 289 Z " /><path fill="rgb(165,165,173)" stroke="rgb(165,165,173)" stroke-width="1" opacity="0.4666666666666667" d="M 457.5 295 L 459 300.5 L 458 300.5 L 457.5 295 Z " /><path fill="rgb(165,165,173)" stroke="rgb(165,165,173)" stroke-width="1" opacity="0.4666666666666667" d="M 395.5 296 L 396 298.5 L 394.5 302 L 394 299.5 L 395.5 296 Z " /><path fill="rgb(165,165,173)" stroke="rgb(165,165,173)" stroke-width="1" opacity="0.4666666666666667" d="M 459.5 302 L 461 307 L 466 308.5 L 463.5 309 L 460 308 L 459.5 302 Z " /><path fill="rgb(165,165,173)" stroke="rgb(165,165,173)" stroke-width="1" opacity="0.4666666666666667" d="M 393.5 303 L 394 305.5 L 393 308 L 391 307.5 L 393.5 303 Z " /><path fill="rgb(165,165,173)" stroke="rgb(165,165,173)" stroke-width="1" opacity="0.4666666666666667" d="M 387.5 308 L 390 308.5 L 384.5 310 L 384.5 309 L 387.5 308 Z " /><path fill="rgb(165,165,173)" stroke="rgb(165,165,173)" stroke-width="1" opacity="0.4666666666666667" d="M 467.5 309 L 470 309.5 L 467.5 310 L 467.5 309 Z " /><path fill="rgb(165,165,173)" stroke="rgb(165,165,173)" stroke-width="1" opacity="0.4666666666666667" d="M 380.5 310 L 383 310.5 L 377.5 312 L 377.5 311 L 380.5 310 Z " /><path fill="rgb(165,165,173)" stroke="rgb(165,165,173)" stroke-width="1" opacity="0.4666666666666667" d="M 474.5 311 L 477 311.5 L 474.5 312 L 474.5 311 Z " /><path fill="rgb(165,165,173)" stroke="rgb(165,165,173)" stroke-width="1" opacity="0.4666666666666667" d="M 373.5 312 L 376 312.5 L 370.5 314 L 370.5 313 L 373.5 312 Z " /><path fill="rgb(165,165,173)" stroke="rgb(165,165,173)" stroke-width="1" opacity="0.4666666666666667" d="M 481.5 313 L 484 313.5 L 481.5 314 L 481.5 313 Z " /><path fill="rgb(165,165,173)" stroke="rgb(165,165,173)" stroke-width="1" opacity="0.4666666666666667" d="M 366.5 314 L 369 314.5 L 363.5 316 L 363.5 315 L 366.5 314 Z " /><path fill="rgb(165,165,173)" stroke="rgb(165,165,173)" stroke-width="1" opacity="0.4666666666666667" d="M 488.5 315 L 494 316.5 L 491.5 317 L 488.5 316 L 488.5 315 Z " /><path fill="rgb(165,165,173)" stroke="rgb(165,165,173)" stroke-width="1" opacity="0.4666666666666667" d="M 359.5 316 L 362 316.5 Q 351.2 318.7 346 326.5 L 344.5 329 L 345 327.5 L 351.5 320 L 359.5 316 Z " /><path fill="rgb(165,165,173)" stroke="rgb(165,165,173)" stroke-width="1" opacity="0.4666666666666667" d="M 495.5 317 L 506 323.5 L 511 332.5 L 510 332.5 Q 507.6 323.9 500.5 320 L 495.5 318 L 495.5 317 Z " /><path fill="rgb(165,165,173)" stroke="rgb(165,165,173)" stroke-width="1" opacity="0.4666666666666667" d="M 343.5 330 L 344 331.5 L 342.5 334 L 342 332.5 L 343.5 330 Z " /><path fill="rgb(165,165,173)" stroke="rgb(165,165,173)" stroke-width="1" opacity="0.4666666666666667" d="M 511.5 334 L 512 337.5 L 511 337.5 L 511.5 334 Z " /><path fill="rgb(165,165,173)" stroke="rgb(165,165,173)" stroke-width="1" opacity="0.4666666666666667" d="M 341.5 335 L 342 346.5 L 341 346.5 L 341.5 335 Z " /><path fill="rgb(165,165,173)" stroke="rgb(165,165,173)" stroke-width="1" opacity="0.4666666666666667" d="M 511.5 345 L 512 348.5 Q 508.8 357.8 501.5 363 L 499.5 364 L 500.5 362 L 507 356.5 Q 510.8 352.3 511.5 345 Z " /><path fill="rgb(165,165,173)" stroke="rgb(165,165,173)" stroke-width="1" opacity="0.4666666666666667" d="M 342.5 348 Q 344.6 356.4 350.5 361 L 363 366.5 L 360.5 367 Q 351.3 364.2 346 357.5 L 342 350.5 L 342.5 348 Z " /><path fill="rgb(165,165,173)" stroke="rgb(165,165,173)" stroke-width="1" opacity="0.4666666666666667" d="M 496.5 364 L 498 364.5 L 494.5 366 L 494.5 365 L 496.5 364 Z " /><path fill="rgb(165,165,173)" stroke="rgb(165,165,173)" stroke-width="1" opacity="0.4666666666666667" d="M 490.5 366 L 493 366.5 L 487.5 368 L 487.5 367 L 490.5 366 Z " /><path fill="rgb(165,165,173)" stroke="rgb(165,165,173)" stroke-width="1" opacity="0.4666666666666667" d="M 364.5 367 L 370 368.5 L 367.5 369 L 364.5 368 L 364.5 367 Z " /><path fill="rgb(165,165,173)" stroke="rgb(165,165,173)" stroke-width="1" opacity="0.4666666666666667" d="M 483.5 368 L 486 368.5 L 480.5 370 L 480.5 369 L 483.5 368 Z " /><path fill="rgb(165,165,173)" stroke="rgb(165,165,173)" stroke-width="1" opacity="0.4666666666666667" d="M 371.5 369 L 377 370.5 L 374.5 371 L 371.5 370 L 371.5 369 Z " /><path fill="rgb(165,165,173)" stroke="rgb(165,165,173)" stroke-width="1" opacity="0.4666666666666667" d="M 476.5 370 L 479 370.5 L 473.5 372 L 473.5 371 L 476.5 370 Z " /><path fill="rgb(165,165,173)" stroke="rgb(165,165,173)" stroke-width="1" opacity="0.4666666666666667" d="M 378.5 371 L 384 372.5 L 381.5 373 L 378.5 372 L 378.5 371 Z " /><path fill="rgb(165,165,173)" stroke="rgb(165,165,173)" stroke-width="1" opacity="0.4666666666666667" d="M 469.5 372 L 472 372.5 L 466.5 374 L 466.5 373 L 469.5 372 Z " /><path fill="rgb(165,165,173)" stroke="rgb(165,165,173)" stroke-width="1" opacity="0.4666666666666667" d="M 385.5 373 L 391 374.5 L 388.5 375 L 385.5 374 L 385.5 373 Z " /><path fill="rgb(165,165,173)" stroke="rgb(165,165,173)" stroke-width="1" opacity="0.4666666666666667" d="M 462.5 374 L 465 374.5 L 460.5 377 L 460 375 L 462.5 374 Z " /><path fill="rgb(165,165,173)" stroke="rgb(165,165,173)" stroke-width="1" opacity="0.4666666666666667" d="M 393.5 377 L 395 382.5 L 394 382.5 L 393.5 377 Z " /><path fill="rgb(165,165,173)" stroke="rgb(165,165,173)" stroke-width="1" opacity="0.4666666666666667" d="M 459.5 378 L 460 380.5 L 459 380.5 L 459.5 378 Z " /><path fill="rgb(165,165,173)" stroke="rgb(165,165,173)" stroke-width="1" opacity="0.4666666666666667" d="M 395.5 384 L 397 389.5 L 396 389.5 L 395.5 384 Z " /><path fill="rgb(165,165,173)" stroke="rgb(165,165,173)" stroke-width="1" opacity="0.4666666666666667" d="M 457.5 385 L 458 387.5 L 457 387.5 L 457.5 385 Z " /><path fill="rgb(165,165,173)" stroke="rgb(165,165,173)" stroke-width="1" opacity="0.4666666666666667" d="M 397.5 391 L 399 396.5 L 398 396.5 L 397.5 391 Z " /><path fill="rgb(165,165,173)" stroke="rgb(165,165,173)" stroke-width="1" opacity="0.4666666666666667" d="M 455.5 392 L 456 394.5 L 455 394.5 L 455.5 392 Z " /><path fill="rgb(165,165,173)" stroke="rgb(165,165,173)" stroke-width="1" opacity="0.4666666666666667" d="M 399.5 398 L 401 403.5 L 400 403.5 L 399.5 398 Z " /><path fill="rgb(165,165,173)" stroke="rgb(165,165,173)" stroke-width="1" opacity="0.4666666666666667" d="M 453.5 399 L 454 401.5 L 453 401.5 L 453.5 399 Z " /><path fill="rgb(165,165,173)" stroke="rgb(165,165,173)" stroke-width="1" opacity="0.4666666666666667" d="M 401.5 405 Q 403.6 415.4 410.5 421 L 420 425.5 L 417.5 426 L 406 417.5 Q 401.1 412.6 401.5 405 Z " /><path fill="rgb(165,165,173)" stroke="rgb(165,165,173)" stroke-width="1" opacity="0.4666666666666667" d="M 451.5 406 L 452 408.5 Q 448.8 417.8 441.5 423 L 439.5 424 L 440.5 422 L 447 416.5 L 451.5 406 Z " /><path fill="rgb(165,165,173)" stroke="rgb(165,165,173)" stroke-width="1" opacity="0.4666666666666667" d="M 9.5 413 L 9 414.5 L 7.5 418 L 7 416.5 L 9.5 413 Z " /><path fill="rgb(165,165,173)" stroke="rgb(165,165,173)" stroke-width="1" opacity="0.4666666666666667" d="M 6.5 419 L 7 420.5 L 3.5 431 L 3 427.5 L 6.5 419 Z " /><path fill="rgb(165,165,173)" stroke="rgb(165,165,173)" stroke-width="1" opacity="0.4666666666666667" d="M 436.5 424 L 438 424.5 L 434.5 426 L 434.5 425 L 436.5 424 Z " /><path fill="rgb(165,165,173)" stroke="rgb(165,165,173)" stroke-width="1" opacity="0.4666666666666667" d="M 421.5 426 L 433 426.5 L 421.5 427 L 421.5 426 Z " /><path fill="rgb(165,165,173)" stroke="rgb(165,165,173)" stroke-width="1" opacity="0.4666666666666667" d="M 2.5 432 L 3 435.5 L 2 435.5 L 2.5 432 Z " /><path fill="rgb(165,165,173)" stroke="rgb(165,165,173)" stroke-width="1" opacity="0.4666666666666667" d="M 1.5 438 L 2 451.5 L 1 451.5 L 1.5 438 Z " /><path fill="rgb(165,165,173)" stroke="rgb(165,165,173)" stroke-width="1" opacity="0.4666666666666667" d="M 44.5 438 L 45 439.5 L 43.5 444 L 43 440.5 L 44.5 438 Z " /><path fill="rgb(165,165,173)" stroke="rgb(165,165,173)" stroke-width="1" opacity="0.4666666666666667" d="M 43.5 449 L 44 452.5 L 43 452.5 L 43.5 449 Z " /><path fill="rgb(165,165,173)" stroke="rgb(165,165,173)" stroke-width="1" opacity="0.4666666666666667" d="M 2.5 454 L 5 465.5 L 4 465.5 L 2 458.5 L 2.5 454 Z " /><path fill="rgb(165,165,173)" stroke="rgb(165,165,173)" stroke-width="1" opacity="0.4666666666666667" d="M 44.5 454 L 51.5 464 L 56 466.5 L 54.5 467 L 47 460.5 L 44 455.5 L 44.5 454 Z " /><path fill="rgb(165,165,173)" stroke="rgb(165,165,173)" stroke-width="1" opacity="0.4666666666666667" d="M 5.5 467 L 7 470.5 L 6 470.5 L 5.5 467 Z " /><path fill="rgb(165,165,173)" stroke="rgb(165,165,173)" stroke-width="1" opacity="0.4666666666666667" d="M 57.5 467 L 64 468.5 L 59.5 469 L 57.5 467 Z " /><path fill="rgb(165,165,173)" stroke="rgb(165,165,173)" stroke-width="1" opacity="0.4666666666666667" d="M 67.5 468 L 71 468.5 L 67.5 469 L 67.5 468 Z " /><path fill="rgb(165,165,173)" stroke="rgb(165,165,173)" stroke-width="1" opacity="0.4666666666666667" d="M 7.5 472 Q 13.3 485.2 23.5 494 L 40 504.5 L 38.5 505 Q 25.8 498.7 17 488.5 L 8 475.5 L 7.5 472 Z " /><path fill="rgb(165,165,173)" stroke="rgb(165,165,173)" stroke-width="1" opacity="0.4666666666666667" d="M 93.5 504 L 95 504.5 Q 89.8 508.3 81.5 509 L 81.5 508 L 84.5 508 L 93.5 504 Z " /><path fill="rgb(165,165,173)" stroke="rgb(165,165,173)" stroke-width="1" opacity="0.4666666666666667" d="M 41.5 505 L 49 507.5 L 46.5 508 L 41.5 506 L 41.5 505 Z " /><path fill="rgb(165,165,173)" stroke="rgb(165,165,173)" stroke-width="1" opacity="0.4666666666666667" d="M 50.5 508 L 53 508.5 L 50.5 509 L 50.5 508 Z " /><path fill="rgb(165,165,173)" stroke="rgb(165,165,173)" stroke-width="1" opacity="0.4666666666666667" d="M 54.5 509 L 58 509.5 L 54.5 510 L 54.5 509 Z " /><path fill="rgb(165,165,173)" stroke="rgb(165,165,173)" stroke-width="1" opacity="0.4666666666666667" d="M 76.5 509 L 80 509.5 L 76.5 510 L 76.5 509 Z " /><path fill="rgb(165,165,173)" stroke="rgb(165,165,173)" stroke-width="1" opacity="0.4666666666666667" d="M 61.5 510 L 73 510.5 L 61.5 511 L 61.5 510 Z " /><path fill="rgb(160,160,170)" stroke="rgb(160,160,170)" stroke-width="1" opacity="0.996078431372549" d="M 368.5 60 L 367.5 62 L 368.5 60 Z " /><path fill="rgb(160,160,170)" stroke="rgb(160,160,170)" stroke-width="1" opacity="0.996078431372549" d="M 235.5 184 L 234.5 186 L 235.5 184 Z " /><path fill="rgb(160,160,170)" stroke="rgb(160,160,170)" stroke-width="1" opacity="0.996078431372549" d="M 228.5 191 L 227.5 193 L 228.5 191 Z " /><path fill="rgb(160,160,170)" stroke="rgb(160,160,170)" stroke-width="1" opacity="0.996078431372549" d="M 217.5 202 L 215.5 205 L 217.5 202 Z " /><path fill="rgb(160,160,170)" stroke="rgb(160,160,170)" stroke-width="1" opacity="0.996078431372549" d="M 209.5 210 L 208.5 212 L 209.5 210 Z " /><path fill="rgb(160,160,170)" stroke="rgb(160,160,170)" stroke-width="1" opacity="0.996078431372549" d="M 206.5 213 L 205.5 215 L 206.5 213 Z " /><path fill="rgb(160,160,170)" stroke="rgb(160,160,170)" stroke-width="1" opacity="0.996078431372549" d="M 203.5 216 L 202.5 218 L 203.5 216 Z " /><path fill="rgb(160,160,170)" stroke="rgb(160,160,170)" stroke-width="1" opacity="0.996078431372549" d="M 200.5 219 L 199.5 221 L 200.5 219 Z " /><path fill="rgb(160,160,170)" stroke="rgb(160,160,170)" stroke-width="1" opacity="0.996078431372549" d="M 197.5 222 L 196.5 224 L 197.5 222 Z " /><path fill="rgb(160,160,170)" stroke="rgb(160,160,170)" stroke-width="1" opacity="0.996078431372549" d="M 192.5 227 L 191.5 229 L 192.5 227 Z " /><path fill="rgb(160,160,170)" stroke="rgb(160,160,170)" stroke-width="1" opacity="0.996078431372549" d="M 271.5 261 L 273.5 264 L 271.5 261 Z " /><path fill="rgb(160,160,170)" stroke="rgb(160,160,170)" stroke-width="1" opacity="0.996078431372549" d="M 136.5 467 L 133.5 471 L 136.5 467 Z " /><path fill="rgb(160,160,170)" stroke="rgb(160,160,170)" stroke-width="1" opacity="0.996078431372549" d="M 112.5 491 L 110.5 494 L 112.5 491 Z " /><path fill="rgb(161,161,170)" stroke="rgb(161,161,170)" stroke-width="1" opacity="1" d="M 167.5 0 L 169.5 0 Q 185.7 0.8 192 11.5 L 195 17.5 L 204 52 L 238.5 61 Q 247.3 64.3 252 71.5 L 255 77.5 L 256 88.5 Q 253.8 100.3 245.5 106 L 237.5 110 L 204 119 L 194 155.5 L 186.5 165 L 177.5 170 L 164.5 170 Q 156 167.5 151 161.5 L 145 148.5 L 137 119 L 101.5 109 L 91 101.5 Q 84.1 94.4 86 78.5 Q 88.8 69.8 95.5 65 L 106.5 60 L 137 52 L 147 15.5 L 155.5 5 L 167.5 0 Z " /><path fill="rgb(161,161,170)" stroke="rgb(161,161,170)" stroke-width="1" opacity="1" d="M 435.5 0 Q 448.3 0.3 454 7.5 L 459 16.5 L 465 40.5 L 468.5 46 L 498.5 54 L 506 59.5 Q 511.8 65.2 512 76.5 Q 510.3 86.8 503.5 92 L 496.5 96 L 472.5 102 L 466 105.5 L 458 135.5 L 450.5 145 L 441.5 149 L 433.5 149 Q 423.6 146.9 419 139.5 L 415 130.5 L 415 126.5 L 413 123.5 L 413 119.5 L 411 116.5 L 411 112.5 L 408 104 L 375.5 95 L 367 87.5 Q 361.8 82.2 363 70.5 Q 365.5 62 371.5 57 L 376.5 54 L 403.5 47 L 408 44.5 L 417 13.5 L 424.5 4 L 435.5 0 Z " /><path fill="rgb(161,161,170)" stroke="rgb(161,161,170)" stroke-width="1" opacity="1" d="M 310.5 129 L 326.5 129 L 342.5 133 Q 358.7 139.3 369 151.5 Q 376.7 160.8 381 173.5 L 384 187.5 L 384 198.5 L 380 216.5 Q 375.3 228.8 367 237.5 L 137.5 467 L 133 470.5 L 129.5 475 Q 127.3 474.3 128 476.5 L 125 478 L 123.5 481 Q 120.9 480.3 122 483 L 120 483 L 120 484.5 L 117 486 L 117 488 Q 114.3 486.9 115 489.5 Q 105.3 500.3 90.5 506 L 75.5 510 L 58.5 510 L 36.5 503 Q 25.8 497.2 18 488.5 Q 9.7 479.3 5 466.5 L 2 453.5 L 2 436.5 L 7 418.5 L 18 401.5 L 144.5 275 L 146 275 L 146 273 L 148 273 L 148 271 Q 150.7 272.1 150 269.5 L 193 227.5 L 193 226 L 195 226 Q 193.9 223.3 196.5 224 L 198 221 L 201 219.5 Q 200.3 217.3 202.5 218 L 204 215 L 207 213.5 Q 206.3 211.3 208.5 212 L 210 209 Q 212.7 210.1 212 207.5 L 218 202.5 L 222 197.5 L 226 195 Q 224.9 192.3 227.5 193 L 229 190 L 231 190 L 231 188 L 233 188 Q 231.9 185.3 234.5 186 L 236 183 Q 238.7 184.1 238 181.5 L 242 179 L 242 177.5 L 272.5 147 L 275.5 145 Q 283 137 294.5 133 L 310.5 129 Z M 319 169 L 311 171 L 306 174 L 245 235 L 271 262 L 278 267 L 338 207 L 343 195 Q 343 185 339 180 Q 334 169 319 169 Z M 215 265 L 47 433 L 43 441 Q 41 455 47 461 Q 52 466 60 469 Q 74 471 81 464 L 247 297 L 215 265 Z " /><path fill="rgb(161,161,170)" stroke="rgb(161,161,170)" stroke-width="1" opacity="1" d="M 423.5 256 L 425.5 256 Q 441.7 256.8 448 267.5 L 451 273.5 L 460 308 L 494.5 317 Q 503.3 320.3 508 327.5 L 511 333.5 L 512 344.5 Q 509.8 356.3 501.5 362 L 493.5 366 L 460 375 L 450 411.5 L 442.5 421 L 433.5 426 L 420.5 426 Q 412 423.5 407 417.5 L 402 407.5 L 393 375 L 357.5 365 L 347 357.5 Q 340.3 350.7 342 335.5 Q 344.1 325.6 351.5 321 L 362.5 316 L 393 308 L 403 271.5 L 411.5 261 L 423.5 256 Z " /></svg>