<svg width="512" height="512" version="1.1" xmlns="http://www.w3.org/2000/svg" desc="Created with imagetracer.js version 1.2.6" ><path fill="rgb(161,161,170)" stroke="rgb(161,161,170)" stroke-width="1" opacity="0.9803921568627451" d="M 135.5 0 L 376.5 0 Q 422.5 8 446 38.5 Q 456.2 51.3 463 67.5 L 468 84.5 L 469 97.5 L 470 98.5 L 470 413.5 L 466 435.5 L 455 460.5 Q 445.4 476.4 431.5 488 Q 419.4 498.4 403.5 505 L 376.5 512 L 115.5 512 Q 82.3 505.7 64 484.5 Q 54.8 474.7 49 461.5 L 45 450.5 L 42 433.5 L 42 98.5 L 46 76.5 L 53 58.5 Q 63.5 38 80.5 24 Q 92.6 13.6 108.5 7 L 135.5 0 Z M 171 43 L 171 341 L 426 341 L 426 99 Q 423 79 412 67 Q 402 55 388 48 Q 377 43 363 43 L 363 225 L 360 231 L 353 235 Q 344 236 341 233 L 310 193 L 282 230 L 274 235 Q 266 236 262 233 L 256 226 L 256 43 L 171 43 Z M 128 47 Q 116 51 108 59 Q 91 73 86 99 L 87 352 L 96 347 L 108 343 L 119 341 L 128 341 L 128 47 Z M 129 384 L 113 387 L 100 395 L 90 409 L 87 418 L 87 426 L 86 427 L 89 443 L 96 455 L 108 464 L 124 469 L 369 469 L 388 464 L 403 455 Q 421 441 426 414 L 426 385 L 426 384 L 129 384 Z " /><path fill="rgb(0,0,0)" stroke="rgb(0,0,0)" stroke-width="1" opacity="0" d="M 0 0 L 135 0.5 L 120.5 3 Q 106 7 94.5 14 Q 78 24 66 38.5 Q 55.8 51.3 49 67.5 L 44 84.5 L 43 97.5 L 42 98.5 L 42 433.5 L 43 434.5 L 44 446.5 L 49 461.5 Q 57 479 70.5 491 Q 81.5 501 96.5 507 L 115 511.5 L 0 512 L 0 0 Z " /><path fill="rgb(0,0,0)" stroke="rgb(0,0,0)" stroke-width="1" opacity="0" d="M 377.5 0 L 511.5 0 L 512 0.5 L 512 512 L 377 511.5 Q 422.1 504.1 445 474.5 Q 456 461.5 463 444.5 L 468 427.5 L 469 414.5 L 470 413.5 L 470 98.5 L 466 76.5 L 455 51.5 Q 445.6 35.4 431.5 24 Q 419.4 13.6 403.5 7 L 387.5 2 L 377.5 1 L 377.5 0 Z " /><path fill="rgb(0,0,0)" stroke="rgb(0,0,0)" stroke-width="1" opacity="0" d="M 171 43 L 256 43 L 256 225.5 L 261.5 233 Q 265.5 236 273.5 235 L 282 229.5 L 309.5 193 L 340.5 233 Q 344.2 236.3 352.5 235 L 360 230.5 L 363 224.5 L 363 43 Q 377 43.1 387.5 48 Q 402.4 54.6 412 66.5 Q 422.7 78.8 426 98.5 L 426 341 L 171 341 L 171 43 Z " /><path fill="rgb(0,0,0)" stroke="rgb(0,0,0)" stroke-width="1" opacity="0" d="M 127.5 47 L 128 341 L 118.5 341 L 107.5 343 L 95.5 347 L 86.5 352 L 86 98.5 Q 90.7 72.7 107.5 59 Q 116 51.5 127.5 47 Z " /><path fill="rgb(0,0,0)" stroke="rgb(0,0,0)" stroke-width="1" opacity="0" d="M 128.5 384 L 425.5 384 L 426 384.5 L 426 413.5 Q 420.8 440.8 402.5 455 L 387.5 464 L 368.5 469 L 123.5 469 L 107.5 464 L 96 454.5 L 89 442.5 L 86 426.5 L 87 425.5 L 87 417.5 L 90 408.5 L 99.5 395 L 112.5 387 L 128.5 384 Z " /></svg>