<svg width="512" height="512" version="1.1" xmlns="http://www.w3.org/2000/svg" desc="Created with imagetracer.js version 1.2.6" ><path fill="rgb(164,164,171)" stroke="rgb(164,164,171)" stroke-width="1" opacity="0.42745098039215684" d="M 32.5 0 L 37 0.5 L 32.5 1 L 32.5 0 Z " /><path fill="rgb(164,164,171)" stroke="rgb(164,164,171)" stroke-width="1" opacity="0.42745098039215684" d="M 47.5 0 L 51 0.5 L 47.5 1 L 47.5 0 Z " /><path fill="rgb(164,164,171)" stroke="rgb(164,164,171)" stroke-width="1" opacity="0.42745098039215684" d="M 364.5 0 L 369 0.5 L 364.5 1 L 364.5 0 Z " /><path fill="rgb(164,164,171)" stroke="rgb(164,164,171)" stroke-width="1" opacity="0.42745098039215684" d="M 370.5 0 L 378.5 1 L 387 7.5 L 390 13.5 L 389 13.5 L 384.5 6 Q 380.2 0.8 370.5 1 L 370.5 0 Z " /><path fill="rgb(164,164,171)" stroke="rgb(164,164,171)" stroke-width="1" opacity="0.42745098039215684" d="M 52.5 1 L 57 2.5 L 55.5 3 L 52.5 2 L 52.5 1 Z " /><path fill="rgb(164,164,171)" stroke="rgb(164,164,171)" stroke-width="1" opacity="0.42745098039215684" d="M 361.5 1 L 363 1.5 L 357.5 4 L 238 123.5 Q 228.6 134.6 222.5 149 L 222 147.5 L 237 123.5 L 357.5 3 L 361.5 1 Z " /><path fill="rgb(164,164,171)" stroke="rgb(164,164,171)" stroke-width="1" opacity="0.42745098039215684" d="M 24.5 3 L 23.5 5 Q 14.1 8.6 9 16.5 L 3.5 27 L 3 25.5 Q 7.9 13.9 17.5 7 L 24.5 3 Z " /><path fill="rgb(164,164,171)" stroke="rgb(164,164,171)" stroke-width="1" opacity="0.42745098039215684" d="M 58.5 3 L 63 5.5 L 61.5 5 Q 57.7 4.8 58.5 3 Z " /><path fill="rgb(164,164,171)" stroke="rgb(164,164,171)" stroke-width="1" opacity="0.42745098039215684" d="M 64.5 6 L 82 22.5 L 181 129.5 L 179 128.5 L 67.5 9 L 64.5 6 Z " /><path fill="rgb(164,164,171)" stroke="rgb(164,164,171)" stroke-width="1" opacity="0.42745098039215684" d="M 390.5 15 L 391 17.5 L 390 17.5 L 390.5 15 Z " /><path fill="rgb(164,164,171)" stroke="rgb(164,164,171)" stroke-width="1" opacity="0.42745098039215684" d="M 391.5 20 L 392 22.5 L 391 22.5 L 391.5 20 Z " /><path fill="rgb(164,164,171)" stroke="rgb(164,164,171)" stroke-width="1" opacity="0.42745098039215684" d="M 390.5 25 L 391 28.5 L 387 35.5 L 271 151.5 L 263.5 163 L 264 161.5 L 269 152.5 L 386 35.5 L 390.5 25 Z " /><path fill="rgb(164,164,171)" stroke="rgb(164,164,171)" stroke-width="1" opacity="0.42745098039215684" d="M 1.5 31 L 2 33.5 L 1 33.5 L 1.5 31 Z " /><path fill="rgb(164,164,171)" stroke="rgb(164,164,171)" stroke-width="1" opacity="0.42745098039215684" d="M 0.5 35 L 1 38.5 L 0 38.5 L 0.5 35 Z " /><path fill="rgb(164,164,171)" stroke="rgb(164,164,171)" stroke-width="1" opacity="0.42745098039215684" d="M 43.5 45 L 149.5 158 L 155 160.5 L 153.5 161 L 149.5 159 L 135 144.5 L 47 50.5 L 43.5 45 Z " /><path fill="rgb(164,164,171)" stroke="rgb(164,164,171)" stroke-width="1" opacity="0.42745098039215684" d="M 43.5 51 L 44 59.5 L 43 59.5 L 43.5 51 Z " /><path fill="rgb(164,164,171)" stroke="rgb(164,164,171)" stroke-width="1" opacity="0.42745098039215684" d="M 44.5 62 L 45 67.5 L 44 67.5 L 44.5 62 Z " /><path fill="rgb(164,164,171)" stroke="rgb(164,164,171)" stroke-width="1" opacity="0.42745098039215684" d="M 423.5 63 L 430 63.5 L 423.5 64 L 423.5 63 Z " /><path fill="rgb(164,164,171)" stroke="rgb(164,164,171)" stroke-width="1" opacity="0.42745098039215684" d="M 419.5 64 L 422 64.5 L 415.5 67 L 262.5 219 L 261 216.5 L 262 216.5 L 262.5 218 L 412.5 68 L 419.5 64 Z " /><path fill="rgb(164,164,171)" stroke="rgb(164,164,171)" stroke-width="1" opacity="0.42745098039215684" d="M 435.5 65 L 438.5 66 L 446 73.5 L 447 76.5 L 446 76.5 Q 444.4 69.6 438.5 67 Q 434.8 66.8 435.5 65 Z " /><path fill="rgb(164,164,171)" stroke="rgb(164,164,171)" stroke-width="1" opacity="0.42745098039215684" d="M 0.5 69 L 1 73.5 L 0 73.5 L 0.5 69 Z " /><path fill="rgb(164,164,171)" stroke="rgb(164,164,171)" stroke-width="1" opacity="0.42745098039215684" d="M 45.5 69 L 46 73.5 L 45 73.5 L 45.5 69 Z " /><path fill="rgb(164,164,171)" stroke="rgb(164,164,171)" stroke-width="1" opacity="0.42745098039215684" d="M 46.5 75 L 47 78.5 L 46 78.5 L 46.5 75 Z " /><path fill="rgb(164,164,171)" stroke="rgb(164,164,171)" stroke-width="1" opacity="0.42745098039215684" d="M 1.5 76 L 2 79.5 L 1 79.5 L 1.5 76 Z " /><path fill="rgb(164,164,171)" stroke="rgb(164,164,171)" stroke-width="1" opacity="0.42745098039215684" d="M 47.5 80 L 48 83.5 L 47 83.5 L 47.5 80 Z " /><path fill="rgb(164,164,171)" stroke="rgb(164,164,171)" stroke-width="1" opacity="0.42745098039215684" d="M 2.5 81 L 3 84.5 L 2 84.5 L 2.5 81 Z " /><path fill="rgb(164,164,171)" stroke="rgb(164,164,171)" stroke-width="1" opacity="0.42745098039215684" d="M 448.5 82 L 449 88.5 L 448 88.5 L 448.5 82 Z " /><path fill="rgb(164,164,171)" stroke="rgb(164,164,171)" stroke-width="1" opacity="0.42745098039215684" d="M 48.5 85 L 49 87.5 L 48 87.5 L 48.5 85 Z " /><path fill="rgb(164,164,171)" stroke="rgb(164,164,171)" stroke-width="1" opacity="0.42745098039215684" d="M 3.5 86 L 4 88.5 L 3 88.5 L 3.5 86 Z " /><path fill="rgb(164,164,171)" stroke="rgb(164,164,171)" stroke-width="1" opacity="0.42745098039215684" d="M 49.5 89 L 50 91.5 L 49 91.5 L 49.5 89 Z " /><path fill="rgb(164,164,171)" stroke="rgb(164,164,171)" stroke-width="1" opacity="0.42745098039215684" d="M 4.5 90 L 5 92.5 L 4 92.5 L 4.5 90 Z " /><path fill="rgb(164,164,171)" stroke="rgb(164,164,171)" stroke-width="1" opacity="0.42745098039215684" d="M 447.5 90 L 448 92.5 L 444 99.5 L 294 249.5 L 296 250.5 L 294.5 251 L 293 248.5 L 445 96.5 L 447.5 90 Z " /><path fill="rgb(164,164,171)" stroke="rgb(164,164,171)" stroke-width="1" opacity="0.42745098039215684" d="M 50.5 93 L 52 98.5 L 51 98.5 L 50.5 93 Z " /><path fill="rgb(164,164,171)" stroke="rgb(164,164,171)" stroke-width="1" opacity="0.42745098039215684" d="M 5.5 94 L 6 96.5 L 5 96.5 L 5.5 94 Z " /><path fill="rgb(164,164,171)" stroke="rgb(164,164,171)" stroke-width="1" opacity="0.42745098039215684" d="M 7.5 101 L 9 106.5 L 8 106.5 L 7.5 101 Z " /><path fill="rgb(164,164,171)" stroke="rgb(164,164,171)" stroke-width="1" opacity="0.42745098039215684" d="M 9.5 108 L 14 120.5 L 13 120.5 L 9.5 108 Z " /><path fill="rgb(164,164,171)" stroke="rgb(164,164,171)" stroke-width="1" opacity="0.42745098039215684" d="M 55.5 109 L 58 115.5 L 57 115.5 L 55.5 109 Z " /><path fill="rgb(164,164,171)" stroke="rgb(164,164,171)" stroke-width="1" opacity="0.42745098039215684" d="M 58.5 117 L 60 120.5 L 59 120.5 L 58.5 117 Z " /><path fill="rgb(164,164,171)" stroke="rgb(164,164,171)" stroke-width="1" opacity="0.42745098039215684" d="M 487.5 120 L 494 120.5 L 487.5 121 L 487.5 120 Z " /><path fill="rgb(164,164,171)" stroke="rgb(164,164,171)" stroke-width="1" opacity="0.42745098039215684" d="M 483.5 121 L 486 121.5 L 481.5 123 L 481.5 122 L 483.5 121 Z " /><path fill="rgb(164,164,171)" stroke="rgb(164,164,171)" stroke-width="1" opacity="0.42745098039215684" d="M 14.5 122 L 17 128.5 L 16 128.5 L 14.5 122 Z " /><path fill="rgb(164,164,171)" stroke="rgb(164,164,171)" stroke-width="1" opacity="0.42745098039215684" d="M 60.5 122 L 64 129.5 L 63 129.5 L 60.5 122 Z " /><path fill="rgb(164,164,171)" stroke="rgb(164,164,171)" stroke-width="1" opacity="0.42745098039215684" d="M 499.5 122 L 502 123.5 L 500.5 123 L 499.5 122 Z " /><path fill="rgb(164,164,171)" stroke="rgb(164,164,171)" stroke-width="1" opacity="0.42745098039215684" d="M 479.5 123 L 478.5 125 L 360.5 242 L 349.5 249 L 350.5 247 L 360.5 241 L 479.5 123 Z " /><path fill="rgb(164,164,171)" stroke="rgb(164,164,171)" stroke-width="1" opacity="0.42745098039215684" d="M 503.5 124 L 510 131.5 L 508 130.5 L 503.5 124 Z " /><path fill="rgb(164,164,171)" stroke="rgb(164,164,171)" stroke-width="1" opacity="0.42745098039215684" d="M 17.5 130 L 20 135.5 L 19 135.5 L 17.5 130 Z " /><path fill="rgb(164,164,171)" stroke="rgb(164,164,171)" stroke-width="1" opacity="0.42745098039215684" d="M 181.5 131 L 183 135.5 L 182 135.5 L 181.5 131 Z " /><path fill="rgb(164,164,171)" stroke="rgb(164,164,171)" stroke-width="1" opacity="0.42745098039215684" d="M 65.5 133 L 70 141.5 L 68 140.5 L 65.5 133 Z " /><path fill="rgb(164,164,171)" stroke="rgb(164,164,171)" stroke-width="1" opacity="0.42745098039215684" d="M 510.5 133 L 512 138.5 L 511 138.5 L 510.5 133 Z " /><path fill="rgb(164,164,171)" stroke="rgb(164,164,171)" stroke-width="1" opacity="0.42745098039215684" d="M 20.5 137 L 24 144.5 L 23 144.5 L 20.5 137 Z " /><path fill="rgb(164,164,171)" stroke="rgb(164,164,171)" stroke-width="1" opacity="0.42745098039215684" d="M 183.5 137 L 184 143.5 L 183 143.5 L 183.5 137 Z " /><path fill="rgb(164,164,171)" stroke="rgb(164,164,171)" stroke-width="1" opacity="0.42745098039215684" d="M 70.5 143 L 95 182.5 Q 119.5 216.5 148 246.5 L 152 254.5 L 151 254.5 L 146 245.5 Q 120.9 219.1 99 189.5 L 80 161.5 L 70.5 143 Z " /><path fill="rgb(164,164,171)" stroke="rgb(164,164,171)" stroke-width="1" opacity="0.42745098039215684" d="M 182.5 145 L 183 147.5 L 181.5 150 L 181 148.5 L 182.5 145 Z " /><path fill="rgb(164,164,171)" stroke="rgb(164,164,171)" stroke-width="1" opacity="0.42745098039215684" d="M 511.5 145 L 512 148.5 L 510.5 151 L 510 149.5 L 511.5 145 Z " /><path fill="rgb(164,164,171)" stroke="rgb(164,164,171)" stroke-width="1" opacity="0.42745098039215684" d="M 24.5 146 L 33 162.5 L 31 161.5 L 24 147.5 L 24.5 146 Z " /><path fill="rgb(164,164,171)" stroke="rgb(164,164,171)" stroke-width="1" opacity="0.42745098039215684" d="M 221.5 150 L 222 151.5 L 220.5 154 L 220 152.5 L 221.5 150 Z " /><path fill="rgb(164,164,171)" stroke="rgb(164,164,171)" stroke-width="1" opacity="0.42745098039215684" d="M 180.5 151 L 180 152.5 L 174.5 159 L 169.5 161 L 169.5 160 L 179 153.5 L 180.5 151 Z " /><path fill="rgb(164,164,171)" stroke="rgb(164,164,171)" stroke-width="1" opacity="0.42745098039215684" d="M 509.5 152 L 509 153.5 L 388.5 275 L 375.5 284 L 376.5 282 L 388.5 274 L 508 154.5 L 509.5 152 Z " /><path fill="rgb(164,164,171)" stroke="rgb(164,164,171)" stroke-width="1" opacity="0.42745098039215684" d="M 219.5 155 L 220 156.5 L 218.5 160 L 218 157.5 L 219.5 155 Z " /><path fill="rgb(164,164,171)" stroke="rgb(164,164,171)" stroke-width="1" opacity="0.42745098039215684" d="M 156.5 161 L 159 161.5 L 156.5 162 L 156.5 161 Z " /><path fill="rgb(164,164,171)" stroke="rgb(164,164,171)" stroke-width="1" opacity="0.42745098039215684" d="M 164.5 161 L 168 161.5 L 164.5 162 L 164.5 161 Z " /><path fill="rgb(164,164,171)" stroke="rgb(164,164,171)" stroke-width="1" opacity="0.42745098039215684" d="M 33.5 164 Q 50.9 196.1 72 224.5 L 90 247.5 L 116 275.5 L 116 277 L 120 279.5 L 118.5 279 L 112 273.5 Q 65.3 225.2 33.5 164 Z " /><path fill="rgb(164,164,171)" stroke="rgb(164,164,171)" stroke-width="1" opacity="0.42745098039215684" d="M 216.5 164 L 217 166.5 L 216 166.5 L 216.5 164 Z " /><path fill="rgb(164,164,171)" stroke="rgb(164,164,171)" stroke-width="1" opacity="0.42745098039215684" d="M 262.5 164 L 263 165.5 L 260.5 170 L 260 168.5 L 262.5 164 Z " /><path fill="rgb(164,164,171)" stroke="rgb(164,164,171)" stroke-width="1" opacity="0.42745098039215684" d="M 215.5 168 L 216 171.5 L 215 171.5 L 215.5 168 Z " /><path fill="rgb(164,164,171)" stroke="rgb(164,164,171)" stroke-width="1" opacity="0.42745098039215684" d="M 214.5 173 L 215 177.5 L 214 177.5 L 214.5 173 Z " /><path fill="rgb(164,164,171)" stroke="rgb(164,164,171)" stroke-width="1" opacity="0.42745098039215684" d="M 258.5 174 L 259 176.5 L 258 176.5 L 258.5 174 Z " /><path fill="rgb(164,164,171)" stroke="rgb(164,164,171)" stroke-width="1" opacity="0.42745098039215684" d="M 257.5 178 L 258 181.5 L 257 181.5 L 257.5 178 Z " /><path fill="rgb(164,164,171)" stroke="rgb(164,164,171)" stroke-width="1" opacity="0.42745098039215684" d="M 213.5 180 L 214 203.5 L 213 203.5 L 213.5 180 Z " /><path fill="rgb(164,164,171)" stroke="rgb(164,164,171)" stroke-width="1" opacity="0.42745098039215684" d="M 256.5 184 L 257 199.5 L 256 199.5 L 256.5 184 Z " /><path fill="rgb(164,164,171)" stroke="rgb(164,164,171)" stroke-width="1" opacity="0.42745098039215684" d="M 257.5 202 L 258 205.5 L 257 205.5 L 257.5 202 Z " /><path fill="rgb(164,164,171)" stroke="rgb(164,164,171)" stroke-width="1" opacity="0.42745098039215684" d="M 214.5 206 L 215 210.5 L 214 210.5 L 214.5 206 Z " /><path fill="rgb(164,164,171)" stroke="rgb(164,164,171)" stroke-width="1" opacity="0.42745098039215684" d="M 258.5 207 L 261 214.5 L 260 214.5 L 258.5 207 Z " /><path fill="rgb(164,164,171)" stroke="rgb(164,164,171)" stroke-width="1" opacity="0.42745098039215684" d="M 215.5 212 L 216 215.5 L 215 215.5 L 215.5 212 Z " /><path fill="rgb(164,164,171)" stroke="rgb(164,164,171)" stroke-width="1" opacity="0.42745098039215684" d="M 216.5 217 L 217 219.5 L 216 219.5 L 216.5 217 Z " /><path fill="rgb(164,164,171)" stroke="rgb(164,164,171)" stroke-width="1" opacity="0.42745098039215684" d="M 218.5 224 L 220 228.5 L 219 228.5 L 218.5 224 Z " /><path fill="rgb(164,164,171)" stroke="rgb(164,164,171)" stroke-width="1" opacity="0.42745098039215684" d="M 220.5 230 L 222 233.5 L 221 233.5 L 220.5 230 Z " /><path fill="rgb(164,164,171)" stroke="rgb(164,164,171)" stroke-width="1" opacity="0.42745098039215684" d="M 222.5 235 L 231 251.5 L 3 478.5 L 230 250.5 L 222 236.5 L 222.5 235 Z " /><path fill="rgb(164,164,171)" stroke="rgb(164,164,171)" stroke-width="1" opacity="0.42745098039215684" d="M 346.5 249 L 348 249.5 L 335.5 254 L 335.5 253 L 346.5 249 Z " /><path fill="rgb(164,164,171)" stroke="rgb(164,164,171)" stroke-width="1" opacity="0.42745098039215684" d="M 297.5 251 L 302 252.5 L 299.5 253 L 297.5 251 Z " /><path fill="rgb(164,164,171)" stroke="rgb(164,164,171)" stroke-width="1" opacity="0.42745098039215684" d="M 303.5 253 L 311 254.5 L 306.5 255 L 303.5 254 L 303.5 253 Z " /><path fill="rgb(164,164,171)" stroke="rgb(164,164,171)" stroke-width="1" opacity="0.42745098039215684" d="M 330.5 254 L 334 254.5 L 330.5 255 L 330.5 254 Z " /><path fill="rgb(164,164,171)" stroke="rgb(164,164,171)" stroke-width="1" opacity="0.42745098039215684" d="M 312.5 255 L 328 255.5 L 312.5 256 L 312.5 255 Z " /><path fill="rgb(164,164,171)" stroke="rgb(164,164,171)" stroke-width="1" opacity="0.42745098039215684" d="M 152.5 256 L 153 265.5 L 152 265.5 L 152.5 256 Z " /><path fill="rgb(164,164,171)" stroke="rgb(164,164,171)" stroke-width="1" opacity="0.42745098039215684" d="M 150.5 270 L 151 271.5 L 144.5 279 L 140.5 281 L 140.5 280 L 148 274.5 L 150.5 270 Z " /><path fill="rgb(164,164,171)" stroke="rgb(164,164,171)" stroke-width="1" opacity="0.42745098039215684" d="M 260.5 281 L 277 289.5 L 275.5 290 L 261.5 282 L 33.5 509 L 260.5 281 Z " /><path fill="rgb(164,164,171)" stroke="rgb(164,164,171)" stroke-width="1" opacity="0.42745098039215684" d="M 126.5 282 L 136 282.5 L 126.5 283 L 126.5 282 Z " /><path fill="rgb(164,164,171)" stroke="rgb(164,164,171)" stroke-width="1" opacity="0.42745098039215684" d="M 373.5 284 L 372.5 286 L 357.5 293 L 349.5 295 L 349.5 294 Q 363.5 291 373.5 284 Z " /><path fill="rgb(164,164,171)" stroke="rgb(164,164,171)" stroke-width="1" opacity="0.42745098039215684" d="M 278.5 290 L 282 291.5 L 280.5 292 L 278.5 290 Z " /><path fill="rgb(164,164,171)" stroke="rgb(164,164,171)" stroke-width="1" opacity="0.42745098039215684" d="M 286.5 293 L 291 294.5 L 288.5 295 L 286.5 293 Z " /><path fill="rgb(164,164,171)" stroke="rgb(164,164,171)" stroke-width="1" opacity="0.42745098039215684" d="M 292.5 295 L 295 295.5 L 292.5 296 L 292.5 295 Z " /><path fill="rgb(164,164,171)" stroke="rgb(164,164,171)" stroke-width="1" opacity="0.42745098039215684" d="M 345.5 295 L 348 295.5 L 345.5 296 L 345.5 295 Z " /><path fill="rgb(164,164,171)" stroke="rgb(164,164,171)" stroke-width="1" opacity="0.42745098039215684" d="M 296.5 296 L 300 296.5 L 296.5 297 L 296.5 296 Z " /><path fill="rgb(164,164,171)" stroke="rgb(164,164,171)" stroke-width="1" opacity="0.42745098039215684" d="M 340.5 296 L 344 296.5 L 340.5 297 L 340.5 296 Z " /><path fill="rgb(164,164,171)" stroke="rgb(164,164,171)" stroke-width="1" opacity="0.42745098039215684" d="M 301.5 297 L 306 297.5 L 301.5 298 L 301.5 297 Z " /><path fill="rgb(164,164,171)" stroke="rgb(164,164,171)" stroke-width="1" opacity="0.42745098039215684" d="M 334.5 297 L 339 297.5 L 334.5 298 L 334.5 297 Z " /><path fill="rgb(164,164,171)" stroke="rgb(164,164,171)" stroke-width="1" opacity="0.42745098039215684" d="M 309.5 298 L 332 298.5 L 309.5 299 L 309.5 298 Z " /><path fill="rgb(164,164,171)" stroke="rgb(164,164,171)" stroke-width="1" opacity="0.42745098039215684" d="M 275.5 330 L 278 330.5 L 275.5 331 L 275.5 330 Z " /><path fill="rgb(164,164,171)" stroke="rgb(164,164,171)" stroke-width="1" opacity="0.42745098039215684" d="M 284.5 330 L 288 330.5 L 284.5 331 L 284.5 330 Z " /><path fill="rgb(164,164,171)" stroke="rgb(164,164,171)" stroke-width="1" opacity="0.42745098039215684" d="M 272.5 331 L 274 331.5 L 266 336.5 L 262.5 343 L 262 341.5 L 268.5 333 L 272.5 331 Z " /><path fill="rgb(164,164,171)" stroke="rgb(164,164,171)" stroke-width="1" opacity="0.42745098039215684" d="M 292.5 332 L 295 332.5 L 292.5 333 L 292.5 332 Z " /><path fill="rgb(164,164,171)" stroke="rgb(164,164,171)" stroke-width="1" opacity="0.42745098039215684" d="M 296.5 333 L 299 333.5 L 296.5 334 L 296.5 333 Z " /><path fill="rgb(164,164,171)" stroke="rgb(164,164,171)" stroke-width="1" opacity="0.42745098039215684" d="M 300.5 334 L 304 334.5 L 300.5 335 L 300.5 334 Z " /><path fill="rgb(164,164,171)" stroke="rgb(164,164,171)" stroke-width="1" opacity="0.42745098039215684" d="M 305.5 335 L 309 335.5 L 305.5 336 L 305.5 335 Z " /><path fill="rgb(164,164,171)" stroke="rgb(164,164,171)" stroke-width="1" opacity="0.42745098039215684" d="M 310.5 336 L 315 336.5 L 310.5 337 L 310.5 336 Z " /><path fill="rgb(164,164,171)" stroke="rgb(164,164,171)" stroke-width="1" opacity="0.42745098039215684" d="M 362.5 336 L 367 336.5 L 362.5 337 L 362.5 336 Z " /><path fill="rgb(164,164,171)" stroke="rgb(164,164,171)" stroke-width="1" opacity="0.42745098039215684" d="M 318.5 337 L 324 337.5 L 318.5 338 L 318.5 337 Z " /><path fill="rgb(164,164,171)" stroke="rgb(164,164,171)" stroke-width="1" opacity="0.42745098039215684" d="M 352.5 337 L 359 337.5 L 352.5 338 L 352.5 337 Z " /><path fill="rgb(164,164,171)" stroke="rgb(164,164,171)" stroke-width="1" opacity="0.42745098039215684" d="M 369.5 337 L 372 337.5 L 369.5 338 L 369.5 337 Z " /><path fill="rgb(164,164,171)" stroke="rgb(164,164,171)" stroke-width="1" opacity="0.42745098039215684" d="M 329.5 338 L 347 338.5 L 329.5 339 L 329.5 338 Z " /><path fill="rgb(164,164,171)" stroke="rgb(164,164,171)" stroke-width="1" opacity="0.42745098039215684" d="M 373.5 338 Q 384.8 342.2 391 351.5 L 508 476.5 L 511 482.5 L 510 482.5 L 506 475.5 L 381.5 343 L 373.5 339 L 373.5 338 Z " /><path fill="rgb(164,164,171)" stroke="rgb(164,164,171)" stroke-width="1" opacity="0.42745098039215684" d="M 260.5 347 L 261 349.5 L 260 349.5 L 260.5 347 Z " /><path fill="rgb(164,164,171)" stroke="rgb(164,164,171)" stroke-width="1" opacity="0.42745098039215684" d="M 260.5 356 Q 262.3 364.2 268.5 368 L 275 371.5 L 273.5 371 Q 265.6 368.9 262 362.5 Q 259 360 260.5 356 Z " /><path fill="rgb(164,164,171)" stroke="rgb(164,164,171)" stroke-width="1" opacity="0.42745098039215684" d="M 276.5 372 L 287 375.5 L 284.5 376 L 276.5 373 L 276.5 372 Z " /><path fill="rgb(164,164,171)" stroke="rgb(164,164,171)" stroke-width="1" opacity="0.42745098039215684" d="M 288.5 376 L 291 376.5 L 288.5 377 L 288.5 376 Z " /><path fill="rgb(164,164,171)" stroke="rgb(164,164,171)" stroke-width="1" opacity="0.42745098039215684" d="M 293.5 377 L 297 377.5 L 293.5 378 L 293.5 377 Z " /><path fill="rgb(164,164,171)" stroke="rgb(164,164,171)" stroke-width="1" opacity="0.42745098039215684" d="M 298.5 378 L 303 378.5 L 298.5 379 L 298.5 378 Z " /><path fill="rgb(164,164,171)" stroke="rgb(164,164,171)" stroke-width="1" opacity="0.42745098039215684" d="M 306.5 379 L 312 379.5 L 306.5 380 L 306.5 379 Z " /><path fill="rgb(164,164,171)" stroke="rgb(164,164,171)" stroke-width="1" opacity="0.42745098039215684" d="M 316.5 380 L 328 380.5 L 316.5 381 L 316.5 380 Z " /><path fill="rgb(164,164,171)" stroke="rgb(164,164,171)" stroke-width="1" opacity="0.42745098039215684" d="M 357.5 380 L 479.5 509 L 483 510.5 L 481.5 511 L 474 505.5 L 366 390.5 L 357.5 380 Z " /><path fill="rgb(164,164,171)" stroke="rgb(164,164,171)" stroke-width="1" opacity="0.42745098039215684" d="M 1.5 482 L 2 483.5 L 0.5 489 L 0 484.5 L 1.5 482 Z " /><path fill="rgb(164,164,171)" stroke="rgb(164,164,171)" stroke-width="1" opacity="0.42745098039215684" d="M 511.5 484 L 512 486.5 L 511 486.5 L 511.5 484 Z " /><path fill="rgb(164,164,171)" stroke="rgb(164,164,171)" stroke-width="1" opacity="0.42745098039215684" d="M 0.5 491 L 1 495.5 L 0 495.5 L 0.5 491 Z " /><path fill="rgb(164,164,171)" stroke="rgb(164,164,171)" stroke-width="1" opacity="0.42745098039215684" d="M 511.5 494 L 512 496.5 L 511 496.5 L 511.5 494 Z " /><path fill="rgb(164,164,171)" stroke="rgb(164,164,171)" stroke-width="1" opacity="0.42745098039215684" d="M 1.5 497 Q 3.7 504.3 9.5 508 L 15 510.5 L 13.5 511 L 3 502.5 L 1.5 497 Z " /><path fill="rgb(164,164,171)" stroke="rgb(164,164,171)" stroke-width="1" opacity="0.42745098039215684" d="M 510.5 498 L 511 499.5 L 504.5 508 L 498.5 511 L 498.5 510 L 507 504.5 L 510.5 498 Z " /><path fill="rgb(164,164,171)" stroke="rgb(164,164,171)" stroke-width="1" opacity="0.42745098039215684" d="M 16.5 511 L 21 511.5 L 16.5 512 L 16.5 511 Z " /><path fill="rgb(164,164,171)" stroke="rgb(164,164,171)" stroke-width="1" opacity="0.42745098039215684" d="M 22.5 511 L 27 511.5 L 22.5 512 L 22.5 511 Z " /><path fill="rgb(164,164,171)" stroke="rgb(164,164,171)" stroke-width="1" opacity="0.42745098039215684" d="M 484.5 511 L 487 511.5 L 484.5 512 L 484.5 511 Z " /><path fill="rgb(164,164,171)" stroke="rgb(164,164,171)" stroke-width="1" opacity="0.42745098039215684" d="M 494.5 511 L 497 511.5 L 494.5 512 L 494.5 511 Z " /><path fill="rgb(160,160,170)" stroke="rgb(160,160,170)" stroke-width="1" opacity="0.996078431372549" d="M 293.5 127 L 292.5 129 L 293.5 127 Z " /><path fill="rgb(160,160,170)" stroke="rgb(160,160,170)" stroke-width="1" opacity="0.996078431372549" d="M 288.5 132 L 281.5 140 L 288.5 132 Z " /><path fill="rgb(0,0,0)" stroke="rgb(0,0,0)" stroke-width="1" opacity="0" d="M 0 0 L 32 0.5 Q 16 4.5 8 16.5 Q 2.3 23.8 0.5 35 L 0 0 Z " /><path fill="rgb(0,0,0)" stroke="rgb(0,0,0)" stroke-width="1" opacity="0" d="M 51.5 0 L 364 0.5 L 357.5 3 L 237 123.5 Q 224.9 137.9 218 157.5 L 213 180.5 L 213 203.5 L 218 226.5 L 230 250.5 L 5 475.5 L 0.5 484 L 0 74.5 L 1 74.5 L 2 84.5 L 12 118.5 Q 22.1 146.4 36 170.5 Q 70.3 231.2 117.5 279 L 126.5 283 L 135.5 283 Q 144.6 281.1 149 274.5 L 153 265.5 L 153 256.5 L 148 246.5 Q 119.5 216.5 95 182.5 L 70 142.5 Q 57.7 119.8 50 92.5 L 45 68.5 L 43 46.5 L 47 49.5 L 149.5 159 Q 155.3 163.7 167.5 162 Q 175.9 159.9 180 153.5 Q 184.4 147.9 184 137.5 L 180 127.5 L 66.5 7 L 54.5 1 L 51.5 1 L 51.5 0 Z " /><path fill="rgb(0,0,0)" stroke="rgb(0,0,0)" stroke-width="1" opacity="0" d="M 376.5 0 L 512 0 L 512 134.5 L 511 134.5 Q 509.2 127.3 503.5 124 Q 497.9 119.6 487.5 120 L 477.5 124 L 360.5 241 Q 350.2 250.2 334.5 254 L 329.5 255 L 311.5 255 L 294 249.5 L 444 99.5 Q 449.5 94 449 82.5 Q 447.1 70.9 438.5 66 L 429.5 63 L 423.5 63 L 412.5 68 L 262.5 218 L 257 201.5 L 257 182.5 Q 260.4 163.4 271 151.5 L 387 35.5 L 391 28.5 L 392 20.5 L 389 10.5 L 383.5 4 L 376.5 1 L 376.5 0 Z " /><path fill="rgb(0,0,0)" stroke="rgb(0,0,0)" stroke-width="1" opacity="0" d="M 511.5 149 L 512 483.5 L 511 483.5 L 508 476.5 L 381.5 342 Q 374.9 336.1 362.5 336 L 351.5 338 L 324.5 338 L 323.5 337 L 315.5 337 L 299.5 334 L 287.5 330 L 275.5 330 Q 268.5 331.6 265 336.5 L 260 347.5 L 260 358.5 L 268.5 369 L 278.5 374 L 298.5 379 L 315.5 380 L 316.5 381 L 357.5 381 L 366 389.5 L 475.5 507 L 484 511.5 L 27.5 512 L 27.5 511 L 36.5 507 L 261.5 282 Q 276.2 292.3 296.5 297 L 308.5 298 L 309.5 299 L 331.5 299 L 351.5 295 L 362.5 291 Q 377 284.5 388.5 275 L 509 154.5 L 511.5 149 Z " /><path fill="rgb(0,0,0)" stroke="rgb(0,0,0)" stroke-width="1" opacity="0" d="M 0.5 496 Q 2.6 504.9 9.5 509 L 16 511.5 L 0 512 L 0.5 496 Z " /><path fill="rgb(0,0,0)" stroke="rgb(0,0,0)" stroke-width="1" opacity="0" d="M 511.5 497 L 512 512 L 497 511.5 Q 504.4 509.9 508 504.5 L 511.5 497 Z " /><path fill="rgb(161,161,170)" stroke="rgb(161,161,170)" stroke-width="1" opacity="1" d="M 37.5 0 L 45.5 0 L 57.5 3 Q 70.7 9.3 79 20.5 L 88 32 L 94 36.5 L 179 127.5 L 183 136.5 L 183 144.5 Q 181.3 152.8 175.5 157 Q 170.5 162 160.5 162 Q 147.8 159.8 142 150.5 Q 142.8 148.3 140.5 149 L 112 118.5 L 112 117 L 109 115.5 L 98 102 L 94 99.5 L 67 70.5 L 67 69 Q 64.3 70.1 65 67.5 L 54 56.5 L 54 55 L 50 52.5 L 43.5 45 L 43 60.5 L 50 95.5 L 64 132.5 L 80 161.5 L 103 193.5 L 104 197 Q 106.7 195.9 106 198.5 L 149 249.5 Q 153.8 254.7 152 266.5 Q 149.8 273.8 144.5 278 L 136.5 282 L 125.5 282 L 116 277 L 107 265 L 103 262.5 L 78 232.5 L 62 210.5 Q 40.8 180.2 24 145.5 L 14 121.5 L 4 89.5 L 0 68.5 L 0 39.5 Q 3.6 18.6 17.5 8 L 25.5 3 L 37.5 0 Z " /><path fill="rgb(161,161,170)" stroke="rgb(161,161,170)" stroke-width="1" opacity="1" d="M 369.5 0 L 378.5 2 L 386 7.5 L 390 14.5 L 391 24.5 L 386 35.5 L 294.5 127 L 292 128.5 L 292 130 L 290 130 Q 291.1 132.7 288.5 132 L 275.5 146 Q 273.3 145.3 274 147.5 Q 255 163.5 256 199.5 L 258 209.5 L 262.5 219 L 415.5 67 Q 420.7 62.6 431.5 64 Q 440.5 66.4 445 73.5 Q 449.4 78.6 448 89.5 L 445 96.5 L 293 249.5 L 306.5 255 L 327.5 256 L 348.5 250 L 360.5 242 L 477.5 125 L 486.5 121 L 495.5 121 L 502.5 124 L 508 129.5 Q 512.2 134.8 512 144.5 L 508 154.5 L 388.5 274 Q 372.1 288.1 348.5 295 L 333.5 298 L 306.5 298 L 282.5 292 L 260.5 281 L 32.5 509 L 21.5 512 Q 20.3 509.7 15.5 511 L 9.5 508 L 4 502.5 L 1 496.5 Q 2.3 491.8 0 490.5 Q 2.3 489.3 1 484.5 L 4 478.5 L 231 250.5 Q 220.8 236.2 216 216.5 L 214 205.5 L 214 178.5 L 217 163.5 L 222 149.5 L 238 123 Q 240.7 124.1 240 121.5 L 356.5 5 L 363.5 1 Q 368.3 2.3 369.5 0 Z " /><path fill="rgb(161,161,170)" stroke="rgb(161,161,170)" stroke-width="1" opacity="1" d="M 278.5 330 L 288.5 331 L 300.5 335 L 317.5 338 L 346.5 339 L 347.5 338 L 368.5 337 Q 381.2 340.3 388 349.5 L 506 475.5 Q 512.5 481 512 493.5 Q 510.1 502.1 504.5 507 Q 499 512.5 487.5 512 L 479.5 509 L 465 494.5 Q 465.8 492.3 463.5 493 L 452 479 L 449 477.5 Q 449.8 475.3 447.5 476 L 437 463 L 431 458.5 L 419 444 L 416 442.5 L 403 427 L 400 425.5 L 371 394.5 L 371 393 Q 368.3 394.1 369 391.5 L 360 382.5 L 360 381 L 356.5 380 L 352.5 381 L 350.5 381 L 312.5 380 L 311.5 379 L 297.5 378 L 292.5 376 L 290.5 376 Q 272.6 373.4 263 362.5 L 260 355.5 L 260 351.5 L 262 343.5 L 267.5 335 L 278.5 330 Z " /></svg>