<svg width="512" height="512" version="1.1" xmlns="http://www.w3.org/2000/svg" desc="Created with imagetracer.js version 1.2.6" ><path fill="rgb(161,161,170)" stroke="rgb(161,161,170)" stroke-width="1" opacity="0.9686274509803922" d="M 245.5 0 L 264.5 0 L 269.5 1 Q 280.7 3.8 288.5 10 Q 325.2 41.8 358 77.5 Q 362.5 83 361 94.5 Q 358.5 103.5 351.5 108 Q 346 113 333.5 111 L 325.5 107 L 278.5 61 L 278 234 L 453 233.5 L 404 183.5 Q 399 178 401 165.5 Q 403.1 158.1 408.5 154 L 415.5 150 L 422.5 149 L 431.5 151 L 436.5 154 L 453 170.5 L 493 211.5 L 505 226.5 Q 510 234.5 512 245.5 L 512 265.5 Q 509 279 502 288.5 L 433.5 359 Q 427.7 363.7 415.5 362 Q 407.5 359.5 403 353.5 Q 398.6 347.9 399 337.5 L 403 327.5 L 451 278.5 L 278 278 L 278.5 451 L 326.5 404 L 333.5 400 L 343.5 399 Q 353.9 401.1 359 408.5 L 362 414.5 Q 360.5 420 363 421.5 L 360 432.5 L 306.5 486 Q 294.9 499.4 278.5 508 L 265.5 512 L 245.5 512 Q 229.4 509.1 219.5 500 L 152 434.5 L 148 424.5 L 148 417.5 L 154 405 L 160.5 401 L 167.5 399 L 172.5 399 L 181.5 402 L 233.5 453 L 234 278 L 61 278.5 L 107 325.5 Q 113 331.5 111 345.5 Q 108.1 353.6 101.5 358 Q 96 362.5 84.5 361 L 77.5 358 L 25 305.5 Q 13.4 294.6 5 280.5 L 0 264.5 L 0 245.5 Q 2.9 229.4 12 219.5 L 76.5 153 Q 82 147.5 93.5 148 Q 104.4 149.6 109 157.5 Q 113 162.5 113 171.5 L 109 182.5 L 59 233.5 L 234 234 L 233.5 59 L 182.5 109 Q 177.5 113 168.5 113 Q 156.5 111 151 102.5 L 148 93.5 L 148 87.5 L 153 76.5 L 171.5 58 L 219.5 12 Q 229.4 2.9 245.5 0 Z " /><path fill="rgb(0,0,0)" stroke="rgb(0,0,0)" stroke-width="1" opacity="0" d="M 0 0 L 245 0.5 Q 228.9 2.9 219.5 12 L 153 76.5 Q 147.5 82 148 93.5 Q 149.6 104.4 157.5 109 Q 162.5 113 171.5 113 L 182.5 109 L 233.5 59 L 234 234 L 59 233.5 L 109 182.5 Q 113 177.5 113 168.5 L 111 160.5 L 102.5 151 L 93.5 148 L 87.5 148 L 76.5 153 L 59 170.5 L 12 219.5 Q 2.9 228.9 0.5 245 L 0 0 Z " /><path fill="rgb(0,0,0)" stroke="rgb(0,0,0)" stroke-width="1" opacity="0" d="M 265.5 0 L 512 0 L 512 244.5 L 511 244.5 L 509 234.5 L 500 219.5 L 436.5 154 L 431.5 151 L 421.5 149 L 411.5 152 L 405 157.5 Q 399 163.5 401 177.5 Q 404.7 186.8 412 192.5 L 453 233.5 L 278 234 L 278.5 61 L 325.5 107 Q 331.5 113 345.5 111 Q 353.6 108.1 358 101.5 Q 362.5 96 361 84.5 L 358 77.5 L 307.5 27 L 285.5 8 Q 277.8 2.3 265.5 1 L 265.5 0 Z " /><path fill="rgb(0,0,0)" stroke="rgb(0,0,0)" stroke-width="1" opacity="0" d="M 0.5 265 Q 3.4 283.1 14 293.5 L 77.5 358 Q 83 362.5 94.5 361 Q 103.5 358.5 108 351.5 Q 113 346 111 333.5 L 107 325.5 L 61 278.5 L 234 278 L 233.5 453 L 181.5 402 L 172.5 399 L 167.5 399 Q 158.9 400.6 154 405 L 149 413.5 L 148 424.5 L 152 434.5 L 169.5 452 L 219.5 500 Q 228.9 509.1 245 511.5 L 0 512 L 0.5 265 Z " /><path fill="rgb(0,0,0)" stroke="rgb(0,0,0)" stroke-width="1" opacity="0" d="M 511.5 266 L 512 512 L 266 511.5 Q 283.5 508.5 293.5 498 L 360 432.5 L 363 421.5 Q 360.5 420 362 414.5 L 359 408.5 L 353.5 403 Q 348.2 398.8 338.5 399 L 333.5 400 L 326.5 404 L 278.5 451 L 278 278 L 451 278.5 L 403 327.5 Q 398.6 333.1 399 343.5 Q 400.8 353.2 407.5 358 Q 413.2 363.8 426.5 362 L 433.5 359 L 478 314.5 L 502 288.5 Q 509 279.5 511.5 266 Z " /></svg>