<svg width="512" height="512" version="1.1" xmlns="http://www.w3.org/2000/svg" desc="Created with imagetracer.js version 1.2.6" ><path fill="rgb(0,0,0)" stroke="rgb(0,0,0)" stroke-width="1" opacity="0" d="M 0 0 L 233 0.5 L 205.5 4 L 188.5 8 L 161.5 17 L 135.5 29 Q 92.6 52.1 62 87.5 Q 35.8 117.3 19 156.5 L 6 196.5 L 2 217.5 L 0.5 233 L 0 0 Z " /><path fill="rgb(0,0,0)" stroke="rgb(0,0,0)" stroke-width="1" opacity="0" d="M 279.5 0 L 512 0 L 512 233.5 L 511 233.5 L 510 217.5 L 504 188.5 Q 495.9 159.6 483 135.5 Q 459.9 92.6 424.5 62 Q 394.7 35.8 355.5 19 L 323.5 8 L 294.5 2 L 279.5 1 L 279.5 0 Z " /><path fill="rgb(0,0,0)" stroke="rgb(0,0,0)" stroke-width="1" opacity="0" d="M 244.5 43 L 267.5 43 L 268.5 44 L 278.5 44 L 279.5 45 L 292.5 46 L 314.5 51 L 339.5 60 Q 384.6 79.9 415 114.5 Q 440.9 143.1 456 182.5 L 462 201.5 L 467 225.5 L 468 244.5 L 469 245.5 L 469 266.5 L 468 267.5 L 467 286.5 L 461 314.5 L 448 348.5 Q 428.2 388.2 396.5 416 Q 368.2 441.2 329.5 456 L 314.5 461 L 286.5 467 L 268.5 468 L 267.5 469 L 244.5 469 L 243.5 468 L 225.5 467 L 201.5 462 Q 181 456.5 163.5 448 Q 123 428 95 395.5 Q 70.3 367.7 56 329.5 L 51 314.5 L 45 286.5 L 44 267.5 L 43 266.5 L 43 244.5 L 44 243.5 L 44 233.5 L 45 232.5 L 46 219.5 L 51 197.5 L 64 163.5 Q 83.7 123.7 115.5 96 Q 142.7 71.7 179.5 57 L 209.5 48 L 232.5 44 L 243.5 44 L 244.5 43 Z " /><path fill="rgb(0,0,0)" stroke="rgb(0,0,0)" stroke-width="1" opacity="0" d="M 511.5 278 L 512 512 L 278 511.5 L 294.5 510 L 323.5 504 L 364.5 489 Q 413.9 465.4 448 426.5 Q 475.5 396 493 355.5 L 506 315.5 L 510 294.5 L 511.5 278 Z " /><path fill="rgb(0,0,0)" stroke="rgb(0,0,0)" stroke-width="1" opacity="0" d="M 0.5 279 L 4 306.5 L 8 323.5 L 17 350.5 L 29 376.5 Q 52.1 419.4 87.5 450 Q 119.1 477.9 161.5 495 L 196.5 506 L 217.5 510 L 234 511.5 L 0 512 L 0.5 279 Z " /><path fill="rgb(162,162,171)" stroke="rgb(162,162,171)" stroke-width="1" opacity="0.49019607843137253" d="M 233.5 0 L 245 0.5 L 233.5 1 L 233.5 0 Z " /><path fill="rgb(162,162,171)" stroke="rgb(162,162,171)" stroke-width="1" opacity="0.49019607843137253" d="M 267.5 0 L 279 0.5 L 267.5 1 L 267.5 0 Z " /><path fill="rgb(162,162,171)" stroke="rgb(162,162,171)" stroke-width="1" opacity="0.49019607843137253" d="M 224.5 1 L 231 1.5 L 224.5 2 L 224.5 1 Z " /><path fill="rgb(162,162,171)" stroke="rgb(162,162,171)" stroke-width="1" opacity="0.49019607843137253" d="M 281.5 1 L 288 1.5 L 281.5 2 L 281.5 1 Z " /><path fill="rgb(162,162,171)" stroke="rgb(162,162,171)" stroke-width="1" opacity="0.49019607843137253" d="M 217.5 2 L 222 2.5 L 217.5 3 L 217.5 2 Z " /><path fill="rgb(162,162,171)" stroke="rgb(162,162,171)" stroke-width="1" opacity="0.49019607843137253" d="M 290.5 2 L 295 2.5 L 290.5 3 L 290.5 2 Z " /><path fill="rgb(162,162,171)" stroke="rgb(162,162,171)" stroke-width="1" opacity="0.49019607843137253" d="M 211.5 3 L 215 3.5 L 211.5 4 L 211.5 3 Z " /><path fill="rgb(162,162,171)" stroke="rgb(162,162,171)" stroke-width="1" opacity="0.49019607843137253" d="M 297.5 3 L 301 3.5 L 297.5 4 L 297.5 3 Z " /><path fill="rgb(162,162,171)" stroke="rgb(162,162,171)" stroke-width="1" opacity="0.49019607843137253" d="M 205.5 4 L 210 4.5 L 205.5 5 L 205.5 4 Z " /><path fill="rgb(162,162,171)" stroke="rgb(162,162,171)" stroke-width="1" opacity="0.49019607843137253" d="M 302.5 4 L 307 4.5 L 302.5 5 L 302.5 4 Z " /><path fill="rgb(162,162,171)" stroke="rgb(162,162,171)" stroke-width="1" opacity="0.49019607843137253" d="M 201.5 5 L 204 5.5 L 201.5 6 L 201.5 5 Z " /><path fill="rgb(162,162,171)" stroke="rgb(162,162,171)" stroke-width="1" opacity="0.49019607843137253" d="M 308.5 5 L 311 5.5 L 308.5 6 L 308.5 5 Z " /><path fill="rgb(162,162,171)" stroke="rgb(162,162,171)" stroke-width="1" opacity="0.49019607843137253" d="M 196.5 6 L 200 6.5 L 185.5 10 L 185.5 9 L 196.5 6 Z " /><path fill="rgb(162,162,171)" stroke="rgb(162,162,171)" stroke-width="1" opacity="0.49019607843137253" d="M 312.5 6 L 316 6.5 L 312.5 7 L 312.5 6 Z " /><path fill="rgb(162,162,171)" stroke="rgb(162,162,171)" stroke-width="1" opacity="0.49019607843137253" d="M 317.5 7 L 327 9.5 L 324.5 10 L 317.5 8 L 317.5 7 Z " /><path fill="rgb(162,162,171)" stroke="rgb(162,162,171)" stroke-width="1" opacity="0.49019607843137253" d="M 328.5 10 L 345 15.5 L 343.5 16 L 328.5 11 L 328.5 10 Z " /><path fill="rgb(162,162,171)" stroke="rgb(162,162,171)" stroke-width="1" opacity="0.49019607843137253" d="M 178.5 11 L 181 11.5 L 167.5 16 L 167.5 15 L 178.5 11 Z " /><path fill="rgb(162,162,171)" stroke="rgb(162,162,171)" stroke-width="1" opacity="0.49019607843137253" d="M 164.5 16 L 166 16.5 L 150.5 23 L 150.5 22 L 164.5 16 Z " /><path fill="rgb(162,162,171)" stroke="rgb(162,162,171)" stroke-width="1" opacity="0.49019607843137253" d="M 346.5 16 L 362 22.5 L 360.5 23 L 346.5 17 L 346.5 16 Z " /><path fill="rgb(162,162,171)" stroke="rgb(162,162,171)" stroke-width="1" opacity="0.49019607843137253" d="M 147.5 23 L 149 23.5 L 134.5 31 L 135.5 29 L 147.5 23 Z " /><path fill="rgb(162,162,171)" stroke="rgb(162,162,171)" stroke-width="1" opacity="0.49019607843137253" d="M 363.5 23 Q 415.3 46.7 450 87.5 Q 467.8 107.7 481 132.5 L 479 131.5 Q 458.1 91.9 425.5 64 L 390.5 38 L 363.5 24 L 363.5 23 Z " /><path fill="rgb(162,162,171)" stroke="rgb(162,162,171)" stroke-width="1" opacity="0.49019607843137253" d="M 132.5 31 L 131.5 33 Q 91.9 53.9 64 86.5 Q 45.4 107.4 31.5 133 L 32 131.5 Q 53.7 90.7 87.5 62 Q 107.7 44.2 132.5 31 Z " /><path fill="rgb(162,162,171)" stroke="rgb(162,162,171)" stroke-width="1" opacity="0.49019607843137253" d="M 251.5 42 L 259 42.5 L 251.5 43 L 251.5 42 Z " /><path fill="rgb(162,162,171)" stroke="rgb(162,162,171)" stroke-width="1" opacity="0.49019607843137253" d="M 235.5 43 L 244 43.5 L 235.5 44 L 235.5 43 Z " /><path fill="rgb(162,162,171)" stroke="rgb(162,162,171)" stroke-width="1" opacity="0.49019607843137253" d="M 268.5 43 L 277 43.5 L 268.5 44 L 268.5 43 Z " /><path fill="rgb(162,162,171)" stroke="rgb(162,162,171)" stroke-width="1" opacity="0.49019607843137253" d="M 226.5 44 L 232 44.5 L 226.5 45 L 226.5 44 Z " /><path fill="rgb(162,162,171)" stroke="rgb(162,162,171)" stroke-width="1" opacity="0.49019607843137253" d="M 279.5 44 L 285 44.5 L 279.5 45 L 279.5 44 Z " /><path fill="rgb(162,162,171)" stroke="rgb(162,162,171)" stroke-width="1" opacity="0.49019607843137253" d="M 220.5 45 L 225 45.5 L 220.5 46 L 220.5 45 Z " /><path fill="rgb(162,162,171)" stroke="rgb(162,162,171)" stroke-width="1" opacity="0.49019607843137253" d="M 287.5 45 L 292 45.5 L 287.5 46 L 287.5 45 Z " /><path fill="rgb(162,162,171)" stroke="rgb(162,162,171)" stroke-width="1" opacity="0.49019607843137253" d="M 215.5 46 L 219 46.5 L 215.5 47 L 215.5 46 Z " /><path fill="rgb(162,162,171)" stroke="rgb(162,162,171)" stroke-width="1" opacity="0.49019607843137253" d="M 293.5 46 L 297 46.5 L 293.5 47 L 293.5 46 Z " /><path fill="rgb(162,162,171)" stroke="rgb(162,162,171)" stroke-width="1" opacity="0.49019607843137253" d="M 210.5 47 L 214 47.5 L 210.5 48 L 210.5 47 Z " /><path fill="rgb(162,162,171)" stroke="rgb(162,162,171)" stroke-width="1" opacity="0.49019607843137253" d="M 298.5 47 L 302 47.5 L 298.5 48 L 298.5 47 Z " /><path fill="rgb(162,162,171)" stroke="rgb(162,162,171)" stroke-width="1" opacity="0.49019607843137253" d="M 206.5 48 L 209 48.5 L 206.5 49 L 206.5 48 Z " /><path fill="rgb(162,162,171)" stroke="rgb(162,162,171)" stroke-width="1" opacity="0.49019607843137253" d="M 303.5 48 L 310 49.5 L 307.5 50 L 303.5 49 L 303.5 48 Z " /><path fill="rgb(162,162,171)" stroke="rgb(162,162,171)" stroke-width="1" opacity="0.49019607843137253" d="M 201.5 49 L 205 49.5 L 198.5 51 L 198.5 50 L 201.5 49 Z " /><path fill="rgb(162,162,171)" stroke="rgb(162,162,171)" stroke-width="1" opacity="0.49019607843137253" d="M 311.5 50 L 314 50.5 L 311.5 51 L 311.5 50 Z " /><path fill="rgb(162,162,171)" stroke="rgb(162,162,171)" stroke-width="1" opacity="0.49019607843137253" d="M 315.5 51 L 329 55.5 L 327.5 56 L 315.5 52 L 315.5 51 Z " /><path fill="rgb(162,162,171)" stroke="rgb(162,162,171)" stroke-width="1" opacity="0.49019607843137253" d="M 191.5 52 L 194 52.5 L 183.5 56 L 183.5 55 L 191.5 52 Z " /><path fill="rgb(162,162,171)" stroke="rgb(162,162,171)" stroke-width="1" opacity="0.49019607843137253" d="M 330.5 56 Q 383.6 75.9 417 115.5 Q 442 143 456 181.5 L 455 181.5 Q 435.7 129.8 397.5 97 L 366.5 74 L 339.5 60 L 330.5 57 L 330.5 56 Z " /><path fill="rgb(162,162,171)" stroke="rgb(162,162,171)" stroke-width="1" opacity="0.49019607843137253" d="M 177.5 57 L 179 57.5 L 166.5 63 L 166.5 62 L 177.5 57 Z " /><path fill="rgb(162,162,171)" stroke="rgb(162,162,171)" stroke-width="1" opacity="0.49019607843137253" d="M 156.5 67 L 155.5 69 Q 119.8 87.3 95 116.5 Q 77.7 136.2 65.5 161 L 65 159.5 Q 85.3 120.3 117.5 93 Q 135 78 156.5 67 Z " /><path fill="rgb(162,162,171)" stroke="rgb(162,162,171)" stroke-width="1" opacity="0.49019607843137253" d="M 30.5 134 L 30 135.5 L 23.5 149 L 23 147.5 L 30.5 134 Z " /><path fill="rgb(162,162,171)" stroke="rgb(162,162,171)" stroke-width="1" opacity="0.49019607843137253" d="M 481.5 134 L 489 148.5 L 488 148.5 L 481.5 134 Z " /><path fill="rgb(162,162,171)" stroke="rgb(162,162,171)" stroke-width="1" opacity="0.49019607843137253" d="M 22.5 150 L 23 151.5 L 16.5 166 L 16 164.5 L 22.5 150 Z " /><path fill="rgb(162,162,171)" stroke="rgb(162,162,171)" stroke-width="1" opacity="0.49019607843137253" d="M 489.5 150 L 496 165.5 L 495 165.5 L 489 151.5 L 489.5 150 Z " /><path fill="rgb(162,162,171)" stroke="rgb(162,162,171)" stroke-width="1" opacity="0.49019607843137253" d="M 63.5 164 L 64 165.5 L 60 172.5 L 52.5 194 L 52 191.5 L 63.5 164 Z " /><path fill="rgb(162,162,171)" stroke="rgb(162,162,171)" stroke-width="1" opacity="0.49019607843137253" d="M 15.5 167 L 16 168.5 L 10.5 184 L 10 181.5 L 15.5 167 Z " /><path fill="rgb(162,162,171)" stroke="rgb(162,162,171)" stroke-width="1" opacity="0.49019607843137253" d="M 496.5 167 L 502 183.5 L 501 183.5 L 496.5 167 Z " /><path fill="rgb(162,162,171)" stroke="rgb(162,162,171)" stroke-width="1" opacity="0.49019607843137253" d="M 456.5 183 L 460 193.5 L 459 193.5 L 456.5 183 Z " /><path fill="rgb(162,162,171)" stroke="rgb(162,162,171)" stroke-width="1" opacity="0.49019607843137253" d="M 9.5 185 L 10 187.5 L 7.5 195 L 7 192.5 L 9.5 185 Z " /><path fill="rgb(162,162,171)" stroke="rgb(162,162,171)" stroke-width="1" opacity="0.49019607843137253" d="M 502.5 185 L 506 199.5 L 505 199.5 L 502.5 185 Z " /><path fill="rgb(162,162,171)" stroke="rgb(162,162,171)" stroke-width="1" opacity="0.49019607843137253" d="M 460.5 195 L 462 200.5 L 461 200.5 L 460.5 195 Z " /><path fill="rgb(162,162,171)" stroke="rgb(162,162,171)" stroke-width="1" opacity="0.49019607843137253" d="M 6.5 196 L 7 199.5 L 6 199.5 L 6.5 196 Z " /><path fill="rgb(162,162,171)" stroke="rgb(162,162,171)" stroke-width="1" opacity="0.49019607843137253" d="M 50.5 198 L 51 200.5 L 50 200.5 L 50.5 198 Z " /><path fill="rgb(162,162,171)" stroke="rgb(162,162,171)" stroke-width="1" opacity="0.49019607843137253" d="M 5.5 201 L 6 203.5 L 5 203.5 L 5.5 201 Z " /><path fill="rgb(162,162,171)" stroke="rgb(162,162,171)" stroke-width="1" opacity="0.49019607843137253" d="M 506.5 201 L 508 209.5 L 507 209.5 L 506.5 201 Z " /><path fill="rgb(162,162,171)" stroke="rgb(162,162,171)" stroke-width="1" opacity="0.49019607843137253" d="M 49.5 202 L 50 204.5 L 48.5 209 L 48 205.5 L 49.5 202 Z " /><path fill="rgb(162,162,171)" stroke="rgb(162,162,171)" stroke-width="1" opacity="0.49019607843137253" d="M 462.5 202 L 463 204.5 L 462 204.5 L 462.5 202 Z " /><path fill="rgb(162,162,171)" stroke="rgb(162,162,171)" stroke-width="1" opacity="0.49019607843137253" d="M 4.5 205 L 5 209.5 L 4 209.5 L 4.5 205 Z " /><path fill="rgb(162,162,171)" stroke="rgb(162,162,171)" stroke-width="1" opacity="0.49019607843137253" d="M 463.5 206 L 464 208.5 L 463 208.5 L 463.5 206 Z " /><path fill="rgb(162,162,171)" stroke="rgb(162,162,171)" stroke-width="1" opacity="0.49019607843137253" d="M 47.5 210 L 48 213.5 L 47 213.5 L 47.5 210 Z " /><path fill="rgb(162,162,171)" stroke="rgb(162,162,171)" stroke-width="1" opacity="0.49019607843137253" d="M 464.5 210 L 465 213.5 L 464 213.5 L 464.5 210 Z " /><path fill="rgb(162,162,171)" stroke="rgb(162,162,171)" stroke-width="1" opacity="0.49019607843137253" d="M 3.5 211 L 4 214.5 L 3 214.5 L 3.5 211 Z " /><path fill="rgb(162,162,171)" stroke="rgb(162,162,171)" stroke-width="1" opacity="0.49019607843137253" d="M 508.5 211 L 509 214.5 L 508 214.5 L 508.5 211 Z " /><path fill="rgb(162,162,171)" stroke="rgb(162,162,171)" stroke-width="1" opacity="0.49019607843137253" d="M 46.5 215 L 47 218.5 L 46 218.5 L 46.5 215 Z " /><path fill="rgb(162,162,171)" stroke="rgb(162,162,171)" stroke-width="1" opacity="0.49019607843137253" d="M 465.5 215 L 466 218.5 L 465 218.5 L 465.5 215 Z " /><path fill="rgb(162,162,171)" stroke="rgb(162,162,171)" stroke-width="1" opacity="0.49019607843137253" d="M 2.5 217 L 3 221.5 L 2 221.5 L 2.5 217 Z " /><path fill="rgb(162,162,171)" stroke="rgb(162,162,171)" stroke-width="1" opacity="0.49019607843137253" d="M 509.5 217 L 510 221.5 L 509 221.5 L 509.5 217 Z " /><path fill="rgb(162,162,171)" stroke="rgb(162,162,171)" stroke-width="1" opacity="0.49019607843137253" d="M 45.5 220 L 46 224.5 L 45 224.5 L 45.5 220 Z " /><path fill="rgb(162,162,171)" stroke="rgb(162,162,171)" stroke-width="1" opacity="0.49019607843137253" d="M 466.5 220 L 467 224.5 L 466 224.5 L 466.5 220 Z " /><path fill="rgb(162,162,171)" stroke="rgb(162,162,171)" stroke-width="1" opacity="0.49019607843137253" d="M 1.5 224 L 2 230.5 L 1 230.5 L 1.5 224 Z " /><path fill="rgb(162,162,171)" stroke="rgb(162,162,171)" stroke-width="1" opacity="0.49019607843137253" d="M 510.5 224 L 511 230.5 L 510 230.5 L 510.5 224 Z " /><path fill="rgb(162,162,171)" stroke="rgb(162,162,171)" stroke-width="1" opacity="0.49019607843137253" d="M 44.5 226 L 45 232.5 L 44 232.5 L 44.5 226 Z " /><path fill="rgb(162,162,171)" stroke="rgb(162,162,171)" stroke-width="1" opacity="0.49019607843137253" d="M 467.5 227 L 468 232.5 L 467 232.5 L 467.5 227 Z " /><path fill="rgb(162,162,171)" stroke="rgb(162,162,171)" stroke-width="1" opacity="0.49019607843137253" d="M 0.5 233 L 1 244.5 L 0 244.5 L 0.5 233 Z " /><path fill="rgb(162,162,171)" stroke="rgb(162,162,171)" stroke-width="1" opacity="0.49019607843137253" d="M 511.5 234 L 512 244.5 L 511 244.5 L 511.5 234 Z " /><path fill="rgb(162,162,171)" stroke="rgb(162,162,171)" stroke-width="1" opacity="0.49019607843137253" d="M 43.5 235 L 44 243.5 L 43 243.5 L 43.5 235 Z " /><path fill="rgb(162,162,171)" stroke="rgb(162,162,171)" stroke-width="1" opacity="0.49019607843137253" d="M 468.5 235 L 469 244.5 L 468 244.5 L 468.5 235 Z " /><path fill="rgb(162,162,171)" stroke="rgb(162,162,171)" stroke-width="1" opacity="0.49019607843137253" d="M 42.5 250 L 43 260.5 L 42 260.5 L 42.5 250 Z " /><path fill="rgb(162,162,171)" stroke="rgb(162,162,171)" stroke-width="1" opacity="0.49019607843137253" d="M 469.5 253 L 470 259.5 L 469 259.5 L 469.5 253 Z " /><path fill="rgb(162,162,171)" stroke="rgb(162,162,171)" stroke-width="1" opacity="0.49019607843137253" d="M 0.5 267 L 1 278.5 L 0 278.5 L 0.5 267 Z " /><path fill="rgb(162,162,171)" stroke="rgb(162,162,171)" stroke-width="1" opacity="0.49019607843137253" d="M 43.5 267 L 44 276.5 L 43 276.5 L 43.5 267 Z " /><path fill="rgb(162,162,171)" stroke="rgb(162,162,171)" stroke-width="1" opacity="0.49019607843137253" d="M 468.5 267 L 469 276.5 L 468 276.5 L 468.5 267 Z " /><path fill="rgb(162,162,171)" stroke="rgb(162,162,171)" stroke-width="1" opacity="0.49019607843137253" d="M 511.5 267 L 512 277.5 L 511 277.5 L 511.5 267 Z " /><path fill="rgb(162,162,171)" stroke="rgb(162,162,171)" stroke-width="1" opacity="0.49019607843137253" d="M 44.5 279 L 45 284.5 L 44 284.5 L 44.5 279 Z " /><path fill="rgb(162,162,171)" stroke="rgb(162,162,171)" stroke-width="1" opacity="0.49019607843137253" d="M 467.5 279 L 468 284.5 L 467 284.5 L 467.5 279 Z " /><path fill="rgb(162,162,171)" stroke="rgb(162,162,171)" stroke-width="1" opacity="0.49019607843137253" d="M 1.5 281 L 2 287.5 L 1 287.5 L 1.5 281 Z " /><path fill="rgb(162,162,171)" stroke="rgb(162,162,171)" stroke-width="1" opacity="0.49019607843137253" d="M 510.5 281 L 511 287.5 L 510 287.5 L 510.5 281 Z " /><path fill="rgb(162,162,171)" stroke="rgb(162,162,171)" stroke-width="1" opacity="0.49019607843137253" d="M 45.5 287 L 46 291.5 L 45 291.5 L 45.5 287 Z " /><path fill="rgb(162,162,171)" stroke="rgb(162,162,171)" stroke-width="1" opacity="0.49019607843137253" d="M 466.5 287 L 467 291.5 L 466 291.5 L 466.5 287 Z " /><path fill="rgb(162,162,171)" stroke="rgb(162,162,171)" stroke-width="1" opacity="0.49019607843137253" d="M 2.5 290 L 3 294.5 L 2 294.5 L 2.5 290 Z " /><path fill="rgb(162,162,171)" stroke="rgb(162,162,171)" stroke-width="1" opacity="0.49019607843137253" d="M 509.5 290 L 510 294.5 L 509 294.5 L 509.5 290 Z " /><path fill="rgb(162,162,171)" stroke="rgb(162,162,171)" stroke-width="1" opacity="0.49019607843137253" d="M 46.5 293 L 47 296.5 L 46 296.5 L 46.5 293 Z " /><path fill="rgb(162,162,171)" stroke="rgb(162,162,171)" stroke-width="1" opacity="0.49019607843137253" d="M 465.5 293 L 466 296.5 L 465 296.5 L 465.5 293 Z " /><path fill="rgb(162,162,171)" stroke="rgb(162,162,171)" stroke-width="1" opacity="0.49019607843137253" d="M 3.5 297 L 4 300.5 L 3 300.5 L 3.5 297 Z " /><path fill="rgb(162,162,171)" stroke="rgb(162,162,171)" stroke-width="1" opacity="0.49019607843137253" d="M 508.5 297 L 509 300.5 L 508 300.5 L 508.5 297 Z " /><path fill="rgb(162,162,171)" stroke="rgb(162,162,171)" stroke-width="1" opacity="0.49019607843137253" d="M 47.5 298 L 48 301.5 L 47 301.5 L 47.5 298 Z " /><path fill="rgb(162,162,171)" stroke="rgb(162,162,171)" stroke-width="1" opacity="0.49019607843137253" d="M 464.5 298 L 465 301.5 L 464 301.5 L 464.5 298 Z " /><path fill="rgb(162,162,171)" stroke="rgb(162,162,171)" stroke-width="1" opacity="0.49019607843137253" d="M 4.5 302 L 5 306.5 L 4 306.5 L 4.5 302 Z " /><path fill="rgb(162,162,171)" stroke="rgb(162,162,171)" stroke-width="1" opacity="0.49019607843137253" d="M 507.5 302 L 508 306.5 L 507 306.5 L 507.5 302 Z " /><path fill="rgb(162,162,171)" stroke="rgb(162,162,171)" stroke-width="1" opacity="0.49019607843137253" d="M 48.5 303 L 49 305.5 L 48 305.5 L 48.5 303 Z " /><path fill="rgb(162,162,171)" stroke="rgb(162,162,171)" stroke-width="1" opacity="0.49019607843137253" d="M 463.5 303 L 464 305.5 L 463 305.5 L 463.5 303 Z " /><path fill="rgb(162,162,171)" stroke="rgb(162,162,171)" stroke-width="1" opacity="0.49019607843137253" d="M 49.5 307 L 50 309.5 L 49 309.5 L 49.5 307 Z " /><path fill="rgb(162,162,171)" stroke="rgb(162,162,171)" stroke-width="1" opacity="0.49019607843137253" d="M 462.5 307 L 463 309.5 L 462 309.5 L 462.5 307 Z " /><path fill="rgb(162,162,171)" stroke="rgb(162,162,171)" stroke-width="1" opacity="0.49019607843137253" d="M 5.5 308 L 6 310.5 L 5 310.5 L 5.5 308 Z " /><path fill="rgb(162,162,171)" stroke="rgb(162,162,171)" stroke-width="1" opacity="0.49019607843137253" d="M 506.5 308 L 507 310.5 L 506 310.5 L 506.5 308 Z " /><path fill="rgb(162,162,171)" stroke="rgb(162,162,171)" stroke-width="1" opacity="0.49019607843137253" d="M 50.5 311 L 51 313.5 L 50 313.5 L 50.5 311 Z " /><path fill="rgb(162,162,171)" stroke="rgb(162,162,171)" stroke-width="1" opacity="0.49019607843137253" d="M 461.5 311 L 462 313.5 L 461 313.5 L 461.5 311 Z " /><path fill="rgb(162,162,171)" stroke="rgb(162,162,171)" stroke-width="1" opacity="0.49019607843137253" d="M 6.5 312 L 7 315.5 L 6 315.5 L 6.5 312 Z " /><path fill="rgb(162,162,171)" stroke="rgb(162,162,171)" stroke-width="1" opacity="0.49019607843137253" d="M 505.5 312 L 506 315.5 L 502.5 327 L 502 324.5 L 505.5 312 Z " /><path fill="rgb(162,162,171)" stroke="rgb(162,162,171)" stroke-width="1" opacity="0.49019607843137253" d="M 460.5 315 L 461 317.5 L 456.5 329 L 456 327.5 L 460.5 315 Z " /><path fill="rgb(162,162,171)" stroke="rgb(162,162,171)" stroke-width="1" opacity="0.49019607843137253" d="M 7.5 317 L 10 326.5 L 9 326.5 L 7.5 317 Z " /><path fill="rgb(162,162,171)" stroke="rgb(162,162,171)" stroke-width="1" opacity="0.49019607843137253" d="M 52.5 318 L 56 328.5 L 55 328.5 L 52 320.5 L 52.5 318 Z " /><path fill="rgb(162,162,171)" stroke="rgb(162,162,171)" stroke-width="1" opacity="0.49019607843137253" d="M 501.5 328 L 502 330.5 L 496.5 345 L 496 343.5 L 501.5 328 Z " /><path fill="rgb(162,162,171)" stroke="rgb(162,162,171)" stroke-width="1" opacity="0.49019607843137253" d="M 56.5 330 L 64 347.5 L 63 347.5 L 57 334.5 L 56.5 330 Z " /><path fill="rgb(162,162,171)" stroke="rgb(162,162,171)" stroke-width="1" opacity="0.49019607843137253" d="M 455.5 330 L 456 331.5 L 448.5 348 L 448 346.5 L 455.5 330 Z " /><path fill="rgb(162,162,171)" stroke="rgb(162,162,171)" stroke-width="1" opacity="0.49019607843137253" d="M 11.5 331 L 16 344.5 L 15 344.5 L 11 333.5 L 11.5 331 Z " /><path fill="rgb(162,162,171)" stroke="rgb(162,162,171)" stroke-width="1" opacity="0.49019607843137253" d="M 16.5 346 L 23 361.5 L 22 361.5 L 17 350.5 L 16.5 346 Z " /><path fill="rgb(162,162,171)" stroke="rgb(162,162,171)" stroke-width="1" opacity="0.49019607843137253" d="M 495.5 346 L 496 347.5 Q 490.7 363.2 482.5 376 L 483 374.5 L 495.5 346 Z " /><path fill="rgb(162,162,171)" stroke="rgb(162,162,171)" stroke-width="1" opacity="0.49019607843137253" d="M 445.5 353 L 445 354.5 Q 426.4 392.4 395.5 418 Q 376.9 434.4 353.5 446 L 354.5 444 Q 390.9 425.9 416 396.5 Q 433.3 377.3 445.5 353 Z " /><path fill="rgb(162,162,171)" stroke="rgb(162,162,171)" stroke-width="1" opacity="0.49019607843137253" d="M 67.5 355 Q 86.3 390.7 115.5 416 Q 130.2 429.3 148 439.5 L 146.5 439 Q 115.8 421.7 94 395.5 Q 77.3 377.4 67.5 355 Z " /><path fill="rgb(162,162,171)" stroke="rgb(162,162,171)" stroke-width="1" opacity="0.49019607843137253" d="M 23.5 363 L 31 377.5 L 29 376.5 L 23 364.5 L 23.5 363 Z " /><path fill="rgb(162,162,171)" stroke="rgb(162,162,171)" stroke-width="1" opacity="0.49019607843137253" d="M 481.5 377 L 481 378.5 Q 459.9 419.4 426.5 448 Q 408.5 464.5 386.5 477 L 387.5 475 Q 421.1 455.6 446 427.5 Q 466.5 405 481.5 377 Z " /><path fill="rgb(162,162,171)" stroke="rgb(162,162,171)" stroke-width="1" opacity="0.49019607843137253" d="M 31.5 379 Q 53.4 419.1 86.5 448 Q 107.4 466.6 133 480.5 L 131.5 480 Q 90.7 458.3 62 424.5 Q 43.6 404 31.5 379 Z " /><path fill="rgb(162,162,171)" stroke="rgb(162,162,171)" stroke-width="1" opacity="0.49019607843137253" d="M 149.5 440 L 157 444.5 L 155.5 444 Q 149.9 443.2 149.5 440 Z " /><path fill="rgb(162,162,171)" stroke="rgb(162,162,171)" stroke-width="1" opacity="0.49019607843137253" d="M 164.5 448 L 182 455.5 L 180.5 456 L 164.5 449 L 164.5 448 Z " /><path fill="rgb(162,162,171)" stroke="rgb(162,162,171)" stroke-width="1" opacity="0.49019607843137253" d="M 346.5 448 L 348 448.5 L 330.5 456 L 330.5 455 L 346.5 448 Z " /><path fill="rgb(162,162,171)" stroke="rgb(162,162,171)" stroke-width="1" opacity="0.49019607843137253" d="M 183.5 456 L 194 459.5 L 191.5 460 L 183.5 457 L 183.5 456 Z " /><path fill="rgb(162,162,171)" stroke="rgb(162,162,171)" stroke-width="1" opacity="0.49019607843137253" d="M 327.5 456 L 329 456.5 L 315.5 461 L 315.5 460 L 327.5 456 Z " /><path fill="rgb(162,162,171)" stroke="rgb(162,162,171)" stroke-width="1" opacity="0.49019607843137253" d="M 195.5 460 L 201 461.5 L 198.5 462 L 195.5 461 L 195.5 460 Z " /><path fill="rgb(162,162,171)" stroke="rgb(162,162,171)" stroke-width="1" opacity="0.49019607843137253" d="M 311.5 461 L 314 461.5 L 307.5 463 L 307.5 462 L 311.5 461 Z " /><path fill="rgb(162,162,171)" stroke="rgb(162,162,171)" stroke-width="1" opacity="0.49019607843137253" d="M 202.5 462 L 205 462.5 L 202.5 463 L 202.5 462 Z " /><path fill="rgb(162,162,171)" stroke="rgb(162,162,171)" stroke-width="1" opacity="0.49019607843137253" d="M 206.5 463 L 209 463.5 L 206.5 464 L 206.5 463 Z " /><path fill="rgb(162,162,171)" stroke="rgb(162,162,171)" stroke-width="1" opacity="0.49019607843137253" d="M 303.5 463 L 306 463.5 L 303.5 464 L 303.5 463 Z " /><path fill="rgb(162,162,171)" stroke="rgb(162,162,171)" stroke-width="1" opacity="0.49019607843137253" d="M 210.5 464 L 214 464.5 L 210.5 465 L 210.5 464 Z " /><path fill="rgb(162,162,171)" stroke="rgb(162,162,171)" stroke-width="1" opacity="0.49019607843137253" d="M 298.5 464 L 302 464.5 L 298.5 465 L 298.5 464 Z " /><path fill="rgb(162,162,171)" stroke="rgb(162,162,171)" stroke-width="1" opacity="0.49019607843137253" d="M 215.5 465 L 219 465.5 L 215.5 466 L 215.5 465 Z " /><path fill="rgb(162,162,171)" stroke="rgb(162,162,171)" stroke-width="1" opacity="0.49019607843137253" d="M 293.5 465 L 297 465.5 L 293.5 466 L 293.5 465 Z " /><path fill="rgb(162,162,171)" stroke="rgb(162,162,171)" stroke-width="1" opacity="0.49019607843137253" d="M 220.5 466 L 225 466.5 L 220.5 467 L 220.5 466 Z " /><path fill="rgb(162,162,171)" stroke="rgb(162,162,171)" stroke-width="1" opacity="0.49019607843137253" d="M 287.5 466 L 292 466.5 L 287.5 467 L 287.5 466 Z " /><path fill="rgb(162,162,171)" stroke="rgb(162,162,171)" stroke-width="1" opacity="0.49019607843137253" d="M 227.5 467 L 233 467.5 L 227.5 468 L 227.5 467 Z " /><path fill="rgb(162,162,171)" stroke="rgb(162,162,171)" stroke-width="1" opacity="0.49019607843137253" d="M 279.5 467 L 285 467.5 L 279.5 468 L 279.5 467 Z " /><path fill="rgb(162,162,171)" stroke="rgb(162,162,171)" stroke-width="1" opacity="0.49019607843137253" d="M 235.5 468 L 244 468.5 L 235.5 469 L 235.5 468 Z " /><path fill="rgb(162,162,171)" stroke="rgb(162,162,171)" stroke-width="1" opacity="0.49019607843137253" d="M 268.5 468 L 277 468.5 L 268.5 469 L 268.5 468 Z " /><path fill="rgb(162,162,171)" stroke="rgb(162,162,171)" stroke-width="1" opacity="0.49019607843137253" d="M 251.5 469 L 261 469.5 L 251.5 470 L 251.5 469 Z " /><path fill="rgb(162,162,171)" stroke="rgb(162,162,171)" stroke-width="1" opacity="0.49019607843137253" d="M 384.5 477 L 383.5 479 L 363.5 489 L 363.5 488 L 384.5 477 Z " /><path fill="rgb(162,162,171)" stroke="rgb(162,162,171)" stroke-width="1" opacity="0.49019607843137253" d="M 134.5 481 L 156 491.5 L 154.5 492 L 135.5 483 L 134.5 481 Z " /><path fill="rgb(162,162,171)" stroke="rgb(162,162,171)" stroke-width="1" opacity="0.49019607843137253" d="M 360.5 489 L 362 489.5 L 346.5 496 L 346.5 495 L 360.5 489 Z " /><path fill="rgb(162,162,171)" stroke="rgb(162,162,171)" stroke-width="1" opacity="0.49019607843137253" d="M 157.5 492 L 166 495.5 L 164.5 496 L 157.5 493 L 157.5 492 Z " /><path fill="rgb(162,162,171)" stroke="rgb(162,162,171)" stroke-width="1" opacity="0.49019607843137253" d="M 167.5 496 L 181 500.5 L 178.5 501 L 167.5 497 L 167.5 496 Z " /><path fill="rgb(162,162,171)" stroke="rgb(162,162,171)" stroke-width="1" opacity="0.49019607843137253" d="M 343.5 496 L 345 496.5 L 328.5 502 L 328.5 501 L 343.5 496 Z " /><path fill="rgb(162,162,171)" stroke="rgb(162,162,171)" stroke-width="1" opacity="0.49019607843137253" d="M 182.5 501 L 200 505.5 L 196.5 506 L 182.5 502 L 182.5 501 Z " /><path fill="rgb(162,162,171)" stroke="rgb(162,162,171)" stroke-width="1" opacity="0.49019607843137253" d="M 324.5 502 L 327 502.5 L 312.5 506 L 312.5 505 L 324.5 502 Z " /><path fill="rgb(162,162,171)" stroke="rgb(162,162,171)" stroke-width="1" opacity="0.49019607843137253" d="M 201.5 506 L 210 507.5 L 205.5 508 L 201.5 507 L 201.5 506 Z " /><path fill="rgb(162,162,171)" stroke="rgb(162,162,171)" stroke-width="1" opacity="0.49019607843137253" d="M 308.5 506 L 311 506.5 L 308.5 507 L 308.5 506 Z " /><path fill="rgb(162,162,171)" stroke="rgb(162,162,171)" stroke-width="1" opacity="0.49019607843137253" d="M 302.5 507 L 307 507.5 L 302.5 508 L 302.5 507 Z " /><path fill="rgb(162,162,171)" stroke="rgb(162,162,171)" stroke-width="1" opacity="0.49019607843137253" d="M 211.5 508 L 216 508.5 L 211.5 509 L 211.5 508 Z " /><path fill="rgb(162,162,171)" stroke="rgb(162,162,171)" stroke-width="1" opacity="0.49019607843137253" d="M 297.5 508 L 301 508.5 L 297.5 509 L 297.5 508 Z " /><path fill="rgb(162,162,171)" stroke="rgb(162,162,171)" stroke-width="1" opacity="0.49019607843137253" d="M 217.5 509 L 222 509.5 L 217.5 510 L 217.5 509 Z " /><path fill="rgb(162,162,171)" stroke="rgb(162,162,171)" stroke-width="1" opacity="0.49019607843137253" d="M 290.5 509 L 295 509.5 L 290.5 510 L 290.5 509 Z " /><path fill="rgb(162,162,171)" stroke="rgb(162,162,171)" stroke-width="1" opacity="0.49019607843137253" d="M 224.5 510 L 231 510.5 L 224.5 511 L 224.5 510 Z " /><path fill="rgb(162,162,171)" stroke="rgb(162,162,171)" stroke-width="1" opacity="0.49019607843137253" d="M 281.5 510 L 288 510.5 L 281.5 511 L 281.5 510 Z " /><path fill="rgb(162,162,171)" stroke="rgb(162,162,171)" stroke-width="1" opacity="0.49019607843137253" d="M 234.5 511 L 245 511.5 L 234.5 512 L 234.5 511 Z " /><path fill="rgb(162,162,171)" stroke="rgb(162,162,171)" stroke-width="1" opacity="0.49019607843137253" d="M 267.5 511 L 278 511.5 L 267.5 512 L 267.5 511 Z " /><path fill="rgb(161,161,170)" stroke="rgb(161,161,170)" stroke-width="1" opacity="1" d="M 246.5 0 L 279.5 1 L 280.5 2 L 289.5 2 L 290.5 3 L 307.5 5 Q 337.4 11.6 362.5 23 L 385.5 35 L 405.5 48 Q 429 65 448 86.5 L 474 121.5 L 492 156.5 L 502 184.5 L 506 200.5 L 510 222.5 L 511 244.5 L 512 246.5 L 512 248.5 L 512 266.5 L 511 267.5 L 511 280.5 L 510 281.5 L 509 296.5 L 507 301.5 L 507 306.5 L 504 319.5 L 502 323.5 L 502 327.5 L 492 355.5 Q 469.8 406.8 431.5 442 Q 429.3 441.3 430 443.5 Q 410 462.5 385.5 477 L 362.5 489 L 342.5 497 L 323.5 503 L 296.5 509 L 281.5 510 L 280.5 511 L 267.5 511 L 266.5 512 L 245.5 512 L 244.5 511 L 222.5 510 L 200.5 506 Q 171.5 499.5 147.5 488 Q 98 464.5 64 425.5 Q 33.7 391.8 16 345.5 L 7 316.5 L 3 296.5 L 2 280.5 L 1 279.5 L 1 266.5 L 0 265.5 L 0 245.5 L 1 244.5 L 2 222.5 L 7 195.5 L 16 166.5 L 23 149.5 L 35 126.5 L 48 106.5 Q 65 83 86.5 64 L 121.5 38 L 149.5 23 L 184.5 10 L 204.5 5 L 209.5 5 L 222.5 2 L 230.5 2 L 231.5 1 L 233.5 1 L 245.5 1 L 246.5 0 Z M 252 42 L 251 43 L 227 44 L 211 47 Q 190 51 173 59 Q 136 75 110 101 Q 107 100 108 103 L 102 107 L 85 128 L 74 144 L 59 173 L 48 206 L 44 227 L 43 250 L 42 251 L 43 277 L 44 278 L 45 292 L 52 321 L 59 340 Q 68 360 80 378 L 106 409 L 135 432 L 168 451 L 192 460 L 210 465 L 227 467 L 228 468 L 235 468 L 236 469 L 246 469 L 248 469 L 252 470 L 277 469 L 278 468 L 292 467 L 311 463 L 335 455 Q 375 439 404 410 Q 406 411 405 409 L 411 404 L 436 372 L 453 340 L 461 318 L 465 302 L 468 285 L 468 278 L 469 277 L 469 261 L 470 260 L 469 236 L 468 235 L 467 221 L 458 186 Q 443 145 417 116 Q 386 80 340 59 L 318 51 L 292 45 L 278 44 L 277 43 L 252 42 Z " /></svg>