<svg width="512" height="512" version="1.1" xmlns="http://www.w3.org/2000/svg" desc="Created with imagetracer.js version 1.2.6" ><path fill="rgb(0,0,0)" stroke="rgb(0,0,0)" stroke-width="1" opacity="0" d="M 0 0 L 486 0.5 Q 479.4 1.9 476 6.5 Q 468.4 26.4 453.5 39 Q 444 47.5 430.5 52 L 418.5 55 L 408.5 55 L 407.5 56 L 129.5 56 L 102.5 62 L 77.5 73 Q 54.3 85.8 38 105.5 Q 13.4 132.4 0.5 171 L 0 0 Z " /><path fill="rgb(0,0,0)" stroke="rgb(0,0,0)" stroke-width="1" opacity="0" d="M 498.5 0 L 512 0 L 512 13.5 L 511 13.5 Q 508.9 5.6 502.5 2 L 498.5 1 L 498.5 0 Z " /><path fill="rgb(0,0,0)" stroke="rgb(0,0,0)" stroke-width="1" opacity="0" d="M 511.5 26 L 512 390.5 L 511 390.5 Q 508.9 382.6 502.5 379 Q 497.1 375.4 486.5 377 Q 479.1 379.1 475 384.5 L 472 390.5 L 471 403.5 L 467 421.5 L 462 434.5 Q 454.9 449.4 442.5 459 Q 425.5 474 390.5 471 Q 375.3 468.2 367 458.5 Q 358.7 448.7 355 434.5 L 352 419.5 L 352 411.5 L 351 410.5 L 351 395.5 L 352 394.5 L 352 381.5 L 353 380.5 L 354 357.5 L 355 356.5 L 356 334.5 L 357 333.5 L 358 311.5 L 359 310.5 L 359 298.5 L 360 297.5 L 360 285.5 L 361 284.5 L 362 260.5 L 363 259.5 L 363 248.5 L 364 247.5 L 366 210.5 L 367 209.5 L 367 197.5 L 368 196.5 L 368 184.5 L 369 183.5 L 369 165.5 L 362.5 155 Q 356.8 149.2 343.5 151 L 333 157.5 L 330 162.5 L 328 170.5 L 325 220.5 L 324 221.5 L 323 245.5 L 322 246.5 L 322 257.5 L 321 258.5 L 319 295.5 L 318 296.5 L 318 308.5 L 317 309.5 L 315 343.5 L 314 344.5 L 312 378.5 L 311 379.5 L 310 409.5 L 311 410.5 L 312 430.5 L 320 459.5 Q 328.5 480.5 344.5 494 Q 360.4 508.1 387 511.5 L 103.5 512 L 103.5 511 Q 129 506 143 489.5 Q 160.9 470.4 172 444.5 L 182 418.5 L 197 360.5 L 206 308.5 L 210 270.5 L 211 269.5 L 211 261.5 L 212 260.5 L 214 230.5 L 215 229.5 L 215 217.5 L 216 216.5 L 216 205.5 L 217 204.5 L 217 193.5 L 218 192.5 L 218 180.5 L 219 179.5 L 222 117.5 L 223 116.5 L 223 101.5 L 224 96 L 422.5 96 Q 466.1 88.6 490 61.5 Q 503.9 46.9 511.5 26 Z " /><path fill="rgb(0,0,0)" stroke="rgb(0,0,0)" stroke-width="1" opacity="0" d="M 147.5 96 L 182.5 96 L 183 98.5 L 182 99.5 L 182 115.5 L 181 116.5 L 179 163.5 L 178 164.5 L 178 177.5 L 177 178.5 L 177 190.5 L 176 191.5 L 176 202.5 L 175 203.5 L 175 215.5 L 174 216.5 L 172 248.5 L 171 249.5 L 170 266.5 L 167 283.5 L 167 291.5 L 166 292.5 L 164 311.5 L 157 346.5 L 157 351.5 L 145 398.5 L 136 423.5 Q 126.6 448.6 108.5 465 L 96.5 471 L 82.5 473 L 75 478.5 Q 70 483.5 70 493.5 L 74 504.5 L 77.5 508 L 85 511.5 L 0 512 L 0.5 183 Q 2.4 191.6 9.5 195 L 20.5 198 Q 21.7 195.8 26.5 197 L 32.5 194 L 37 189.5 Q 45.1 165.6 58 146.5 L 79.5 122 Q 93.3 109.3 112.5 102 L 127.5 98 L 146.5 97 L 147.5 96 Z " /><path fill="rgb(0,0,0)" stroke="rgb(0,0,0)" stroke-width="1" opacity="0" d="M 511.5 407 L 512 512 L 417 511.5 L 432.5 509 L 451.5 502 Q 469.5 493 482 478.5 Q 495 463.5 503 443.5 Q 509.5 427.5 511.5 407 Z " /><path fill="rgb(161,161,170)" stroke="rgb(161,161,170)" stroke-width="1" opacity="1" d="M 486.5 0 Q 504 -2 509 8.5 Q 513.8 13.7 512 25.5 Q 502.6 50.6 484.5 67 Q 471.6 79.1 454.5 87 L 441.5 92 L 422.5 96 L 224 96 L 223 101.5 L 223 116.5 L 222 117.5 L 219 179.5 L 218 180.5 L 218 192.5 L 217 193.5 L 217 204.5 L 216 205.5 L 216 216.5 L 215 217.5 L 215 229.5 L 214 230.5 L 212 260.5 L 211 261.5 L 211 269.5 L 210 270.5 L 206 308.5 L 197 360.5 L 182 418.5 L 172 444.5 Q 159.8 473.8 138.5 494 Q 128.1 503.6 113.5 509 L 102.5 512 L 85.5 512 Q 78.1 509.9 74 504.5 Q 70 499.5 70 490.5 Q 71.6 481.1 77.5 476 L 85.5 472 L 96.5 471 L 105.5 467 L 118 455.5 L 128 440.5 L 142 407.5 L 151 377.5 L 161 329.5 L 165 298.5 L 167 291.5 L 167 283.5 L 168 282.5 L 171 249.5 L 172 248.5 L 172 239.5 L 173 238.5 L 175 203.5 L 176 202.5 L 176 191.5 L 177 190.5 L 177 178.5 L 178 177.5 L 178 164.5 L 179 163.5 L 179 148.5 L 180 147.5 L 180 132.5 L 181 131.5 L 181 116.5 L 182 115.5 L 182 99.5 L 183 96 L 133.5 97 L 115.5 101 Q 87.4 110.9 70 131.5 L 53 154.5 L 45 169.5 L 39 186.5 L 32.5 194 L 26.5 197 Q 21.7 195.8 20.5 198 L 9.5 195 L 2 187.5 Q -1.6 182.1 0 171.5 Q 17.9 119.9 55.5 88 Q 70.4 75.4 89.5 67 L 109.5 60 L 129.5 56 L 407.5 56 L 408.5 55 L 423.5 54 L 435.5 50 Q 452.4 42.9 463 29.5 Q 470.1 21.1 474 9.5 L 478.5 4 L 486.5 0 Z " /><path fill="rgb(161,161,170)" stroke="rgb(161,161,170)" stroke-width="1" opacity="1" d="M 343.5 151 Q 359.6 148.9 365 157.5 L 369 165.5 L 369 183.5 L 368 184.5 L 368 196.5 L 367 197.5 L 367 209.5 L 366 210.5 L 366 221.5 L 365 222.5 L 364 247.5 L 363 248.5 L 362 272.5 L 361 273.5 L 361 284.5 L 360 285.5 L 358 322.5 L 356 329.5 L 357 333.5 L 356 334.5 L 356 345.5 L 355 346.5 L 353 380.5 L 352 381.5 L 351 410.5 L 352 411.5 L 353 425.5 L 357 440.5 Q 361.4 453.6 370.5 462 L 382.5 469 L 390.5 471 L 412.5 471 L 428.5 467 L 438.5 462 L 454 447.5 L 465 427.5 L 470 409.5 L 472 390.5 L 478.5 381 Q 484.2 375.2 497.5 377 Q 505.4 379.1 509 385.5 L 512 391.5 L 512 406.5 L 507 431.5 L 499 452.5 Q 489.2 472.7 473.5 487 Q 457.3 502.3 432.5 509 L 416.5 512 L 387.5 512 L 372.5 509 L 354.5 501 Q 343.2 494.3 335 484.5 L 327 473.5 Q 319.3 460.7 315 444.5 L 311 422.5 L 310 393.5 L 311 392.5 L 311 379.5 L 312 378.5 L 313 355.5 L 314 354.5 L 316 320.5 L 317 319.5 L 317 309.5 L 318 308.5 L 318 296.5 L 319 295.5 L 319 284.5 L 320 283.5 L 320 271.5 L 321 270.5 L 324 221.5 L 325 220.5 L 328 170.5 L 330 162.5 L 335.5 155 L 343.5 151 Z " /></svg>