<svg width="512" height="512" version="1.1" xmlns="http://www.w3.org/2000/svg" desc="Created with imagetracer.js version 1.2.6" ><path fill="rgb(0,0,0)" stroke="rgb(0,0,0)" stroke-width="1" opacity="0" d="M 0 0 L 186 0.5 Q 153 4.5 127.5 16 Q 87.4 33.9 59 63.5 Q 32.5 90.5 16 127.5 Q 4.5 153 0.5 186 L 0 0 Z " /><path fill="rgb(0,0,0)" stroke="rgb(0,0,0)" stroke-width="1" opacity="0" d="M 240.5 0 L 512 0 L 512 484.5 L 511 484.5 L 507 475.5 L 380 347.5 Q 405.6 316.6 419 273.5 L 426 239.5 L 426 230.5 L 427 229.5 L 427 196.5 L 426 195.5 L 426 186.5 L 425 185.5 L 424 173.5 L 420 156.5 L 409 125.5 Q 391.4 86.6 362.5 59 Q 335.5 32.5 298.5 16 L 266.5 5 L 246.5 1 L 240.5 1 L 240.5 0 Z " /><path fill="rgb(0,0,0)" stroke="rgb(0,0,0)" stroke-width="1" opacity="0" d="M 203.5 43 L 223.5 43 L 224.5 44 L 240.5 45 Q 260.1 48.4 276.5 55 Q 314.7 70.8 340 99.5 Q 364.9 126.1 377 165.5 L 383 195.5 L 383 230.5 L 378 257.5 L 370 280.5 L 362 296.5 Q 346.2 324.2 322.5 344 Q 302.2 361.2 275.5 372 L 244.5 381 L 231.5 382 L 230.5 383 L 214.5 383 L 212.5 384 L 211.5 383 L 195.5 383 L 194.5 382 L 177.5 380 L 148.5 371 Q 111.2 354.8 86 326.5 Q 64.1 302.4 52 268.5 L 46 246.5 L 45 234.5 L 44 233.5 L 43 203.5 L 44 202.5 L 44 192.5 L 48 171.5 L 57 145.5 Q 73.5 108.5 102.5 84 Q 121.3 67.8 145.5 57 L 175.5 47 L 192.5 44 L 202.5 44 L 203.5 43 Z " /><path fill="rgb(0,0,0)" stroke="rgb(0,0,0)" stroke-width="1" opacity="0" d="M 0.5 240 Q 4.6 274.4 17 300.5 Q 34.6 339.4 63.5 367 Q 94 397 137.5 414 L 168.5 423 L 173.5 423 L 186.5 426 L 195.5 426 L 196.5 427 L 228.5 427 L 229.5 426 L 239.5 426 L 240.5 425 L 257.5 423 L 288.5 414 L 316.5 401 L 348.5 380 L 475.5 507 L 485 511.5 L 0 512 L 0.5 240 Z " /><path fill="rgb(0,0,0)" stroke="rgb(0,0,0)" stroke-width="1" opacity="0" d="M 511.5 496 L 512 512 L 496 511.5 Q 504.9 509.4 509 502.5 L 511.5 496 Z " /><path fill="rgb(163,163,171)" stroke="rgb(163,163,171)" stroke-width="1" opacity="0.4549019607843137" d="M 186.5 0 L 193 0.5 L 186.5 1 L 186.5 0 Z " /><path fill="rgb(163,163,171)" stroke="rgb(163,163,171)" stroke-width="1" opacity="0.4549019607843137" d="M 233.5 0 L 240 0.5 L 233.5 1 L 233.5 0 Z " /><path fill="rgb(163,163,171)" stroke="rgb(163,163,171)" stroke-width="1" opacity="0.4549019607843137" d="M 179.5 1 L 184 1.5 L 179.5 2 L 179.5 1 Z " /><path fill="rgb(163,163,171)" stroke="rgb(163,163,171)" stroke-width="1" opacity="0.4549019607843137" d="M 242.5 1 L 247 1.5 L 242.5 2 L 242.5 1 Z " /><path fill="rgb(163,163,171)" stroke="rgb(163,163,171)" stroke-width="1" opacity="0.4549019607843137" d="M 173.5 2 L 177 2.5 L 173.5 3 L 173.5 2 Z " /><path fill="rgb(163,163,171)" stroke="rgb(163,163,171)" stroke-width="1" opacity="0.4549019607843137" d="M 248.5 2 L 253 2.5 L 248.5 3 L 248.5 2 Z " /><path fill="rgb(163,163,171)" stroke="rgb(163,163,171)" stroke-width="1" opacity="0.4549019607843137" d="M 168.5 3 L 172 3.5 L 168.5 4 L 168.5 3 Z " /><path fill="rgb(163,163,171)" stroke="rgb(163,163,171)" stroke-width="1" opacity="0.4549019607843137" d="M 254.5 3 L 258 3.5 L 254.5 4 L 254.5 3 Z " /><path fill="rgb(163,163,171)" stroke="rgb(163,163,171)" stroke-width="1" opacity="0.4549019607843137" d="M 164.5 4 L 167 4.5 L 164.5 5 L 164.5 4 Z " /><path fill="rgb(163,163,171)" stroke="rgb(163,163,171)" stroke-width="1" opacity="0.4549019607843137" d="M 259.5 4 L 262 4.5 L 259.5 5 L 259.5 4 Z " /><path fill="rgb(163,163,171)" stroke="rgb(163,163,171)" stroke-width="1" opacity="0.4549019607843137" d="M 160.5 5 L 163 5.5 L 160.5 6 L 160.5 5 Z " /><path fill="rgb(163,163,171)" stroke="rgb(163,163,171)" stroke-width="1" opacity="0.4549019607843137" d="M 263.5 5 L 270 6.5 L 267.5 7 L 263.5 6 L 263.5 5 Z " /><path fill="rgb(163,163,171)" stroke="rgb(163,163,171)" stroke-width="1" opacity="0.4549019607843137" d="M 156.5 6 L 159 6.5 L 156.5 7 L 156.5 6 Z " /><path fill="rgb(163,163,171)" stroke="rgb(163,163,171)" stroke-width="1" opacity="0.4549019607843137" d="M 152.5 7 L 155 7.5 L 149.5 9 L 149.5 8 L 152.5 7 Z " /><path fill="rgb(163,163,171)" stroke="rgb(163,163,171)" stroke-width="1" opacity="0.4549019607843137" d="M 271.5 7 L 277 8.5 L 274.5 9 L 271.5 8 L 271.5 7 Z " /><path fill="rgb(163,163,171)" stroke="rgb(163,163,171)" stroke-width="1" opacity="0.4549019607843137" d="M 146.5 9 L 148 9.5 L 130.5 16 L 130.5 15 L 146.5 9 Z " /><path fill="rgb(163,163,171)" stroke="rgb(163,163,171)" stroke-width="1" opacity="0.4549019607843137" d="M 284.5 11 L 291 13.5 L 289.5 14 L 284.5 12 L 284.5 11 Z " /><path fill="rgb(163,163,171)" stroke="rgb(163,163,171)" stroke-width="1" opacity="0.4549019607843137" d="M 292.5 14 L 296 15.5 L 294.5 16 L 292.5 14 Z " /><path fill="rgb(163,163,171)" stroke="rgb(163,163,171)" stroke-width="1" opacity="0.4549019607843137" d="M 127.5 16 L 129 16.5 Q 81.9 36.9 51 73.5 Q 29.9 97.4 16.5 129 L 16 127.5 Q 33.9 87.4 63.5 59 Q 90.5 32.5 127.5 16 Z " /><path fill="rgb(163,163,171)" stroke="rgb(163,163,171)" stroke-width="1" opacity="0.4549019607843137" d="M 297.5 16 Q 338.5 33.5 367 63.5 Q 393.2 89.8 409 126.5 L 408 126.5 Q 388.2 80.8 352.5 51 L 328.5 33 L 297.5 17 L 297.5 16 Z " /><path fill="rgb(163,163,171)" stroke="rgb(163,163,171)" stroke-width="1" opacity="0.4549019607843137" d="M 210.5 42 L 217 42.5 L 210.5 43 L 210.5 42 Z " /><path fill="rgb(163,163,171)" stroke="rgb(163,163,171)" stroke-width="1" opacity="0.4549019607843137" d="M 195.5 43 L 203 43.5 L 195.5 44 L 195.5 43 Z " /><path fill="rgb(163,163,171)" stroke="rgb(163,163,171)" stroke-width="1" opacity="0.4549019607843137" d="M 224.5 43 L 232 43.5 L 224.5 44 L 224.5 43 Z " /><path fill="rgb(163,163,171)" stroke="rgb(163,163,171)" stroke-width="1" opacity="0.4549019607843137" d="M 187.5 44 L 192 44.5 L 187.5 45 L 187.5 44 Z " /><path fill="rgb(163,163,171)" stroke="rgb(163,163,171)" stroke-width="1" opacity="0.4549019607843137" d="M 234.5 44 L 240 44.5 L 234.5 45 L 234.5 44 Z " /><path fill="rgb(163,163,171)" stroke="rgb(163,163,171)" stroke-width="1" opacity="0.4549019607843137" d="M 181.5 45 L 186 45.5 L 181.5 46 L 181.5 45 Z " /><path fill="rgb(163,163,171)" stroke="rgb(163,163,171)" stroke-width="1" opacity="0.4549019607843137" d="M 241.5 45 L 245 45.5 L 241.5 46 L 241.5 45 Z " /><path fill="rgb(163,163,171)" stroke="rgb(163,163,171)" stroke-width="1" opacity="0.4549019607843137" d="M 176.5 46 L 180 46.5 L 176.5 47 L 176.5 46 Z " /><path fill="rgb(163,163,171)" stroke="rgb(163,163,171)" stroke-width="1" opacity="0.4549019607843137" d="M 247.5 46 L 250 46.5 L 247.5 47 L 247.5 46 Z " /><path fill="rgb(163,163,171)" stroke="rgb(163,163,171)" stroke-width="1" opacity="0.4549019607843137" d="M 172.5 47 L 175 47.5 L 172.5 48 L 172.5 47 Z " /><path fill="rgb(163,163,171)" stroke="rgb(163,163,171)" stroke-width="1" opacity="0.4549019607843137" d="M 251.5 47 L 258 48.5 L 255.5 49 L 251.5 48 L 251.5 47 Z " /><path fill="rgb(163,163,171)" stroke="rgb(163,163,171)" stroke-width="1" opacity="0.4549019607843137" d="M 168.5 48 L 171 48.5 L 165.5 50 L 165.5 49 L 168.5 48 Z " /><path fill="rgb(163,163,171)" stroke="rgb(163,163,171)" stroke-width="1" opacity="0.4549019607843137" d="M 259.5 49 L 265 50.5 L 262.5 51 L 259.5 50 L 259.5 49 Z " /><path fill="rgb(163,163,171)" stroke="rgb(163,163,171)" stroke-width="1" opacity="0.4549019607843137" d="M 269.5 52 L 276 54.5 L 274.5 55 L 269.5 53 L 269.5 52 Z " /><path fill="rgb(163,163,171)" stroke="rgb(163,163,171)" stroke-width="1" opacity="0.4549019607843137" d="M 153.5 53 L 155 53.5 L 146.5 57 L 146.5 56 L 153.5 53 Z " /><path fill="rgb(163,163,171)" stroke="rgb(163,163,171)" stroke-width="1" opacity="0.4549019607843137" d="M 277.5 55 L 283 57.5 L 281.5 58 L 277.5 56 L 277.5 55 Z " /><path fill="rgb(163,163,171)" stroke="rgb(163,163,171)" stroke-width="1" opacity="0.4549019607843137" d="M 143.5 57 L 145 57.5 L 130.5 65 L 131.5 63 L 143.5 57 Z " /><path fill="rgb(163,163,171)" stroke="rgb(163,163,171)" stroke-width="1" opacity="0.4549019607843137" d="M 284.5 58 L 295 63.5 L 293.5 63 L 284.5 59 L 284.5 58 Z " /><path fill="rgb(163,163,171)" stroke="rgb(163,163,171)" stroke-width="1" opacity="0.4549019607843137" d="M 296.5 64 Q 323.1 78.4 342 100.5 Q 355.4 115.6 365 134.5 L 363 133.5 Q 349 105.5 326.5 86 Q 314.1 73.9 297.5 66 L 296.5 64 Z " /><path fill="rgb(163,163,171)" stroke="rgb(163,163,171)" stroke-width="1" opacity="0.4549019607843137" d="M 128.5 65 L 127.5 67 Q 101.7 80.7 84 102.5 Q 67.9 120.9 57.5 145 L 57 143.5 Q 73.7 107.2 102.5 83 L 128.5 65 Z " /><path fill="rgb(163,163,171)" stroke="rgb(163,163,171)" stroke-width="1" opacity="0.4549019607843137" d="M 409.5 128 Q 415.3 138.2 418 151.5 L 417 151.5 L 409.5 128 Z " /><path fill="rgb(163,163,171)" stroke="rgb(163,163,171)" stroke-width="1" opacity="0.4549019607843137" d="M 15.5 130 L 16 131.5 L 14.5 134 L 14 132.5 L 15.5 130 Z " /><path fill="rgb(163,163,171)" stroke="rgb(163,163,171)" stroke-width="1" opacity="0.4549019607843137" d="M 13.5 135 L 14 136.5 L 11.5 142 L 11 140.5 L 13.5 135 Z " /><path fill="rgb(163,163,171)" stroke="rgb(163,163,171)" stroke-width="1" opacity="0.4549019607843137" d="M 366.5 138 L 371 147.5 L 370 147.5 L 366 139.5 L 366.5 138 Z " /><path fill="rgb(163,163,171)" stroke="rgb(163,163,171)" stroke-width="1" opacity="0.4549019607843137" d="M 56.5 146 L 57 147.5 L 53.5 155 L 53 153.5 L 56.5 146 Z " /><path fill="rgb(163,163,171)" stroke="rgb(163,163,171)" stroke-width="1" opacity="0.4549019607843137" d="M 8.5 149 L 9 151.5 L 7.5 155 L 7 152.5 L 8.5 149 Z " /><path fill="rgb(163,163,171)" stroke="rgb(163,163,171)" stroke-width="1" opacity="0.4549019607843137" d="M 371.5 149 L 373 152.5 L 372 152.5 L 371.5 149 Z " /><path fill="rgb(163,163,171)" stroke="rgb(163,163,171)" stroke-width="1" opacity="0.4549019607843137" d="M 6.5 156 L 7 158.5 L 6 158.5 L 6.5 156 Z " /><path fill="rgb(163,163,171)" stroke="rgb(163,163,171)" stroke-width="1" opacity="0.4549019607843137" d="M 419.5 156 L 420 158.5 L 419 158.5 L 419.5 156 Z " /><path fill="rgb(163,163,171)" stroke="rgb(163,163,171)" stroke-width="1" opacity="0.4549019607843137" d="M 51.5 159 L 52 160.5 L 50.5 164 L 50 161.5 L 51.5 159 Z " /><path fill="rgb(163,163,171)" stroke="rgb(163,163,171)" stroke-width="1" opacity="0.4549019607843137" d="M 5.5 160 L 6 162.5 L 5 162.5 L 5.5 160 Z " /><path fill="rgb(163,163,171)" stroke="rgb(163,163,171)" stroke-width="1" opacity="0.4549019607843137" d="M 420.5 160 L 421 162.5 L 420 162.5 L 420.5 160 Z " /><path fill="rgb(163,163,171)" stroke="rgb(163,163,171)" stroke-width="1" opacity="0.4549019607843137" d="M 4.5 164 L 5 166.5 L 4 166.5 L 4.5 164 Z " /><path fill="rgb(163,163,171)" stroke="rgb(163,163,171)" stroke-width="1" opacity="0.4549019607843137" d="M 421.5 164 L 422 166.5 L 421 166.5 L 421.5 164 Z " /><path fill="rgb(163,163,171)" stroke="rgb(163,163,171)" stroke-width="1" opacity="0.4549019607843137" d="M 49.5 165 L 50 167.5 L 48.5 171 L 48 168.5 L 49.5 165 Z " /><path fill="rgb(163,163,171)" stroke="rgb(163,163,171)" stroke-width="1" opacity="0.4549019607843137" d="M 377.5 166 L 378 168.5 L 377 168.5 L 377.5 166 Z " /><path fill="rgb(163,163,171)" stroke="rgb(163,163,171)" stroke-width="1" opacity="0.4549019607843137" d="M 3.5 168 L 4 171.5 L 3 171.5 L 3.5 168 Z " /><path fill="rgb(163,163,171)" stroke="rgb(163,163,171)" stroke-width="1" opacity="0.4549019607843137" d="M 422.5 168 L 423 171.5 L 422 171.5 L 422.5 168 Z " /><path fill="rgb(163,163,171)" stroke="rgb(163,163,171)" stroke-width="1" opacity="0.4549019607843137" d="M 378.5 170 L 379 172.5 L 378 172.5 L 378.5 170 Z " /><path fill="rgb(163,163,171)" stroke="rgb(163,163,171)" stroke-width="1" opacity="0.4549019607843137" d="M 47.5 172 L 48 175.5 L 46.5 180 L 46 176.5 L 47.5 172 Z " /><path fill="rgb(163,163,171)" stroke="rgb(163,163,171)" stroke-width="1" opacity="0.4549019607843137" d="M 2.5 173 L 3 176.5 L 2 176.5 L 2.5 173 Z " /><path fill="rgb(163,163,171)" stroke="rgb(163,163,171)" stroke-width="1" opacity="0.4549019607843137" d="M 423.5 173 L 424 177.5 L 423 177.5 L 423.5 173 Z " /><path fill="rgb(163,163,171)" stroke="rgb(163,163,171)" stroke-width="1" opacity="0.4549019607843137" d="M 379.5 174 L 380 176.5 L 379 176.5 L 379.5 174 Z " /><path fill="rgb(163,163,171)" stroke="rgb(163,163,171)" stroke-width="1" opacity="0.4549019607843137" d="M 380.5 178 L 381 181.5 L 380 181.5 L 380.5 178 Z " /><path fill="rgb(163,163,171)" stroke="rgb(163,163,171)" stroke-width="1" opacity="0.4549019607843137" d="M 1.5 179 L 2 183.5 L 1 183.5 L 1.5 179 Z " /><path fill="rgb(163,163,171)" stroke="rgb(163,163,171)" stroke-width="1" opacity="0.4549019607843137" d="M 424.5 179 L 425 184.5 L 424 184.5 L 424.5 179 Z " /><path fill="rgb(163,163,171)" stroke="rgb(163,163,171)" stroke-width="1" opacity="0.4549019607843137" d="M 45.5 181 L 46 185.5 L 45 185.5 L 45.5 181 Z " /><path fill="rgb(163,163,171)" stroke="rgb(163,163,171)" stroke-width="1" opacity="0.4549019607843137" d="M 381.5 183 L 382 187.5 L 381 187.5 L 381.5 183 Z " /><path fill="rgb(163,163,171)" stroke="rgb(163,163,171)" stroke-width="1" opacity="0.4549019607843137" d="M 0.5 186 L 1 192.5 L 0 192.5 L 0.5 186 Z " /><path fill="rgb(163,163,171)" stroke="rgb(163,163,171)" stroke-width="1" opacity="0.4549019607843137" d="M 425.5 186 L 426 193.5 L 425 193.5 L 425.5 186 Z " /><path fill="rgb(163,163,171)" stroke="rgb(163,163,171)" stroke-width="1" opacity="0.4549019607843137" d="M 44.5 187 L 45 191.5 L 44 191.5 L 44.5 187 Z " /><path fill="rgb(163,163,171)" stroke="rgb(163,163,171)" stroke-width="1" opacity="0.4549019607843137" d="M 382.5 189 L 383 194.5 L 382 194.5 L 382.5 189 Z " /><path fill="rgb(163,163,171)" stroke="rgb(163,163,171)" stroke-width="1" opacity="0.4549019607843137" d="M 43.5 195 L 44 202.5 L 43 202.5 L 43.5 195 Z " /><path fill="rgb(163,163,171)" stroke="rgb(163,163,171)" stroke-width="1" opacity="0.4549019607843137" d="M 426.5 196 L 427 229.5 L 426 229.5 L 426.5 196 Z " /><path fill="rgb(163,163,171)" stroke="rgb(163,163,171)" stroke-width="1" opacity="0.4549019607843137" d="M 383.5 198 L 384 227.5 L 383 227.5 L 383.5 198 Z " /><path fill="rgb(163,163,171)" stroke="rgb(163,163,171)" stroke-width="1" opacity="0.4549019607843137" d="M 42.5 209 L 43 217.5 L 42 217.5 L 42.5 209 Z " /><path fill="rgb(163,163,171)" stroke="rgb(163,163,171)" stroke-width="1" opacity="0.4549019607843137" d="M 43.5 224 L 44 231.5 L 43 231.5 L 43.5 224 Z " /><path fill="rgb(163,163,171)" stroke="rgb(163,163,171)" stroke-width="1" opacity="0.4549019607843137" d="M 382.5 231 L 383 236.5 L 382 236.5 L 382.5 231 Z " /><path fill="rgb(163,163,171)" stroke="rgb(163,163,171)" stroke-width="1" opacity="0.4549019607843137" d="M 425.5 232 L 426 239.5 L 425 239.5 L 425.5 232 Z " /><path fill="rgb(163,163,171)" stroke="rgb(163,163,171)" stroke-width="1" opacity="0.4549019607843137" d="M 0.5 233 L 1 239.5 L 0 239.5 L 0.5 233 Z " /><path fill="rgb(163,163,171)" stroke="rgb(163,163,171)" stroke-width="1" opacity="0.4549019607843137" d="M 44.5 234 L 45 239.5 L 44 239.5 L 44.5 234 Z " /><path fill="rgb(163,163,171)" stroke="rgb(163,163,171)" stroke-width="1" opacity="0.4549019607843137" d="M 381.5 239 L 382 242.5 L 381 242.5 L 381.5 239 Z " /><path fill="rgb(163,163,171)" stroke="rgb(163,163,171)" stroke-width="1" opacity="0.4549019607843137" d="M 45.5 241 L 46 244.5 L 45 244.5 L 45.5 241 Z " /><path fill="rgb(163,163,171)" stroke="rgb(163,163,171)" stroke-width="1" opacity="0.4549019607843137" d="M 424.5 241 L 425 246.5 L 424 246.5 L 424.5 241 Z " /><path fill="rgb(163,163,171)" stroke="rgb(163,163,171)" stroke-width="1" opacity="0.4549019607843137" d="M 1.5 242 L 2 246.5 L 1 246.5 L 1.5 242 Z " /><path fill="rgb(163,163,171)" stroke="rgb(163,163,171)" stroke-width="1" opacity="0.4549019607843137" d="M 380.5 245 L 381 248.5 L 379.5 253 L 379 249.5 L 380.5 245 Z " /><path fill="rgb(163,163,171)" stroke="rgb(163,163,171)" stroke-width="1" opacity="0.4549019607843137" d="M 46.5 247 L 47 249.5 L 46 249.5 L 46.5 247 Z " /><path fill="rgb(163,163,171)" stroke="rgb(163,163,171)" stroke-width="1" opacity="0.4549019607843137" d="M 2.5 248 L 3 252.5 L 2 252.5 L 2.5 248 Z " /><path fill="rgb(163,163,171)" stroke="rgb(163,163,171)" stroke-width="1" opacity="0.4549019607843137" d="M 423.5 248 L 424 252.5 L 423 252.5 L 423.5 248 Z " /><path fill="rgb(163,163,171)" stroke="rgb(163,163,171)" stroke-width="1" opacity="0.4549019607843137" d="M 47.5 251 L 49 257.5 L 48 257.5 L 47.5 251 Z " /><path fill="rgb(163,163,171)" stroke="rgb(163,163,171)" stroke-width="1" opacity="0.4549019607843137" d="M 3.5 254 L 4 257.5 L 3 257.5 L 3.5 254 Z " /><path fill="rgb(163,163,171)" stroke="rgb(163,163,171)" stroke-width="1" opacity="0.4549019607843137" d="M 378.5 254 L 379 256.5 L 378 256.5 L 378.5 254 Z " /><path fill="rgb(163,163,171)" stroke="rgb(163,163,171)" stroke-width="1" opacity="0.4549019607843137" d="M 422.5 254 L 423 257.5 L 422 257.5 L 422.5 254 Z " /><path fill="rgb(163,163,171)" stroke="rgb(163,163,171)" stroke-width="1" opacity="0.4549019607843137" d="M 377.5 258 L 378 260.5 L 372.5 275 L 372 273.5 L 377.5 258 Z " /><path fill="rgb(163,163,171)" stroke="rgb(163,163,171)" stroke-width="1" opacity="0.4549019607843137" d="M 4.5 259 L 5 261.5 L 4 261.5 L 4.5 259 Z " /><path fill="rgb(163,163,171)" stroke="rgb(163,163,171)" stroke-width="1" opacity="0.4549019607843137" d="M 49.5 259 L 51 264.5 L 50 264.5 L 49.5 259 Z " /><path fill="rgb(163,163,171)" stroke="rgb(163,163,171)" stroke-width="1" opacity="0.4549019607843137" d="M 421.5 259 L 422 261.5 L 421 261.5 L 421.5 259 Z " /><path fill="rgb(163,163,171)" stroke="rgb(163,163,171)" stroke-width="1" opacity="0.4549019607843137" d="M 5.5 263 L 6 265.5 L 5 265.5 L 5.5 263 Z " /><path fill="rgb(163,163,171)" stroke="rgb(163,163,171)" stroke-width="1" opacity="0.4549019607843137" d="M 420.5 263 L 421 265.5 L 420 265.5 L 420.5 263 Z " /><path fill="rgb(163,163,171)" stroke="rgb(163,163,171)" stroke-width="1" opacity="0.4549019607843137" d="M 6.5 267 L 7 269.5 L 6 269.5 L 6.5 267 Z " /><path fill="rgb(163,163,171)" stroke="rgb(163,163,171)" stroke-width="1" opacity="0.4549019607843137" d="M 419.5 267 L 420 269.5 L 419 269.5 L 419.5 267 Z " /><path fill="rgb(163,163,171)" stroke="rgb(163,163,171)" stroke-width="1" opacity="0.4549019607843137" d="M 52.5 269 L 55 275.5 L 54 275.5 L 52.5 269 Z " /><path fill="rgb(163,163,171)" stroke="rgb(163,163,171)" stroke-width="1" opacity="0.4549019607843137" d="M 7.5 271 L 9 276.5 L 8 276.5 L 7.5 271 Z " /><path fill="rgb(163,163,171)" stroke="rgb(163,163,171)" stroke-width="1" opacity="0.4549019607843137" d="M 418.5 271 L 419 273.5 L 409.5 298 L 409 296.5 L 413 288.5 L 418.5 271 Z " /><path fill="rgb(163,163,171)" stroke="rgb(163,163,171)" stroke-width="1" opacity="0.4549019607843137" d="M 371.5 276 L 372 277.5 L 370.5 280 L 370 278.5 L 371.5 276 Z " /><path fill="rgb(163,163,171)" stroke="rgb(163,163,171)" stroke-width="1" opacity="0.4549019607843137" d="M 55.5 277 L 58 282.5 L 57 282.5 L 55.5 277 Z " /><path fill="rgb(163,163,171)" stroke="rgb(163,163,171)" stroke-width="1" opacity="0.4549019607843137" d="M 10.5 281 L 14 290.5 L 13 290.5 L 10.5 281 Z " /><path fill="rgb(163,163,171)" stroke="rgb(163,163,171)" stroke-width="1" opacity="0.4549019607843137" d="M 368.5 283 L 369 284.5 L 362.5 296 L 363 294.5 L 368.5 283 Z " /><path fill="rgb(163,163,171)" stroke="rgb(163,163,171)" stroke-width="1" opacity="0.4549019607843137" d="M 58.5 284 L 64 294.5 L 62 293.5 L 58 285.5 L 58.5 284 Z " /><path fill="rgb(163,163,171)" stroke="rgb(163,163,171)" stroke-width="1" opacity="0.4549019607843137" d="M 14.5 292 L 16 295.5 L 15 295.5 L 14.5 292 Z " /><path fill="rgb(163,163,171)" stroke="rgb(163,163,171)" stroke-width="1" opacity="0.4549019607843137" d="M 64.5 296 Q 78.5 321.5 99.5 340 Q 120.2 358.8 148 370.5 L 146.5 371 Q 109.1 354.4 84 325.5 L 69 305.5 L 64.5 296 Z " /><path fill="rgb(163,163,171)" stroke="rgb(163,163,171)" stroke-width="1" opacity="0.4549019607843137" d="M 361.5 297 L 361 298.5 Q 349.2 320.7 331.5 337 Q 310.7 357.7 281.5 370 L 281.5 369 Q 319.5 352.5 344 322.5 L 361.5 297 Z " /><path fill="rgb(163,163,171)" stroke="rgb(163,163,171)" stroke-width="1" opacity="0.4549019607843137" d="M 17.5 299 Q 23.7 314.8 33 327.5 L 31 326.5 L 17 300.5 L 17.5 299 Z " /><path fill="rgb(163,163,171)" stroke="rgb(163,163,171)" stroke-width="1" opacity="0.4549019607843137" d="M 408.5 299 L 409 300.5 L 399.5 318 L 400 316.5 L 408.5 299 Z " /><path fill="rgb(163,163,171)" stroke="rgb(163,163,171)" stroke-width="1" opacity="0.4549019607843137" d="M 398.5 319 L 398 320.5 L 380 348.5 L 509 478.5 L 378 348.5 L 398.5 319 Z " /><path fill="rgb(163,163,171)" stroke="rgb(163,163,171)" stroke-width="1" opacity="0.4549019607843137" d="M 33.5 329 Q 50.4 355.1 73.5 375 L 97 392.5 L 95.5 392 Q 75 379.4 59 362.5 Q 43.1 347.5 33.5 329 Z " /><path fill="rgb(163,163,171)" stroke="rgb(163,163,171)" stroke-width="1" opacity="0.4549019607843137" d="M 278.5 370 L 280 370.5 L 276.5 372 L 276.5 371 L 278.5 370 Z " /><path fill="rgb(163,163,171)" stroke="rgb(163,163,171)" stroke-width="1" opacity="0.4549019607843137" d="M 149.5 371 L 153 372.5 L 151.5 373 L 149.5 371 Z " /><path fill="rgb(163,163,171)" stroke="rgb(163,163,171)" stroke-width="1" opacity="0.4549019607843137" d="M 273.5 372 L 275 372.5 L 265.5 376 L 265.5 375 L 273.5 372 Z " /><path fill="rgb(163,163,171)" stroke="rgb(163,163,171)" stroke-width="1" opacity="0.4549019607843137" d="M 261.5 376 L 264 376.5 L 258.5 378 L 258.5 377 L 261.5 376 Z " /><path fill="rgb(163,163,171)" stroke="rgb(163,163,171)" stroke-width="1" opacity="0.4549019607843137" d="M 166.5 377 L 169 377.5 L 166.5 378 L 166.5 377 Z " /><path fill="rgb(163,163,171)" stroke="rgb(163,163,171)" stroke-width="1" opacity="0.4549019607843137" d="M 170.5 378 L 173 378.5 L 170.5 379 L 170.5 378 Z " /><path fill="rgb(163,163,171)" stroke="rgb(163,163,171)" stroke-width="1" opacity="0.4549019607843137" d="M 254.5 378 L 257 378.5 L 254.5 379 L 254.5 378 Z " /><path fill="rgb(163,163,171)" stroke="rgb(163,163,171)" stroke-width="1" opacity="0.4549019607843137" d="M 348.5 378 L 478.5 509 L 347.5 380 L 319.5 399 L 320.5 397 Q 336.4 389.4 348.5 378 Z " /><path fill="rgb(163,163,171)" stroke="rgb(163,163,171)" stroke-width="1" opacity="0.4549019607843137" d="M 174.5 379 L 177 379.5 L 174.5 380 L 174.5 379 Z " /><path fill="rgb(163,163,171)" stroke="rgb(163,163,171)" stroke-width="1" opacity="0.4549019607843137" d="M 250.5 379 L 253 379.5 L 250.5 380 L 250.5 379 Z " /><path fill="rgb(163,163,171)" stroke="rgb(163,163,171)" stroke-width="1" opacity="0.4549019607843137" d="M 178.5 380 L 182 380.5 L 178.5 381 L 178.5 380 Z " /><path fill="rgb(163,163,171)" stroke="rgb(163,163,171)" stroke-width="1" opacity="0.4549019607843137" d="M 245.5 380 L 249 380.5 L 245.5 381 L 245.5 380 Z " /><path fill="rgb(163,163,171)" stroke="rgb(163,163,171)" stroke-width="1" opacity="0.4549019607843137" d="M 183.5 381 L 188 381.5 L 183.5 382 L 183.5 381 Z " /><path fill="rgb(163,163,171)" stroke="rgb(163,163,171)" stroke-width="1" opacity="0.4549019607843137" d="M 239.5 381 L 244 381.5 L 239.5 382 L 239.5 381 Z " /><path fill="rgb(163,163,171)" stroke="rgb(163,163,171)" stroke-width="1" opacity="0.4549019607843137" d="M 189.5 382 L 195 382.5 L 189.5 383 L 189.5 382 Z " /><path fill="rgb(163,163,171)" stroke="rgb(163,163,171)" stroke-width="1" opacity="0.4549019607843137" d="M 231.5 382 L 237 382.5 L 231.5 383 L 231.5 382 Z " /><path fill="rgb(163,163,171)" stroke="rgb(163,163,171)" stroke-width="1" opacity="0.4549019607843137" d="M 198.5 383 L 212 383.5 L 198.5 384 L 198.5 383 Z " /><path fill="rgb(163,163,171)" stroke="rgb(163,163,171)" stroke-width="1" opacity="0.4549019607843137" d="M 214.5 383 L 228 383.5 L 214.5 384 L 214.5 383 Z " /><path fill="rgb(163,163,171)" stroke="rgb(163,163,171)" stroke-width="1" opacity="0.4549019607843137" d="M 98.5 393 Q 111.2 402.3 127 408.5 L 125.5 409 L 102.5 397 L 98.5 393 Z " /><path fill="rgb(163,163,171)" stroke="rgb(163,163,171)" stroke-width="1" opacity="0.4549019607843137" d="M 317.5 399 L 316.5 401 L 299.5 409 L 299.5 408 L 317.5 399 Z " /><path fill="rgb(163,163,171)" stroke="rgb(163,163,171)" stroke-width="1" opacity="0.4549019607843137" d="M 128.5 409 L 152 417.5 L 149.5 418 L 132.5 412 L 128.5 410 L 128.5 409 Z " /><path fill="rgb(163,163,171)" stroke="rgb(163,163,171)" stroke-width="1" opacity="0.4549019607843137" d="M 296.5 409 L 298 409.5 L 292.5 412 L 292.5 411 L 296.5 409 Z " /><path fill="rgb(163,163,171)" stroke="rgb(163,163,171)" stroke-width="1" opacity="0.4549019607843137" d="M 289.5 412 L 291 412.5 L 271.5 419 L 271.5 418 L 289.5 412 Z " /><path fill="rgb(163,163,171)" stroke="rgb(163,163,171)" stroke-width="1" opacity="0.4549019607843137" d="M 156.5 419 L 159 419.5 L 156.5 420 L 156.5 419 Z " /><path fill="rgb(163,163,171)" stroke="rgb(163,163,171)" stroke-width="1" opacity="0.4549019607843137" d="M 267.5 419 L 270 419.5 L 267.5 420 L 267.5 419 Z " /><path fill="rgb(163,163,171)" stroke="rgb(163,163,171)" stroke-width="1" opacity="0.4549019607843137" d="M 160.5 420 L 163 420.5 L 160.5 421 L 160.5 420 Z " /><path fill="rgb(163,163,171)" stroke="rgb(163,163,171)" stroke-width="1" opacity="0.4549019607843137" d="M 263.5 420 L 266 420.5 L 263.5 421 L 263.5 420 Z " /><path fill="rgb(163,163,171)" stroke="rgb(163,163,171)" stroke-width="1" opacity="0.4549019607843137" d="M 164.5 421 L 167 421.5 L 164.5 422 L 164.5 421 Z " /><path fill="rgb(163,163,171)" stroke="rgb(163,163,171)" stroke-width="1" opacity="0.4549019607843137" d="M 259.5 421 L 262 421.5 L 259.5 422 L 259.5 421 Z " /><path fill="rgb(163,163,171)" stroke="rgb(163,163,171)" stroke-width="1" opacity="0.4549019607843137" d="M 168.5 422 L 172 422.5 L 168.5 423 L 168.5 422 Z " /><path fill="rgb(163,163,171)" stroke="rgb(163,163,171)" stroke-width="1" opacity="0.4549019607843137" d="M 254.5 422 L 258 422.5 L 254.5 423 L 254.5 422 Z " /><path fill="rgb(163,163,171)" stroke="rgb(163,163,171)" stroke-width="1" opacity="0.4549019607843137" d="M 174.5 423 L 178 423.5 L 174.5 424 L 174.5 423 Z " /><path fill="rgb(163,163,171)" stroke="rgb(163,163,171)" stroke-width="1" opacity="0.4549019607843137" d="M 248.5 423 L 252 423.5 L 248.5 424 L 248.5 423 Z " /><path fill="rgb(163,163,171)" stroke="rgb(163,163,171)" stroke-width="1" opacity="0.4549019607843137" d="M 180.5 424 L 185 424.5 L 180.5 425 L 180.5 424 Z " /><path fill="rgb(163,163,171)" stroke="rgb(163,163,171)" stroke-width="1" opacity="0.4549019607843137" d="M 242.5 424 L 247 424.5 L 242.5 425 L 242.5 424 Z " /><path fill="rgb(163,163,171)" stroke="rgb(163,163,171)" stroke-width="1" opacity="0.4549019607843137" d="M 186.5 425 L 194 425.5 L 186.5 426 L 186.5 425 Z " /><path fill="rgb(163,163,171)" stroke="rgb(163,163,171)" stroke-width="1" opacity="0.4549019607843137" d="M 232.5 425 L 240 425.5 L 232.5 426 L 232.5 425 Z " /><path fill="rgb(163,163,171)" stroke="rgb(163,163,171)" stroke-width="1" opacity="0.4549019607843137" d="M 196.5 426 L 229 426.5 L 196.5 427 L 196.5 426 Z " /><path fill="rgb(163,163,171)" stroke="rgb(163,163,171)" stroke-width="1" opacity="0.4549019607843137" d="M 511.5 485 L 512 489.5 L 511 489.5 L 511.5 485 Z " /><path fill="rgb(163,163,171)" stroke="rgb(163,163,171)" stroke-width="1" opacity="0.4549019607843137" d="M 511.5 491 L 512 495.5 L 511 495.5 L 511.5 491 Z " /><path fill="rgb(163,163,171)" stroke="rgb(163,163,171)" stroke-width="1" opacity="0.4549019607843137" d="M 510.5 497 L 511 498.5 L 502.5 509 L 497.5 511 L 497.5 510 Q 504.7 508.2 508 502.5 L 510.5 497 Z " /><path fill="rgb(163,163,171)" stroke="rgb(163,163,171)" stroke-width="1" opacity="0.4549019607843137" d="M 485.5 511 L 490 511.5 L 485.5 512 L 485.5 511 Z " /><path fill="rgb(163,163,171)" stroke="rgb(163,163,171)" stroke-width="1" opacity="0.4549019607843137" d="M 491.5 511 L 496 511.5 L 491.5 512 L 491.5 511 Z " /><path fill="rgb(161,161,170)" stroke="rgb(161,161,170)" stroke-width="1" opacity="1" d="M 193.5 0 L 232.5 0 L 233.5 1 L 241.5 1 L 242.5 2 L 253.5 3 L 277.5 9 Q 317.7 22.6 347 46 Q 345.9 48.7 348.5 48 L 375 73.5 Q 404.5 107 419 155.5 L 419 159.5 L 423 172.5 L 425 193.5 L 426 194.5 L 426 231.5 L 425 232.5 L 424 247.5 L 419 270.5 L 409 298.5 Q 396.6 326.6 378 348.5 L 509 479.5 L 512 490.5 Q 509.7 491.8 511 496.5 L 508 502.5 L 502.5 508 L 496.5 511 Q 491.8 509.7 490.5 512 L 479.5 509 L 348.5 378 L 318.5 399 L 291.5 412 L 273.5 417 L 270.5 419 L 253.5 423 L 248.5 423 L 241.5 425 L 232.5 425 L 231.5 426 L 196.5 426 L 193.5 425 L 172.5 423 L 159.5 419 L 155.5 419 Q 129.1 411.4 107.5 399 Q 74.8 380.2 51 352.5 L 27 318.5 L 16 296.5 L 9 277.5 L 4 258.5 L 1 241.5 L 1 233.5 L 0 232.5 L 0 193.5 L 1 192.5 L 1 184.5 L 2 183.5 L 3 172.5 L 9 148.5 L 16 129.5 L 27 107.5 Q 45.8 74.8 73.5 51 Q 97.8 29.8 129.5 16 L 155.5 7 L 172.5 3 L 177.5 3 L 184.5 1 L 192.5 1 L 193.5 0 Z M 211 42 L 210 43 L 196 43 L 195 44 L 177 46 L 151 54 Q 125 64 106 81 Q 103 80 104 83 L 103 83 L 94 92 Q 91 91 92 94 L 90 94 L 67 125 L 54 151 L 46 177 L 44 195 L 43 196 L 43 209 L 42 210 L 42 218 L 43 219 L 42 223 L 43 224 L 43 233 L 47 255 L 55 279 Q 66 305 84 326 Q 103 347 129 362 Q 146 372 167 378 L 199 384 L 229 384 L 238 382 L 245 382 L 276 373 Q 308 360 332 337 Q 356 315 370 283 L 378 261 L 384 228 L 384 199 L 378 167 Q 366 127 342 101 Q 319 74 286 58 L 255 47 L 232 43 L 211 42 Z " /></svg>