<svg width="512" height="512" version="1.1" xmlns="http://www.w3.org/2000/svg" desc="Created with imagetracer.js version 1.2.6" ><path fill="rgb(162,162,171)" stroke="rgb(162,162,171)" stroke-width="1" opacity="0.47058823529411764" d="M 242.5 56 L 270 56.5 L 242.5 57 L 242.5 56 Z " /><path fill="rgb(162,162,171)" stroke="rgb(162,162,171)" stroke-width="1" opacity="0.47058823529411764" d="M 229.5 57 L 238 57.5 L 229.5 58 L 229.5 57 Z " /><path fill="rgb(162,162,171)" stroke="rgb(162,162,171)" stroke-width="1" opacity="0.47058823529411764" d="M 274.5 57 L 283 57.5 L 274.5 58 L 274.5 57 Z " /><path fill="rgb(162,162,171)" stroke="rgb(162,162,171)" stroke-width="1" opacity="0.47058823529411764" d="M 219.5 58 L 226 58.5 L 219.5 59 L 219.5 58 Z " /><path fill="rgb(162,162,171)" stroke="rgb(162,162,171)" stroke-width="1" opacity="0.47058823529411764" d="M 286.5 58 L 292 58.5 L 286.5 59 L 286.5 58 Z " /><path fill="rgb(162,162,171)" stroke="rgb(162,162,171)" stroke-width="1" opacity="0.47058823529411764" d="M 213.5 59 L 218 59.5 L 213.5 60 L 213.5 59 Z " /><path fill="rgb(162,162,171)" stroke="rgb(162,162,171)" stroke-width="1" opacity="0.47058823529411764" d="M 294.5 59 L 299 59.5 L 294.5 60 L 294.5 59 Z " /><path fill="rgb(162,162,171)" stroke="rgb(162,162,171)" stroke-width="1" opacity="0.47058823529411764" d="M 207.5 60 L 211 60.5 L 207.5 61 L 207.5 60 Z " /><path fill="rgb(162,162,171)" stroke="rgb(162,162,171)" stroke-width="1" opacity="0.47058823529411764" d="M 301.5 60 L 305 60.5 L 301.5 61 L 301.5 60 Z " /><path fill="rgb(162,162,171)" stroke="rgb(162,162,171)" stroke-width="1" opacity="0.47058823529411764" d="M 202.5 61 L 206 61.5 L 202.5 62 L 202.5 61 Z " /><path fill="rgb(162,162,171)" stroke="rgb(162,162,171)" stroke-width="1" opacity="0.47058823529411764" d="M 306.5 61 L 310 61.5 L 306.5 62 L 306.5 61 Z " /><path fill="rgb(162,162,171)" stroke="rgb(162,162,171)" stroke-width="1" opacity="0.47058823529411764" d="M 197.5 62 L 201 62.5 L 197.5 63 L 197.5 62 Z " /><path fill="rgb(162,162,171)" stroke="rgb(162,162,171)" stroke-width="1" opacity="0.47058823529411764" d="M 311.5 62 L 315 62.5 L 311.5 63 L 311.5 62 Z " /><path fill="rgb(162,162,171)" stroke="rgb(162,162,171)" stroke-width="1" opacity="0.47058823529411764" d="M 193.5 63 L 196 63.5 L 193.5 64 L 193.5 63 Z " /><path fill="rgb(162,162,171)" stroke="rgb(162,162,171)" stroke-width="1" opacity="0.47058823529411764" d="M 316.5 63 L 319 63.5 L 316.5 64 L 316.5 63 Z " /><path fill="rgb(162,162,171)" stroke="rgb(162,162,171)" stroke-width="1" opacity="0.47058823529411764" d="M 189.5 64 L 192 64.5 L 189.5 65 L 189.5 64 Z " /><path fill="rgb(162,162,171)" stroke="rgb(162,162,171)" stroke-width="1" opacity="0.47058823529411764" d="M 320.5 64 L 323 64.5 L 320.5 65 L 320.5 64 Z " /><path fill="rgb(162,162,171)" stroke="rgb(162,162,171)" stroke-width="1" opacity="0.47058823529411764" d="M 185.5 65 L 188 65.5 L 185.5 66 L 185.5 65 Z " /><path fill="rgb(162,162,171)" stroke="rgb(162,162,171)" stroke-width="1" opacity="0.47058823529411764" d="M 324.5 65 L 327 65.5 L 324.5 66 L 324.5 65 Z " /><path fill="rgb(162,162,171)" stroke="rgb(162,162,171)" stroke-width="1" opacity="0.47058823529411764" d="M 328.5 66 L 334 67.5 L 331.5 68 L 328.5 67 L 328.5 66 Z " /><path fill="rgb(162,162,171)" stroke="rgb(162,162,171)" stroke-width="1" opacity="0.47058823529411764" d="M 178.5 67 L 181 67.5 L 178.5 68 L 178.5 67 Z " /><path fill="rgb(162,162,171)" stroke="rgb(162,162,171)" stroke-width="1" opacity="0.47058823529411764" d="M 166.5 71 L 168 71.5 L 161.5 74 L 161.5 73 L 166.5 71 Z " /><path fill="rgb(162,162,171)" stroke="rgb(162,162,171)" stroke-width="1" opacity="0.47058823529411764" d="M 347.5 72 L 351 73.5 L 349.5 74 L 347.5 72 Z " /><path fill="rgb(162,162,171)" stroke="rgb(162,162,171)" stroke-width="1" opacity="0.47058823529411764" d="M 158.5 74 L 160 74.5 L 156.5 76 L 156.5 75 L 158.5 74 Z " /><path fill="rgb(162,162,171)" stroke="rgb(162,162,171)" stroke-width="1" opacity="0.47058823529411764" d="M 352.5 74 L 356 75.5 L 354.5 76 L 352.5 74 Z " /><path fill="rgb(162,162,171)" stroke="rgb(162,162,171)" stroke-width="1" opacity="0.47058823529411764" d="M 153.5 76 L 155 76.5 L 149.5 79 L 149.5 78 L 153.5 76 Z " /><path fill="rgb(162,162,171)" stroke="rgb(162,162,171)" stroke-width="1" opacity="0.47058823529411764" d="M 357.5 76 L 363 78.5 L 361.5 79 L 357.5 77 L 357.5 76 Z " /><path fill="rgb(162,162,171)" stroke="rgb(162,162,171)" stroke-width="1" opacity="0.47058823529411764" d="M 146.5 79 L 148 79.5 Q 90.7 106.2 52 151.5 L 22 190.5 Q 11.7 204.7 5.5 223 L 5 220.5 L 14 201.5 L 30 177.5 Q 48.4 152.4 70.5 131 Q 102.9 99.4 146.5 79 Z " /><path fill="rgb(162,162,171)" stroke="rgb(162,162,171)" stroke-width="1" opacity="0.47058823529411764" d="M 364.5 79 L 383 88.5 L 381.5 88 L 364.5 80 L 364.5 79 Z " /><path fill="rgb(162,162,171)" stroke="rgb(162,162,171)" stroke-width="1" opacity="0.47058823529411764" d="M 384.5 89 Q 423 110.5 452 141.5 Q 472.2 162.8 489 187.5 L 498 201.5 L 507 222.5 L 506 222.5 L 497 201.5 L 481 177.5 Q 459.5 148 432.5 124 L 411.5 107 L 385.5 91 L 384.5 89 Z " /><path fill="rgb(162,162,171)" stroke="rgb(162,162,171)" stroke-width="1" opacity="0.47058823529411764" d="M 243.5 99 L 269 99.5 L 243.5 100 L 243.5 99 Z " /><path fill="rgb(162,162,171)" stroke="rgb(162,162,171)" stroke-width="1" opacity="0.47058823529411764" d="M 231.5 100 L 238 100.5 L 231.5 101 L 231.5 100 Z " /><path fill="rgb(162,162,171)" stroke="rgb(162,162,171)" stroke-width="1" opacity="0.47058823529411764" d="M 274.5 100 L 281 100.5 L 274.5 101 L 274.5 100 Z " /><path fill="rgb(162,162,171)" stroke="rgb(162,162,171)" stroke-width="1" opacity="0.47058823529411764" d="M 223.5 101 L 228 101.5 L 223.5 102 L 223.5 101 Z " /><path fill="rgb(162,162,171)" stroke="rgb(162,162,171)" stroke-width="1" opacity="0.47058823529411764" d="M 284.5 101 L 289 101.5 L 284.5 102 L 284.5 101 Z " /><path fill="rgb(162,162,171)" stroke="rgb(162,162,171)" stroke-width="1" opacity="0.47058823529411764" d="M 217.5 102 L 221 102.5 L 217.5 103 L 217.5 102 Z " /><path fill="rgb(162,162,171)" stroke="rgb(162,162,171)" stroke-width="1" opacity="0.47058823529411764" d="M 291.5 102 L 296 102.5 L 291.5 103 L 291.5 102 Z " /><path fill="rgb(162,162,171)" stroke="rgb(162,162,171)" stroke-width="1" opacity="0.47058823529411764" d="M 211.5 103 L 215 103.5 L 211.5 104 L 211.5 103 Z " /><path fill="rgb(162,162,171)" stroke="rgb(162,162,171)" stroke-width="1" opacity="0.47058823529411764" d="M 297.5 103 L 301 103.5 L 297.5 104 L 297.5 103 Z " /><path fill="rgb(162,162,171)" stroke="rgb(162,162,171)" stroke-width="1" opacity="0.47058823529411764" d="M 207.5 104 L 210 104.5 L 207.5 105 L 207.5 104 Z " /><path fill="rgb(162,162,171)" stroke="rgb(162,162,171)" stroke-width="1" opacity="0.47058823529411764" d="M 302.5 104 L 305 104.5 L 302.5 105 L 302.5 104 Z " /><path fill="rgb(162,162,171)" stroke="rgb(162,162,171)" stroke-width="1" opacity="0.47058823529411764" d="M 203.5 105 L 206 105.5 L 203.5 106 L 203.5 105 Z " /><path fill="rgb(162,162,171)" stroke="rgb(162,162,171)" stroke-width="1" opacity="0.47058823529411764" d="M 306.5 105 L 317 107.5 L 314.5 108 L 306.5 106 L 306.5 105 Z " /><path fill="rgb(162,162,171)" stroke="rgb(162,162,171)" stroke-width="1" opacity="0.47058823529411764" d="M 198.5 106 L 202 106.5 L 195.5 108 L 195.5 107 L 198.5 106 Z " /><path fill="rgb(162,162,171)" stroke="rgb(162,162,171)" stroke-width="1" opacity="0.47058823529411764" d="M 188.5 109 L 191 109.5 L 183.5 112 L 183.5 111 L 188.5 109 Z " /><path fill="rgb(162,162,171)" stroke="rgb(162,162,171)" stroke-width="1" opacity="0.47058823529411764" d="M 321.5 109 L 332 112.5 L 330.5 113 L 321.5 110 L 321.5 109 Z " /><path fill="rgb(162,162,171)" stroke="rgb(162,162,171)" stroke-width="1" opacity="0.47058823529411764" d="M 177.5 113 L 179 113.5 Q 121.1 136.6 84 180.5 Q 61.6 204.6 46.5 236 L 46 234.5 Q 70.2 187.7 108.5 155 Q 137.6 128.6 177.5 113 Z " /><path fill="rgb(162,162,171)" stroke="rgb(162,162,171)" stroke-width="1" opacity="0.47058823529411764" d="M 333.5 113 L 342 116.5 L 340.5 117 L 333.5 114 L 333.5 113 Z " /><path fill="rgb(162,162,171)" stroke="rgb(162,162,171)" stroke-width="1" opacity="0.47058823529411764" d="M 343.5 117 L 364 127.5 L 362.5 127 L 343.5 118 L 343.5 117 Z " /><path fill="rgb(162,162,171)" stroke="rgb(162,162,171)" stroke-width="1" opacity="0.47058823529411764" d="M 365.5 128 Q 395.9 145.1 419 169.5 L 449 205.5 L 462 225.5 L 466 235.5 L 465 235.5 L 458 220.5 L 442 197.5 Q 424.7 174.8 403.5 156 Q 386.9 141.1 366.5 130 L 365.5 128 Z " /><path fill="rgb(162,162,171)" stroke="rgb(162,162,171)" stroke-width="1" opacity="0.47058823529411764" d="M 244.5 149 L 268 149.5 L 244.5 150 L 244.5 149 Z " /><path fill="rgb(162,162,171)" stroke="rgb(162,162,171)" stroke-width="1" opacity="0.47058823529411764" d="M 237.5 150 L 242 150.5 L 237.5 151 L 237.5 150 Z " /><path fill="rgb(162,162,171)" stroke="rgb(162,162,171)" stroke-width="1" opacity="0.47058823529411764" d="M 270.5 150 L 275 150.5 L 270.5 151 L 270.5 150 Z " /><path fill="rgb(162,162,171)" stroke="rgb(162,162,171)" stroke-width="1" opacity="0.47058823529411764" d="M 232.5 151 L 236 151.5 L 232.5 152 L 232.5 151 Z " /><path fill="rgb(162,162,171)" stroke="rgb(162,162,171)" stroke-width="1" opacity="0.47058823529411764" d="M 276.5 151 L 280 151.5 L 276.5 152 L 276.5 151 Z " /><path fill="rgb(162,162,171)" stroke="rgb(162,162,171)" stroke-width="1" opacity="0.47058823529411764" d="M 228.5 152 L 231 152.5 L 228.5 153 L 228.5 152 Z " /><path fill="rgb(162,162,171)" stroke="rgb(162,162,171)" stroke-width="1" opacity="0.47058823529411764" d="M 281.5 152 L 284 152.5 L 281.5 153 L 281.5 152 Z " /><path fill="rgb(162,162,171)" stroke="rgb(162,162,171)" stroke-width="1" opacity="0.47058823529411764" d="M 285.5 153 L 293 155.5 L 291.5 156 L 285.5 154 L 285.5 153 Z " /><path fill="rgb(162,162,171)" stroke="rgb(162,162,171)" stroke-width="1" opacity="0.47058823529411764" d="M 221.5 154 L 224 154.5 L 219.5 156 L 219.5 155 L 221.5 154 Z " /><path fill="rgb(162,162,171)" stroke="rgb(162,162,171)" stroke-width="1" opacity="0.47058823529411764" d="M 216.5 156 L 218 156.5 L 214.5 158 L 214.5 157 L 216.5 156 Z " /><path fill="rgb(162,162,171)" stroke="rgb(162,162,171)" stroke-width="1" opacity="0.47058823529411764" d="M 294.5 156 L 298 157.5 L 296.5 158 L 294.5 156 Z " /><path fill="rgb(162,162,171)" stroke="rgb(162,162,171)" stroke-width="1" opacity="0.47058823529411764" d="M 211.5 158 L 213 158.5 Q 190 168.5 175 186.5 Q 164.9 197.9 158.5 213 L 158 211.5 Q 168.8 188.3 187.5 173 L 211.5 158 Z " /><path fill="rgb(162,162,171)" stroke="rgb(162,162,171)" stroke-width="1" opacity="0.47058823529411764" d="M 299.5 158 Q 323.8 168.2 339 187.5 Q 348.3 198.2 354 212.5 L 353 212.5 Q 343.4 189.6 325.5 175 Q 314.5 165 299.5 159 L 299.5 158 Z " /><path fill="rgb(162,162,171)" stroke="rgb(162,162,171)" stroke-width="1" opacity="0.47058823529411764" d="M 247.5 192 L 256 192.5 L 247.5 193 L 247.5 192 Z " /><path fill="rgb(162,162,171)" stroke="rgb(162,162,171)" stroke-width="1" opacity="0.47058823529411764" d="M 257.5 192 L 265 192.5 L 257.5 193 L 257.5 192 Z " /><path fill="rgb(162,162,171)" stroke="rgb(162,162,171)" stroke-width="1" opacity="0.47058823529411764" d="M 241.5 193 L 245 193.5 L 238.5 195 L 238.5 194 L 241.5 193 Z " /><path fill="rgb(162,162,171)" stroke="rgb(162,162,171)" stroke-width="1" opacity="0.47058823529411764" d="M 267.5 193 L 274 194.5 L 271.5 195 L 267.5 194 L 267.5 193 Z " /><path fill="rgb(162,162,171)" stroke="rgb(162,162,171)" stroke-width="1" opacity="0.47058823529411764" d="M 234.5 195 L 237 195.5 L 230.5 198 L 230.5 197 L 234.5 195 Z " /><path fill="rgb(162,162,171)" stroke="rgb(162,162,171)" stroke-width="1" opacity="0.47058823529411764" d="M 278.5 196 L 282 197.5 L 280.5 198 L 278.5 196 Z " /><path fill="rgb(162,162,171)" stroke="rgb(162,162,171)" stroke-width="1" opacity="0.47058823529411764" d="M 283.5 198 Q 298 204.5 307 216.5 L 312 224.5 L 310 223.5 Q 305 213.5 296.5 207 L 283.5 199 L 283.5 198 Z " /><path fill="rgb(162,162,171)" stroke="rgb(162,162,171)" stroke-width="1" opacity="0.47058823529411764" d="M 224.5 200 L 223.5 202 Q 213.5 207 207 215.5 L 200.5 225 L 201 223.5 Q 206.4 211.9 216.5 205 L 224.5 200 Z " /><path fill="rgb(162,162,171)" stroke="rgb(162,162,171)" stroke-width="1" opacity="0.47058823529411764" d="M 157.5 214 L 158 215.5 L 154.5 224 L 154 221.5 L 157.5 214 Z " /><path fill="rgb(162,162,171)" stroke="rgb(162,162,171)" stroke-width="1" opacity="0.47058823529411764" d="M 354.5 214 L 356 217.5 L 355 217.5 L 354.5 214 Z " /><path fill="rgb(162,162,171)" stroke="rgb(162,162,171)" stroke-width="1" opacity="0.47058823529411764" d="M 356.5 219 L 359 226.5 L 358 226.5 L 356.5 219 Z " /><path fill="rgb(162,162,171)" stroke="rgb(162,162,171)" stroke-width="1" opacity="0.47058823529411764" d="M 3.5 227 L 4 229.5 L 3 229.5 L 3.5 227 Z " /><path fill="rgb(162,162,171)" stroke="rgb(162,162,171)" stroke-width="1" opacity="0.47058823529411764" d="M 508.5 227 L 509 229.5 L 508 229.5 L 508.5 227 Z " /><path fill="rgb(162,162,171)" stroke="rgb(162,162,171)" stroke-width="1" opacity="0.47058823529411764" d="M 152.5 228 L 153 230.5 L 152 230.5 L 152.5 228 Z " /><path fill="rgb(162,162,171)" stroke="rgb(162,162,171)" stroke-width="1" opacity="0.47058823529411764" d="M 359.5 228 L 360 230.5 L 359 230.5 L 359.5 228 Z " /><path fill="rgb(162,162,171)" stroke="rgb(162,162,171)" stroke-width="1" opacity="0.47058823529411764" d="M 197.5 230 L 198 231.5 L 195.5 237 L 195 234.5 L 197.5 230 Z " /><path fill="rgb(162,162,171)" stroke="rgb(162,162,171)" stroke-width="1" opacity="0.47058823529411764" d="M 314.5 230 L 316 233.5 L 315 233.5 L 314.5 230 Z " /><path fill="rgb(162,162,171)" stroke="rgb(162,162,171)" stroke-width="1" opacity="0.47058823529411764" d="M 2.5 231 L 3 233.5 L 2 233.5 L 2.5 231 Z " /><path fill="rgb(162,162,171)" stroke="rgb(162,162,171)" stroke-width="1" opacity="0.47058823529411764" d="M 509.5 231 L 510 233.5 L 509 233.5 L 509.5 231 Z " /><path fill="rgb(162,162,171)" stroke="rgb(162,162,171)" stroke-width="1" opacity="0.47058823529411764" d="M 151.5 232 L 152 235.5 L 151 235.5 L 151.5 232 Z " /><path fill="rgb(162,162,171)" stroke="rgb(162,162,171)" stroke-width="1" opacity="0.47058823529411764" d="M 360.5 232 L 361 235.5 L 360 235.5 L 360.5 232 Z " /><path fill="rgb(162,162,171)" stroke="rgb(162,162,171)" stroke-width="1" opacity="0.47058823529411764" d="M 1.5 235 L 2 238.5 L 1 238.5 L 1.5 235 Z " /><path fill="rgb(162,162,171)" stroke="rgb(162,162,171)" stroke-width="1" opacity="0.47058823529411764" d="M 510.5 235 L 511 238.5 L 510 238.5 L 510.5 235 Z " /><path fill="rgb(162,162,171)" stroke="rgb(162,162,171)" stroke-width="1" opacity="0.47058823529411764" d="M 150.5 237 L 151 241.5 L 150 241.5 L 150.5 237 Z " /><path fill="rgb(162,162,171)" stroke="rgb(162,162,171)" stroke-width="1" opacity="0.47058823529411764" d="M 361.5 237 L 362 241.5 L 361 241.5 L 361.5 237 Z " /><path fill="rgb(162,162,171)" stroke="rgb(162,162,171)" stroke-width="1" opacity="0.47058823529411764" d="M 194.5 238 L 195 240.5 L 193.5 245 L 193 241.5 L 194.5 238 Z " /><path fill="rgb(162,162,171)" stroke="rgb(162,162,171)" stroke-width="1" opacity="0.47058823529411764" d="M 317.5 238 L 319 244.5 L 318 244.5 L 317.5 238 Z " /><path fill="rgb(162,162,171)" stroke="rgb(162,162,171)" stroke-width="1" opacity="0.47058823529411764" d="M 44.5 240 L 45 242.5 L 44 242.5 L 44.5 240 Z " /><path fill="rgb(162,162,171)" stroke="rgb(162,162,171)" stroke-width="1" opacity="0.47058823529411764" d="M 467.5 240 L 468 242.5 L 467 242.5 L 467.5 240 Z " /><path fill="rgb(162,162,171)" stroke="rgb(162,162,171)" stroke-width="1" opacity="0.47058823529411764" d="M 0.5 241 L 1 247.5 L 0 247.5 L 0.5 241 Z " /><path fill="rgb(162,162,171)" stroke="rgb(162,162,171)" stroke-width="1" opacity="0.47058823529411764" d="M 511.5 241 L 512 247.5 L 511 247.5 L 511.5 241 Z " /><path fill="rgb(162,162,171)" stroke="rgb(162,162,171)" stroke-width="1" opacity="0.47058823529411764" d="M 43.5 244 L 44 249.5 L 43 249.5 L 43.5 244 Z " /><path fill="rgb(162,162,171)" stroke="rgb(162,162,171)" stroke-width="1" opacity="0.47058823529411764" d="M 149.5 244 L 150 267.5 L 149 267.5 L 149.5 244 Z " /><path fill="rgb(162,162,171)" stroke="rgb(162,162,171)" stroke-width="1" opacity="0.47058823529411764" d="M 362.5 244 L 363 267.5 L 362 267.5 L 362.5 244 Z " /><path fill="rgb(162,162,171)" stroke="rgb(162,162,171)" stroke-width="1" opacity="0.47058823529411764" d="M 468.5 245 L 469 249.5 L 468 249.5 L 468.5 245 Z " /><path fill="rgb(162,162,171)" stroke="rgb(162,162,171)" stroke-width="1" opacity="0.47058823529411764" d="M 319.5 246 L 320 265.5 L 319 265.5 L 319.5 246 Z " /><path fill="rgb(162,162,171)" stroke="rgb(162,162,171)" stroke-width="1" opacity="0.47058823529411764" d="M 192.5 247 L 193 264.5 L 192 264.5 L 192.5 247 Z " /><path fill="rgb(162,162,171)" stroke="rgb(162,162,171)" stroke-width="1" opacity="0.47058823529411764" d="M 42.5 253 L 43 258.5 L 42 258.5 L 42.5 253 Z " /><path fill="rgb(162,162,171)" stroke="rgb(162,162,171)" stroke-width="1" opacity="0.47058823529411764" d="M 469.5 253 L 470 258.5 L 469 258.5 L 469.5 253 Z " /><path fill="rgb(162,162,171)" stroke="rgb(162,162,171)" stroke-width="1" opacity="0.47058823529411764" d="M 43.5 262 L 44 267.5 L 43 267.5 L 43.5 262 Z " /><path fill="rgb(162,162,171)" stroke="rgb(162,162,171)" stroke-width="1" opacity="0.47058823529411764" d="M 468.5 262 L 469 266.5 L 468 266.5 L 468.5 262 Z " /><path fill="rgb(162,162,171)" stroke="rgb(162,162,171)" stroke-width="1" opacity="0.47058823529411764" d="M 0.5 264 L 1 270.5 L 0 270.5 L 0.5 264 Z " /><path fill="rgb(162,162,171)" stroke="rgb(162,162,171)" stroke-width="1" opacity="0.47058823529411764" d="M 511.5 264 L 512 270.5 L 511 270.5 L 511.5 264 Z " /><path fill="rgb(162,162,171)" stroke="rgb(162,162,171)" stroke-width="1" opacity="0.47058823529411764" d="M 193.5 267 L 195 273.5 L 194 273.5 L 193.5 267 Z " /><path fill="rgb(162,162,171)" stroke="rgb(162,162,171)" stroke-width="1" opacity="0.47058823529411764" d="M 318.5 267 L 319 270.5 L 318 270.5 L 318.5 267 Z " /><path fill="rgb(162,162,171)" stroke="rgb(162,162,171)" stroke-width="1" opacity="0.47058823529411764" d="M 44.5 269 L 45 271.5 L 44 271.5 L 44.5 269 Z " /><path fill="rgb(162,162,171)" stroke="rgb(162,162,171)" stroke-width="1" opacity="0.47058823529411764" d="M 467.5 269 L 468 271.5 L 467 271.5 L 467.5 269 Z " /><path fill="rgb(162,162,171)" stroke="rgb(162,162,171)" stroke-width="1" opacity="0.47058823529411764" d="M 150.5 270 L 151 274.5 L 150 274.5 L 150.5 270 Z " /><path fill="rgb(162,162,171)" stroke="rgb(162,162,171)" stroke-width="1" opacity="0.47058823529411764" d="M 361.5 270 L 362 274.5 L 361 274.5 L 361.5 270 Z " /><path fill="rgb(162,162,171)" stroke="rgb(162,162,171)" stroke-width="1" opacity="0.47058823529411764" d="M 1.5 273 L 2 276.5 L 1 276.5 L 1.5 273 Z " /><path fill="rgb(162,162,171)" stroke="rgb(162,162,171)" stroke-width="1" opacity="0.47058823529411764" d="M 510.5 273 L 511 276.5 L 510 276.5 L 510.5 273 Z " /><path fill="rgb(162,162,171)" stroke="rgb(162,162,171)" stroke-width="1" opacity="0.47058823529411764" d="M 316.5 275 L 317 277.5 L 314.5 282 L 314 280.5 L 316.5 275 Z " /><path fill="rgb(162,162,171)" stroke="rgb(162,162,171)" stroke-width="1" opacity="0.47058823529411764" d="M 46.5 276 Q 69.9 322.6 107.5 355 Q 132.9 378.6 167 393.5 L 165.5 394 Q 115.8 370.2 82 330.5 L 53 291.5 L 47 280.5 L 46.5 276 Z " /><path fill="rgb(162,162,171)" stroke="rgb(162,162,171)" stroke-width="1" opacity="0.47058823529411764" d="M 151.5 276 L 152 279.5 L 151 279.5 L 151.5 276 Z " /><path fill="rgb(162,162,171)" stroke="rgb(162,162,171)" stroke-width="1" opacity="0.47058823529411764" d="M 360.5 276 L 361 279.5 L 360 279.5 L 360.5 276 Z " /><path fill="rgb(162,162,171)" stroke="rgb(162,162,171)" stroke-width="1" opacity="0.47058823529411764" d="M 465.5 276 L 466 277.5 Q 441.8 324.3 403.5 357 Q 377.9 380.4 343.5 395 L 343.5 394 Q 394.3 371.3 428 331.5 Q 450.4 307.4 465.5 276 Z " /><path fill="rgb(162,162,171)" stroke="rgb(162,162,171)" stroke-width="1" opacity="0.47058823529411764" d="M 2.5 278 L 3 280.5 L 2 280.5 L 2.5 278 Z " /><path fill="rgb(162,162,171)" stroke="rgb(162,162,171)" stroke-width="1" opacity="0.47058823529411764" d="M 196.5 278 L 198 281.5 L 197 281.5 L 196.5 278 Z " /><path fill="rgb(162,162,171)" stroke="rgb(162,162,171)" stroke-width="1" opacity="0.47058823529411764" d="M 509.5 278 L 510 280.5 L 509 280.5 L 509.5 278 Z " /><path fill="rgb(162,162,171)" stroke="rgb(162,162,171)" stroke-width="1" opacity="0.47058823529411764" d="M 152.5 281 L 153 283.5 L 152 283.5 L 152.5 281 Z " /><path fill="rgb(162,162,171)" stroke="rgb(162,162,171)" stroke-width="1" opacity="0.47058823529411764" d="M 359.5 281 L 360 283.5 L 357.5 290 L 357 288.5 L 359.5 281 Z " /><path fill="rgb(162,162,171)" stroke="rgb(162,162,171)" stroke-width="1" opacity="0.47058823529411764" d="M 3.5 282 L 4 284.5 L 3 284.5 L 3.5 282 Z " /><path fill="rgb(162,162,171)" stroke="rgb(162,162,171)" stroke-width="1" opacity="0.47058823529411764" d="M 508.5 282 L 509 284.5 L 508 284.5 L 508.5 282 Z " /><path fill="rgb(162,162,171)" stroke="rgb(162,162,171)" stroke-width="1" opacity="0.47058823529411764" d="M 198.5 283 Q 204.8 296.2 215.5 305 L 225 311.5 L 223.5 311 Q 211.9 305.6 205 295.5 L 198 284.5 L 198.5 283 Z " /><path fill="rgb(162,162,171)" stroke="rgb(162,162,171)" stroke-width="1" opacity="0.47058823529411764" d="M 313.5 283 L 314 284.5 L 312 285.5 L 313.5 283 Z " /><path fill="rgb(162,162,171)" stroke="rgb(162,162,171)" stroke-width="1" opacity="0.47058823529411764" d="M 311.5 287 L 311 288.5 Q 305.6 300.1 295.5 307 L 287.5 312 L 288.5 310 Q 298.5 305 305 296.5 L 311.5 287 Z " /><path fill="rgb(162,162,171)" stroke="rgb(162,162,171)" stroke-width="1" opacity="0.47058823529411764" d="M 154.5 288 L 156 292.5 L 155 292.5 L 154.5 288 Z " /><path fill="rgb(162,162,171)" stroke="rgb(162,162,171)" stroke-width="1" opacity="0.47058823529411764" d="M 5.5 289 L 15 309.5 L 13 308.5 L 5 291.5 L 5.5 289 Z " /><path fill="rgb(162,162,171)" stroke="rgb(162,162,171)" stroke-width="1" opacity="0.47058823529411764" d="M 506.5 289 L 507 291.5 Q 482.2 343.2 442.5 380 Q 417 405 384.5 423 L 385.5 421 Q 428.8 396.8 460 360.5 L 490 321.5 Q 500.3 307.3 506.5 289 Z " /><path fill="rgb(162,162,171)" stroke="rgb(162,162,171)" stroke-width="1" opacity="0.47058823529411764" d="M 156.5 294 L 158 297.5 L 157 297.5 L 156.5 294 Z " /><path fill="rgb(162,162,171)" stroke="rgb(162,162,171)" stroke-width="1" opacity="0.47058823529411764" d="M 355.5 294 L 356 295.5 L 354.5 298 L 354 296.5 L 355.5 294 Z " /><path fill="rgb(162,162,171)" stroke="rgb(162,162,171)" stroke-width="1" opacity="0.47058823529411764" d="M 158.5 299 Q 168.5 322 186.5 337 Q 197.9 347.1 213 353.5 L 211.5 354 Q 188.3 343.2 173 324.5 Q 162.5 313.5 158.5 299 Z " /><path fill="rgb(162,162,171)" stroke="rgb(162,162,171)" stroke-width="1" opacity="0.47058823529411764" d="M 353.5 299 L 354 300.5 Q 343.2 323.7 324.5 339 Q 313.8 348.3 299.5 354 L 299.5 353 Q 322.4 343.4 337 325.5 Q 347.1 314.1 353.5 299 Z " /><path fill="rgb(162,162,171)" stroke="rgb(162,162,171)" stroke-width="1" opacity="0.47058823529411764" d="M 15.5 311 Q 42.1 354.9 79.5 388 Q 109.1 414.9 148 432.5 L 146.5 433 Q 96 409 60 370.5 Q 33.4 343.7 15.5 311 Z " /><path fill="rgb(162,162,171)" stroke="rgb(162,162,171)" stroke-width="1" opacity="0.47058823529411764" d="M 285.5 312 L 284.5 314 L 275.5 317 L 275.5 316 L 285.5 312 Z " /><path fill="rgb(162,162,171)" stroke="rgb(162,162,171)" stroke-width="1" opacity="0.47058823529411764" d="M 230.5 314 L 234 315.5 L 232.5 316 L 230.5 314 Z " /><path fill="rgb(162,162,171)" stroke="rgb(162,162,171)" stroke-width="1" opacity="0.47058823529411764" d="M 238.5 317 L 245 318.5 L 241.5 319 L 238.5 318 L 238.5 317 Z " /><path fill="rgb(162,162,171)" stroke="rgb(162,162,171)" stroke-width="1" opacity="0.47058823529411764" d="M 267.5 318 L 271 318.5 L 267.5 319 L 267.5 318 Z " /><path fill="rgb(162,162,171)" stroke="rgb(162,162,171)" stroke-width="1" opacity="0.47058823529411764" d="M 246.5 319 L 256 319.5 L 246.5 320 L 246.5 319 Z " /><path fill="rgb(162,162,171)" stroke="rgb(162,162,171)" stroke-width="1" opacity="0.47058823529411764" d="M 257.5 319 L 266 319.5 L 257.5 320 L 257.5 319 Z " /><path fill="rgb(162,162,171)" stroke="rgb(162,162,171)" stroke-width="1" opacity="0.47058823529411764" d="M 214.5 354 L 218 355.5 L 216.5 356 L 214.5 354 Z " /><path fill="rgb(162,162,171)" stroke="rgb(162,162,171)" stroke-width="1" opacity="0.47058823529411764" d="M 296.5 354 L 298 354.5 L 294.5 356 L 294.5 355 L 296.5 354 Z " /><path fill="rgb(162,162,171)" stroke="rgb(162,162,171)" stroke-width="1" opacity="0.47058823529411764" d="M 219.5 356 L 224 357.5 L 221.5 358 L 219.5 356 Z " /><path fill="rgb(162,162,171)" stroke="rgb(162,162,171)" stroke-width="1" opacity="0.47058823529411764" d="M 291.5 356 L 293 356.5 L 288.5 358 L 288.5 357 L 291.5 356 Z " /><path fill="rgb(162,162,171)" stroke="rgb(162,162,171)" stroke-width="1" opacity="0.47058823529411764" d="M 284.5 358 L 287 358.5 L 281.5 360 L 281.5 359 L 284.5 358 Z " /><path fill="rgb(162,162,171)" stroke="rgb(162,162,171)" stroke-width="1" opacity="0.47058823529411764" d="M 228.5 359 L 231 359.5 L 228.5 360 L 228.5 359 Z " /><path fill="rgb(162,162,171)" stroke="rgb(162,162,171)" stroke-width="1" opacity="0.47058823529411764" d="M 232.5 360 L 236 360.5 L 232.5 361 L 232.5 360 Z " /><path fill="rgb(162,162,171)" stroke="rgb(162,162,171)" stroke-width="1" opacity="0.47058823529411764" d="M 276.5 360 L 280 360.5 L 276.5 361 L 276.5 360 Z " /><path fill="rgb(162,162,171)" stroke="rgb(162,162,171)" stroke-width="1" opacity="0.47058823529411764" d="M 237.5 361 L 242 361.5 L 237.5 362 L 237.5 361 Z " /><path fill="rgb(162,162,171)" stroke="rgb(162,162,171)" stroke-width="1" opacity="0.47058823529411764" d="M 270.5 361 L 275 361.5 L 270.5 362 L 270.5 361 Z " /><path fill="rgb(162,162,171)" stroke="rgb(162,162,171)" stroke-width="1" opacity="0.47058823529411764" d="M 245.5 362 L 268 362.5 L 245.5 363 L 245.5 362 Z " /><path fill="rgb(162,162,171)" stroke="rgb(162,162,171)" stroke-width="1" opacity="0.47058823529411764" d="M 168.5 394 L 174 396.5 L 172.5 397 L 168.5 395 L 168.5 394 Z " /><path fill="rgb(162,162,171)" stroke="rgb(162,162,171)" stroke-width="1" opacity="0.47058823529411764" d="M 340.5 395 L 342 395.5 L 338.5 397 L 338.5 396 L 340.5 395 Z " /><path fill="rgb(162,162,171)" stroke="rgb(162,162,171)" stroke-width="1" opacity="0.47058823529411764" d="M 175.5 397 L 179 398.5 L 177.5 399 L 175.5 397 Z " /><path fill="rgb(162,162,171)" stroke="rgb(162,162,171)" stroke-width="1" opacity="0.47058823529411764" d="M 335.5 397 L 337 397.5 L 333.5 399 L 333.5 398 L 335.5 397 Z " /><path fill="rgb(162,162,171)" stroke="rgb(162,162,171)" stroke-width="1" opacity="0.47058823529411764" d="M 330.5 399 L 332 399.5 L 321.5 403 L 321.5 402 L 330.5 399 Z " /><path fill="rgb(162,162,171)" stroke="rgb(162,162,171)" stroke-width="1" opacity="0.47058823529411764" d="M 186.5 401 L 191 402.5 L 188.5 403 L 186.5 401 Z " /><path fill="rgb(162,162,171)" stroke="rgb(162,162,171)" stroke-width="1" opacity="0.47058823529411764" d="M 317.5 403 L 320 403.5 L 314.5 405 L 314.5 404 L 317.5 403 Z " /><path fill="rgb(162,162,171)" stroke="rgb(162,162,171)" stroke-width="1" opacity="0.47058823529411764" d="M 195.5 404 L 198 404.5 L 195.5 405 L 195.5 404 Z " /><path fill="rgb(162,162,171)" stroke="rgb(162,162,171)" stroke-width="1" opacity="0.47058823529411764" d="M 199.5 405 L 202 405.5 L 199.5 406 L 199.5 405 Z " /><path fill="rgb(162,162,171)" stroke="rgb(162,162,171)" stroke-width="1" opacity="0.47058823529411764" d="M 310.5 405 L 313 405.5 L 310.5 406 L 310.5 405 Z " /><path fill="rgb(162,162,171)" stroke="rgb(162,162,171)" stroke-width="1" opacity="0.47058823529411764" d="M 203.5 406 L 206 406.5 L 203.5 407 L 203.5 406 Z " /><path fill="rgb(162,162,171)" stroke="rgb(162,162,171)" stroke-width="1" opacity="0.47058823529411764" d="M 306.5 406 L 309 406.5 L 306.5 407 L 306.5 406 Z " /><path fill="rgb(162,162,171)" stroke="rgb(162,162,171)" stroke-width="1" opacity="0.47058823529411764" d="M 207.5 407 L 210 407.5 L 207.5 408 L 207.5 407 Z " /><path fill="rgb(162,162,171)" stroke="rgb(162,162,171)" stroke-width="1" opacity="0.47058823529411764" d="M 301.5 407 L 305 407.5 L 301.5 408 L 301.5 407 Z " /><path fill="rgb(162,162,171)" stroke="rgb(162,162,171)" stroke-width="1" opacity="0.47058823529411764" d="M 212.5 408 L 215 408.5 L 212.5 409 L 212.5 408 Z " /><path fill="rgb(162,162,171)" stroke="rgb(162,162,171)" stroke-width="1" opacity="0.47058823529411764" d="M 297.5 408 L 300 408.5 L 297.5 409 L 297.5 408 Z " /><path fill="rgb(162,162,171)" stroke="rgb(162,162,171)" stroke-width="1" opacity="0.47058823529411764" d="M 217.5 409 L 221 409.5 L 217.5 410 L 217.5 409 Z " /><path fill="rgb(162,162,171)" stroke="rgb(162,162,171)" stroke-width="1" opacity="0.47058823529411764" d="M 290.5 409 L 295 409.5 L 290.5 410 L 290.5 409 Z " /><path fill="rgb(162,162,171)" stroke="rgb(162,162,171)" stroke-width="1" opacity="0.47058823529411764" d="M 223.5 410 L 229 410.5 L 223.5 411 L 223.5 410 Z " /><path fill="rgb(162,162,171)" stroke="rgb(162,162,171)" stroke-width="1" opacity="0.47058823529411764" d="M 283.5 410 L 289 410.5 L 283.5 411 L 283.5 410 Z " /><path fill="rgb(162,162,171)" stroke="rgb(162,162,171)" stroke-width="1" opacity="0.47058823529411764" d="M 231.5 411 L 239 411.5 L 231.5 412 L 231.5 411 Z " /><path fill="rgb(162,162,171)" stroke="rgb(162,162,171)" stroke-width="1" opacity="0.47058823529411764" d="M 273.5 411 L 281 411.5 L 273.5 412 L 273.5 411 Z " /><path fill="rgb(162,162,171)" stroke="rgb(162,162,171)" stroke-width="1" opacity="0.47058823529411764" d="M 243.5 412 L 269 412.5 L 243.5 413 L 243.5 412 Z " /><path fill="rgb(162,162,171)" stroke="rgb(162,162,171)" stroke-width="1" opacity="0.47058823529411764" d="M 382.5 423 L 381.5 425 L 364.5 433 L 364.5 432 L 382.5 423 Z " /><path fill="rgb(162,162,171)" stroke="rgb(162,162,171)" stroke-width="1" opacity="0.47058823529411764" d="M 149.5 433 L 155 435.5 L 153.5 436 L 149.5 434 L 149.5 433 Z " /><path fill="rgb(162,162,171)" stroke="rgb(162,162,171)" stroke-width="1" opacity="0.47058823529411764" d="M 361.5 433 L 363 433.5 L 357.5 436 L 357.5 435 L 361.5 433 Z " /><path fill="rgb(162,162,171)" stroke="rgb(162,162,171)" stroke-width="1" opacity="0.47058823529411764" d="M 156.5 436 L 160 437.5 L 158.5 438 L 156.5 436 Z " /><path fill="rgb(162,162,171)" stroke="rgb(162,162,171)" stroke-width="1" opacity="0.47058823529411764" d="M 354.5 436 L 356 436.5 L 352.5 438 L 352.5 437 L 354.5 436 Z " /><path fill="rgb(162,162,171)" stroke="rgb(162,162,171)" stroke-width="1" opacity="0.47058823529411764" d="M 161.5 438 L 168 440.5 L 166.5 441 L 161.5 439 L 161.5 438 Z " /><path fill="rgb(162,162,171)" stroke="rgb(162,162,171)" stroke-width="1" opacity="0.47058823529411764" d="M 349.5 438 L 351 438.5 L 347.5 440 L 347.5 439 L 349.5 438 Z " /><path fill="rgb(162,162,171)" stroke="rgb(162,162,171)" stroke-width="1" opacity="0.47058823529411764" d="M 178.5 444 L 181 444.5 L 178.5 445 L 178.5 444 Z " /><path fill="rgb(162,162,171)" stroke="rgb(162,162,171)" stroke-width="1" opacity="0.47058823529411764" d="M 331.5 444 L 334 444.5 L 328.5 446 L 328.5 445 L 331.5 444 Z " /><path fill="rgb(162,162,171)" stroke="rgb(162,162,171)" stroke-width="1" opacity="0.47058823529411764" d="M 185.5 446 L 188 446.5 L 185.5 447 L 185.5 446 Z " /><path fill="rgb(162,162,171)" stroke="rgb(162,162,171)" stroke-width="1" opacity="0.47058823529411764" d="M 324.5 446 L 327 446.5 L 324.5 447 L 324.5 446 Z " /><path fill="rgb(162,162,171)" stroke="rgb(162,162,171)" stroke-width="1" opacity="0.47058823529411764" d="M 189.5 447 L 192 447.5 L 189.5 448 L 189.5 447 Z " /><path fill="rgb(162,162,171)" stroke="rgb(162,162,171)" stroke-width="1" opacity="0.47058823529411764" d="M 320.5 447 L 323 447.5 L 320.5 448 L 320.5 447 Z " /><path fill="rgb(162,162,171)" stroke="rgb(162,162,171)" stroke-width="1" opacity="0.47058823529411764" d="M 193.5 448 L 196 448.5 L 193.5 449 L 193.5 448 Z " /><path fill="rgb(162,162,171)" stroke="rgb(162,162,171)" stroke-width="1" opacity="0.47058823529411764" d="M 316.5 448 L 319 448.5 L 316.5 449 L 316.5 448 Z " /><path fill="rgb(162,162,171)" stroke="rgb(162,162,171)" stroke-width="1" opacity="0.47058823529411764" d="M 197.5 449 L 201 449.5 L 197.5 450 L 197.5 449 Z " /><path fill="rgb(162,162,171)" stroke="rgb(162,162,171)" stroke-width="1" opacity="0.47058823529411764" d="M 311.5 449 L 315 449.5 L 311.5 450 L 311.5 449 Z " /><path fill="rgb(162,162,171)" stroke="rgb(162,162,171)" stroke-width="1" opacity="0.47058823529411764" d="M 202.5 450 L 206 450.5 L 202.5 451 L 202.5 450 Z " /><path fill="rgb(162,162,171)" stroke="rgb(162,162,171)" stroke-width="1" opacity="0.47058823529411764" d="M 306.5 450 L 310 450.5 L 306.5 451 L 306.5 450 Z " /><path fill="rgb(162,162,171)" stroke="rgb(162,162,171)" stroke-width="1" opacity="0.47058823529411764" d="M 207.5 451 L 211 451.5 L 207.5 452 L 207.5 451 Z " /><path fill="rgb(162,162,171)" stroke="rgb(162,162,171)" stroke-width="1" opacity="0.47058823529411764" d="M 301.5 451 L 305 451.5 L 301.5 452 L 301.5 451 Z " /><path fill="rgb(162,162,171)" stroke="rgb(162,162,171)" stroke-width="1" opacity="0.47058823529411764" d="M 213.5 452 L 218 452.5 L 213.5 453 L 213.5 452 Z " /><path fill="rgb(162,162,171)" stroke="rgb(162,162,171)" stroke-width="1" opacity="0.47058823529411764" d="M 294.5 452 L 299 452.5 L 294.5 453 L 294.5 452 Z " /><path fill="rgb(162,162,171)" stroke="rgb(162,162,171)" stroke-width="1" opacity="0.47058823529411764" d="M 220.5 453 L 226 453.5 L 220.5 454 L 220.5 453 Z " /><path fill="rgb(162,162,171)" stroke="rgb(162,162,171)" stroke-width="1" opacity="0.47058823529411764" d="M 286.5 453 L 292 453.5 L 286.5 454 L 286.5 453 Z " /><path fill="rgb(162,162,171)" stroke="rgb(162,162,171)" stroke-width="1" opacity="0.47058823529411764" d="M 229.5 454 L 238 454.5 L 229.5 455 L 229.5 454 Z " /><path fill="rgb(162,162,171)" stroke="rgb(162,162,171)" stroke-width="1" opacity="0.47058823529411764" d="M 274.5 454 L 283 454.5 L 274.5 455 L 274.5 454 Z " /><path fill="rgb(162,162,171)" stroke="rgb(162,162,171)" stroke-width="1" opacity="0.47058823529411764" d="M 242.5 455 L 270 455.5 L 242.5 456 L 242.5 455 Z " /><path fill="rgb(0,0,0)" stroke="rgb(0,0,0)" stroke-width="1" opacity="0" d="M 0 0 L 512 0 L 512 240.5 L 511 240.5 L 511 235.5 L 507 220.5 L 498 201.5 Q 473.9 162.1 441.5 131 Q 403.2 93.3 348.5 72 L 330.5 66 L 298.5 59 L 283.5 58 L 282.5 57 L 270.5 57 L 269.5 56 L 242.5 56 L 241.5 57 L 219.5 58 L 197.5 62 Q 169.8 68.3 146.5 79 Q 96 103 60 141.5 Q 34.1 168.6 14 201.5 L 5 220.5 L 0.5 241 L 0 0 Z " /><path fill="rgb(0,0,0)" stroke="rgb(0,0,0)" stroke-width="1" opacity="0" d="M 238.5 100 L 273.5 100 L 274.5 101 L 290.5 102 L 317.5 108 L 342.5 117 Q 393.6 140.4 428 180.5 Q 446.5 201 461 225.5 L 468 243.5 L 469 261.5 L 467 272.5 L 464 280.5 L 450 303.5 Q 430.2 332.2 404.5 355 Q 374.2 382.7 332.5 399 L 305.5 407 L 282.5 411 L 273.5 411 L 272.5 412 L 239.5 412 L 238.5 411 L 229.5 411 L 228.5 410 L 215.5 409 L 194.5 404 Q 169.9 396.6 149.5 385 Q 111.7 363.3 84 331.5 Q 65.7 310.8 51 286.5 L 44 268.5 L 43 250.5 L 45 239.5 L 48 231.5 L 62 208.5 Q 81.8 179.8 107.5 157 Q 133.3 133.3 167.5 118 L 194.5 108 L 215.5 103 L 227.5 102 L 228.5 101 L 237.5 101 L 238.5 100 Z M 245 149 L 229 152 L 212 158 L 188 173 Q 172 186 162 204 L 154 222 L 149 245 L 149 268 L 154 291 Q 161 310 173 325 Q 186 340 204 350 L 222 358 L 246 363 L 268 363 L 291 358 Q 310 351 325 339 Q 340 326 350 309 L 359 288 L 363 268 L 363 245 L 359 225 Q 352 203 339 188 Q 324 169 301 158 L 288 153 L 275 150 Q 269 152 268 149 L 245 149 Z " /><path fill="rgb(0,0,0)" stroke="rgb(0,0,0)" stroke-width="1" opacity="0" d="M 256.5 192 L 257.5 193 L 266.5 193 L 282.5 198 Q 295.9 204.6 305 215.5 Q 313 224.5 317 237.5 L 319 245.5 L 319 266.5 Q 313.7 291.7 296.5 305 Q 288.6 312.1 277.5 316 L 266.5 319 L 257.5 319 L 256.5 320 L 255.5 319 L 245.5 319 L 229.5 314 Q 216.1 307.4 207 296.5 Q 199.1 287.4 195 274.5 L 193 266.5 L 193 245.5 Q 198.3 220.3 215.5 207 Q 223.4 199.9 234.5 196 L 245.5 193 L 255.5 193 L 256.5 192 Z " /><path fill="rgb(0,0,0)" stroke="rgb(0,0,0)" stroke-width="1" opacity="0" d="M 0.5 271 Q 2.3 285.3 7 296.5 L 21 321.5 Q 42.7 354.3 70.5 381 Q 108.8 418.7 163.5 440 L 185.5 447 L 213.5 453 L 228.5 454 L 229.5 455 L 241.5 455 L 242.5 456 L 269.5 456 L 270.5 455 L 291.5 454 L 314.5 450 L 330.5 446 L 365.5 433 Q 415.3 409.3 451 371.5 Q 477.5 344 498 310.5 L 507 291.5 L 511.5 271 L 512 512 L 0 512 L 0.5 271 Z " /><path fill="rgb(160,160,170)" stroke="rgb(160,160,170)" stroke-width="1" opacity="0.996078431372549" d="M 421.5 339 L 420.5 341 L 421.5 339 Z " /><path fill="rgb(160,160,170)" stroke="rgb(160,160,170)" stroke-width="1" opacity="0.996078431372549" d="M 418.5 342 L 417.5 344 L 418.5 342 Z " /><path fill="rgb(161,161,170)" stroke="rgb(161,161,170)" stroke-width="1" opacity="1" d="M 239.5 57 L 272.5 57 L 273.5 58 L 285.5 58 L 293.5 60 L 300.5 60 L 334.5 68 L 358.5 77 Q 419.6 103.9 460 151.5 Q 486.1 179.4 504 215.5 L 511 239.5 L 512 263.5 L 508 285.5 L 497 310.5 L 466 354 Q 463.3 352.9 464 355.5 L 458.5 362 Q 456.3 361.3 457 363.5 Q 436.5 386.5 411.5 405 L 383.5 423 L 356.5 436 L 327.5 446 L 299.5 452 L 293.5 452 L 285.5 454 L 274.5 454 L 273.5 455 L 238.5 455 L 237.5 454 L 226.5 454 L 225.5 453 L 211.5 452 L 206.5 450 L 201.5 450 L 184.5 446 Q 156.1 437.9 132.5 425 Q 85.7 399.3 52 360.5 L 48 354 Q 45.3 355.1 46 352.5 Q 23.4 328.1 8 296.5 L 1 272.5 L 0 248.5 L 1 247.5 L 2 234.5 L 8 215.5 L 22 190.5 L 41 164 Q 43.7 165.1 43 162.5 Q 59.4 141.4 79.5 124 L 86 120 Q 84.9 117.3 87.5 118 Q 116.5 92 155.5 76 L 177.5 68 L 192.5 65 L 196.5 63 L 218.5 59 L 238.5 58 L 239.5 57 Z M 242 99 L 241 100 L 231 100 L 223 102 L 217 102 L 203 106 L 199 106 L 183 112 L 180 112 L 161 120 L 128 140 L 102 160 L 102 162 L 72 194 L 53 221 Q 47 229 44 241 L 43 253 L 42 254 L 43 268 L 50 287 Q 69 319 95 344 Q 94 346 97 345 L 98 348 L 100 348 L 109 357 Q 111 356 110 359 L 143 382 L 173 397 L 189 403 L 208 408 L 223 411 L 243 412 L 244 413 L 269 413 L 270 412 L 290 411 L 324 403 L 358 389 L 390 368 Q 392 369 391 366 Q 406 356 419 343 Q 418 340 421 341 Q 441 319 458 294 L 465 281 L 468 272 L 469 260 L 470 259 Q 471 254 469 253 L 470 251 L 467 237 L 459 221 Q 442 192 419 170 Q 388 137 345 117 L 310 105 L 282 100 L 272 100 L 270 100 L 269 99 L 244 99 L 242 99 Z " /><path fill="rgb(161,161,170)" stroke="rgb(161,161,170)" stroke-width="1" opacity="1" d="M 243.5 150 L 269.5 150 L 284.5 153 L 298.5 158 Q 321.7 168.3 337 186.5 Q 351.8 203.2 359 227.5 L 362 243.5 L 362 269.5 Q 354 314.5 324.5 338 Q 309.1 351.1 287.5 358 L 269.5 362 L 242.5 362 Q 198.3 354.3 175 325.5 Q 160.2 308.8 153 284.5 L 150 268.5 L 150 242.5 L 154 224.5 L 163 203.5 Q 172.5 187 186.5 175 L 198.5 166 L 213.5 158 L 227.5 153 L 243.5 150 Z M 248 192 L 230 197 L 217 205 Q 205 214 198 228 L 194 238 L 192 248 L 192 265 Q 194 266 193 271 Q 197 285 205 296 Q 219 315 247 320 L 266 320 Q 267 318 272 319 L 285 314 L 296 307 Q 315 293 320 266 L 320 247 L 317 235 L 304 212 L 290 201 L 278 195 L 265 192 L 248 192 Z " /></svg>