<svg width="512" height="512" version="1.1" xmlns="http://www.w3.org/2000/svg" desc="Created with imagetracer.js version 1.2.6" ><path fill="rgb(162,162,170)" stroke="rgb(162,162,170)" stroke-width="1" opacity="0.49019607843137253" d="M 244.5 0 L 250 0.5 L 244.5 1 L 244.5 0 Z " /><path fill="rgb(162,162,170)" stroke="rgb(162,162,170)" stroke-width="1" opacity="0.49019607843137253" d="M 262.5 0 L 268 0.5 L 262.5 1 L 262.5 0 Z " /><path fill="rgb(162,162,170)" stroke="rgb(162,162,170)" stroke-width="1" opacity="0.49019607843137253" d="M 240.5 1 L 243 1.5 L 240.5 2 L 240.5 1 Z " /><path fill="rgb(162,162,170)" stroke="rgb(162,162,170)" stroke-width="1" opacity="0.49019607843137253" d="M 269.5 1 L 272 1.5 L 269.5 2 L 269.5 1 Z " /><path fill="rgb(162,162,170)" stroke="rgb(162,162,170)" stroke-width="1" opacity="0.49019607843137253" d="M 236.5 2 L 239 2.5 L 229.5 6 L 229.5 5 L 236.5 2 Z " /><path fill="rgb(162,162,170)" stroke="rgb(162,162,170)" stroke-width="1" opacity="0.49019607843137253" d="M 273.5 2 L 281 4.5 L 279.5 5 L 273.5 3 L 273.5 2 Z " /><path fill="rgb(162,162,170)" stroke="rgb(162,162,170)" stroke-width="1" opacity="0.49019607843137253" d="M 282.5 5 Q 296.8 11.2 306 22.5 L 313 33.5 L 311 32.5 Q 306.8 22.2 298.5 16 L 282.5 6 L 282.5 5 Z " /><path fill="rgb(162,162,170)" stroke="rgb(162,162,170)" stroke-width="1" opacity="0.49019607843137253" d="M 226.5 6 L 228 6.5 Q 216.8 11.8 209 20.5 L 198.5 36 L 198 34.5 Q 204.4 22.4 214.5 14 L 226.5 6 Z " /><path fill="rgb(162,162,170)" stroke="rgb(162,162,170)" stroke-width="1" opacity="0.49019607843137253" d="M 313.5 35 L 318 46.5 L 317 46.5 L 313.5 35 Z " /><path fill="rgb(162,162,170)" stroke="rgb(162,162,170)" stroke-width="1" opacity="0.49019607843137253" d="M 197.5 37 L 198 38.5 L 194.5 47 L 194 44.5 L 197.5 37 Z " /><path fill="rgb(162,162,170)" stroke="rgb(162,162,170)" stroke-width="1" opacity="0.49019607843137253" d="M 254.5 42 L 258 42.5 L 254.5 43 L 254.5 42 Z " /><path fill="rgb(162,162,170)" stroke="rgb(162,162,170)" stroke-width="1" opacity="0.49019607843137253" d="M 249.5 43 L 253 43.5 Q 244.5 45 240 50.5 L 235.5 61 L 235 57.5 Q 237.6 50.1 243.5 46 L 249.5 43 Z " /><path fill="rgb(162,162,170)" stroke="rgb(162,162,170)" stroke-width="1" opacity="0.49019607843137253" d="M 259.5 43 Q 269.6 44.4 274 51.5 L 277 57.5 L 277 60.5 L 276 60.5 Q 274.9 52.1 269.5 48 L 262.5 44 L 259.5 44 L 259.5 43 Z " /><path fill="rgb(162,162,170)" stroke="rgb(162,162,170)" stroke-width="1" opacity="0.49019607843137253" d="M 193.5 48 L 194 50.5 L 193 50.5 L 193.5 48 Z " /><path fill="rgb(162,162,170)" stroke="rgb(162,162,170)" stroke-width="1" opacity="0.49019607843137253" d="M 318.5 48 L 319 50.5 L 318 50.5 L 318.5 48 Z " /><path fill="rgb(162,162,170)" stroke="rgb(162,162,170)" stroke-width="1" opacity="0.49019607843137253" d="M 192.5 52 L 193 57.5 L 192 57.5 L 192.5 52 Z " /><path fill="rgb(162,162,170)" stroke="rgb(162,162,170)" stroke-width="1" opacity="0.49019607843137253" d="M 319.5 52 L 320 57.5 L 319 57.5 L 319.5 52 Z " /><path fill="rgb(162,162,170)" stroke="rgb(162,162,170)" stroke-width="1" opacity="0.49019607843137253" d="M 234.5 62 L 235 95.5 L 234 95.5 L 234.5 62 Z " /><path fill="rgb(162,162,170)" stroke="rgb(162,162,170)" stroke-width="1" opacity="0.49019607843137253" d="M 277.5 62 L 278 95.5 L 277 95.5 L 277.5 62 Z " /><path fill="rgb(162,162,170)" stroke="rgb(162,162,170)" stroke-width="1" opacity="0.49019607843137253" d="M 191.5 74 L 190.5 76 L 184.5 78 L 184.5 77 L 191.5 74 Z " /><path fill="rgb(162,162,170)" stroke="rgb(162,162,170)" stroke-width="1" opacity="0.49019607843137253" d="M 320.5 74 L 323 75.5 L 321.5 76 L 320.5 74 Z " /><path fill="rgb(162,162,170)" stroke="rgb(162,162,170)" stroke-width="1" opacity="0.49019607843137253" d="M 324.5 76 L 335 80.5 L 333.5 81 L 324.5 77 L 324.5 76 Z " /><path fill="rgb(162,162,170)" stroke="rgb(162,162,170)" stroke-width="1" opacity="0.49019607843137253" d="M 181.5 78 L 183 78.5 L 177.5 81 L 177.5 80 L 181.5 78 Z " /><path fill="rgb(162,162,170)" stroke="rgb(162,162,170)" stroke-width="1" opacity="0.49019607843137253" d="M 174.5 81 L 176 81.5 L 165.5 87 L 166.5 85 L 174.5 81 Z " /><path fill="rgb(162,162,170)" stroke="rgb(162,162,170)" stroke-width="1" opacity="0.49019607843137253" d="M 336.5 81 Q 361.9 92.1 381.5 109 L 384.5 107 L 383.5 109 L 380.5 110 L 359.5 94 L 336.5 82 L 336.5 81 Z " /><path fill="rgb(162,162,170)" stroke="rgb(162,162,170)" stroke-width="1" opacity="0.49019607843137253" d="M 163.5 87 L 162.5 89 L 157.5 91 L 130.5 110 L 113 100.5 L 114.5 100 L 131.5 109 Q 145.5 96 163.5 87 Z " /><path fill="rgb(162,162,170)" stroke="rgb(162,162,170)" stroke-width="1" opacity="0.49019607843137253" d="M 419.5 95 L 425 95.5 L 419.5 96 L 419.5 95 Z " /><path fill="rgb(162,162,170)" stroke="rgb(162,162,170)" stroke-width="1" opacity="0.49019607843137253" d="M 78.5 96 L 84 96.5 L 78.5 97 L 78.5 96 Z " /><path fill="rgb(162,162,170)" stroke="rgb(162,162,170)" stroke-width="1" opacity="0.49019607843137253" d="M 96.5 96 L 102 96.5 L 96.5 97 L 96.5 96 Z " /><path fill="rgb(162,162,170)" stroke="rgb(162,162,170)" stroke-width="1" opacity="0.49019607843137253" d="M 410.5 96 L 416 96.5 L 410.5 97 L 410.5 96 Z " /><path fill="rgb(162,162,170)" stroke="rgb(162,162,170)" stroke-width="1" opacity="0.49019607843137253" d="M 429.5 96 L 434 96.5 L 429.5 97 L 429.5 96 Z " /><path fill="rgb(162,162,170)" stroke="rgb(162,162,170)" stroke-width="1" opacity="0.49019607843137253" d="M 73.5 97 L 77 97.5 Q 65.3 99.3 57.5 105 L 58.5 103 L 73.5 97 Z " /><path fill="rgb(162,162,170)" stroke="rgb(162,162,170)" stroke-width="1" opacity="0.49019607843137253" d="M 103.5 97 L 106 97.5 L 103.5 98 L 103.5 97 Z " /><path fill="rgb(162,162,170)" stroke="rgb(162,162,170)" stroke-width="1" opacity="0.49019607843137253" d="M 233.5 97 L 234 98.5 L 227.5 108 L 218.5 112 L 218.5 111 Q 227.4 109.4 231 102.5 L 233.5 97 Z " /><path fill="rgb(162,162,170)" stroke="rgb(162,162,170)" stroke-width="1" opacity="0.49019607843137253" d="M 278.5 97 Q 281 105 287.5 109 L 291 110.5 L 289.5 111 L 282 105.5 L 278 98.5 L 278.5 97 Z " /><path fill="rgb(162,162,170)" stroke="rgb(162,162,170)" stroke-width="1" opacity="0.49019607843137253" d="M 406.5 97 L 409 97.5 L 406.5 98 L 406.5 97 Z " /><path fill="rgb(162,162,170)" stroke="rgb(162,162,170)" stroke-width="1" opacity="0.49019607843137253" d="M 435.5 97 L 442 98.5 L 439.5 99 L 435.5 98 L 435.5 97 Z " /><path fill="rgb(162,162,170)" stroke="rgb(162,162,170)" stroke-width="1" opacity="0.49019607843137253" d="M 107.5 98 L 112 99.5 L 110.5 100 L 107.5 99 L 107.5 98 Z " /><path fill="rgb(162,162,170)" stroke="rgb(162,162,170)" stroke-width="1" opacity="0.49019607843137253" d="M 402.5 98 L 405 98.5 L 386.5 107 L 387.5 105 L 402.5 98 Z " /><path fill="rgb(162,162,170)" stroke="rgb(162,162,170)" stroke-width="1" opacity="0.49019607843137253" d="M 443.5 99 Q 463 105.5 474 120.5 L 482 135.5 L 481 135.5 Q 475 119.5 462.5 110 Q 454.8 103.2 443.5 100 L 443.5 99 Z " /><path fill="rgb(162,162,170)" stroke="rgb(162,162,170)" stroke-width="1" opacity="0.49019607843137253" d="M 55.5 105 L 54.5 107 L 40 119.5 Q 30.6 129.6 27.5 146 L 27 142.5 Q 33.6 121.1 49.5 109 L 55.5 105 Z " /><path fill="rgb(162,162,170)" stroke="rgb(162,162,170)" stroke-width="1" opacity="0.49019607843137253" d="M 292.5 111 L 298 112.5 L 295.5 113 L 292.5 112 L 292.5 111 Z " /><path fill="rgb(162,162,170)" stroke="rgb(162,162,170)" stroke-width="1" opacity="0.49019607843137253" d="M 214.5 112 L 217 112.5 L 211.5 114 L 211.5 113 L 214.5 112 Z " /><path fill="rgb(162,162,170)" stroke="rgb(162,162,170)" stroke-width="1" opacity="0.49019607843137253" d="M 205.5 115 L 207 115.5 L 200.5 118 L 200.5 117 L 205.5 115 Z " /><path fill="rgb(162,162,170)" stroke="rgb(162,162,170)" stroke-width="1" opacity="0.49019607843137253" d="M 308.5 116 L 312 117.5 L 310.5 118 L 308.5 116 Z " /><path fill="rgb(162,162,170)" stroke="rgb(162,162,170)" stroke-width="1" opacity="0.49019607843137253" d="M 197.5 118 L 199 118.5 L 170.5 134 L 146.5 155 L 141.5 157 L 141.5 156 L 146.5 154 L 170.5 133 L 197.5 118 Z " /><path fill="rgb(162,162,170)" stroke="rgb(162,162,170)" stroke-width="1" opacity="0.49019607843137253" d="M 313.5 118 L 321 121.5 L 319.5 122 L 313.5 119 L 313.5 118 Z " /><path fill="rgb(162,162,170)" stroke="rgb(162,162,170)" stroke-width="1" opacity="0.49019607843137253" d="M 324.5 123 L 341.5 133 L 365.5 154 L 371 156.5 L 369.5 157 L 365.5 155 L 349.5 140 Q 339.1 130.9 325.5 125 L 324.5 123 Z " /><path fill="rgb(162,162,170)" stroke="rgb(162,162,170)" stroke-width="1" opacity="0.49019607843137253" d="M 482.5 137 L 484 141.5 L 483 141.5 L 482.5 137 Z " /><path fill="rgb(162,162,170)" stroke="rgb(162,162,170)" stroke-width="1" opacity="0.49019607843137253" d="M 88.5 138 L 92 138.5 L 88.5 139 L 88.5 138 Z " /><path fill="rgb(162,162,170)" stroke="rgb(162,162,170)" stroke-width="1" opacity="0.49019607843137253" d="M 421.5 138 L 424 138.5 L 421.5 139 L 421.5 138 Z " /><path fill="rgb(162,162,170)" stroke="rgb(162,162,170)" stroke-width="1" opacity="0.49019607843137253" d="M 83.5 139 L 86 139.5 Q 76.9 140.9 73 147.5 L 70.5 152 L 70 150.5 L 77.5 142 L 83.5 139 Z " /><path fill="rgb(162,162,170)" stroke="rgb(162,162,170)" stroke-width="1" opacity="0.49019607843137253" d="M 93.5 139 L 96 139.5 L 93.5 140 L 93.5 139 Z " /><path fill="rgb(162,162,170)" stroke="rgb(162,162,170)" stroke-width="1" opacity="0.49019607843137253" d="M 416.5 139 L 419 139.5 L 416.5 140 L 416.5 139 Z " /><path fill="rgb(162,162,170)" stroke="rgb(162,162,170)" stroke-width="1" opacity="0.49019607843137253" d="M 426.5 139 L 431.5 140 L 441 148.5 L 443 154.5 L 442 154.5 Q 440.6 146.4 434.5 143 L 426.5 140 L 426.5 139 Z " /><path fill="rgb(162,162,170)" stroke="rgb(162,162,170)" stroke-width="1" opacity="0.49019607843137253" d="M 97.5 140 L 125.5 156 L 133 157.5 L 128.5 158 L 97.5 141 L 97.5 140 Z " /><path fill="rgb(162,162,170)" stroke="rgb(162,162,170)" stroke-width="1" opacity="0.49019607843137253" d="M 413.5 140 L 415 140.5 L 386.5 157 L 379.5 158 L 379.5 157 L 386.5 156 L 413.5 140 Z " /><path fill="rgb(162,162,170)" stroke="rgb(162,162,170)" stroke-width="1" opacity="0.49019607843137253" d="M 484.5 143 L 485 145.5 L 484 145.5 L 484.5 143 Z " /><path fill="rgb(162,162,170)" stroke="rgb(162,162,170)" stroke-width="1" opacity="0.49019607843137253" d="M 26.5 147 L 27 150.5 L 26 150.5 L 26.5 147 Z " /><path fill="rgb(162,162,170)" stroke="rgb(162,162,170)" stroke-width="1" opacity="0.49019607843137253" d="M 485.5 147 L 486 151.5 L 485 151.5 L 485.5 147 Z " /><path fill="rgb(162,162,170)" stroke="rgb(162,162,170)" stroke-width="1" opacity="0.49019607843137253" d="M 25.5 153 L 26 165.5 L 25 165.5 L 25.5 153 Z " /><path fill="rgb(162,162,170)" stroke="rgb(162,162,170)" stroke-width="1" opacity="0.49019607843137253" d="M 486.5 154 L 487 165.5 L 486 165.5 L 486.5 154 Z " /><path fill="rgb(162,162,170)" stroke="rgb(162,162,170)" stroke-width="1" opacity="0.49019607843137253" d="M 68.5 156 L 69 163.5 L 68 163.5 L 68.5 156 Z " /><path fill="rgb(162,162,170)" stroke="rgb(162,162,170)" stroke-width="1" opacity="0.49019607843137253" d="M 443.5 156 L 444 163.5 L 443 163.5 L 443.5 156 Z " /><path fill="rgb(162,162,170)" stroke="rgb(162,162,170)" stroke-width="1" opacity="0.49019607843137253" d="M 134.5 157 L 140 157.5 L 134.5 158 L 134.5 157 Z " /><path fill="rgb(162,162,170)" stroke="rgb(162,162,170)" stroke-width="1" opacity="0.49019607843137253" d="M 372.5 157 L 376 157.5 L 372.5 158 L 372.5 157 Z " /><path fill="rgb(162,162,170)" stroke="rgb(162,162,170)" stroke-width="1" opacity="0.49019607843137253" d="M 442.5 165 L 443 167.5 L 434.5 178 L 409.5 192 L 402 199.5 L 399.5 209 L 399 204.5 Q 401.1 197.1 406.5 193 L 431.5 179 L 440 171.5 L 442.5 165 Z " /><path fill="rgb(162,162,170)" stroke="rgb(162,162,170)" stroke-width="1" opacity="0.49019607843137253" d="M 26.5 168 L 27 172.5 L 26 172.5 L 26.5 168 Z " /><path fill="rgb(162,162,170)" stroke="rgb(162,162,170)" stroke-width="1" opacity="0.49019607843137253" d="M 70.5 168 L 77.5 177 L 102.5 191 L 109 196.5 Q 113 200.5 113 208.5 L 112 208.5 Q 111.9 198.1 105.5 194 L 80.5 180 L 72 172.5 L 70.5 168 Z " /><path fill="rgb(162,162,170)" stroke="rgb(162,162,170)" stroke-width="1" opacity="0.49019607843137253" d="M 485.5 168 L 486 172.5 L 485 172.5 L 485.5 168 Z " /><path fill="rgb(162,162,170)" stroke="rgb(162,162,170)" stroke-width="1" opacity="0.49019607843137253" d="M 249.5 170 L 263 170.5 L 249.5 171 L 249.5 170 Z " /><path fill="rgb(162,162,170)" stroke="rgb(162,162,170)" stroke-width="1" opacity="0.49019607843137253" d="M 241.5 171 L 247 171.5 L 241.5 172 L 241.5 171 Z " /><path fill="rgb(162,162,170)" stroke="rgb(162,162,170)" stroke-width="1" opacity="0.49019607843137253" d="M 266.5 171 L 271 171.5 L 266.5 172 L 266.5 171 Z " /><path fill="rgb(162,162,170)" stroke="rgb(162,162,170)" stroke-width="1" opacity="0.49019607843137253" d="M 236.5 172 L 240 172.5 L 236.5 173 L 236.5 172 Z " /><path fill="rgb(162,162,170)" stroke="rgb(162,162,170)" stroke-width="1" opacity="0.49019607843137253" d="M 272.5 172 L 276 172.5 L 272.5 173 L 272.5 172 Z " /><path fill="rgb(162,162,170)" stroke="rgb(162,162,170)" stroke-width="1" opacity="0.49019607843137253" d="M 232.5 173 L 235 173.5 Q 207.8 180.8 192 199.5 Q 181.1 211.1 175.5 228 L 175 226.5 Q 183.4 203.9 200.5 190 Q 213.7 178.7 232.5 173 Z " /><path fill="rgb(162,162,170)" stroke="rgb(162,162,170)" stroke-width="1" opacity="0.49019607843137253" d="M 277.5 173 L 283 174.5 L 280.5 175 L 277.5 174 L 277.5 173 Z " /><path fill="rgb(162,162,170)" stroke="rgb(162,162,170)" stroke-width="1" opacity="0.49019607843137253" d="M 27.5 174 L 28 176.5 L 27 176.5 L 27.5 174 Z " /><path fill="rgb(162,162,170)" stroke="rgb(162,162,170)" stroke-width="1" opacity="0.49019607843137253" d="M 484.5 174 L 485 176.5 L 484 176.5 L 484.5 174 Z " /><path fill="rgb(162,162,170)" stroke="rgb(162,162,170)" stroke-width="1" opacity="0.49019607843137253" d="M 284.5 175 Q 308.7 183.3 323 201.5 Q 332.1 212.4 337 227.5 L 336 227.5 Q 328.3 204.7 311.5 191 L 300.5 183 L 284.5 176 L 284.5 175 Z " /><path fill="rgb(162,162,170)" stroke="rgb(162,162,170)" stroke-width="1" opacity="0.49019607843137253" d="M 28.5 178 L 30 182.5 L 29 182.5 L 28.5 178 Z " /><path fill="rgb(162,162,170)" stroke="rgb(162,162,170)" stroke-width="1" opacity="0.49019607843137253" d="M 483.5 178 L 484 180.5 L 482.5 183 L 482 181.5 L 483.5 178 Z " /><path fill="rgb(162,162,170)" stroke="rgb(162,162,170)" stroke-width="1" opacity="0.49019607843137253" d="M 30.5 184 Q 36.9 200.1 49.5 210 L 67 220.5 L 65.5 221 Q 48.9 213.1 38 199.5 L 30 185.5 L 30.5 184 Z " /><path fill="rgb(162,162,170)" stroke="rgb(162,162,170)" stroke-width="1" opacity="0.49019607843137253" d="M 481.5 184 L 482 185.5 Q 475.1 201.1 462.5 211 L 445.5 221 L 445.5 220 Q 461.4 212.9 472 200.5 L 481.5 184 Z " /><path fill="rgb(162,162,170)" stroke="rgb(162,162,170)" stroke-width="1" opacity="0.49019607843137253" d="M 112.5 212 L 113 216.5 L 110.5 225 L 110 221.5 L 112.5 212 Z " /><path fill="rgb(162,162,170)" stroke="rgb(162,162,170)" stroke-width="1" opacity="0.49019607843137253" d="M 399.5 212 L 402 224.5 L 401 224.5 L 399 216.5 L 399.5 212 Z " /><path fill="rgb(162,162,170)" stroke="rgb(162,162,170)" stroke-width="1" opacity="0.49019607843137253" d="M 250.5 213 L 262 213.5 L 250.5 214 L 250.5 213 Z " /><path fill="rgb(162,162,170)" stroke="rgb(162,162,170)" stroke-width="1" opacity="0.49019607843137253" d="M 245.5 214 L 249 214.5 Q 231.8 217.8 223 229.5 Q 216.4 236.9 214.5 249 L 214 245.5 Q 218.4 230.4 229.5 222 L 245.5 214 Z " /><path fill="rgb(162,162,170)" stroke="rgb(162,162,170)" stroke-width="1" opacity="0.49019607843137253" d="M 263.5 214 Q 281.5 217 290 229.5 Q 296.6 236.4 298 248.5 L 297 248.5 Q 294.2 231.3 282.5 223 Q 275.6 216.4 263.5 215 L 263.5 214 Z " /><path fill="rgb(162,162,170)" stroke="rgb(162,162,170)" stroke-width="1" opacity="0.49019607843137253" d="M 66.5 222 L 67 226.5 L 66 226.5 L 66.5 222 Z " /><path fill="rgb(162,162,170)" stroke="rgb(162,162,170)" stroke-width="1" opacity="0.49019607843137253" d="M 445.5 222 L 446 226.5 L 445 226.5 L 445.5 222 Z " /><path fill="rgb(162,162,170)" stroke="rgb(162,162,170)" stroke-width="1" opacity="0.49019607843137253" d="M 109.5 226 L 110 229.5 L 109 229.5 L 109.5 226 Z " /><path fill="rgb(162,162,170)" stroke="rgb(162,162,170)" stroke-width="1" opacity="0.49019607843137253" d="M 402.5 226 L 403 229.5 L 402 229.5 L 402.5 226 Z " /><path fill="rgb(162,162,170)" stroke="rgb(162,162,170)" stroke-width="1" opacity="0.49019607843137253" d="M 65.5 228 L 66 233.5 L 65 233.5 L 65.5 228 Z " /><path fill="rgb(162,162,170)" stroke="rgb(162,162,170)" stroke-width="1" opacity="0.49019607843137253" d="M 446.5 228 L 447 233.5 L 446 233.5 L 446.5 228 Z " /><path fill="rgb(162,162,170)" stroke="rgb(162,162,170)" stroke-width="1" opacity="0.49019607843137253" d="M 174.5 229 L 175 231.5 L 173.5 235 L 173 232.5 L 174.5 229 Z " /><path fill="rgb(162,162,170)" stroke="rgb(162,162,170)" stroke-width="1" opacity="0.49019607843137253" d="M 337.5 229 L 339 234.5 L 338 234.5 L 337.5 229 Z " /><path fill="rgb(162,162,170)" stroke="rgb(162,162,170)" stroke-width="1" opacity="0.49019607843137253" d="M 108.5 231 L 109 235.5 L 108 235.5 L 108.5 231 Z " /><path fill="rgb(162,162,170)" stroke="rgb(162,162,170)" stroke-width="1" opacity="0.49019607843137253" d="M 403.5 231 L 404 235.5 L 403 235.5 L 403.5 231 Z " /><path fill="rgb(162,162,170)" stroke="rgb(162,162,170)" stroke-width="1" opacity="0.49019607843137253" d="M 64.5 236 L 65 245.5 L 64 245.5 L 64.5 236 Z " /><path fill="rgb(162,162,170)" stroke="rgb(162,162,170)" stroke-width="1" opacity="0.49019607843137253" d="M 172.5 236 L 173 239.5 L 172 239.5 L 172.5 236 Z " /><path fill="rgb(162,162,170)" stroke="rgb(162,162,170)" stroke-width="1" opacity="0.49019607843137253" d="M 339.5 236 L 340 239.5 L 339 239.5 L 339.5 236 Z " /><path fill="rgb(162,162,170)" stroke="rgb(162,162,170)" stroke-width="1" opacity="0.49019607843137253" d="M 447.5 236 L 448 245.5 L 447 245.5 L 447.5 236 Z " /><path fill="rgb(162,162,170)" stroke="rgb(162,162,170)" stroke-width="1" opacity="0.49019607843137253" d="M 107.5 238 L 108 245.5 L 107 245.5 L 107.5 238 Z " /><path fill="rgb(162,162,170)" stroke="rgb(162,162,170)" stroke-width="1" opacity="0.49019607843137253" d="M 404.5 238 L 405 245.5 L 404 245.5 L 404.5 238 Z " /><path fill="rgb(162,162,170)" stroke="rgb(162,162,170)" stroke-width="1" opacity="0.49019607843137253" d="M 171.5 241 L 172 245.5 L 171 245.5 L 171.5 241 Z " /><path fill="rgb(162,162,170)" stroke="rgb(162,162,170)" stroke-width="1" opacity="0.49019607843137253" d="M 340.5 241 L 341 245.5 L 340 245.5 L 340.5 241 Z " /><path fill="rgb(162,162,170)" stroke="rgb(162,162,170)" stroke-width="1" opacity="0.49019607843137253" d="M 170.5 248 L 171 262.5 L 170 262.5 L 170.5 248 Z " /><path fill="rgb(162,162,170)" stroke="rgb(162,162,170)" stroke-width="1" opacity="0.49019607843137253" d="M 341.5 248 L 342 262.5 L 341 262.5 L 341.5 248 Z " /><path fill="rgb(162,162,170)" stroke="rgb(162,162,170)" stroke-width="1" opacity="0.49019607843137253" d="M 213.5 250 L 214 261.5 L 213 261.5 L 213.5 250 Z " /><path fill="rgb(162,162,170)" stroke="rgb(162,162,170)" stroke-width="1" opacity="0.49019607843137253" d="M 298.5 250 L 299 261.5 L 298 261.5 L 298.5 250 Z " /><path fill="rgb(162,162,170)" stroke="rgb(162,162,170)" stroke-width="1" opacity="0.49019607843137253" d="M 405.5 251 L 406 260.5 L 405 260.5 L 405.5 251 Z " /><path fill="rgb(162,162,170)" stroke="rgb(162,162,170)" stroke-width="1" opacity="0.49019607843137253" d="M 106.5 252 L 107 258.5 L 106 258.5 L 106.5 252 Z " /><path fill="rgb(162,162,170)" stroke="rgb(162,162,170)" stroke-width="1" opacity="0.49019607843137253" d="M 214.5 263 Q 217.8 280.2 229.5 289 Q 236.9 295.6 249 297.5 L 245.5 298 Q 230.4 293.6 222 282.5 Q 214.8 275.1 214.5 263 Z " /><path fill="rgb(162,162,170)" stroke="rgb(162,162,170)" stroke-width="1" opacity="0.49019607843137253" d="M 297.5 263 L 298 266.5 Q 293.6 281.6 282.5 290 Q 275.6 296.6 263.5 298 L 263.5 297 Q 280.7 294.2 289 282.5 Q 295.6 275.1 297.5 263 Z " /><path fill="rgb(162,162,170)" stroke="rgb(162,162,170)" stroke-width="1" opacity="0.49019607843137253" d="M 107.5 265 L 108 273.5 L 107 273.5 L 107.5 265 Z " /><path fill="rgb(162,162,170)" stroke="rgb(162,162,170)" stroke-width="1" opacity="0.49019607843137253" d="M 340.5 265 L 341 270.5 L 340 270.5 L 340.5 265 Z " /><path fill="rgb(162,162,170)" stroke="rgb(162,162,170)" stroke-width="1" opacity="0.49019607843137253" d="M 447.5 265 L 448 275.5 L 447 275.5 L 447.5 265 Z " /><path fill="rgb(162,162,170)" stroke="rgb(162,162,170)" stroke-width="1" opacity="0.49019607843137253" d="M 64.5 266 L 65 275.5 L 64 275.5 L 64.5 266 Z " /><path fill="rgb(162,162,170)" stroke="rgb(162,162,170)" stroke-width="1" opacity="0.49019607843137253" d="M 171.5 266 L 172 270.5 L 171 270.5 L 171.5 266 Z " /><path fill="rgb(162,162,170)" stroke="rgb(162,162,170)" stroke-width="1" opacity="0.49019607843137253" d="M 404.5 266 L 405 273.5 L 404 273.5 L 404.5 266 Z " /><path fill="rgb(162,162,170)" stroke="rgb(162,162,170)" stroke-width="1" opacity="0.49019607843137253" d="M 172.5 272 L 173 275.5 L 172 275.5 L 172.5 272 Z " /><path fill="rgb(162,162,170)" stroke="rgb(162,162,170)" stroke-width="1" opacity="0.49019607843137253" d="M 339.5 272 L 340 275.5 L 339 275.5 L 339.5 272 Z " /><path fill="rgb(162,162,170)" stroke="rgb(162,162,170)" stroke-width="1" opacity="0.49019607843137253" d="M 108.5 275 L 109 280.5 L 108 280.5 L 108.5 275 Z " /><path fill="rgb(162,162,170)" stroke="rgb(162,162,170)" stroke-width="1" opacity="0.49019607843137253" d="M 403.5 276 L 404 280.5 L 403 280.5 L 403.5 276 Z " /><path fill="rgb(162,162,170)" stroke="rgb(162,162,170)" stroke-width="1" opacity="0.49019607843137253" d="M 173.5 277 Q 180.9 305.1 200.5 321 Q 210 329.5 223 334.5 L 221.5 335 Q 202.4 326.6 190 311.5 Q 181.4 301.6 176 288.5 L 173 279.5 L 173.5 277 Z " /><path fill="rgb(162,162,170)" stroke="rgb(162,162,170)" stroke-width="1" opacity="0.49019607843137253" d="M 338.5 277 L 339 279.5 Q 330.9 306.4 311.5 322 Q 298.1 334.1 277.5 339 L 277.5 338 Q 304.8 331.3 320 312.5 Q 333 298.5 338.5 277 Z " /><path fill="rgb(162,162,170)" stroke="rgb(162,162,170)" stroke-width="1" opacity="0.49019607843137253" d="M 446.5 277 L 447 283.5 L 446 283.5 L 446.5 277 Z " /><path fill="rgb(162,162,170)" stroke="rgb(162,162,170)" stroke-width="1" opacity="0.49019607843137253" d="M 65.5 278 L 66 283.5 L 65 283.5 L 65.5 278 Z " /><path fill="rgb(162,162,170)" stroke="rgb(162,162,170)" stroke-width="1" opacity="0.49019607843137253" d="M 109.5 282 L 110 285.5 L 109 285.5 L 109.5 282 Z " /><path fill="rgb(162,162,170)" stroke="rgb(162,162,170)" stroke-width="1" opacity="0.49019607843137253" d="M 402.5 282 L 403 285.5 L 402 285.5 L 402.5 282 Z " /><path fill="rgb(162,162,170)" stroke="rgb(162,162,170)" stroke-width="1" opacity="0.49019607843137253" d="M 66.5 285 L 67 289.5 L 66 289.5 L 66.5 285 Z " /><path fill="rgb(162,162,170)" stroke="rgb(162,162,170)" stroke-width="1" opacity="0.49019607843137253" d="M 445.5 285 L 446 289.5 L 445 289.5 L 445.5 285 Z " /><path fill="rgb(162,162,170)" stroke="rgb(162,162,170)" stroke-width="1" opacity="0.49019607843137253" d="M 110.5 287 L 113 298.5 L 112 298.5 L 110.5 287 Z " /><path fill="rgb(162,162,170)" stroke="rgb(162,162,170)" stroke-width="1" opacity="0.49019607843137253" d="M 401.5 287 L 402 290.5 L 399.5 300 L 399 295.5 L 401.5 287 Z " /><path fill="rgb(162,162,170)" stroke="rgb(162,162,170)" stroke-width="1" opacity="0.49019607843137253" d="M 65.5 291 L 67 291.5 L 64.5 293 L 65.5 291 Z " /><path fill="rgb(162,162,170)" stroke="rgb(162,162,170)" stroke-width="1" opacity="0.49019607843137253" d="M 445.5 291 Q 463 298.5 474 312.5 L 483 328.5 L 484 333.5 L 483 333.5 Q 477.5 313 462.5 302 L 445.5 292 L 445.5 291 Z " /><path fill="rgb(162,162,170)" stroke="rgb(162,162,170)" stroke-width="1" opacity="0.49019607843137253" d="M 62.5 293 L 61.5 295 Q 48.3 300.8 40 311.5 L 30.5 328 L 30 326.5 Q 36.7 310.7 49.5 301 L 62.5 293 Z " /><path fill="rgb(162,162,170)" stroke="rgb(162,162,170)" stroke-width="1" opacity="0.49019607843137253" d="M 250.5 298 L 262 298.5 L 250.5 299 L 250.5 298 Z " /><path fill="rgb(162,162,170)" stroke="rgb(162,162,170)" stroke-width="1" opacity="0.49019607843137253" d="M 112.5 303 L 113 307.5 Q 110.9 314.9 105.5 319 L 80.5 333 L 72 340.5 L 69.5 347 L 69 344.5 L 77.5 334 L 102.5 320 L 110 312.5 L 112.5 303 Z " /><path fill="rgb(162,162,170)" stroke="rgb(162,162,170)" stroke-width="1" opacity="0.49019607843137253" d="M 399.5 304 Q 401 315.5 409.5 320 L 431.5 332 L 440 339.5 L 442 343.5 L 441 343.5 L 434.5 335 L 409.5 321 L 403 315.5 L 399 307.5 L 399.5 304 Z " /><path fill="rgb(162,162,170)" stroke="rgb(162,162,170)" stroke-width="1" opacity="0.49019607843137253" d="M 29.5 329 L 30 330.5 L 28.5 334 L 28 331.5 L 29.5 329 Z " /><path fill="rgb(162,162,170)" stroke="rgb(162,162,170)" stroke-width="1" opacity="0.49019607843137253" d="M 27.5 335 L 28 337.5 L 27 337.5 L 27.5 335 Z " /><path fill="rgb(162,162,170)" stroke="rgb(162,162,170)" stroke-width="1" opacity="0.49019607843137253" d="M 224.5 335 L 235 338.5 L 232.5 339 L 224.5 336 L 224.5 335 Z " /><path fill="rgb(162,162,170)" stroke="rgb(162,162,170)" stroke-width="1" opacity="0.49019607843137253" d="M 484.5 335 L 485 337.5 L 484 337.5 L 484.5 335 Z " /><path fill="rgb(162,162,170)" stroke="rgb(162,162,170)" stroke-width="1" opacity="0.49019607843137253" d="M 26.5 339 L 27 343.5 L 26 343.5 L 26.5 339 Z " /><path fill="rgb(162,162,170)" stroke="rgb(162,162,170)" stroke-width="1" opacity="0.49019607843137253" d="M 236.5 339 L 240 339.5 L 236.5 340 L 236.5 339 Z " /><path fill="rgb(162,162,170)" stroke="rgb(162,162,170)" stroke-width="1" opacity="0.49019607843137253" d="M 272.5 339 L 276 339.5 L 272.5 340 L 272.5 339 Z " /><path fill="rgb(162,162,170)" stroke="rgb(162,162,170)" stroke-width="1" opacity="0.49019607843137253" d="M 485.5 339 L 486 343.5 L 485 343.5 L 485.5 339 Z " /><path fill="rgb(162,162,170)" stroke="rgb(162,162,170)" stroke-width="1" opacity="0.49019607843137253" d="M 241.5 340 L 246 340.5 L 241.5 341 L 241.5 340 Z " /><path fill="rgb(162,162,170)" stroke="rgb(162,162,170)" stroke-width="1" opacity="0.49019607843137253" d="M 266.5 340 L 271 340.5 L 266.5 341 L 266.5 340 Z " /><path fill="rgb(162,162,170)" stroke="rgb(162,162,170)" stroke-width="1" opacity="0.49019607843137253" d="M 249.5 341 L 263 341.5 L 249.5 342 L 249.5 341 Z " /><path fill="rgb(162,162,170)" stroke="rgb(162,162,170)" stroke-width="1" opacity="0.49019607843137253" d="M 25.5 346 L 26 358.5 L 25 358.5 L 25.5 346 Z " /><path fill="rgb(162,162,170)" stroke="rgb(162,162,170)" stroke-width="1" opacity="0.49019607843137253" d="M 486.5 346 L 487 358.5 L 486 358.5 L 486.5 346 Z " /><path fill="rgb(162,162,170)" stroke="rgb(162,162,170)" stroke-width="1" opacity="0.49019607843137253" d="M 68.5 348 L 69 355.5 L 68 355.5 L 68.5 348 Z " /><path fill="rgb(162,162,170)" stroke="rgb(162,162,170)" stroke-width="1" opacity="0.49019607843137253" d="M 443.5 348 L 444 355.5 L 443 355.5 L 443.5 348 Z " /><path fill="rgb(162,162,170)" stroke="rgb(162,162,170)" stroke-width="1" opacity="0.49019607843137253" d="M 128.5 354 L 133 354.5 L 125.5 356 L 115.5 362 L 116.5 360 L 128.5 354 Z " /><path fill="rgb(162,162,170)" stroke="rgb(162,162,170)" stroke-width="1" opacity="0.49019607843137253" d="M 136.5 354 L 140 354.5 L 136.5 355 L 136.5 354 Z " /><path fill="rgb(162,162,170)" stroke="rgb(162,162,170)" stroke-width="1" opacity="0.49019607843137253" d="M 372.5 354 L 377 354.5 L 372.5 355 L 372.5 354 Z " /><path fill="rgb(162,162,170)" stroke="rgb(162,162,170)" stroke-width="1" opacity="0.49019607843137253" d="M 379.5 354 L 386.5 355 L 415 371.5 L 413.5 372 L 388.5 357 Q 385.6 354.4 379.5 355 L 379.5 354 Z " /><path fill="rgb(162,162,170)" stroke="rgb(162,162,170)" stroke-width="1" opacity="0.49019607843137253" d="M 141.5 355 L 146.5 357 L 170.5 378 L 190 389.5 L 188.5 389 L 170.5 379 L 146.5 358 L 141.5 356 L 141.5 355 Z " /><path fill="rgb(162,162,170)" stroke="rgb(162,162,170)" stroke-width="1" opacity="0.49019607843137253" d="M 369.5 355 L 371 355.5 L 365.5 358 L 341.5 379 Q 329 388 313.5 394 L 313.5 393 Q 329 387 341.5 378 L 369.5 355 Z " /><path fill="rgb(162,162,170)" stroke="rgb(162,162,170)" stroke-width="1" opacity="0.49019607843137253" d="M 69.5 357 Q 71.3 365.2 77.5 369 L 80 370.5 L 78.5 370 L 71 363.5 Q 68 361 69.5 357 Z " /><path fill="rgb(162,162,170)" stroke="rgb(162,162,170)" stroke-width="1" opacity="0.49019607843137253" d="M 441.5 360 L 442 361.5 L 434.5 370 L 432.5 371 L 433.5 369 L 439 364.5 L 441.5 360 Z " /><path fill="rgb(162,162,170)" stroke="rgb(162,162,170)" stroke-width="1" opacity="0.49019607843137253" d="M 26.5 361 L 27 364.5 L 26 364.5 L 26.5 361 Z " /><path fill="rgb(162,162,170)" stroke="rgb(162,162,170)" stroke-width="1" opacity="0.49019607843137253" d="M 485.5 361 L 486 364.5 L 485 364.5 L 485.5 361 Z " /><path fill="rgb(162,162,170)" stroke="rgb(162,162,170)" stroke-width="1" opacity="0.49019607843137253" d="M 113.5 362 L 112.5 364 L 97.5 372 L 97.5 371 L 113.5 362 Z " /><path fill="rgb(162,162,170)" stroke="rgb(162,162,170)" stroke-width="1" opacity="0.49019607843137253" d="M 27.5 366 Q 33 389.5 49.5 402 L 64 410.5 L 62.5 411 Q 47.4 404.1 38 391.5 L 29 375.5 L 27 369.5 L 27.5 366 Z " /><path fill="rgb(162,162,170)" stroke="rgb(162,162,170)" stroke-width="1" opacity="0.49019607843137253" d="M 484.5 366 L 485 369.5 Q 478.3 390.8 462.5 403 L 448.5 411 L 448.5 410 Q 463.3 404.3 472 392.5 Q 481.4 382.4 484.5 366 Z " /><path fill="rgb(162,162,170)" stroke="rgb(162,162,170)" stroke-width="1" opacity="0.49019607843137253" d="M 81.5 371 L 86 372.5 L 83.5 373 L 81.5 371 Z " /><path fill="rgb(162,162,170)" stroke="rgb(162,162,170)" stroke-width="1" opacity="0.49019607843137253" d="M 429.5 371 L 431 371.5 L 426.5 373 L 426.5 372 L 429.5 371 Z " /><path fill="rgb(162,162,170)" stroke="rgb(162,162,170)" stroke-width="1" opacity="0.49019607843137253" d="M 93.5 372 L 96 372.5 L 93.5 373 L 93.5 372 Z " /><path fill="rgb(162,162,170)" stroke="rgb(162,162,170)" stroke-width="1" opacity="0.49019607843137253" d="M 416.5 372 L 419 372.5 L 416.5 373 L 416.5 372 Z " /><path fill="rgb(162,162,170)" stroke="rgb(162,162,170)" stroke-width="1" opacity="0.49019607843137253" d="M 88.5 373 L 91 373.5 L 88.5 374 L 88.5 373 Z " /><path fill="rgb(162,162,170)" stroke="rgb(162,162,170)" stroke-width="1" opacity="0.49019607843137253" d="M 421.5 373 L 424 373.5 L 421.5 374 L 421.5 373 Z " /><path fill="rgb(162,162,170)" stroke="rgb(162,162,170)" stroke-width="1" opacity="0.49019607843137253" d="M 191.5 390 L 199 393.5 L 197.5 394 L 191.5 391 L 191.5 390 Z " /><path fill="rgb(162,162,170)" stroke="rgb(162,162,170)" stroke-width="1" opacity="0.49019607843137253" d="M 200.5 394 L 204 395.5 L 202.5 396 L 200.5 394 Z " /><path fill="rgb(162,162,170)" stroke="rgb(162,162,170)" stroke-width="1" opacity="0.49019607843137253" d="M 310.5 394 L 312 394.5 L 308.5 396 L 308.5 395 L 310.5 394 Z " /><path fill="rgb(162,162,170)" stroke="rgb(162,162,170)" stroke-width="1" opacity="0.49019607843137253" d="M 214.5 399 L 220 400.5 L 217.5 401 L 214.5 400 L 214.5 399 Z " /><path fill="rgb(162,162,170)" stroke="rgb(162,162,170)" stroke-width="1" opacity="0.49019607843137253" d="M 295.5 399 L 298 399.5 L 292.5 401 L 292.5 400 L 295.5 399 Z " /><path fill="rgb(162,162,170)" stroke="rgb(162,162,170)" stroke-width="1" opacity="0.49019607843137253" d="M 221.5 401 L 230 406.5 L 234 414.5 L 233 414.5 Q 230.9 406.6 224.5 403 Q 220.8 402.8 221.5 401 Z " /><path fill="rgb(162,162,170)" stroke="rgb(162,162,170)" stroke-width="1" opacity="0.49019607843137253" d="M 289.5 401 L 291 401.5 Q 284.2 403.7 281 409.5 L 278.5 415 L 278 413.5 L 284.5 404 L 289.5 401 Z " /><path fill="rgb(162,162,170)" stroke="rgb(162,162,170)" stroke-width="1" opacity="0.49019607843137253" d="M 130.5 402 L 152.5 418 L 176 430.5 L 174.5 431 Q 150 419.5 130.5 403 L 112.5 413 L 107.5 414 L 107.5 413 L 112.5 412 L 130.5 402 Z " /><path fill="rgb(162,162,170)" stroke="rgb(162,162,170)" stroke-width="1" opacity="0.49019607843137253" d="M 380.5 402 L 399 411.5 L 397.5 412 L 380.5 403 Q 366.3 415.8 348.5 425 L 349.5 423 Q 367 414.5 380.5 402 Z " /><path fill="rgb(162,162,170)" stroke="rgb(162,162,170)" stroke-width="1" opacity="0.49019607843137253" d="M 65.5 411 L 77 414.5 L 73.5 415 L 65.5 412 L 65.5 411 Z " /><path fill="rgb(162,162,170)" stroke="rgb(162,162,170)" stroke-width="1" opacity="0.49019607843137253" d="M 445.5 411 L 447 411.5 L 439.5 414 L 439.5 413 L 445.5 411 Z " /><path fill="rgb(162,162,170)" stroke="rgb(162,162,170)" stroke-width="1" opacity="0.49019607843137253" d="M 103.5 414 L 106 414.5 L 103.5 415 L 103.5 414 Z " /><path fill="rgb(162,162,170)" stroke="rgb(162,162,170)" stroke-width="1" opacity="0.49019607843137253" d="M 406.5 414 L 410 414.5 L 406.5 415 L 406.5 414 Z " /><path fill="rgb(162,162,170)" stroke="rgb(162,162,170)" stroke-width="1" opacity="0.49019607843137253" d="M 435.5 414 L 438 414.5 L 435.5 415 L 435.5 414 Z " /><path fill="rgb(162,162,170)" stroke="rgb(162,162,170)" stroke-width="1" opacity="0.49019607843137253" d="M 78.5 415 L 84 415.5 L 78.5 416 L 78.5 415 Z " /><path fill="rgb(162,162,170)" stroke="rgb(162,162,170)" stroke-width="1" opacity="0.49019607843137253" d="M 96.5 415 L 102 415.5 L 96.5 416 L 96.5 415 Z " /><path fill="rgb(162,162,170)" stroke="rgb(162,162,170)" stroke-width="1" opacity="0.49019607843137253" d="M 411.5 415 L 417 415.5 L 411.5 416 L 411.5 415 Z " /><path fill="rgb(162,162,170)" stroke="rgb(162,162,170)" stroke-width="1" opacity="0.49019607843137253" d="M 428.5 415 L 434 415.5 L 428.5 416 L 428.5 415 Z " /><path fill="rgb(162,162,170)" stroke="rgb(162,162,170)" stroke-width="1" opacity="0.49019607843137253" d="M 87.5 416 L 92 416.5 L 87.5 417 L 87.5 416 Z " /><path fill="rgb(162,162,170)" stroke="rgb(162,162,170)" stroke-width="1" opacity="0.49019607843137253" d="M 234.5 416 L 235 449.5 L 234 449.5 L 234.5 416 Z " /><path fill="rgb(162,162,170)" stroke="rgb(162,162,170)" stroke-width="1" opacity="0.49019607843137253" d="M 277.5 416 L 278 448.5 L 277 448.5 L 277.5 416 Z " /><path fill="rgb(162,162,170)" stroke="rgb(162,162,170)" stroke-width="1" opacity="0.49019607843137253" d="M 346.5 425 L 345.5 427 L 336.5 431 L 336.5 430 L 346.5 425 Z " /><path fill="rgb(162,162,170)" stroke="rgb(162,162,170)" stroke-width="1" opacity="0.49019607843137253" d="M 177.5 431 L 183 433.5 L 181.5 434 L 177.5 432 L 177.5 431 Z " /><path fill="rgb(162,162,170)" stroke="rgb(162,162,170)" stroke-width="1" opacity="0.49019607843137253" d="M 333.5 431 L 335 431.5 L 329.5 434 L 329.5 433 L 333.5 431 Z " /><path fill="rgb(162,162,170)" stroke="rgb(162,162,170)" stroke-width="1" opacity="0.49019607843137253" d="M 184.5 434 L 192 437.5 L 190.5 437 L 184.5 435 L 184.5 434 Z " /><path fill="rgb(162,162,170)" stroke="rgb(162,162,170)" stroke-width="1" opacity="0.49019607843137253" d="M 326.5 434 L 328 434.5 L 324.5 436 L 324.5 435 L 326.5 434 Z " /><path fill="rgb(162,162,170)" stroke="rgb(162,162,170)" stroke-width="1" opacity="0.49019607843137253" d="M 321.5 436 L 323 436.5 L 320.5 438 L 321.5 436 Z " /><path fill="rgb(162,162,170)" stroke="rgb(162,162,170)" stroke-width="1" opacity="0.49019607843137253" d="M 235.5 451 Q 237 459.5 242.5 464 L 253 468.5 L 249.5 469 Q 242.1 466.4 238 460.5 L 235 454.5 L 235.5 451 Z " /><path fill="rgb(162,162,170)" stroke="rgb(162,162,170)" stroke-width="1" opacity="0.49019607843137253" d="M 276.5 451 L 277 454.5 L 269.5 465 L 262.5 469 L 259.5 469 L 259.5 468 Q 267.9 466.9 272 461.5 L 276.5 451 Z " /><path fill="rgb(162,162,170)" stroke="rgb(162,162,170)" stroke-width="1" opacity="0.49019607843137253" d="M 192.5 453 L 193 459.5 L 192 459.5 L 192.5 453 Z " /><path fill="rgb(162,162,170)" stroke="rgb(162,162,170)" stroke-width="1" opacity="0.49019607843137253" d="M 319.5 453 L 320 459.5 L 319 459.5 L 319.5 453 Z " /><path fill="rgb(162,162,170)" stroke="rgb(162,162,170)" stroke-width="1" opacity="0.49019607843137253" d="M 193.5 461 L 194 463.5 L 193 463.5 L 193.5 461 Z " /><path fill="rgb(162,162,170)" stroke="rgb(162,162,170)" stroke-width="1" opacity="0.49019607843137253" d="M 318.5 461 L 319 463.5 L 318 463.5 L 318.5 461 Z " /><path fill="rgb(162,162,170)" stroke="rgb(162,162,170)" stroke-width="1" opacity="0.49019607843137253" d="M 194.5 465 L 198 474.5 L 197 474.5 L 194 467.5 L 194.5 465 Z " /><path fill="rgb(162,162,170)" stroke="rgb(162,162,170)" stroke-width="1" opacity="0.49019607843137253" d="M 317.5 465 L 318 467.5 L 314.5 475 L 314 473.5 L 317.5 465 Z " /><path fill="rgb(162,162,170)" stroke="rgb(162,162,170)" stroke-width="1" opacity="0.49019607843137253" d="M 254.5 469 L 258 469.5 L 254.5 470 L 254.5 469 Z " /><path fill="rgb(162,162,170)" stroke="rgb(162,162,170)" stroke-width="1" opacity="0.49019607843137253" d="M 313.5 476 L 314 477.5 Q 307.6 489.6 297.5 498 L 286.5 505 L 287.5 503 Q 297.1 499.1 303 491.5 L 313.5 476 Z " /><path fill="rgb(162,162,170)" stroke="rgb(162,162,170)" stroke-width="1" opacity="0.49019607843137253" d="M 199.5 478 L 212.5 495 L 226 504.5 L 224.5 504 Q 213.2 498.8 206 489.5 L 199.5 478 Z " /><path fill="rgb(162,162,170)" stroke="rgb(162,162,170)" stroke-width="1" opacity="0.49019607843137253" d="M 227.5 505 L 239 509.5 L 236.5 510 L 227.5 506 L 227.5 505 Z " /><path fill="rgb(162,162,170)" stroke="rgb(162,162,170)" stroke-width="1" opacity="0.49019607843137253" d="M 281.5 506 L 283 506.5 L 273.5 510 L 273.5 509 L 281.5 506 Z " /><path fill="rgb(162,162,170)" stroke="rgb(162,162,170)" stroke-width="1" opacity="0.49019607843137253" d="M 240.5 510 L 243 510.5 L 240.5 511 L 240.5 510 Z " /><path fill="rgb(162,162,170)" stroke="rgb(162,162,170)" stroke-width="1" opacity="0.49019607843137253" d="M 269.5 510 L 272 510.5 L 269.5 511 L 269.5 510 Z " /><path fill="rgb(162,162,170)" stroke="rgb(162,162,170)" stroke-width="1" opacity="0.49019607843137253" d="M 245.5 511 L 250 511.5 L 245.5 512 L 245.5 511 Z " /><path fill="rgb(162,162,170)" stroke="rgb(162,162,170)" stroke-width="1" opacity="0.49019607843137253" d="M 262.5 511 L 267 511.5 L 262.5 512 L 262.5 511 Z " /><path fill="rgb(160,160,170)" stroke="rgb(160,160,170)" stroke-width="1" opacity="0.996078431372549" d="M 462.5 110 L 463.5 112 L 462.5 110 Z " /><path fill="rgb(0,0,0)" stroke="rgb(0,0,0)" stroke-width="1" opacity="0" d="M 0 0 L 244 0.5 Q 218.8 5.3 206 22.5 Q 198.1 31.6 194 44.5 L 192 52.5 L 192 73.5 L 190.5 75 Q 172.2 80.7 157.5 90 L 130.5 109 L 109.5 98 L 101.5 96 L 92.5 96 L 91.5 95 L 90.5 96 L 78.5 96 L 64.5 100 Q 48.3 107.3 38 120.5 L 27 142.5 L 25 153.5 L 25 165.5 L 28 180.5 L 34 193.5 L 49.5 211 L 67 221.5 L 64 236.5 L 64 254.5 L 63 256.5 L 64 257.5 L 64 275.5 L 67 290.5 Q 49.3 298.3 38 312.5 L 28 331.5 L 25 346.5 L 25 358.5 L 27 369.5 L 34 385.5 Q 40.5 396.5 50.5 404 Q 60.3 411.2 73.5 415 L 91.5 417 L 92.5 416 L 101.5 416 L 112.5 413 L 131.5 403 L 157.5 422 L 192 438.5 L 192 459.5 L 195 470.5 Q 201.7 487.3 214.5 498 L 233.5 509 L 245 511.5 L 0 512 L 0 0 Z " /><path fill="rgb(0,0,0)" stroke="rgb(0,0,0)" stroke-width="1" opacity="0" d="M 268.5 0 L 512 0 L 512 512 L 267 511.5 Q 292.6 506.6 306 489.5 Q 313.9 480.4 318 467.5 L 320 459.5 L 320 438.5 L 321.5 437 Q 339.8 431.3 354.5 422 L 381.5 403 Q 392 411 406.5 415 L 411.5 416 L 433.5 416 Q 459.5 410.5 473 392.5 Q 481 383 485 369.5 L 487 358.5 L 487 346.5 L 484 331.5 L 478 318.5 L 462.5 301 L 445 290.5 L 448 275.5 L 448 236.5 L 445 221.5 Q 462.1 214.1 473 200.5 Q 480.1 192.1 484 180.5 L 487 165.5 L 487 154.5 L 484 139.5 L 478 126.5 L 462.5 109 Q 452.7 100.7 438.5 97 L 419.5 95 L 399.5 99 L 380.5 109 L 354.5 90 L 320 73.5 L 320 52.5 L 317 41.5 Q 310.3 24.7 297.5 14 L 283.5 5 L 268.5 1 L 268.5 0 Z " /><path fill="rgb(0,0,0)" stroke="rgb(0,0,0)" stroke-width="1" opacity="0" d="M 253.5 43 Q 266.7 42.8 272 50.5 L 277 61.5 L 277 95.5 L 283.5 107 L 289.5 111 L 307.5 116 L 330.5 127 Q 350.4 138.6 365.5 155 Q 371.4 159.7 383.5 158 L 415.5 140 L 425.5 139 Q 435.4 141.1 440 148.5 Q 444.4 153.7 443 164.5 Q 440.9 172.9 434.5 177 L 409.5 191 L 403 196.5 Q 397 202.5 399 216.5 L 404 236.5 L 405 265.5 L 404 266.5 L 403 281.5 L 399 295.5 L 399 307.5 Q 401.1 314.9 406.5 319 L 431.5 333 L 439 339.5 Q 444.5 344.5 443 356.5 Q 440.5 364.5 434.5 369 L 425.5 373 L 419.5 373 L 409.5 369 L 386.5 355 Q 381.4 352.6 372.5 354 L 365.5 357 Q 350.4 373.4 330.5 385 L 307.5 396 L 289.5 401 L 282 406.5 L 277 416.5 L 277 450.5 Q 275.1 459.1 269.5 464 Q 264.3 469.3 253.5 469 Q 244.9 467.1 240 461.5 L 235 450.5 L 235 416.5 L 228.5 405 L 222.5 401 L 204.5 396 L 181.5 385 Q 161.6 373.4 146.5 357 Q 140.7 352.4 128.5 354 L 96.5 372 L 86.5 373 Q 76.6 370.9 72 363.5 Q 67.6 358.3 69 347.5 Q 71.2 339.2 77.5 335 L 102.5 321 L 109 315.5 Q 115 309.5 113 295.5 L 108 274.5 L 107 246.5 L 108 245.5 L 109 230.5 L 113 216.5 L 113 204.5 Q 110.9 197.1 105.5 193 L 80.5 179 L 73 172.5 Q 67.5 167.5 69 155.5 Q 71.5 147.5 77.5 143 L 86.5 139 L 92.5 139 L 102.5 143 L 125.5 157 Q 130.6 159.4 139.5 158 L 146.5 155 Q 161.8 138.8 181.5 127 L 199.5 118 L 220.5 112 L 231 104.5 L 235 95.5 L 235 61.5 Q 236.9 52.9 242.5 48 L 253.5 43 Z M 250 170 L 249 171 L 237 172 L 224 176 L 201 190 Q 189 199 182 212 L 173 233 L 170 249 L 170 263 L 173 280 Q 179 298 190 312 Q 199 322 212 330 L 233 339 L 250 342 L 263 342 L 280 339 Q 298 333 312 322 Q 322 313 330 301 L 339 280 L 342 263 L 342 249 L 339 233 Q 334 214 323 202 Q 310 185 289 176 L 271 171 L 250 170 Z " /><path fill="rgb(0,0,0)" stroke="rgb(0,0,0)" stroke-width="1" opacity="0" d="M 249.5 214 L 262.5 214 L 272.5 217 Q 282.6 221.4 289 229.5 L 297 245.5 Q 299.3 252.2 298 262.5 Q 294.3 279.8 282.5 289 L 266.5 297 Q 259.8 299.3 249.5 298 Q 232.2 294.3 223 282.5 L 215 266.5 Q 212.7 259.8 214 249.5 Q 217.7 232.2 229.5 223 Q 237.4 216.4 249.5 214 Z " /><path fill="rgb(161,161,170)" stroke="rgb(161,161,170)" stroke-width="1" opacity="1" d="M 250.5 0 L 268.5 1 L 281.5 5 Q 294.8 11.2 304 21.5 L 313 34.5 L 317 44.5 L 320 58.5 L 320 74.5 L 321.5 76 L 347.5 87 L 381.5 110 L 402.5 99 L 416.5 96 L 428.5 96 L 442.5 99 L 455.5 105 L 471 118.5 Q 479.8 128.2 484 142.5 L 486 152.5 L 486 167.5 Q 481.4 194.9 463.5 209 L 445 220 L 446 233.5 L 447 234.5 L 448 258.5 L 448 260.5 L 445 292 Q 461.4 298.3 472 311.5 Q 480 321 484 334.5 L 486 344.5 L 486 359.5 Q 481.2 387.7 462.5 402 Q 452.5 410 438.5 414 L 427.5 416 L 417.5 416 L 399.5 412 L 380.5 402 L 354.5 421 L 320 437.5 L 320 452.5 L 316 470.5 Q 310.3 485.3 299.5 495 Q 290.8 503.3 278.5 508 L 268.5 511 L 250.5 512 L 233.5 508 L 218 500 Q 219.1 497.3 216.5 498 L 209 491.5 Q 200.7 482.8 196 470.5 L 193 460.5 L 192 437.5 L 190.5 436 L 176.5 431 L 157.5 421 L 130.5 402 L 109.5 413 L 95.5 416 L 85.5 416 L 84.5 415 L 73.5 414 L 56.5 407 L 40 392.5 Q 25 376.5 26 344.5 Q 31 316.5 49.5 302 L 67 292 L 66 278.5 L 65 277.5 L 65 266.5 L 64 265.5 L 64 246.5 L 65 245.5 L 65 234.5 L 66 233.5 L 67 220 Q 51.3 214 41 201.5 Q 32.2 191.8 28 177.5 L 26 167.5 L 26 151.5 Q 31.2 124.2 49.5 110 Q 59.2 101.7 73.5 98 L 84.5 96 L 95.5 96 L 112.5 100 L 131.5 110 L 157.5 91 L 192 74.5 L 192 58.5 L 196 41.5 Q 201.4 27.4 211.5 18 L 228.5 6 L 239.5 2 L 250.5 0 Z M 255 42 L 244 46 Q 238 50 235 58 L 234 63 L 234 97 L 231 103 L 221 111 L 203 116 L 185 124 Q 163 136 147 154 L 141 157 Q 131 159 126 156 L 103 142 L 93 138 Q 83 138 78 142 Q 70 147 68 157 L 68 164 L 72 173 L 81 180 L 106 194 L 111 202 L 113 210 L 108 232 L 107 249 L 107 251 L 106 259 L 106 261 L 107 262 L 108 281 L 113 301 L 113 303 L 110 313 L 103 320 L 78 334 Q 70 339 68 349 L 68 356 L 71 364 Q 76 372 89 374 L 99 372 L 122 358 L 134 354 Q 142 354 147 358 Q 165 378 191 391 L 225 403 Q 231 407 234 416 L 234 450 L 238 461 Q 243 468 255 470 Q 265 470 270 465 L 277 455 Q 276 450 278 449 L 278 417 L 281 410 L 292 401 Q 314 396 331 386 Q 350 374 366 358 L 372 355 Q 376 356 378 354 L 387 356 L 406 368 L 414 372 L 422 374 Q 430 374 435 370 Q 442 365 444 356 Q 445 345 440 340 L 432 332 L 410 320 Q 401 315 399 304 L 404 281 L 405 264 L 406 261 L 404 232 L 399 212 L 402 200 L 410 192 L 435 178 Q 442 173 444 164 L 444 157 L 441 149 L 432 140 L 424 138 L 414 140 L 387 156 L 380 157 L 377 158 L 366 154 Q 351 137 331 126 L 308 115 L 288 109 Q 281 105 278 97 L 278 63 L 274 52 Q 269 42 255 42 Z " /><path fill="rgb(161,161,170)" stroke="rgb(161,161,170)" stroke-width="1" opacity="1" d="M 247.5 171 L 263.5 171 L 264.5 172 L 266.5 172 L 276.5 173 L 288.5 177 Q 302.7 182.8 313 192.5 Q 312.3 194.8 314.5 194 Q 329.5 207.5 337 228.5 L 341 246.5 L 341 264.5 L 340 265.5 L 339 276.5 L 335 288.5 Q 328.9 303.4 318.5 314 Q 316.3 313.3 317 315.5 Q 305.4 327.9 288.5 335 L 271.5 340 L 246.5 341 Q 210 335 191 311.5 Q 178.6 297.4 173 276.5 L 171 265.5 L 171 246.5 L 175 228.5 L 183 211.5 L 199.5 192 Q 209.8 182.8 223.5 177 L 235.5 173 L 246.5 172 L 247.5 171 Z M 251 213 Q 238 215 230 222 Q 217 232 213 251 L 214 267 L 222 283 Q 232 295 251 299 L 267 298 L 283 290 Q 295 280 299 262 L 298 246 L 290 230 Q 283 221 273 216 L 262 213 L 251 213 Z " /></svg>