<svg width="512" height="512" version="1.1" xmlns="http://www.w3.org/2000/svg" desc="Created with imagetracer.js version 1.2.6" ><path fill="rgb(0,0,0)" stroke="rgb(0,0,0)" stroke-width="1" opacity="0" d="M 0 0 L 233.5 0 L 234 0.5 L 234 86 L 278 86 L 278 0 L 512 0 L 511.5 236 Q 508.7 223.3 502 214.5 L 455 150.5 L 446.5 142 L 427.5 131 L 415.5 128 L 96.5 128 Q 70.8 133.3 57 150.5 L 8 217.5 Q 2.6 225.6 0.5 237 L 0 0 Z M 124 12 L 88 36 L 132 103 L 168 80 L 126 14 Q 127 11 124 12 Z M 386 12 L 344 80 L 381 103 L 423 38 L 424 34 L 391 13 L 386 12 Z " /><path fill="rgb(0,0,0)" stroke="rgb(0,0,0)" stroke-width="1" opacity="0" d="M 104.5 171 L 181 171.5 L 156 234 L 51 233.5 L 93.5 176 L 104.5 171 Z " /><path fill="rgb(0,0,0)" stroke="rgb(0,0,0)" stroke-width="1" opacity="0" d="M 228 171 L 283.5 171 L 284 172.5 L 309 233.5 L 203.5 234 L 204 232.5 L 228 171 Z " /><path fill="rgb(0,0,0)" stroke="rgb(0,0,0)" stroke-width="1" opacity="0" d="M 331.5 171 L 407.5 171 Q 416.1 172.9 421 178.5 L 461 233.5 L 356 234 L 331.5 171 Z " /><path fill="rgb(0,0,0)" stroke="rgb(0,0,0)" stroke-width="1" opacity="0" d="M 0.5 267 Q 6.9 291.1 24.5 304 L 256.5 511 L 500 291.5 Q 508.4 281.9 511.5 267 L 512 512 L 0 512 L 0.5 267 Z " /><path fill="rgb(0,0,0)" stroke="rgb(0,0,0)" stroke-width="1" opacity="0" d="M 62.5 278 L 155.5 278 L 156 280.5 L 203 403.5 L 200.5 402 L 63.5 280 L 62.5 278 Z " /><path fill="rgb(0,0,0)" stroke="rgb(0,0,0)" stroke-width="1" opacity="0" d="M 203 278 L 308.5 278 L 309 280.5 L 257 418 Q 254.3 419.1 255 416.5 L 203 278 Z " /><path fill="rgb(0,0,0)" stroke="rgb(0,0,0)" stroke-width="1" opacity="0" d="M 356 278 L 450 278.5 L 309.5 404 L 309 402.5 L 356 278 Z " /><path fill="rgb(0,71,254)" stroke="rgb(0,71,254)" stroke-width="1" opacity="0.4666666666666667" d="M 234.5 0 L 235 85 L 277 85 L 277 0.5 L 278 0.5 L 278 86 L 234 86 L 234.5 0 Z " /><path fill="rgb(0,71,254)" stroke="rgb(0,71,254)" stroke-width="1" opacity="0.4666666666666667" d="M 123.5 12 Q 126.8 10.9 126 13.5 L 168 79.5 L 131.5 103 L 88 35.5 L 123.5 12 Z M 124 13 L 89 36 L 132 102 L 167 80 L 126 15 L 124 13 Z " /><path fill="rgb(0,71,254)" stroke="rgb(0,71,254)" stroke-width="1" opacity="0.4666666666666667" d="M 386 12 L 390.5 13 L 424 34 L 423 37.5 L 380.5 103 L 344 80 L 386 12 Z M 388 13 L 345 79 L 381 102 L 423 36 L 388 13 Z " /><path fill="rgb(0,71,254)" stroke="rgb(0,71,254)" stroke-width="1" opacity="0.4666666666666667" d="M 96.5 128 L 101 128.5 L 96.5 129 L 96.5 128 Z " /><path fill="rgb(0,71,254)" stroke="rgb(0,71,254)" stroke-width="1" opacity="0.4666666666666667" d="M 411.5 128 L 416 128.5 L 411.5 129 L 411.5 128 Z " /><path fill="rgb(0,71,254)" stroke="rgb(0,71,254)" stroke-width="1" opacity="0.4666666666666667" d="M 91.5 129 L 94 129.5 L 91.5 130 L 91.5 129 Z " /><path fill="rgb(0,71,254)" stroke="rgb(0,71,254)" stroke-width="1" opacity="0.4666666666666667" d="M 418.5 129 L 421 129.5 L 418.5 130 L 418.5 129 Z " /><path fill="rgb(0,71,254)" stroke="rgb(0,71,254)" stroke-width="1" opacity="0.4666666666666667" d="M 87.5 130 L 90 130.5 L 80.5 134 L 80.5 133 L 87.5 130 Z " /><path fill="rgb(0,71,254)" stroke="rgb(0,71,254)" stroke-width="1" opacity="0.4666666666666667" d="M 422.5 130 L 432 133.5 L 430.5 134 L 422.5 131 L 422.5 130 Z " /><path fill="rgb(0,71,254)" stroke="rgb(0,71,254)" stroke-width="1" opacity="0.4666666666666667" d="M 76.5 135 L 75.5 137 Q 65.2 141.2 59 149.5 L 11 214.5 L 3.5 229 L 3 227.5 L 15 207.5 L 57 150.5 L 65.5 142 L 76.5 135 Z " /><path fill="rgb(0,71,254)" stroke="rgb(0,71,254)" stroke-width="1" opacity="0.4666666666666667" d="M 435.5 135 Q 447.2 140.8 455 150.5 L 502 214.5 L 509 228.5 L 508 228.5 L 501 214.5 L 457 154.5 L 447.5 144 L 436.5 137 L 435.5 135 Z " /><path fill="rgb(0,71,254)" stroke="rgb(0,71,254)" stroke-width="1" opacity="0.4666666666666667" d="M 106.5 170 L 180.5 170 L 182 171.5 L 159 229.5 L 155.5 235 L 49 234.5 L 89 179.5 L 94.5 174 L 100.5 171 L 103.5 171 L 103.5 172 Q 94.3 173.3 90 179.5 L 51 233.5 L 156 234 L 181 171.5 L 106.5 171 L 106.5 170 Z " /><path fill="rgb(0,71,254)" stroke="rgb(0,71,254)" stroke-width="1" opacity="0.4666666666666667" d="M 228.5 170 L 283.5 170 L 285 171.5 L 288 179.5 L 287 179.5 L 284 171 L 228.5 171 L 228 172.5 L 203 233.5 L 308.5 234 L 308 232.5 L 308.5 231 L 310 235 L 202.5 235 L 202 233.5 L 226 173.5 L 228.5 170 Z " /><path fill="rgb(0,71,254)" stroke="rgb(0,71,254)" stroke-width="1" opacity="0.4666666666666667" d="M 331.5 170 L 406 170.5 L 331 171.5 L 356 234 L 461 233.5 L 418.5 176 L 408 171.5 L 411.5 171 Q 418.9 173.6 423 179.5 L 463 234.5 L 356.5 235 L 353 229.5 L 330 171.5 L 331.5 170 Z " /><path fill="rgb(0,71,254)" stroke="rgb(0,71,254)" stroke-width="1" opacity="0.4666666666666667" d="M 288.5 181 L 290 184.5 L 289 184.5 L 288.5 181 Z " /><path fill="rgb(0,71,254)" stroke="rgb(0,71,254)" stroke-width="1" opacity="0.4666666666666667" d="M 290.5 186 L 292 189.5 L 291 189.5 L 290.5 186 Z " /><path fill="rgb(0,71,254)" stroke="rgb(0,71,254)" stroke-width="1" opacity="0.4666666666666667" d="M 292.5 191 L 294 194.5 L 293 194.5 L 292.5 191 Z " /><path fill="rgb(0,71,254)" stroke="rgb(0,71,254)" stroke-width="1" opacity="0.4666666666666667" d="M 294.5 196 L 296 199.5 L 295 199.5 L 294.5 196 Z " /><path fill="rgb(0,71,254)" stroke="rgb(0,71,254)" stroke-width="1" opacity="0.4666666666666667" d="M 296.5 201 L 298 204.5 L 297 204.5 L 296.5 201 Z " /><path fill="rgb(0,71,254)" stroke="rgb(0,71,254)" stroke-width="1" opacity="0.4666666666666667" d="M 298.5 206 L 300 209.5 L 299 209.5 L 298.5 206 Z " /><path fill="rgb(0,71,254)" stroke="rgb(0,71,254)" stroke-width="1" opacity="0.4666666666666667" d="M 300.5 211 L 302 214.5 L 301 214.5 L 300.5 211 Z " /><path fill="rgb(0,71,254)" stroke="rgb(0,71,254)" stroke-width="1" opacity="0.4666666666666667" d="M 302.5 216 L 304 219.5 L 303 219.5 L 302.5 216 Z " /><path fill="rgb(0,71,254)" stroke="rgb(0,71,254)" stroke-width="1" opacity="0.4666666666666667" d="M 304.5 221 L 306 224.5 L 305 224.5 L 304.5 221 Z " /><path fill="rgb(0,71,254)" stroke="rgb(0,71,254)" stroke-width="1" opacity="0.4666666666666667" d="M 306.5 226 L 308 229.5 L 307 229.5 L 306.5 226 Z " /><path fill="rgb(0,71,254)" stroke="rgb(0,71,254)" stroke-width="1" opacity="0.4666666666666667" d="M 1.5 233 L 2 235.5 L 1 235.5 L 1.5 233 Z " /><path fill="rgb(0,71,254)" stroke="rgb(0,71,254)" stroke-width="1" opacity="0.4666666666666667" d="M 510.5 233 L 512 239.5 L 511 239.5 L 510.5 233 Z " /><path fill="rgb(0,71,254)" stroke="rgb(0,71,254)" stroke-width="1" opacity="0.4666666666666667" d="M 0.5 237 L 1 239.5 L 0 239.5 L 0.5 237 Z " /><path fill="rgb(0,71,254)" stroke="rgb(0,71,254)" stroke-width="1" opacity="0.4666666666666667" d="M 0.5 263 L 2 269.5 L 1 269.5 L 0.5 263 Z " /><path fill="rgb(0,71,254)" stroke="rgb(0,71,254)" stroke-width="1" opacity="0.4666666666666667" d="M 511.5 263 L 512 266.5 L 511 266.5 L 511.5 263 Z " /><path fill="rgb(0,71,254)" stroke="rgb(0,71,254)" stroke-width="1" opacity="0.4666666666666667" d="M 510.5 268 L 511 270.5 Q 503.7 291.7 487.5 304 L 255.5 511 L 13 292.5 L 6 281.5 L 8 282.5 Q 13.2 293.8 22.5 301 L 256.5 510 L 498 292.5 Q 506.8 282.8 510.5 268 Z " /><path fill="rgb(0,71,254)" stroke="rgb(0,71,254)" stroke-width="1" opacity="0.4666666666666667" d="M 3.5 274 L 5 277.5 L 4 277.5 L 3.5 274 Z " /><path fill="rgb(0,71,254)" stroke="rgb(0,71,254)" stroke-width="1" opacity="0.4666666666666667" d="M 60.5 277 L 155.5 277 L 157 278.5 L 158 282.5 L 157 282.5 L 156 278 L 62 278.5 L 202.5 404 L 204 403.5 L 205 406.5 L 201.5 404 L 64.5 282 L 60.5 277 Z " /><path fill="rgb(0,71,254)" stroke="rgb(0,71,254)" stroke-width="1" opacity="0.4666666666666667" d="M 202 277 L 309.5 277 L 310 279.5 L 309 279.5 L 308.5 278 L 203 278 L 206 287.5 L 205 287.5 L 202 277 Z " /><path fill="rgb(0,71,254)" stroke="rgb(0,71,254)" stroke-width="1" opacity="0.4666666666666667" d="M 356.5 277 L 452 277.5 L 307.5 407 L 307 405.5 L 309.5 400 L 310 401.5 L 309 403.5 L 312.5 401 L 450 278.5 L 356 278 L 354.5 283 L 354 281.5 L 356.5 277 Z " /><path fill="rgb(0,71,254)" stroke="rgb(0,71,254)" stroke-width="1" opacity="0.4666666666666667" d="M 308.5 281 L 309 282.5 L 306.5 288 L 306 286.5 L 308.5 281 Z " /><path fill="rgb(0,71,254)" stroke="rgb(0,71,254)" stroke-width="1" opacity="0.4666666666666667" d="M 158.5 284 L 163 295.5 L 162 295.5 L 158.5 284 Z " /><path fill="rgb(0,71,254)" stroke="rgb(0,71,254)" stroke-width="1" opacity="0.4666666666666667" d="M 353.5 284 L 354 285.5 L 352.5 288 L 352 286.5 L 353.5 284 Z " /><path fill="rgb(0,71,254)" stroke="rgb(0,71,254)" stroke-width="1" opacity="0.4666666666666667" d="M 206.5 289 L 209 295.5 L 208 295.5 L 206.5 289 Z " /><path fill="rgb(0,71,254)" stroke="rgb(0,71,254)" stroke-width="1" opacity="0.4666666666666667" d="M 305.5 289 L 306 290.5 L 303.5 296 L 303 294.5 L 305.5 289 Z " /><path fill="rgb(0,71,254)" stroke="rgb(0,71,254)" stroke-width="1" opacity="0.4666666666666667" d="M 351.5 289 L 352 290.5 L 349.5 296 L 349 294.5 L 351.5 289 Z " /><path fill="rgb(0,71,254)" stroke="rgb(0,71,254)" stroke-width="1" opacity="0.4666666666666667" d="M 163.5 297 L 166 303.5 L 165 303.5 L 163.5 297 Z " /><path fill="rgb(0,71,254)" stroke="rgb(0,71,254)" stroke-width="1" opacity="0.4666666666666667" d="M 209.5 297 L 212 303.5 L 211 303.5 L 209.5 297 Z " /><path fill="rgb(0,71,254)" stroke="rgb(0,71,254)" stroke-width="1" opacity="0.4666666666666667" d="M 302.5 297 L 303 298.5 L 300.5 304 L 300 302.5 L 302.5 297 Z " /><path fill="rgb(0,71,254)" stroke="rgb(0,71,254)" stroke-width="1" opacity="0.4666666666666667" d="M 348.5 297 L 349 298.5 L 346.5 304 L 346 302.5 L 348.5 297 Z " /><path fill="rgb(0,71,254)" stroke="rgb(0,71,254)" stroke-width="1" opacity="0.4666666666666667" d="M 166.5 305 L 169 311.5 L 168 311.5 L 166.5 305 Z " /><path fill="rgb(0,71,254)" stroke="rgb(0,71,254)" stroke-width="1" opacity="0.4666666666666667" d="M 212.5 305 L 215 311.5 L 214 311.5 L 212.5 305 Z " /><path fill="rgb(0,71,254)" stroke="rgb(0,71,254)" stroke-width="1" opacity="0.4666666666666667" d="M 299.5 305 L 300 306.5 L 297.5 312 L 297 310.5 L 299.5 305 Z " /><path fill="rgb(0,71,254)" stroke="rgb(0,71,254)" stroke-width="1" opacity="0.4666666666666667" d="M 345.5 305 L 346 306.5 L 343.5 312 L 343 310.5 L 345.5 305 Z " /><path fill="rgb(0,71,254)" stroke="rgb(0,71,254)" stroke-width="1" opacity="0.4666666666666667" d="M 169.5 313 L 172 319.5 L 171 319.5 L 169.5 313 Z " /><path fill="rgb(0,71,254)" stroke="rgb(0,71,254)" stroke-width="1" opacity="0.4666666666666667" d="M 215.5 313 L 220 324.5 L 219 324.5 L 215.5 313 Z " /><path fill="rgb(0,71,254)" stroke="rgb(0,71,254)" stroke-width="1" opacity="0.4666666666666667" d="M 296.5 313 L 297 314.5 L 294.5 320 L 294 318.5 L 296.5 313 Z " /><path fill="rgb(0,71,254)" stroke="rgb(0,71,254)" stroke-width="1" opacity="0.4666666666666667" d="M 342.5 313 L 343 314.5 L 340.5 320 L 340 318.5 L 342.5 313 Z " /><path fill="rgb(0,71,254)" stroke="rgb(0,71,254)" stroke-width="1" opacity="0.4666666666666667" d="M 172.5 321 L 175 327.5 L 174 327.5 L 172.5 321 Z " /><path fill="rgb(0,71,254)" stroke="rgb(0,71,254)" stroke-width="1" opacity="0.4666666666666667" d="M 293.5 321 L 294 322.5 L 292.5 325 L 292 323.5 L 293.5 321 Z " /><path fill="rgb(0,71,254)" stroke="rgb(0,71,254)" stroke-width="1" opacity="0.4666666666666667" d="M 339.5 321 L 340 322.5 L 338.5 325 L 338 323.5 L 339.5 321 Z " /><path fill="rgb(0,71,254)" stroke="rgb(0,71,254)" stroke-width="1" opacity="0.4666666666666667" d="M 220.5 326 L 223 332.5 L 222 332.5 L 220.5 326 Z " /><path fill="rgb(0,71,254)" stroke="rgb(0,71,254)" stroke-width="1" opacity="0.4666666666666667" d="M 291.5 326 L 292 327.5 L 289.5 333 L 289 331.5 L 291.5 326 Z " /><path fill="rgb(0,71,254)" stroke="rgb(0,71,254)" stroke-width="1" opacity="0.4666666666666667" d="M 337.5 326 L 338 327.5 L 335.5 333 L 335 331.5 L 337.5 326 Z " /><path fill="rgb(0,71,254)" stroke="rgb(0,71,254)" stroke-width="1" opacity="0.4666666666666667" d="M 175.5 329 L 177 332.5 L 176 332.5 L 175.5 329 Z " /><path fill="rgb(0,71,254)" stroke="rgb(0,71,254)" stroke-width="1" opacity="0.4666666666666667" d="M 177.5 334 L 180 340.5 L 179 340.5 L 177.5 334 Z " /><path fill="rgb(0,71,254)" stroke="rgb(0,71,254)" stroke-width="1" opacity="0.4666666666666667" d="M 223.5 334 L 226 340.5 L 225 340.5 L 223.5 334 Z " /><path fill="rgb(0,71,254)" stroke="rgb(0,71,254)" stroke-width="1" opacity="0.4666666666666667" d="M 288.5 334 L 289 335.5 L 286.5 341 L 286 339.5 L 288.5 334 Z " /><path fill="rgb(0,71,254)" stroke="rgb(0,71,254)" stroke-width="1" opacity="0.4666666666666667" d="M 334.5 334 L 335 335.5 L 332.5 341 L 332 339.5 L 334.5 334 Z " /><path fill="rgb(0,71,254)" stroke="rgb(0,71,254)" stroke-width="1" opacity="0.4666666666666667" d="M 180.5 342 L 183 348.5 L 182 348.5 L 180.5 342 Z " /><path fill="rgb(0,71,254)" stroke="rgb(0,71,254)" stroke-width="1" opacity="0.4666666666666667" d="M 226.5 342 L 229 348.5 L 228 348.5 L 226.5 342 Z " /><path fill="rgb(0,71,254)" stroke="rgb(0,71,254)" stroke-width="1" opacity="0.4666666666666667" d="M 285.5 342 L 286 343.5 L 283.5 349 L 283 347.5 L 285.5 342 Z " /><path fill="rgb(0,71,254)" stroke="rgb(0,71,254)" stroke-width="1" opacity="0.4666666666666667" d="M 331.5 342 L 332 343.5 L 329.5 349 L 329 347.5 L 331.5 342 Z " /><path fill="rgb(0,71,254)" stroke="rgb(0,71,254)" stroke-width="1" opacity="0.4666666666666667" d="M 183.5 350 L 186 356.5 L 185 356.5 L 183.5 350 Z " /><path fill="rgb(0,71,254)" stroke="rgb(0,71,254)" stroke-width="1" opacity="0.4666666666666667" d="M 229.5 350 L 232 356.5 L 231 356.5 L 229.5 350 Z " /><path fill="rgb(0,71,254)" stroke="rgb(0,71,254)" stroke-width="1" opacity="0.4666666666666667" d="M 282.5 350 L 283 351.5 L 280.5 357 L 280 355.5 L 282.5 350 Z " /><path fill="rgb(0,71,254)" stroke="rgb(0,71,254)" stroke-width="1" opacity="0.4666666666666667" d="M 328.5 350 L 329 351.5 L 324.5 362 L 324 360.5 L 328.5 350 Z " /><path fill="rgb(0,71,254)" stroke="rgb(0,71,254)" stroke-width="1" opacity="0.4666666666666667" d="M 186.5 358 L 189 364.5 L 188 364.5 L 186.5 358 Z " /><path fill="rgb(0,71,254)" stroke="rgb(0,71,254)" stroke-width="1" opacity="0.4666666666666667" d="M 232.5 358 L 237 369.5 L 236 369.5 L 232.5 358 Z " /><path fill="rgb(0,71,254)" stroke="rgb(0,71,254)" stroke-width="1" opacity="0.4666666666666667" d="M 279.5 358 L 280 359.5 L 277.5 365 L 277 363.5 L 279.5 358 Z " /><path fill="rgb(0,71,254)" stroke="rgb(0,71,254)" stroke-width="1" opacity="0.4666666666666667" d="M 323.5 363 L 324 364.5 L 321.5 370 L 321 368.5 L 323.5 363 Z " /><path fill="rgb(0,71,254)" stroke="rgb(0,71,254)" stroke-width="1" opacity="0.4666666666666667" d="M 189.5 366 L 192 372.5 L 191 372.5 L 189.5 366 Z " /><path fill="rgb(0,71,254)" stroke="rgb(0,71,254)" stroke-width="1" opacity="0.4666666666666667" d="M 276.5 366 L 277 367.5 L 275.5 370 L 275 368.5 L 276.5 366 Z " /><path fill="rgb(0,71,254)" stroke="rgb(0,71,254)" stroke-width="1" opacity="0.4666666666666667" d="M 237.5 371 L 240 377.5 L 239 377.5 L 237.5 371 Z " /><path fill="rgb(0,71,254)" stroke="rgb(0,71,254)" stroke-width="1" opacity="0.4666666666666667" d="M 274.5 371 L 275 372.5 L 272.5 378 L 272 376.5 L 274.5 371 Z " /><path fill="rgb(0,71,254)" stroke="rgb(0,71,254)" stroke-width="1" opacity="0.4666666666666667" d="M 320.5 371 L 321 372.5 L 318.5 378 L 318 376.5 L 320.5 371 Z " /><path fill="rgb(0,71,254)" stroke="rgb(0,71,254)" stroke-width="1" opacity="0.4666666666666667" d="M 192.5 374 L 194 377.5 L 193 377.5 L 192.5 374 Z " /><path fill="rgb(0,71,254)" stroke="rgb(0,71,254)" stroke-width="1" opacity="0.4666666666666667" d="M 194.5 379 L 197 385.5 L 196 385.5 L 194.5 379 Z " /><path fill="rgb(0,71,254)" stroke="rgb(0,71,254)" stroke-width="1" opacity="0.4666666666666667" d="M 240.5 379 L 243 385.5 L 242 385.5 L 240.5 379 Z " /><path fill="rgb(0,71,254)" stroke="rgb(0,71,254)" stroke-width="1" opacity="0.4666666666666667" d="M 271.5 379 L 272 380.5 L 269.5 386 L 269 384.5 L 271.5 379 Z " /><path fill="rgb(0,71,254)" stroke="rgb(0,71,254)" stroke-width="1" opacity="0.4666666666666667" d="M 317.5 379 L 318 380.5 L 315.5 386 L 315 384.5 L 317.5 379 Z " /><path fill="rgb(0,71,254)" stroke="rgb(0,71,254)" stroke-width="1" opacity="0.4666666666666667" d="M 197.5 387 L 200 393.5 L 199 393.5 L 197.5 387 Z " /><path fill="rgb(0,71,254)" stroke="rgb(0,71,254)" stroke-width="1" opacity="0.4666666666666667" d="M 243.5 387 L 246 393.5 L 245 393.5 L 243.5 387 Z " /><path fill="rgb(0,71,254)" stroke="rgb(0,71,254)" stroke-width="1" opacity="0.4666666666666667" d="M 268.5 387 L 269 388.5 L 266.5 394 L 266 392.5 L 268.5 387 Z " /><path fill="rgb(0,71,254)" stroke="rgb(0,71,254)" stroke-width="1" opacity="0.4666666666666667" d="M 314.5 387 L 315 388.5 L 310.5 399 L 310 397.5 L 314.5 387 Z " /><path fill="rgb(0,71,254)" stroke="rgb(0,71,254)" stroke-width="1" opacity="0.4666666666666667" d="M 200.5 395 L 203 401.5 L 202 401.5 L 200.5 395 Z " /><path fill="rgb(0,71,254)" stroke="rgb(0,71,254)" stroke-width="1" opacity="0.4666666666666667" d="M 246.5 395 L 249 401.5 L 248 401.5 L 246.5 395 Z " /><path fill="rgb(0,71,254)" stroke="rgb(0,71,254)" stroke-width="1" opacity="0.4666666666666667" d="M 265.5 395 L 266 396.5 L 263.5 402 L 263 400.5 L 265.5 395 Z " /><path fill="rgb(0,71,254)" stroke="rgb(0,71,254)" stroke-width="1" opacity="0.4666666666666667" d="M 249.5 403 L 254 414.5 L 253 414.5 L 249.5 403 Z " /><path fill="rgb(0,71,254)" stroke="rgb(0,71,254)" stroke-width="1" opacity="0.4666666666666667" d="M 262.5 403 L 263 404.5 L 260.5 410 L 260 408.5 L 262.5 403 Z " /><path fill="rgb(0,71,254)" stroke="rgb(0,71,254)" stroke-width="1" opacity="0.4666666666666667" d="M 259.5 411 L 260 412.5 L 258.5 415 L 258 413.5 L 259.5 411 Z " /><path fill="rgb(0,71,254)" stroke="rgb(0,71,254)" stroke-width="1" opacity="0.4666666666666667" d="M 254.5 416 L 255 418 Q 257.7 419.1 257 416.5 L 258 416.5 L 257 421 Q 254 422.3 255 418.5 L 254.5 416 Z " /><path fill="rgb(0,71,255)" stroke="rgb(0,71,255)" stroke-width="1" opacity="1" d="M 235 0 L 277 0 L 277 85 L 235 85 L 235 0 Z " /><path fill="rgb(0,71,255)" stroke="rgb(0,71,255)" stroke-width="1" opacity="1" d="M 123.5 13 L 126 14.5 L 167 80 L 133.5 101 L 130 101 L 129 97.5 L 89 35.5 L 123.5 13 Z " /><path fill="rgb(0,71,255)" stroke="rgb(0,71,255)" stroke-width="1" opacity="1" d="M 387.5 13 L 423 35.5 L 380.5 102 L 345 78.5 L 387.5 13 Z " /><path fill="rgb(0,71,255)" stroke="rgb(0,71,255)" stroke-width="1" opacity="1" d="M 101.5 128 L 103.5 129 L 104.5 128 L 407.5 128 L 409.5 128 L 421.5 130 L 432.5 134 Q 444.5 139.9 453 149.5 L 503 217.5 Q 509.4 227.1 512 240.5 L 512 262.5 L 505 282.5 L 495.5 295 Q 493.3 294.3 494 296.5 L 441.5 344 L 440 344 Q 441.1 346.7 438.5 346 L 400.5 381 L 391 388 Q 392.1 390.7 389.5 390 L 351.5 425 L 342 432 Q 343.1 434.7 340.5 434 L 302.5 469 L 293 476 Q 294.1 478.7 291.5 478 L 255.5 510 L 245 500.5 Q 245.8 498.3 243.5 499 L 227 484.5 Q 227.8 482.3 225.5 483 L 196 456.5 Q 196.8 454.3 194.5 455 L 147 412.5 Q 147.8 410.3 145.5 411 L 108 377.5 Q 108.8 375.3 106.5 376 L 101 372 Q 102.1 369.3 99.5 370 L 98 367 L 90 361.5 Q 90.8 359.3 88.5 360 L 59 333.5 Q 59.8 331.3 57.5 332 L 41 317.5 Q 41.8 315.3 39.5 316 L 20 298.5 Q 20.8 296.3 18.5 297 Q 7.4 286.6 2 270.5 L 0 262.5 L 0 240.5 Q 2.6 227.1 9 217.5 L 44 169 Q 46.7 170.1 46 167.5 L 64.5 144 Q 73 136.5 84.5 132 L 101.5 128 Z M 104 170 L 95 174 L 85 185 L 49 235 L 156 235 L 158 233 L 182 173 L 181 170 L 107 170 L 106 171 L 104 170 Z M 229 170 L 226 174 L 202 234 L 203 235 L 310 235 L 285 172 L 284 170 L 229 170 Z M 332 170 L 330 172 L 353 230 L 357 235 L 463 235 L 423 180 Q 419 173 410 171 L 408 171 L 406 170 L 332 170 Z M 61 277 L 65 282 L 84 299 Q 86 298 85 301 L 105 317 L 107 321 Q 116 326 123 334 Q 125 333 124 336 L 134 343 L 202 404 L 205 407 L 157 279 L 156 277 L 61 277 Z M 202 277 L 207 295 L 209 297 L 223 334 L 224 340 L 226 342 L 255 419 Q 254 422 257 421 L 310 280 L 310 277 L 202 277 Z M 357 277 L 343 310 L 340 321 L 307 406 L 308 407 L 319 397 Q 321 398 320 395 L 322 395 L 347 372 Q 349 373 348 371 L 355 365 Q 357 366 356 364 L 387 336 Q 389 337 388 334 L 390 334 L 415 311 Q 417 312 416 310 L 423 304 Q 425 305 424 303 L 452 278 L 357 277 Z " /></svg>