<svg width="512" height="512" version="1.1" xmlns="http://www.w3.org/2000/svg" desc="Created with imagetracer.js version 1.2.6" ><path fill="rgb(161,161,170)" stroke="rgb(161,161,170)" stroke-width="1" opacity="0.9725490196078431" d="M 249.5 0 L 262.5 0 Q 269.9 2.6 274 8.5 L 278 17.5 L 278 108 L 286.5 109 L 311.5 116 L 354 42.5 L 358.5 37 L 367.5 32 L 378.5 32 Q 387.5 34.4 392 41.5 Q 396.5 47 395 58.5 L 386 76.5 L 352 133.5 L 350 139.5 L 371 159.5 L 373.5 163 L 444.5 121 Q 451 115.5 463.5 116 Q 473.4 118.1 478 125.5 Q 483.2 131.3 481 144.5 Q 478.4 151.9 472.5 156 L 396 200.5 L 403 225.5 L 404 234 L 494.5 234 Q 504.5 236 509 243.5 Q 514.2 249.3 512 262.5 Q 509.4 269.9 503.5 274 L 494.5 278 L 404 278 Q 401.8 297.4 395 312 L 469.5 354 L 478 361.5 Q 482.7 367.4 481 379.5 Q 478.9 387.9 472.5 392 L 463.5 396 L 455.5 396 L 449.5 394 L 378.5 352 L 372.5 350 L 352.5 371 L 349 373.5 L 391 444.5 L 395 453.5 L 395 463.5 Q 392.5 472.5 385.5 477 Q 379.7 481.7 367.5 480 Q 360.1 477.9 356 472.5 L 311.5 396 L 286.5 403 L 278 404 L 278 494.5 Q 275.9 504.4 268.5 509 Q 262.7 514.2 249.5 512 Q 241.4 509.1 237 502.5 L 234 494.5 L 234 404 L 213.5 400 L 201.5 395 L 196 402.5 L 161 464.5 L 153.5 475 L 144.5 480 L 133.5 480 Q 124.4 477.5 120 470.5 Q 115.5 465 117 453.5 L 122 442.5 L 160 378.5 L 162 372.5 L 141 352.5 L 138.5 349 L 67.5 391 Q 61 396.5 48.5 396 Q 38.6 393.9 34 386.5 Q 28.8 380.7 31 367.5 Q 33.6 360.1 39.5 356 L 116 311.5 L 109 286.5 L 108 278 L 17.5 278 Q 7.6 275.9 3 268.5 Q -2.2 262.7 0 249.5 Q 2.9 241.4 9.5 237 L 17.5 234 L 108 234 L 109 225.5 L 116 200.5 L 42.5 158 L 34 150.5 Q 29.4 144.6 31 132.5 Q 33.1 124.2 39.5 120 L 48.5 116 L 55.5 116 L 62.5 118 L 126.5 156 L 139.5 162 L 159.5 141 L 162 139.5 L 160 133.5 L 118 61.5 Q 115.8 56.7 117 48.5 Q 119.4 39.4 126.5 35 Q 132 30 144.5 32 Q 151.9 34.1 156 39.5 L 200.5 116 L 225.5 109 L 234 108 L 234 17.5 Q 236 7.5 243.5 3 L 249.5 0 Z M 247 150 L 230 153 L 217 157 Q 200 163 188 174 Q 173 186 164 203 L 154 228 L 151 245 L 151 268 L 154 285 Q 161 309 175 326 Q 187 340 204 349 L 226 358 L 248 362 L 265 362 L 287 358 Q 309 351 325 338 Q 339 326 348 310 L 358 285 L 361 268 L 361 245 L 358 228 Q 351 203 337 187 Q 321 167 296 157 L 283 153 L 266 150 L 247 150 Z " /><path fill="rgb(0,0,0)" stroke="rgb(0,0,0)" stroke-width="1" opacity="0" d="M 0 0 L 249 0.5 Q 241 3 237 9.5 L 234 17.5 L 234 108 L 225.5 109 L 200.5 116 L 161 47.5 L 152.5 36 Q 146.5 30 132.5 32 Q 124.4 34.9 120 41.5 Q 115.5 47 117 58.5 L 129 81.5 L 160 133.5 L 162 139.5 L 141 159.5 L 139.5 162 L 133.5 160 L 62.5 118 L 55.5 116 L 48.5 116 Q 38.6 118.1 34 125.5 Q 29.4 131.3 31 143.5 Q 33.1 151.8 39.5 156 L 116 200.5 L 109 225.5 L 108 234 L 17.5 234 Q 7.5 236 3 243.5 L 0.5 249 L 0 0 Z " /><path fill="rgb(0,0,0)" stroke="rgb(0,0,0)" stroke-width="1" opacity="0" d="M 263.5 0 L 512 0 L 512 248.5 L 511 248.5 Q 508.9 240.6 502.5 237 L 494.5 234 L 404 234 L 403 225.5 L 396 200.5 L 469.5 158 L 478 150.5 Q 483.2 144.7 481 131.5 Q 478.4 124.1 472.5 120 L 463.5 116 L 456.5 116 L 444.5 121 L 373.5 163 L 352.5 141 L 350 139.5 L 352 133.5 L 394 61.5 Q 396.3 56.7 395 48.5 Q 392.5 39.4 385.5 35 Q 379.7 30.4 367.5 32 L 357 38.5 L 311.5 116 L 286.5 109 L 278 108 L 278 17.5 Q 275.9 7.6 268.5 3 L 263.5 1 L 263.5 0 Z " /><path fill="rgb(0,0,0)" stroke="rgb(0,0,0)" stroke-width="1" opacity="0" d="M 246.5 150 L 265.5 150 L 282.5 153 L 295.5 157 Q 321 167 337 186.5 Q 351.3 203.2 358 227.5 L 361 244.5 L 361 267.5 L 358 284.5 L 348 309.5 Q 338.7 326.2 324.5 338 Q 308.9 351.4 286.5 358 L 264.5 362 L 247.5 362 L 225.5 358 L 203.5 349 Q 186.8 339.7 175 325.5 Q 160.7 308.8 154 284.5 L 151 267.5 L 151 244.5 L 154 227.5 L 164 202.5 Q 173.3 185.8 187.5 174 Q 199.9 163.4 216.5 157 L 229.5 153 L 246.5 150 Z " /><path fill="rgb(0,0,0)" stroke="rgb(0,0,0)" stroke-width="1" opacity="0" d="M 0.5 263 Q 2.7 270.3 8.5 274 L 17.5 278 L 108 278 L 109 286.5 L 116 311.5 L 42.5 354 L 34 361.5 Q 28.8 367.3 31 380.5 Q 33.6 387.9 39.5 392 L 48.5 396 L 55.5 396 L 67.5 391 L 138.5 349 L 159.5 371 L 162 372.5 L 160 378.5 L 118 450.5 Q 115.8 455.2 117 463.5 Q 119.4 472.5 126.5 477 Q 132.3 481.7 144.5 480 Q 151.9 477.9 156 472.5 L 201.5 395 L 213.5 400 L 234 404 L 234 494.5 Q 236 504.5 243.5 509 L 249 511.5 L 0 512 L 0.5 263 Z " /><path fill="rgb(0,0,0)" stroke="rgb(0,0,0)" stroke-width="1" opacity="0" d="M 511.5 263 L 512 512 L 263 511.5 Q 270.3 509.3 274 503.5 L 278 494.5 L 278 404 L 286.5 403 L 311.5 396 L 351 464.5 L 359.5 476 Q 365.2 481.8 378.5 480 Q 387.5 477.5 392 470.5 Q 396.5 465 395 453.5 L 383 430.5 L 349 373.5 L 371 352.5 L 372.5 350 L 378.5 352 L 449.5 394 Q 454.5 397 463.5 396 Q 473.4 393.9 478 386.5 Q 482.7 380.7 481 368.5 Q 478.9 360.2 472.5 356 L 395 312 Q 401.8 297.4 404 278 L 494.5 278 Q 504.4 275.9 509 268.5 L 511.5 263 Z " /></svg>