<svg width="512" height="512" version="1.1" xmlns="http://www.w3.org/2000/svg" desc="Created with imagetracer.js version 1.2.6" ><path fill="rgb(0,0,0)" stroke="rgb(0,0,0)" stroke-width="1" opacity="0" d="M 0 0 L 206 0.5 L 197 6.5 L 192 16.5 L 192 25.5 L 195 32.5 Q 206 44.5 214 59.5 L 222 76.5 L 230 102.5 L 233 128 L 169.5 128 L 168.5 129 L 160.5 129 L 144.5 132 L 121.5 139 Q 73.9 157.4 44 193.5 Q 26.6 213.6 15 239.5 L 6 264.5 L 2 282.5 L 0.5 297 L 0 0 Z " /><path fill="rgb(0,0,0)" stroke="rgb(0,0,0)" stroke-width="1" opacity="0" d="M 221.5 0 L 352 0.5 L 328.5 5 L 302.5 16 Q 281.4 27.9 266 45.5 L 259.5 54 Q 256.9 54.8 258 51.5 Q 246.2 24.3 227.5 4 L 221.5 1 L 221.5 0 Z " /><path fill="rgb(0,0,0)" stroke="rgb(0,0,0)" stroke-width="1" opacity="0" d="M 371.5 0 L 511.5 0 L 512 0.5 L 512 512 L 344 511.5 L 359.5 510 L 377.5 506 L 405.5 496 Q 436.8 481.3 459 457.5 Q 483.8 431.3 498 394.5 L 507 363.5 L 509 346.5 L 510 345.5 L 510 336.5 L 511 335.5 L 511 302.5 L 510 301.5 L 510 292.5 L 509 291.5 L 507 274.5 Q 502.3 252.7 494 234.5 Q 478.9 201.6 454.5 178 Q 437.8 161.7 416.5 150 L 392.5 139 L 369 131.5 Q 384.2 115.2 394 93.5 L 403 65.5 L 406 40.5 L 404 29.5 L 401 22.5 L 388.5 8 L 377.5 2 L 371.5 1 L 371.5 0 Z " /><path fill="rgb(0,0,0)" stroke="rgb(0,0,0)" stroke-width="1" opacity="0" d="M 358.5 43 L 362 43 L 362 49.5 L 360 59.5 L 354 76.5 Q 347.2 91 338 102 Q 326.1 111.9 310.5 119 L 295.5 124 L 279 126 Q 283.1 86.4 306.5 65 L 329.5 51 L 343.5 46 L 358.5 43 Z " /><path fill="rgb(0,0,0)" stroke="rgb(0,0,0)" stroke-width="1" opacity="0" d="M 174.5 171 L 337.5 171 L 338.5 172 L 353.5 173 Q 406.1 183.9 434 219.5 Q 451.8 240.7 461 270.5 L 467 298.5 L 468 330.5 L 467 331.5 L 467 341.5 L 464 358.5 L 453 390.5 L 438 415.5 L 425 431 L 401.5 449 L 381.5 459 L 353.5 467 L 338.5 468 L 337.5 469 L 326.5 469 L 316.5 467 L 295.5 456 L 281.5 451 L 267.5 448 L 245.5 448 L 225.5 453 Q 210.3 462.3 190.5 467 Q 185.8 465.8 184.5 468 L 159.5 468 L 141.5 464 L 120.5 455 Q 97.5 442 81 422.5 Q 58.9 397.6 48 361.5 L 43 333.5 L 43 303.5 L 48 275.5 Q 52.9 258.4 61 244.5 Q 74 221.5 93.5 205 Q 109.5 191 130.5 182 L 147.5 176 L 174.5 171 Z " /><path fill="rgb(0,0,0)" stroke="rgb(0,0,0)" stroke-width="1" opacity="0" d="M 0.5 343 L 3 361.5 L 6 373.5 Q 12.5 396 23 414.5 Q 40.5 446 66.5 469 Q 86.4 487.1 112.5 499 L 134.5 507 L 161 511.5 L 0 512 L 0.5 343 Z " /><path fill="rgb(0,0,0)" stroke="rgb(0,0,0)" stroke-width="1" opacity="0" d="M 252.5 491 L 261.5 491 L 271.5 493 L 302.5 508 L 320 511.5 L 184.5 512 L 184.5 511 L 191.5 511 L 206.5 508 L 228.5 500 L 236.5 495 L 252.5 491 Z " /><path fill="rgb(179,0,0)" stroke="rgb(179,0,0)" stroke-width="1" opacity="0.984313725490196" d="M 206.5 0 L 220.5 0 L 230 6.5 Q 248.3 26.6 258 54 L 261 52.5 L 278.5 33 Q 296.8 16.3 322.5 7 L 345.5 1 L 370.5 0 Q 387.9 4.1 397 16.5 L 404 29.5 L 406 44.5 L 405 45.5 L 405 54.5 L 403 65.5 L 394 93.5 Q 384.2 115.2 369 131.5 L 392.5 139 L 416.5 150 Q 440.7 163.3 459 182.5 Q 485.6 209.9 500 249.5 L 507 274.5 L 509 291.5 L 510 292.5 L 510 301.5 L 511 302.5 L 511 335.5 L 510 336.5 L 510 345.5 L 509 346.5 L 508 358.5 L 503 379.5 L 492 408.5 Q 476.8 440.8 452.5 464 Q 428.2 487.7 393.5 501 L 359.5 510 L 344.5 511 L 343.5 512 L 320.5 512 L 302.5 508 L 271.5 493 L 261.5 491 L 252.5 491 L 236.5 495 L 221.5 503 L 202.5 509 L 184.5 511 L 183.5 512 L 161.5 512 L 134.5 507 Q 114.6 501.4 98.5 492 Q 69.9 475.6 49 451.5 Q 20.3 419.7 6 373.5 L 0 342.5 L 0 297.5 L 6 264.5 Q 12.5 242 23 223.5 Q 40 193.5 65.5 172 Q 94.5 146.5 136.5 134 L 169.5 128 L 233 128 L 231 107.5 L 225 84.5 L 214 59.5 L 193 28.5 L 192 16.5 Q 193.7 8.2 199.5 4 L 206.5 0 Z M 359 43 L 344 46 L 330 51 L 307 65 Q 283 86 279 126 L 296 124 L 311 119 Q 326 112 338 102 Q 347 91 354 77 L 360 60 L 362 50 L 362 43 L 359 43 Z M 175 171 L 148 176 L 131 182 Q 110 191 94 205 Q 74 222 61 245 Q 53 258 48 276 L 43 304 L 43 334 L 48 362 Q 59 398 81 423 Q 98 442 121 455 L 142 464 L 160 468 L 185 468 Q 186 466 191 467 Q 210 462 226 453 L 246 448 L 268 448 L 282 451 L 296 456 L 317 467 L 327 469 L 338 469 L 339 468 L 354 467 L 382 459 L 402 449 L 425 431 L 438 416 L 453 391 L 464 359 L 467 342 L 467 332 L 468 331 L 467 299 L 461 271 Q 452 241 434 220 Q 406 184 354 173 L 339 172 L 338 171 L 175 171 Z " /></svg>