<svg width="512" height="512" version="1.1" xmlns="http://www.w3.org/2000/svg" desc="Created with imagetracer.js version 1.2.6" ><path fill="rgb(0,0,0)" stroke="rgb(0,0,0)" stroke-width="1" opacity="0" d="M 0 0 L 179 0.5 L 169.5 2 L 153.5 8 Q 137.9 15.9 127 28.5 Q 116.8 39.8 111 55.5 L 107 70.5 L 106 90.5 L 107 91.5 L 107 102.5 L 108 103.5 L 109 116.5 L 112 128 L 52.5 128 Q 27.3 133.3 14 150.5 Q 3.8 161.8 0.5 180 L 0 0 Z " /><path fill="rgb(0,0,0)" stroke="rgb(0,0,0)" stroke-width="1" opacity="0" d="M 205.5 0 L 512 0 L 512 295.5 L 511 295.5 Q 504.8 259.7 480.5 242 Q 468.7 232.3 452.5 227 L 439.5 224 L 412.5 224 L 384 229 L 384 180.5 L 382 172.5 Q 375.5 153.5 361.5 142 Q 349.9 131.6 331.5 128 L 272 128 L 274 121.5 L 276 103.5 L 277 102.5 L 278 78.5 L 277 77.5 L 276 65.5 L 271 50.5 Q 263 33 249.5 21 L 228.5 7 L 214.5 2 L 205.5 1 L 205.5 0 Z " /><path fill="rgb(0,0,0)" stroke="rgb(0,0,0)" stroke-width="1" opacity="0" d="M 187.5 43 L 196.5 43 L 205.5 45 L 215.5 50 L 222 55 L 230 66.5 L 233 74.5 Q 235.4 81.6 234 92.5 L 233 93.5 L 233 100.5 L 229 122.5 L 215 171 L 322.5 171 Q 331.1 172.9 336 178.5 L 341 189.5 L 341 287 L 386.5 273 L 413.5 268 L 431.5 267 Q 450.6 270.4 460 283.5 L 468 299.5 L 469 313.5 L 464 329.5 L 453.5 342 Q 446 348.5 434.5 351 L 416.5 351 L 376.5 343 L 341 332 L 341 469 L 276 469 Q 277.9 464.9 277 456.5 L 278 455.5 L 278 440.5 L 275 424.5 L 266 403.5 Q 258.1 390.4 246.5 381 Q 233.6 370.4 215.5 365 L 198.5 362 L 185.5 362 L 168.5 365 L 147.5 374 Q 134.4 381.9 125 393.5 Q 114.4 406.4 109 424.5 L 106 440.5 L 106 455.5 L 107 456.5 Q 106.1 464.9 108 469 L 43.5 469 L 43 468.5 L 43 189.5 Q 44.9 180.9 50.5 176 L 61.5 171 L 169 171 L 155 122.5 L 151 100.5 L 151 93.5 L 150 92.5 L 150 78.5 Q 153.1 63.6 162.5 55 Q 171.7 45.7 187.5 43 Z " /><path fill="rgb(0,0,0)" stroke="rgb(0,0,0)" stroke-width="1" opacity="0" d="M 511.5 323 L 512 512 L 384 512 L 384 390 L 406.5 394 L 415.5 394 L 416.5 395 L 436.5 395 L 451.5 392 L 466.5 386 Q 482.1 377.7 493 364.5 Q 507.4 348.9 511.5 323 Z " /><path fill="rgb(0,0,0)" stroke="rgb(0,0,0)" stroke-width="1" opacity="0" d="M 185.5 406 L 198.5 406 L 208.5 409 Q 218.6 413.4 225 421.5 Q 235.5 432.5 234 455.5 L 233 456.5 L 231 475.5 L 222 512 L 162.5 512 L 162 510.5 L 152 470.5 L 151 456.5 L 150 455.5 L 150 441.5 Q 153.7 424.2 165.5 415 Q 173.4 408.4 185.5 406 Z " /><path fill="rgb(205,67,175)" stroke="rgb(205,67,175)" stroke-width="1" opacity="0.5333333333333333" d="M 179.5 0 L 186 0.5 L 179.5 1 L 179.5 0 Z " /><path fill="rgb(205,67,175)" stroke="rgb(205,67,175)" stroke-width="1" opacity="0.5333333333333333" d="M 198.5 0 L 205 0.5 L 198.5 1 L 198.5 0 Z " /><path fill="rgb(205,67,175)" stroke="rgb(205,67,175)" stroke-width="1" opacity="0.5333333333333333" d="M 173.5 1 L 178 1.5 L 166.5 4 L 166.5 3 L 173.5 1 Z " /><path fill="rgb(205,67,175)" stroke="rgb(205,67,175)" stroke-width="1" opacity="0.5333333333333333" d="M 206.5 1 L 210.5 1 L 218 3.5 L 215.5 4 Q 212.6 1.4 206.5 2 L 206.5 1 Z " /><path fill="rgb(205,67,175)" stroke="rgb(205,67,175)" stroke-width="1" opacity="0.5333333333333333" d="M 219.5 4 L 226 6.5 L 224.5 7 L 219.5 5 L 219.5 4 Z " /><path fill="rgb(205,67,175)" stroke="rgb(205,67,175)" stroke-width="1" opacity="0.5333333333333333" d="M 160.5 5 L 162 5.5 L 156.5 8 L 156.5 7 L 160.5 5 Z " /><path fill="rgb(205,67,175)" stroke="rgb(205,67,175)" stroke-width="1" opacity="0.5333333333333333" d="M 227.5 7 Q 245.3 14.7 257 28.5 Q 266 38 271 51.5 L 270 51.5 L 266 42.5 L 253 25 L 240.5 15 L 227.5 8 L 227.5 7 Z " /><path fill="rgb(205,67,175)" stroke="rgb(205,67,175)" stroke-width="1" opacity="0.5333333333333333" d="M 153.5 8 L 155 8.5 L 152.5 10 L 153.5 8 Z " /><path fill="rgb(205,67,175)" stroke="rgb(205,67,175)" stroke-width="1" opacity="0.5333333333333333" d="M 150.5 10 L 149.5 12 L 132 24 L 118 42.5 L 113.5 52 L 113 50.5 Q 121 33 134.5 21 L 150.5 10 Z " /><path fill="rgb(205,67,175)" stroke="rgb(205,67,175)" stroke-width="1" opacity="0.5333333333333333" d="M 190.5 42 L 194 42.5 L 190.5 43 L 190.5 42 Z " /><path fill="rgb(205,67,175)" stroke="rgb(205,67,175)" stroke-width="1" opacity="0.5333333333333333" d="M 182.5 43 L 187 43.5 Q 169.9 45.9 161 56.5 L 153.5 68 L 153 66.5 L 164.5 52 L 182.5 43 Z " /><path fill="rgb(205,67,175)" stroke="rgb(205,67,175)" stroke-width="1" opacity="0.5333333333333333" d="M 197.5 43 L 205 44.5 L 202.5 45 L 197.5 44 L 197.5 43 Z " /><path fill="rgb(205,67,175)" stroke="rgb(205,67,175)" stroke-width="1" opacity="0.5333333333333333" d="M 206.5 45 Q 218.3 48.7 225 57.5 L 231 67.5 L 230 67.5 L 222 55 L 215.5 50 L 206.5 46 L 206.5 45 Z " /><path fill="rgb(205,67,175)" stroke="rgb(205,67,175)" stroke-width="1" opacity="0.5333333333333333" d="M 112.5 53 L 113 54.5 L 109.5 64 L 109 61.5 L 112.5 53 Z " /><path fill="rgb(205,67,175)" stroke="rgb(205,67,175)" stroke-width="1" opacity="0.5333333333333333" d="M 271.5 53 Q 275.4 59.1 276 68.5 L 275 68.5 L 271.5 53 Z " /><path fill="rgb(205,67,175)" stroke="rgb(205,67,175)" stroke-width="1" opacity="0.5333333333333333" d="M 108.5 65 L 109 68.5 L 108 68.5 L 108.5 65 Z " /><path fill="rgb(205,67,175)" stroke="rgb(205,67,175)" stroke-width="1" opacity="0.5333333333333333" d="M 152.5 69 L 153 70.5 L 150.5 78 L 150 74.5 L 152.5 69 Z " /><path fill="rgb(205,67,175)" stroke="rgb(205,67,175)" stroke-width="1" opacity="0.5333333333333333" d="M 231.5 69 L 233 73.5 L 232 73.5 L 231.5 69 Z " /><path fill="rgb(205,67,175)" stroke="rgb(205,67,175)" stroke-width="1" opacity="0.5333333333333333" d="M 107.5 70 L 108 75.5 L 107 75.5 L 107.5 70 Z " /><path fill="rgb(205,67,175)" stroke="rgb(205,67,175)" stroke-width="1" opacity="0.5333333333333333" d="M 276.5 70 L 277 75.5 L 276 75.5 L 276.5 70 Z " /><path fill="rgb(205,67,175)" stroke="rgb(205,67,175)" stroke-width="1" opacity="0.5333333333333333" d="M 233.5 75 L 234 77.5 L 233 77.5 L 233.5 75 Z " /><path fill="rgb(205,67,175)" stroke="rgb(205,67,175)" stroke-width="1" opacity="0.5333333333333333" d="M 106.5 78 L 107 90.5 L 106 90.5 L 106.5 78 Z " /><path fill="rgb(205,67,175)" stroke="rgb(205,67,175)" stroke-width="1" opacity="0.5333333333333333" d="M 277.5 78 L 278 90.5 L 277 90.5 L 277.5 78 Z " /><path fill="rgb(205,67,175)" stroke="rgb(205,67,175)" stroke-width="1" opacity="0.5333333333333333" d="M 149.5 80 L 150 90.5 L 149 90.5 L 149.5 80 Z " /><path fill="rgb(205,67,175)" stroke="rgb(205,67,175)" stroke-width="1" opacity="0.5333333333333333" d="M 234.5 80 L 235 89.5 L 234 89.5 L 234.5 80 Z " /><path fill="rgb(205,67,175)" stroke="rgb(205,67,175)" stroke-width="1" opacity="0.5333333333333333" d="M 150.5 93 L 151 99.5 L 150 99.5 L 150.5 93 Z " /><path fill="rgb(205,67,175)" stroke="rgb(205,67,175)" stroke-width="1" opacity="0.5333333333333333" d="M 233.5 93 L 234 99.5 L 233 99.5 L 233.5 93 Z " /><path fill="rgb(205,67,175)" stroke="rgb(205,67,175)" stroke-width="1" opacity="0.5333333333333333" d="M 107.5 95 L 108 102.5 L 107 102.5 L 107.5 95 Z " /><path fill="rgb(205,67,175)" stroke="rgb(205,67,175)" stroke-width="1" opacity="0.5333333333333333" d="M 276.5 95 L 277 102.5 L 276 102.5 L 276.5 95 Z " /><path fill="rgb(205,67,175)" stroke="rgb(205,67,175)" stroke-width="1" opacity="0.5333333333333333" d="M 151.5 101 L 152 106.5 L 151 106.5 L 151.5 101 Z " /><path fill="rgb(205,67,175)" stroke="rgb(205,67,175)" stroke-width="1" opacity="0.5333333333333333" d="M 232.5 101 L 233 106.5 L 232 106.5 L 232.5 101 Z " /><path fill="rgb(205,67,175)" stroke="rgb(205,67,175)" stroke-width="1" opacity="0.5333333333333333" d="M 275.5 104 L 276 109.5 L 275 109.5 L 275.5 104 Z " /><path fill="rgb(205,67,175)" stroke="rgb(205,67,175)" stroke-width="1" opacity="0.5333333333333333" d="M 108.5 105 L 109 109.5 L 108 109.5 L 108.5 105 Z " /><path fill="rgb(205,67,175)" stroke="rgb(205,67,175)" stroke-width="1" opacity="0.5333333333333333" d="M 152.5 108 L 153 111.5 L 152 111.5 L 152.5 108 Z " /><path fill="rgb(205,67,175)" stroke="rgb(205,67,175)" stroke-width="1" opacity="0.5333333333333333" d="M 231.5 108 L 232 111.5 L 231 111.5 L 231.5 108 Z " /><path fill="rgb(205,67,175)" stroke="rgb(205,67,175)" stroke-width="1" opacity="0.5333333333333333" d="M 109.5 111 L 110 116.5 L 109 116.5 L 109.5 111 Z " /><path fill="rgb(205,67,175)" stroke="rgb(205,67,175)" stroke-width="1" opacity="0.5333333333333333" d="M 274.5 111 L 275 116.5 L 274 116.5 L 274.5 111 Z " /><path fill="rgb(205,67,175)" stroke="rgb(205,67,175)" stroke-width="1" opacity="0.5333333333333333" d="M 153.5 113 L 154 116.5 L 153 116.5 L 153.5 113 Z " /><path fill="rgb(205,67,175)" stroke="rgb(205,67,175)" stroke-width="1" opacity="0.5333333333333333" d="M 230.5 113 L 231 116.5 L 230 116.5 L 230.5 113 Z " /><path fill="rgb(205,67,175)" stroke="rgb(205,67,175)" stroke-width="1" opacity="0.5333333333333333" d="M 110.5 118 L 112 125.5 L 111 125.5 L 110.5 118 Z " /><path fill="rgb(205,67,175)" stroke="rgb(205,67,175)" stroke-width="1" opacity="0.5333333333333333" d="M 154.5 118 L 155 121.5 L 154 121.5 L 154.5 118 Z " /><path fill="rgb(205,67,175)" stroke="rgb(205,67,175)" stroke-width="1" opacity="0.5333333333333333" d="M 229.5 118 L 230 121.5 L 229 121.5 L 229.5 118 Z " /><path fill="rgb(205,67,175)" stroke="rgb(205,67,175)" stroke-width="1" opacity="0.5333333333333333" d="M 273.5 118 L 274 121.5 L 272.5 126 L 272 122.5 L 273.5 118 Z " /><path fill="rgb(205,67,175)" stroke="rgb(205,67,175)" stroke-width="1" opacity="0.5333333333333333" d="M 155.5 123 L 156 125.5 L 155 125.5 L 155.5 123 Z " /><path fill="rgb(205,67,175)" stroke="rgb(205,67,175)" stroke-width="1" opacity="0.5333333333333333" d="M 228.5 123 L 229 125.5 L 228 125.5 L 228.5 123 Z " /><path fill="rgb(205,67,175)" stroke="rgb(205,67,175)" stroke-width="1" opacity="0.5333333333333333" d="M 156.5 127 L 157 129.5 L 156 129.5 L 156.5 127 Z " /><path fill="rgb(205,67,175)" stroke="rgb(205,67,175)" stroke-width="1" opacity="0.5333333333333333" d="M 227.5 127 L 228 129.5 L 227 129.5 L 227.5 127 Z " /><path fill="rgb(205,67,175)" stroke="rgb(205,67,175)" stroke-width="1" opacity="0.5333333333333333" d="M 52.5 128 L 59 128.5 L 52.5 129 L 52.5 128 Z " /><path fill="rgb(205,67,175)" stroke="rgb(205,67,175)" stroke-width="1" opacity="0.5333333333333333" d="M 325.5 128 L 332 128.5 L 325.5 129 L 325.5 128 Z " /><path fill="rgb(205,67,175)" stroke="rgb(205,67,175)" stroke-width="1" opacity="0.5333333333333333" d="M 48.5 129 L 51 129.5 L 48.5 130 L 48.5 129 Z " /><path fill="rgb(205,67,175)" stroke="rgb(205,67,175)" stroke-width="1" opacity="0.5333333333333333" d="M 333.5 129 L 336 129.5 L 333.5 130 L 333.5 129 Z " /><path fill="rgb(205,67,175)" stroke="rgb(205,67,175)" stroke-width="1" opacity="0.5333333333333333" d="M 44.5 130 L 47 130.5 L 37.5 134 L 37.5 133 L 44.5 130 Z " /><path fill="rgb(205,67,175)" stroke="rgb(205,67,175)" stroke-width="1" opacity="0.5333333333333333" d="M 337.5 130 L 345 132.5 L 343.5 133 L 337.5 131 L 337.5 130 Z " /><path fill="rgb(205,67,175)" stroke="rgb(205,67,175)" stroke-width="1" opacity="0.5333333333333333" d="M 157.5 131 L 159 136.5 L 158 136.5 L 157.5 131 Z " /><path fill="rgb(205,67,175)" stroke="rgb(205,67,175)" stroke-width="1" opacity="0.5333333333333333" d="M 226.5 131 L 227 133.5 L 225.5 137 L 225 134.5 L 226.5 131 Z " /><path fill="rgb(205,67,175)" stroke="rgb(205,67,175)" stroke-width="1" opacity="0.5333333333333333" d="M 346.5 133 Q 360.8 139.2 370 150.5 L 377 161.5 L 375 160.5 Q 371.1 150.9 363.5 145 Q 356.5 138 346.5 134 L 346.5 133 Z " /><path fill="rgb(205,67,175)" stroke="rgb(205,67,175)" stroke-width="1" opacity="0.5333333333333333" d="M 34.5 134 L 36 134.5 Q 24.8 139.8 17 148.5 L 6.5 164 L 6 162.5 Q 12.4 150.4 22.5 142 L 34.5 134 Z " /><path fill="rgb(205,67,175)" stroke="rgb(205,67,175)" stroke-width="1" opacity="0.5333333333333333" d="M 159.5 138 L 163 149.5 L 162 149.5 L 159 140.5 L 159.5 138 Z " /><path fill="rgb(205,67,175)" stroke="rgb(205,67,175)" stroke-width="1" opacity="0.5333333333333333" d="M 224.5 138 L 225 140.5 L 222.5 147 L 222 144.5 L 224.5 138 Z " /><path fill="rgb(205,67,175)" stroke="rgb(205,67,175)" stroke-width="1" opacity="0.5333333333333333" d="M 163.5 151 L 166 159.5 L 165 159.5 L 163.5 151 Z " /><path fill="rgb(205,67,175)" stroke="rgb(205,67,175)" stroke-width="1" opacity="0.5333333333333333" d="M 220.5 151 L 221 153.5 L 218.5 160 L 218 157.5 L 220.5 151 Z " /><path fill="rgb(205,67,175)" stroke="rgb(205,67,175)" stroke-width="1" opacity="0.5333333333333333" d="M 166.5 161 L 169 171 L 62 170.5 L 168 170 L 166.5 161 Z " /><path fill="rgb(205,67,175)" stroke="rgb(205,67,175)" stroke-width="1" opacity="0.5333333333333333" d="M 217.5 161 L 218 163.5 L 216 170 L 322 170.5 L 215 171 L 217.5 161 Z " /><path fill="rgb(205,67,175)" stroke="rgb(205,67,175)" stroke-width="1" opacity="0.5333333333333333" d="M 377.5 163 L 382 174.5 L 381 174.5 L 377.5 163 Z " /><path fill="rgb(205,67,175)" stroke="rgb(205,67,175)" stroke-width="1" opacity="0.5333333333333333" d="M 5.5 165 L 6 166.5 L 2.5 175 L 2 172.5 L 5.5 165 Z " /><path fill="rgb(205,67,175)" stroke="rgb(205,67,175)" stroke-width="1" opacity="0.5333333333333333" d="M 57.5 171 L 61 171.5 Q 52.5 173 48 178.5 L 43.5 189 L 43 185.5 Q 45.6 178.1 51.5 174 L 57.5 171 Z " /><path fill="rgb(205,67,175)" stroke="rgb(205,67,175)" stroke-width="1" opacity="0.5333333333333333" d="M 323.5 171 Q 333.6 172.4 338 179.5 L 341 185.5 L 341 188.5 L 340 188.5 Q 338.9 180.1 333.5 176 L 326.5 172 L 323.5 172 L 323.5 171 Z " /><path fill="rgb(205,67,175)" stroke="rgb(205,67,175)" stroke-width="1" opacity="0.5333333333333333" d="M 1.5 176 L 2 178.5 L 1 178.5 L 1.5 176 Z " /><path fill="rgb(205,67,175)" stroke="rgb(205,67,175)" stroke-width="1" opacity="0.5333333333333333" d="M 382.5 176 L 383 178.5 L 382 178.5 L 382.5 176 Z " /><path fill="rgb(205,67,175)" stroke="rgb(205,67,175)" stroke-width="1" opacity="0.5333333333333333" d="M 0.5 180 L 1 186.5 L 0 186.5 L 0.5 180 Z " /><path fill="rgb(205,67,175)" stroke="rgb(205,67,175)" stroke-width="1" opacity="0.5333333333333333" d="M 383.5 180 L 384 186.5 L 383 186.5 L 383.5 180 Z " /><path fill="rgb(205,67,175)" stroke="rgb(205,67,175)" stroke-width="1" opacity="0.5333333333333333" d="M 42.5 190 L 43 469 L 107.5 469 L 108 467.5 L 109 467.5 L 107.5 470 L 43.5 470 L 42 468.5 L 42.5 190 Z " /><path fill="rgb(205,67,175)" stroke="rgb(205,67,175)" stroke-width="1" opacity="0.5333333333333333" d="M 341.5 190 L 342.5 286 L 348.5 284 L 348.5 285 L 341 287 L 341.5 190 Z " /><path fill="rgb(205,67,175)" stroke="rgb(205,67,175)" stroke-width="1" opacity="0.5333333333333333" d="M 412.5 224 L 423 224.5 L 412.5 225 L 412.5 224 Z " /><path fill="rgb(205,67,175)" stroke="rgb(205,67,175)" stroke-width="1" opacity="0.5333333333333333" d="M 433.5 224 L 440 224.5 L 433.5 225 L 433.5 224 Z " /><path fill="rgb(205,67,175)" stroke="rgb(205,67,175)" stroke-width="1" opacity="0.5333333333333333" d="M 404.5 225 L 410 225.5 L 404.5 226 L 404.5 225 Z " /><path fill="rgb(205,67,175)" stroke="rgb(205,67,175)" stroke-width="1" opacity="0.5333333333333333" d="M 441.5 225 L 445 225.5 L 441.5 226 L 441.5 225 Z " /><path fill="rgb(205,67,175)" stroke="rgb(205,67,175)" stroke-width="1" opacity="0.5333333333333333" d="M 398.5 226 L 403 226.5 L 398.5 227 L 398.5 226 Z " /><path fill="rgb(205,67,175)" stroke="rgb(205,67,175)" stroke-width="1" opacity="0.5333333333333333" d="M 446.5 226 L 449 226.5 L 446.5 227 L 446.5 226 Z " /><path fill="rgb(205,67,175)" stroke="rgb(205,67,175)" stroke-width="1" opacity="0.5333333333333333" d="M 392.5 227 L 396 227.5 L 392.5 228 L 392.5 227 Z " /><path fill="rgb(205,67,175)" stroke="rgb(205,67,175)" stroke-width="1" opacity="0.5333333333333333" d="M 450.5 227 L 458 229.5 L 456.5 230 L 450.5 228 L 450.5 227 Z " /><path fill="rgb(205,67,175)" stroke="rgb(205,67,175)" stroke-width="1" opacity="0.5333333333333333" d="M 388.5 228 L 391 228.5 L 388.5 229 L 388.5 228 Z " /><path fill="rgb(205,67,175)" stroke="rgb(205,67,175)" stroke-width="1" opacity="0.5333333333333333" d="M 384.5 229 L 387 229.5 L 384.5 230 L 384.5 229 Z " /><path fill="rgb(205,67,175)" stroke="rgb(205,67,175)" stroke-width="1" opacity="0.5333333333333333" d="M 459.5 230 Q 480.9 238.6 494 255.5 Q 501.6 264.4 506 276.5 L 505 276.5 Q 496.8 255.7 480.5 243 Q 471.6 235.4 459.5 231 L 459.5 230 Z " /><path fill="rgb(205,67,175)" stroke="rgb(205,67,175)" stroke-width="1" opacity="0.5333333333333333" d="M 425.5 266 L 429 266.5 L 425.5 267 L 425.5 266 Z " /><path fill="rgb(205,67,175)" stroke="rgb(205,67,175)" stroke-width="1" opacity="0.5333333333333333" d="M 415.5 267 L 423 267.5 L 415.5 268 L 415.5 267 Z " /><path fill="rgb(205,67,175)" stroke="rgb(205,67,175)" stroke-width="1" opacity="0.5333333333333333" d="M 432.5 267 L 436 267.5 L 432.5 268 L 432.5 267 Z " /><path fill="rgb(205,67,175)" stroke="rgb(205,67,175)" stroke-width="1" opacity="0.5333333333333333" d="M 408.5 268 L 413 268.5 L 408.5 269 L 408.5 268 Z " /><path fill="rgb(205,67,175)" stroke="rgb(205,67,175)" stroke-width="1" opacity="0.5333333333333333" d="M 437.5 268 Q 453.9 272.1 462 284.5 Q 466.9 289.6 468 298.5 L 467 298.5 Q 463.6 283.4 452.5 276 Q 447.3 270.2 437.5 269 L 437.5 268 Z " /><path fill="rgb(205,67,175)" stroke="rgb(205,67,175)" stroke-width="1" opacity="0.5333333333333333" d="M 401.5 269 L 406 269.5 L 401.5 270 L 401.5 269 Z " /><path fill="rgb(205,67,175)" stroke="rgb(205,67,175)" stroke-width="1" opacity="0.5333333333333333" d="M 396.5 270 L 400 270.5 L 396.5 271 L 396.5 270 Z " /><path fill="rgb(205,67,175)" stroke="rgb(205,67,175)" stroke-width="1" opacity="0.5333333333333333" d="M 391.5 271 L 395 271.5 L 387.5 273 L 387.5 272 L 391.5 271 Z " /><path fill="rgb(205,67,175)" stroke="rgb(205,67,175)" stroke-width="1" opacity="0.5333333333333333" d="M 383.5 273 L 386 273.5 L 376.5 276 L 376.5 275 L 383.5 273 Z " /><path fill="rgb(205,67,175)" stroke="rgb(205,67,175)" stroke-width="1" opacity="0.5333333333333333" d="M 372.5 276 L 375 276.5 L 363.5 280 L 363.5 279 L 372.5 276 Z " /><path fill="rgb(205,67,175)" stroke="rgb(205,67,175)" stroke-width="1" opacity="0.5333333333333333" d="M 506.5 278 L 509 285.5 L 508 285.5 L 506.5 278 Z " /><path fill="rgb(205,67,175)" stroke="rgb(205,67,175)" stroke-width="1" opacity="0.5333333333333333" d="M 356.5 281 L 359 281.5 L 353.5 283 L 353.5 282 L 356.5 281 Z " /><path fill="rgb(205,67,175)" stroke="rgb(205,67,175)" stroke-width="1" opacity="0.5333333333333333" d="M 509.5 287 L 510 289.5 L 509 289.5 L 509.5 287 Z " /><path fill="rgb(205,67,175)" stroke="rgb(205,67,175)" stroke-width="1" opacity="0.5333333333333333" d="M 510.5 291 L 511 294.5 L 510 294.5 L 510.5 291 Z " /><path fill="rgb(205,67,175)" stroke="rgb(205,67,175)" stroke-width="1" opacity="0.5333333333333333" d="M 511.5 296 L 512 302.5 L 511 302.5 L 511.5 296 Z " /><path fill="rgb(205,67,175)" stroke="rgb(205,67,175)" stroke-width="1" opacity="0.5333333333333333" d="M 468.5 300 L 469 304.5 L 468 304.5 L 468.5 300 Z " /><path fill="rgb(205,67,175)" stroke="rgb(205,67,175)" stroke-width="1" opacity="0.5333333333333333" d="M 469.5 307 L 470 310.5 L 469 310.5 L 469.5 307 Z " /><path fill="rgb(205,67,175)" stroke="rgb(205,67,175)" stroke-width="1" opacity="0.5333333333333333" d="M 468.5 314 L 469 318.5 L 467.5 322 L 467 319.5 L 468.5 314 Z " /><path fill="rgb(205,67,175)" stroke="rgb(205,67,175)" stroke-width="1" opacity="0.5333333333333333" d="M 511.5 315 L 512 322.5 L 511 322.5 L 511.5 315 Z " /><path fill="rgb(205,67,175)" stroke="rgb(205,67,175)" stroke-width="1" opacity="0.5333333333333333" d="M 466.5 323 L 467 324.5 L 465.5 327 L 465 325.5 L 466.5 323 Z " /><path fill="rgb(205,67,175)" stroke="rgb(205,67,175)" stroke-width="1" opacity="0.5333333333333333" d="M 510.5 324 L 511 327.5 L 510 327.5 L 510.5 324 Z " /><path fill="rgb(205,67,175)" stroke="rgb(205,67,175)" stroke-width="1" opacity="0.5333333333333333" d="M 464.5 328 L 465 329.5 L 452.5 344 Q 445.2 349.7 434.5 352 L 418.5 352 L 418.5 351 Q 432.8 352.8 441.5 349 Q 452.3 344.8 459 336.5 L 464.5 328 Z " /><path fill="rgb(205,67,175)" stroke="rgb(205,67,175)" stroke-width="1" opacity="0.5333333333333333" d="M 509.5 329 L 510 331.5 L 509 331.5 L 509.5 329 Z " /><path fill="rgb(205,67,175)" stroke="rgb(205,67,175)" stroke-width="1" opacity="0.5333333333333333" d="M 341 332 L 350 334.5 L 347.5 335 L 342 333 L 342 468.5 L 340.5 470 L 276.5 470 L 275 468.5 L 275.5 467 L 276 469 L 341 469 L 341 332 Z " /><path fill="rgb(205,67,175)" stroke="rgb(205,67,175)" stroke-width="1" opacity="0.5333333333333333" d="M 508.5 333 L 509 335.5 Q 500.4 360.9 481.5 376 Q 468.8 387.3 449.5 392 L 449.5 391 Q 475.9 383.9 491 365.5 Q 503 352.5 508.5 333 Z " /><path fill="rgb(205,67,175)" stroke="rgb(205,67,175)" stroke-width="1" opacity="0.5333333333333333" d="M 351.5 335 L 363 338.5 L 360.5 339 L 351.5 336 L 351.5 335 Z " /><path fill="rgb(205,67,175)" stroke="rgb(205,67,175)" stroke-width="1" opacity="0.5333333333333333" d="M 364.5 339 L 370 340.5 L 367.5 341 L 364.5 340 L 364.5 339 Z " /><path fill="rgb(205,67,175)" stroke="rgb(205,67,175)" stroke-width="1" opacity="0.5333333333333333" d="M 377.5 343 L 380 343.5 L 377.5 344 L 377.5 343 Z " /><path fill="rgb(205,67,175)" stroke="rgb(205,67,175)" stroke-width="1" opacity="0.5333333333333333" d="M 381.5 344 L 384 344.5 L 381.5 345 L 381.5 344 Z " /><path fill="rgb(205,67,175)" stroke="rgb(205,67,175)" stroke-width="1" opacity="0.5333333333333333" d="M 385.5 345 L 392 346.5 L 388.5 347 L 385.5 346 L 385.5 345 Z " /><path fill="rgb(205,67,175)" stroke="rgb(205,67,175)" stroke-width="1" opacity="0.5333333333333333" d="M 393.5 347 L 397 347.5 L 393.5 348 L 393.5 347 Z " /><path fill="rgb(205,67,175)" stroke="rgb(205,67,175)" stroke-width="1" opacity="0.5333333333333333" d="M 398.5 348 L 402 348.5 L 398.5 349 L 398.5 348 Z " /><path fill="rgb(205,67,175)" stroke="rgb(205,67,175)" stroke-width="1" opacity="0.5333333333333333" d="M 403.5 349 L 409 349.5 L 403.5 350 L 403.5 349 Z " /><path fill="rgb(205,67,175)" stroke="rgb(205,67,175)" stroke-width="1" opacity="0.5333333333333333" d="M 410.5 350 L 416 350.5 L 410.5 351 L 410.5 350 Z " /><path fill="rgb(205,67,175)" stroke="rgb(205,67,175)" stroke-width="1" opacity="0.5333333333333333" d="M 185.5 362 L 199 362.5 L 185.5 363 L 185.5 362 Z " /><path fill="rgb(205,67,175)" stroke="rgb(205,67,175)" stroke-width="1" opacity="0.5333333333333333" d="M 177.5 363 L 182 363.5 L 177.5 364 L 177.5 363 Z " /><path fill="rgb(205,67,175)" stroke="rgb(205,67,175)" stroke-width="1" opacity="0.5333333333333333" d="M 202.5 363 L 207 363.5 L 202.5 364 L 202.5 363 Z " /><path fill="rgb(205,67,175)" stroke="rgb(205,67,175)" stroke-width="1" opacity="0.5333333333333333" d="M 172.5 364 L 176 364.5 L 172.5 365 L 172.5 364 Z " /><path fill="rgb(205,67,175)" stroke="rgb(205,67,175)" stroke-width="1" opacity="0.5333333333333333" d="M 208.5 364 L 212 364.5 L 208.5 365 L 208.5 364 Z " /><path fill="rgb(205,67,175)" stroke="rgb(205,67,175)" stroke-width="1" opacity="0.5333333333333333" d="M 168.5 365 L 171 365.5 L 165.5 367 L 165.5 366 L 168.5 365 Z " /><path fill="rgb(205,67,175)" stroke="rgb(205,67,175)" stroke-width="1" opacity="0.5333333333333333" d="M 213.5 365 L 219 366.5 L 216.5 367 L 213.5 366 L 213.5 365 Z " /><path fill="rgb(205,67,175)" stroke="rgb(205,67,175)" stroke-width="1" opacity="0.5333333333333333" d="M 162.5 367 L 164 367.5 Q 141 375.5 127 392.5 Q 116.9 403.9 111.5 420 L 111 418.5 Q 119.8 395.3 137.5 381 Q 148.2 372.2 162.5 367 Z " /><path fill="rgb(205,67,175)" stroke="rgb(205,67,175)" stroke-width="1" opacity="0.5333333333333333" d="M 220.5 367 Q 244.7 375.3 259 393.5 Q 268.1 404.4 273 419.5 L 272 419.5 Q 264.3 396.7 247.5 383 L 236.5 375 L 220.5 368 L 220.5 367 Z " /><path fill="rgb(205,67,175)" stroke="rgb(205,67,175)" stroke-width="1" opacity="0.5333333333333333" d="M 384.5 389 L 388 389.5 L 384.5 390 L 384.5 389 Z " /><path fill="rgb(205,67,175)" stroke="rgb(205,67,175)" stroke-width="1" opacity="0.5333333333333333" d="M 389.5 390 L 393 390.5 L 389.5 391 L 389.5 390 Z " /><path fill="rgb(205,67,175)" stroke="rgb(205,67,175)" stroke-width="1" opacity="0.5333333333333333" d="M 394.5 391 L 399 391.5 L 394.5 392 L 394.5 391 Z " /><path fill="rgb(205,67,175)" stroke="rgb(205,67,175)" stroke-width="1" opacity="0.5333333333333333" d="M 400.5 392 L 405 392.5 L 400.5 393 L 400.5 392 Z " /><path fill="rgb(205,67,175)" stroke="rgb(205,67,175)" stroke-width="1" opacity="0.5333333333333333" d="M 445.5 392 L 448 392.5 L 445.5 393 L 445.5 392 Z " /><path fill="rgb(205,67,175)" stroke="rgb(205,67,175)" stroke-width="1" opacity="0.5333333333333333" d="M 406.5 393 L 414 393.5 L 406.5 394 L 406.5 393 Z " /><path fill="rgb(205,67,175)" stroke="rgb(205,67,175)" stroke-width="1" opacity="0.5333333333333333" d="M 439.5 393 L 444 393.5 L 439.5 394 L 439.5 393 Z " /><path fill="rgb(205,67,175)" stroke="rgb(205,67,175)" stroke-width="1" opacity="0.5333333333333333" d="M 416.5 394 L 437 394.5 L 416.5 395 L 416.5 394 Z " /><path fill="rgb(205,67,175)" stroke="rgb(205,67,175)" stroke-width="1" opacity="0.5333333333333333" d="M 186.5 405 L 198 405.5 L 186.5 406 L 186.5 405 Z " /><path fill="rgb(205,67,175)" stroke="rgb(205,67,175)" stroke-width="1" opacity="0.5333333333333333" d="M 181.5 406 L 185 406.5 Q 167.8 409.8 159 421.5 Q 152.4 428.9 150.5 441 L 150 437.5 Q 154.4 422.4 165.5 414 L 181.5 406 Z " /><path fill="rgb(205,67,175)" stroke="rgb(205,67,175)" stroke-width="1" opacity="0.5333333333333333" d="M 199.5 406 Q 217.5 409 226 421.5 Q 232.6 428.4 234 440.5 L 233 440.5 Q 230.2 423.3 218.5 415 Q 211.6 408.4 199.5 407 L 199.5 406 Z " /><path fill="rgb(205,67,175)" stroke="rgb(205,67,175)" stroke-width="1" opacity="0.5333333333333333" d="M 110.5 421 L 111 423.5 L 109.5 427 L 109 424.5 L 110.5 421 Z " /><path fill="rgb(205,67,175)" stroke="rgb(205,67,175)" stroke-width="1" opacity="0.5333333333333333" d="M 273.5 421 L 275 426.5 L 274 426.5 L 273.5 421 Z " /><path fill="rgb(205,67,175)" stroke="rgb(205,67,175)" stroke-width="1" opacity="0.5333333333333333" d="M 108.5 428 L 109 431.5 L 108 431.5 L 108.5 428 Z " /><path fill="rgb(205,67,175)" stroke="rgb(205,67,175)" stroke-width="1" opacity="0.5333333333333333" d="M 275.5 428 L 276 431.5 L 275 431.5 L 275.5 428 Z " /><path fill="rgb(205,67,175)" stroke="rgb(205,67,175)" stroke-width="1" opacity="0.5333333333333333" d="M 107.5 433 L 108 437.5 L 107 437.5 L 107.5 433 Z " /><path fill="rgb(205,67,175)" stroke="rgb(205,67,175)" stroke-width="1" opacity="0.5333333333333333" d="M 276.5 433 L 277 437.5 L 276 437.5 L 276.5 433 Z " /><path fill="rgb(205,67,175)" stroke="rgb(205,67,175)" stroke-width="1" opacity="0.5333333333333333" d="M 106.5 440 L 107 455.5 L 106 455.5 L 106.5 440 Z " /><path fill="rgb(205,67,175)" stroke="rgb(205,67,175)" stroke-width="1" opacity="0.5333333333333333" d="M 277.5 440 L 278 455.5 L 277 455.5 L 277.5 440 Z " /><path fill="rgb(205,67,175)" stroke="rgb(205,67,175)" stroke-width="1" opacity="0.5333333333333333" d="M 149.5 442 L 150 453.5 L 149 453.5 L 149.5 442 Z " /><path fill="rgb(205,67,175)" stroke="rgb(205,67,175)" stroke-width="1" opacity="0.5333333333333333" d="M 234.5 442 L 235 453.5 L 234 453.5 L 234.5 442 Z " /><path fill="rgb(205,67,175)" stroke="rgb(205,67,175)" stroke-width="1" opacity="0.5333333333333333" d="M 150.5 456 L 151 462.5 L 150 462.5 L 150.5 456 Z " /><path fill="rgb(205,67,175)" stroke="rgb(205,67,175)" stroke-width="1" opacity="0.5333333333333333" d="M 233.5 456 L 234 462.5 L 233 462.5 L 233.5 456 Z " /><path fill="rgb(205,67,175)" stroke="rgb(205,67,175)" stroke-width="1" opacity="0.5333333333333333" d="M 107.5 459 L 108 465.5 L 107 465.5 L 107.5 459 Z " /><path fill="rgb(205,67,175)" stroke="rgb(205,67,175)" stroke-width="1" opacity="0.5333333333333333" d="M 276.5 459 L 277 465.5 L 276 465.5 L 276.5 459 Z " /><path fill="rgb(205,67,175)" stroke="rgb(205,67,175)" stroke-width="1" opacity="0.5333333333333333" d="M 151.5 464 L 152 469.5 L 151 469.5 L 151.5 464 Z " /><path fill="rgb(205,67,175)" stroke="rgb(205,67,175)" stroke-width="1" opacity="0.5333333333333333" d="M 232.5 464 L 233 469.5 L 232 469.5 L 232.5 464 Z " /><path fill="rgb(205,67,175)" stroke="rgb(205,67,175)" stroke-width="1" opacity="0.5333333333333333" d="M 152.5 471 L 153 474.5 L 152 474.5 L 152.5 471 Z " /><path fill="rgb(205,67,175)" stroke="rgb(205,67,175)" stroke-width="1" opacity="0.5333333333333333" d="M 231.5 471 L 232 474.5 L 231 474.5 L 231.5 471 Z " /><path fill="rgb(205,67,175)" stroke="rgb(205,67,175)" stroke-width="1" opacity="0.5333333333333333" d="M 153.5 476 L 155 483.5 L 154 483.5 L 153.5 476 Z " /><path fill="rgb(205,67,175)" stroke="rgb(205,67,175)" stroke-width="1" opacity="0.5333333333333333" d="M 230.5 476 L 231 479.5 L 229.5 484 L 229 480.5 L 230.5 476 Z " /><path fill="rgb(205,67,175)" stroke="rgb(205,67,175)" stroke-width="1" opacity="0.5333333333333333" d="M 155.5 485 L 156 487.5 L 155 487.5 L 155.5 485 Z " /><path fill="rgb(205,67,175)" stroke="rgb(205,67,175)" stroke-width="1" opacity="0.5333333333333333" d="M 228.5 485 L 229 487.5 L 228 487.5 L 228.5 485 Z " /><path fill="rgb(205,67,175)" stroke="rgb(205,67,175)" stroke-width="1" opacity="0.5333333333333333" d="M 156.5 489 L 159 500.5 L 158 500.5 L 156.5 489 Z " /><path fill="rgb(205,67,175)" stroke="rgb(205,67,175)" stroke-width="1" opacity="0.5333333333333333" d="M 227.5 489 L 228 492.5 L 225.5 501 L 225 497.5 L 227.5 489 Z " /><path fill="rgb(205,67,175)" stroke="rgb(205,67,175)" stroke-width="1" opacity="0.5333333333333333" d="M 159.5 502 L 160 504.5 L 159 504.5 L 159.5 502 Z " /><path fill="rgb(205,67,175)" stroke="rgb(205,67,175)" stroke-width="1" opacity="0.5333333333333333" d="M 224.5 502 L 225 504.5 L 224 504.5 L 224.5 502 Z " /><path fill="rgb(205,67,175)" stroke="rgb(205,67,175)" stroke-width="1" opacity="0.5333333333333333" d="M 160.5 506 L 162 511.5 L 161 511.5 L 160.5 506 Z " /><path fill="rgb(205,67,175)" stroke="rgb(205,67,175)" stroke-width="1" opacity="0.5333333333333333" d="M 223.5 506 L 224 509.5 L 222.5 512 L 222 510.5 L 223.5 506 Z " /><path fill="rgb(205,68,175)" stroke="rgb(205,68,175)" stroke-width="1" opacity="1" d="M 187.5 0 L 205.5 1 L 226.5 7 L 240.5 15 L 253 25 L 266 42.5 L 271 52.5 L 276 69.5 L 277 94.5 L 276 95.5 L 274 117.5 L 271 128 L 324.5 128 Q 326.3 130.8 332.5 129 Q 353.7 133.8 366 147.5 Q 378.5 159.5 383 179.5 L 383 188.5 L 384 189.5 L 384 230 L 410.5 225 L 432.5 224 L 452.5 228 L 470.5 236 Q 483.4 244.1 493 255.5 L 506 277.5 L 509 286.5 L 512 303.5 L 512 305.5 L 511 323.5 L 505 343.5 Q 496.5 361.5 482.5 374 L 466.5 385 L 448.5 392 L 438.5 394 L 415.5 394 L 414.5 393 L 405.5 393 L 384 389 L 384 512 L 223 512 L 233 469.5 L 234 454.5 L 235 453.5 L 235 442.5 Q 231.3 422.7 217.5 413 L 202.5 406 L 186.5 405 Q 167.5 408.5 158 421.5 L 150 437.5 L 149 454.5 L 150 455.5 L 150 463.5 L 153 479.5 L 161 512 L 0 512 L 0 187.5 Q 2.8 185.8 1 179.5 L 7 162.5 L 20.5 145 L 34.5 135 L 51.5 129 Q 57.8 130.8 59.5 128 L 113 127.5 L 108 104.5 L 107 76.5 L 108 75.5 L 109 64.5 L 113 52.5 L 122 36.5 L 132 24 L 143.5 15 L 162.5 5 L 187.5 0 Z M 191 42 L 190 43 L 179 44 L 165 52 L 153 67 L 149 81 L 151 108 L 153 113 L 155 127 L 168 170 L 63 170 L 52 174 Q 44 179 42 191 L 42 470 L 108 470 L 109 469 L 107 459 L 107 439 L 111 421 Q 117 404 127 393 Q 146 369 183 363 L 202 363 L 220 367 Q 236 372 247 383 L 250 385 L 265 404 L 273 421 L 277 439 L 277 457 L 277 459 L 275 467 L 277 470 L 342 470 L 342 333 L 389 347 L 410 351 L 418 351 L 419 352 L 435 352 Q 445 350 453 344 L 464 332 L 469 319 L 469 315 L 469 313 L 470 308 L 470 306 L 467 294 L 463 286 L 451 273 L 440 268 L 429 266 L 396 270 L 363 279 L 350 284 L 342 285 L 342 190 L 338 180 L 330 172 L 322 170 L 216 170 L 230 122 L 234 101 L 234 91 L 235 90 L 235 81 L 233 72 L 226 59 L 211 46 L 202 43 L 191 42 Z " /></svg>